ISO-10303-21;
HEADER;
/* Generated by software containing ST-Developer
 * from STEP Tools, Inc. (www.steptools.com) 
 */

FILE_DESCRIPTION(
/* description */ (''),
/* implementation_level */ '2;1');

FILE_NAME(
/* name */ 'display-clamp (1).step',
/* time_stamp */ '2026-10-05T10:24:15+03:00',
/* author */ (''),
/* organization */ (''),
/* preprocessor_version */ 'ST-DEVELOPER v20.2',
/* originating_system */ 'Autodesk Translation Framework v15.15.0.0',
/* authorisation */ '');

FILE_SCHEMA (('AUTOMOTIVE_DESIGN { 1 0 10303 214 3 1 1 }'));
ENDSEC;

DATA;
#10=MECHANICAL_DESIGN_GEOMETRIC_PRESENTATION_REPRESENTATION('',(#13),#406);
#11=SHAPE_REPRESENTATION_RELATIONSHIP('SRR','None',#413,#12);
#12=ADVANCED_BREP_SHAPE_REPRESENTATION('',(#14),#405);
#13=STYLED_ITEM('',(#423),#14);
#14=MANIFOLD_SOLID_BREP('Body1',#240);
#15=FACE_BOUND('',#43,.T.);
#16=FACE_BOUND('',#49,.T.);
#17=PLANE('',#257);
#18=PLANE('',#258);
#19=PLANE('',#263);
#20=PLANE('',#266);
#21=PLANE('',#267);
#22=PLANE('',#268);
#23=PLANE('',#269);
#24=PLANE('',#270);
#25=PLANE('',#271);
#26=PLANE('',#272);
#27=FACE_OUTER_BOUND('',#40,.T.);
#28=FACE_OUTER_BOUND('',#41,.T.);
#29=FACE_OUTER_BOUND('',#42,.T.);
#30=FACE_OUTER_BOUND('',#44,.T.);
#31=FACE_OUTER_BOUND('',#45,.T.);
#32=FACE_OUTER_BOUND('',#46,.T.);
#33=FACE_OUTER_BOUND('',#47,.T.);
#34=FACE_OUTER_BOUND('',#48,.T.);
#35=FACE_OUTER_BOUND('',#50,.T.);
#36=FACE_OUTER_BOUND('',#51,.T.);
#37=FACE_OUTER_BOUND('',#52,.T.);
#38=FACE_OUTER_BOUND('',#53,.T.);
#39=FACE_OUTER_BOUND('',#54,.T.);
#40=EDGE_LOOP('',(#162,#163,#164,#165));
#41=EDGE_LOOP('',(#166,#167,#168,#169));
#42=EDGE_LOOP('',(#170,#171,#172,#173,#174,#175));
#43=EDGE_LOOP('',(#176));
#44=EDGE_LOOP('',(#177,#178,#179,#180));
#45=EDGE_LOOP('',(#181,#182,#183,#184));
#46=EDGE_LOOP('',(#185,#186,#187,#188));
#47=EDGE_LOOP('',(#189,#190,#191,#192));
#48=EDGE_LOOP('',(#193,#194,#195,#196,#197,#198,#199,#200));
#49=EDGE_LOOP('',(#201));
#50=EDGE_LOOP('',(#202,#203,#204,#205));
#51=EDGE_LOOP('',(#206,#207,#208,#209,#210));
#52=EDGE_LOOP('',(#211,#212,#213,#214));
#53=EDGE_LOOP('',(#215,#216,#217,#218,#219));
#54=EDGE_LOOP('',(#220,#221,#222,#223));
#55=LINE('',#344,#80);
#56=LINE('',#347,#81);
#57=LINE('',#350,#82);
#58=LINE('',#352,#83);
#59=LINE('',#353,#84);
#60=LINE('',#356,#85);
#61=LINE('',#360,#86);
#62=LINE('',#361,#87);
#63=LINE('',#368,#88);
#64=LINE('',#369,#89);
#65=LINE('',#372,#90);
#66=LINE('',#373,#91);
#67=LINE('',#377,#92);
#68=LINE('',#379,#93);
#69=LINE('',#382,#94);
#70=LINE('',#384,#95);
#71=LINE('',#385,#96);
#72=LINE('',#388,#97);
#73=LINE('',#390,#98);
#74=LINE('',#391,#99);
#75=LINE('',#394,#100);
#76=LINE('',#395,#101);
#77=LINE('',#398,#102);
#78=LINE('',#399,#103);
#79=LINE('',#401,#104);
#80=VECTOR('',#279,10.);
#81=VECTOR('',#282,10.);
#82=VECTOR('',#285,10.);
#83=VECTOR('',#286,10.);
#84=VECTOR('',#287,10.);
#85=VECTOR('',#290,10.);
#86=VECTOR('',#293,10.);
#87=VECTOR('',#294,10.);
#88=VECTOR('',#301,10.);
#89=VECTOR('',#302,10.);
#90=VECTOR('',#305,10.);
#91=VECTOR('',#306,10.);
#92=VECTOR('',#311,1.45);
#93=VECTOR('',#314,10.);
#94=VECTOR('',#317,10.);
#95=VECTOR('',#318,10.);
#96=VECTOR('',#319,10.);
#97=VECTOR('',#322,10.);
#98=VECTOR('',#323,10.);
#99=VECTOR('',#324,10.);
#100=VECTOR('',#327,10.);
#101=VECTOR('',#328,10.);
#102=VECTOR('',#331,10.);
#103=VECTOR('',#332,10.);
#104=VECTOR('',#335,10.);
#105=CIRCLE('',#255,4.);
#106=CIRCLE('',#256,4.);
#107=CIRCLE('',#259,4.);
#108=CIRCLE('',#260,1.45);
#109=CIRCLE('',#262,4.);
#110=CIRCLE('',#265,1.45);
#111=VERTEX_POINT('',#340);
#112=VERTEX_POINT('',#341);
#113=VERTEX_POINT('',#343);
#114=VERTEX_POINT('',#345);
#115=VERTEX_POINT('',#349);
#116=VERTEX_POINT('',#351);
#117=VERTEX_POINT('',#355);
#118=VERTEX_POINT('',#357);
#119=VERTEX_POINT('',#359);
#120=VERTEX_POINT('',#362);
#121=VERTEX_POINT('',#365);
#122=VERTEX_POINT('',#366);
#123=VERTEX_POINT('',#371);
#124=VERTEX_POINT('',#375);
#125=VERTEX_POINT('',#381);
#126=VERTEX_POINT('',#383);
#127=VERTEX_POINT('',#387);
#128=VERTEX_POINT('',#389);
#129=VERTEX_POINT('',#393);
#130=VERTEX_POINT('',#397);
#131=EDGE_CURVE('',#111,#112,#105,.T.);
#132=EDGE_CURVE('',#112,#113,#55,.T.);
#133=EDGE_CURVE('',#113,#114,#106,.T.);
#134=EDGE_CURVE('',#114,#111,#56,.T.);
#135=EDGE_CURVE('',#115,#114,#57,.T.);
#136=EDGE_CURVE('',#115,#116,#58,.T.);
#137=EDGE_CURVE('',#111,#116,#59,.T.);
#138=EDGE_CURVE('',#113,#117,#60,.T.);
#139=EDGE_CURVE('',#118,#117,#107,.T.);
#140=EDGE_CURVE('',#118,#119,#61,.T.);
#141=EDGE_CURVE('',#115,#119,#62,.F.);
#142=EDGE_CURVE('',#120,#120,#108,.T.);
#143=EDGE_CURVE('',#121,#122,#109,.T.);
#144=EDGE_CURVE('',#122,#118,#63,.T.);
#145=EDGE_CURVE('',#117,#121,#64,.T.);
#146=EDGE_CURVE('',#123,#122,#65,.T.);
#147=EDGE_CURVE('',#119,#123,#66,.T.);
#148=EDGE_CURVE('',#124,#124,#110,.T.);
#149=EDGE_CURVE('',#124,#120,#67,.T.);
#150=EDGE_CURVE('',#121,#112,#68,.T.);
#151=EDGE_CURVE('',#116,#125,#69,.T.);
#152=EDGE_CURVE('',#125,#126,#70,.T.);
#153=EDGE_CURVE('',#126,#123,#71,.T.);
#154=EDGE_CURVE('',#127,#125,#72,.T.);
#155=EDGE_CURVE('',#127,#128,#73,.T.);
#156=EDGE_CURVE('',#128,#126,#74,.T.);
#157=EDGE_CURVE('',#129,#115,#75,.T.);
#158=EDGE_CURVE('',#129,#127,#76,.T.);
#159=EDGE_CURVE('',#130,#119,#77,.T.);
#160=EDGE_CURVE('',#130,#129,#78,.T.);
#161=EDGE_CURVE('',#128,#130,#79,.T.);
#162=ORIENTED_EDGE('',*,*,#131,.T.);
#163=ORIENTED_EDGE('',*,*,#132,.T.);
#164=ORIENTED_EDGE('',*,*,#133,.T.);
#165=ORIENTED_EDGE('',*,*,#134,.T.);
#166=ORIENTED_EDGE('',*,*,#134,.F.);
#167=ORIENTED_EDGE('',*,*,#135,.F.);
#168=ORIENTED_EDGE('',*,*,#136,.T.);
#169=ORIENTED_EDGE('',*,*,#137,.F.);
#170=ORIENTED_EDGE('',*,*,#133,.F.);
#171=ORIENTED_EDGE('',*,*,#138,.T.);
#172=ORIENTED_EDGE('',*,*,#139,.F.);
#173=ORIENTED_EDGE('',*,*,#140,.T.);
#174=ORIENTED_EDGE('',*,*,#141,.F.);
#175=ORIENTED_EDGE('',*,*,#135,.T.);
#176=ORIENTED_EDGE('',*,*,#142,.T.);
#177=ORIENTED_EDGE('',*,*,#143,.T.);
#178=ORIENTED_EDGE('',*,*,#144,.T.);
#179=ORIENTED_EDGE('',*,*,#139,.T.);
#180=ORIENTED_EDGE('',*,*,#145,.T.);
#181=ORIENTED_EDGE('',*,*,#144,.F.);
#182=ORIENTED_EDGE('',*,*,#146,.F.);
#183=ORIENTED_EDGE('',*,*,#147,.F.);
#184=ORIENTED_EDGE('',*,*,#140,.F.);
#185=ORIENTED_EDGE('',*,*,#148,.F.);
#186=ORIENTED_EDGE('',*,*,#149,.T.);
#187=ORIENTED_EDGE('',*,*,#142,.F.);
#188=ORIENTED_EDGE('',*,*,#149,.F.);
#189=ORIENTED_EDGE('',*,*,#132,.F.);
#190=ORIENTED_EDGE('',*,*,#150,.F.);
#191=ORIENTED_EDGE('',*,*,#145,.F.);
#192=ORIENTED_EDGE('',*,*,#138,.F.);
#193=ORIENTED_EDGE('',*,*,#131,.F.);
#194=ORIENTED_EDGE('',*,*,#137,.T.);
#195=ORIENTED_EDGE('',*,*,#151,.T.);
#196=ORIENTED_EDGE('',*,*,#152,.T.);
#197=ORIENTED_EDGE('',*,*,#153,.T.);
#198=ORIENTED_EDGE('',*,*,#146,.T.);
#199=ORIENTED_EDGE('',*,*,#143,.F.);
#200=ORIENTED_EDGE('',*,*,#150,.T.);
#201=ORIENTED_EDGE('',*,*,#148,.T.);
#202=ORIENTED_EDGE('',*,*,#154,.F.);
#203=ORIENTED_EDGE('',*,*,#155,.T.);
#204=ORIENTED_EDGE('',*,*,#156,.T.);
#205=ORIENTED_EDGE('',*,*,#152,.F.);
#206=ORIENTED_EDGE('',*,*,#157,.F.);
#207=ORIENTED_EDGE('',*,*,#158,.T.);
#208=ORIENTED_EDGE('',*,*,#154,.T.);
#209=ORIENTED_EDGE('',*,*,#151,.F.);
#210=ORIENTED_EDGE('',*,*,#136,.F.);
#211=ORIENTED_EDGE('',*,*,#141,.T.);
#212=ORIENTED_EDGE('',*,*,#159,.F.);
#213=ORIENTED_EDGE('',*,*,#160,.T.);
#214=ORIENTED_EDGE('',*,*,#157,.T.);
#215=ORIENTED_EDGE('',*,*,#156,.F.);
#216=ORIENTED_EDGE('',*,*,#161,.T.);
#217=ORIENTED_EDGE('',*,*,#159,.T.);
#218=ORIENTED_EDGE('',*,*,#147,.T.);
#219=ORIENTED_EDGE('',*,*,#153,.F.);
#220=ORIENTED_EDGE('',*,*,#158,.F.);
#221=ORIENTED_EDGE('',*,*,#160,.F.);
#222=ORIENTED_EDGE('',*,*,#161,.F.);
#223=ORIENTED_EDGE('',*,*,#155,.F.);
#224=CYLINDRICAL_SURFACE('',#254,4.);
#225=CYLINDRICAL_SURFACE('',#261,4.);
#226=CYLINDRICAL_SURFACE('',#264,1.45);
#227=ADVANCED_FACE('',(#27),#224,.T.);
#228=ADVANCED_FACE('',(#28),#17,.T.);
#229=ADVANCED_FACE('',(#29,#15),#18,.F.);
#230=ADVANCED_FACE('',(#30),#225,.T.);
#231=ADVANCED_FACE('',(#31),#19,.T.);
#232=ADVANCED_FACE('',(#32),#226,.F.);
#233=ADVANCED_FACE('',(#33),#20,.T.);
#234=ADVANCED_FACE('',(#34,#16),#21,.T.);
#235=ADVANCED_FACE('',(#35),#22,.T.);
#236=ADVANCED_FACE('',(#36),#23,.T.);
#237=ADVANCED_FACE('',(#37),#24,.T.);
#238=ADVANCED_FACE('',(#38),#25,.T.);
#239=ADVANCED_FACE('',(#39),#26,.F.);
#240=CLOSED_SHELL('',(#227,#228,#229,#230,#231,#232,#233,#234,#235,#236,
#237,#238,#239));
#241=DERIVED_UNIT_ELEMENT(#243,1.);
#242=DERIVED_UNIT_ELEMENT(#408,-3.);
#243=(
MASS_UNIT()
NAMED_UNIT(*)
SI_UNIT(.KILO.,.GRAM.)
);
#244=DERIVED_UNIT((#241,#242));
#245=MEASURE_REPRESENTATION_ITEM('density measure',
POSITIVE_RATIO_MEASURE(7850.),#244);
#246=PROPERTY_DEFINITION_REPRESENTATION(#251,#248);
#247=PROPERTY_DEFINITION_REPRESENTATION(#252,#249);
#248=REPRESENTATION('material name',(#250),#405);
#249=REPRESENTATION('density',(#245),#405);
#250=DESCRIPTIVE_REPRESENTATION_ITEM('Steel','Steel');
#251=PROPERTY_DEFINITION('material property','material name',#415);
#252=PROPERTY_DEFINITION('material property','density of part',#415);
#253=AXIS2_PLACEMENT_3D('',#338,#273,#274);
#254=AXIS2_PLACEMENT_3D('',#339,#275,#276);
#255=AXIS2_PLACEMENT_3D('',#342,#277,#278);
#256=AXIS2_PLACEMENT_3D('',#346,#280,#281);
#257=AXIS2_PLACEMENT_3D('',#348,#283,#284);
#258=AXIS2_PLACEMENT_3D('',#354,#288,#289);
#259=AXIS2_PLACEMENT_3D('',#358,#291,#292);
#260=AXIS2_PLACEMENT_3D('',#363,#295,#296);
#261=AXIS2_PLACEMENT_3D('',#364,#297,#298);
#262=AXIS2_PLACEMENT_3D('',#367,#299,#300);
#263=AXIS2_PLACEMENT_3D('',#370,#303,#304);
#264=AXIS2_PLACEMENT_3D('',#374,#307,#308);
#265=AXIS2_PLACEMENT_3D('',#376,#309,#310);
#266=AXIS2_PLACEMENT_3D('',#378,#312,#313);
#267=AXIS2_PLACEMENT_3D('',#380,#315,#316);
#268=AXIS2_PLACEMENT_3D('',#386,#320,#321);
#269=AXIS2_PLACEMENT_3D('',#392,#325,#326);
#270=AXIS2_PLACEMENT_3D('',#396,#329,#330);
#271=AXIS2_PLACEMENT_3D('',#400,#333,#334);
#272=AXIS2_PLACEMENT_3D('',#402,#336,#337);
#273=DIRECTION('axis',(0.,0.,1.));
#274=DIRECTION('refdir',(1.,0.,0.));
#275=DIRECTION('center_axis',(0.,0.994521895368273,-0.104528463267654));
#276=DIRECTION('ref_axis',(-0.924404194282121,0.0398686530246152,0.379324895175133));
#277=DIRECTION('center_axis',(0.,-0.994521895368273,0.104528463267654));
#278=DIRECTION('ref_axis',(-0.924404194282121,0.0398686530246152,0.379324895175133));
#279=DIRECTION('',(-4.03896783473158E-28,-0.994521895368273,0.104528463267654));
#280=DIRECTION('center_axis',(0.,0.994521895368273,-0.104528463267654));
#281=DIRECTION('ref_axis',(-0.924404194282121,0.0398686530246152,0.379324895175133));
#282=DIRECTION('',(9.83999310955518E-18,0.994521895368273,-0.104528463267654));
#283=DIRECTION('center_axis',(-0.709046228824335,0.0737095001514493,0.701299048179457));
#284=DIRECTION('ref_axis',(0.705161999394457,0.0741155126847328,0.705161999394104));
#285=DIRECTION('',(-0.705161999394457,-0.0741155126847328,-0.705161999394104));
#286=DIRECTION('',(0.,0.994521895368273,-0.104528463267654));
#287=DIRECTION('',(0.705161999394457,0.0741155126847328,0.705161999394105));
#288=DIRECTION('center_axis',(0.,0.994521895368273,-0.104528463267654));
#289=DIRECTION('ref_axis',(0.,0.104528463267654,0.994521895368273));
#290=DIRECTION('',(-1.64266507260164E-11,-0.104528463267654,-0.994521895368273));
#291=DIRECTION('center_axis',(0.,0.994521895368273,-0.104528463267654));
#292=DIRECTION('ref_axis',(-0.92440419428918,-0.0398686530228262,-0.379324895158118));
#293=DIRECTION('',(0.705161999391502,-0.07411551268504,-0.705161999397027));
#294=DIRECTION('',(4.37020983681398E-12,0.104528463267654,0.994521895368273));
#295=DIRECTION('center_axis',(0.,0.994521895368273,-0.104528463267654));
#296=DIRECTION('ref_axis',(-1.,0.,0.));
#297=DIRECTION('center_axis',(0.,0.994521895368273,-0.104528463267655));
#298=DIRECTION('ref_axis',(-0.92440419428918,-0.0398686530228262,-0.379324895158118));
#299=DIRECTION('center_axis',(0.,-0.994521895368273,0.104528463267654));
#300=DIRECTION('ref_axis',(-0.92440419428918,-0.0398686530228262,-0.379324895158118));
#301=DIRECTION('',(-9.83999310959596E-18,-0.994521895368273,0.104528463267654));
#302=DIRECTION('',(-2.01948391736579E-28,0.994521895368273,-0.104528463267655));
#303=DIRECTION('center_axis',(-0.709046228827274,-0.0737095001511405,-0.701299048176518));
#304=DIRECTION('ref_axis',(-0.705161999391502,0.07411551268504,0.705161999397027));
#305=DIRECTION('',(-0.705161999391502,0.07411551268504,0.705161999397027));
#306=DIRECTION('',(0.,0.994521895368273,-0.104528463267654));
#307=DIRECTION('center_axis',(0.,0.994521895368273,-0.104528463267655));
#308=DIRECTION('ref_axis',(-1.,0.,0.));
#309=DIRECTION('center_axis',(0.,-0.994521895368273,0.104528463267654));
#310=DIRECTION('ref_axis',(-1.,0.,0.));
#311=DIRECTION('',(0.,-0.994521895368273,0.104528463267655));
#312=DIRECTION('center_axis',(-1.,1.717052557025E-12,1.63366638145905E-11));
#313=DIRECTION('ref_axis',(1.64266507260164E-11,0.104528463267654,0.994521895368273));
#314=DIRECTION('',(1.64266507260164E-11,0.104528463267654,0.994521895368273));
#315=DIRECTION('center_axis',(0.,0.994521895368273,-0.104528463267654));
#316=DIRECTION('ref_axis',(0.,0.104528463267654,0.994521895368273));
#317=DIRECTION('',(1.,2.31480880468718E-13,2.20239346096372E-12));
#318=DIRECTION('',(-2.98108036412941E-12,-0.104528463267654,-0.994521895368273));
#319=DIRECTION('',(-1.,-1.10788977546711E-13,-1.05408670989009E-12));
#320=DIRECTION('center_axis',(1.,-3.11607749339822E-13,-2.96474969397912E-12));
#321=DIRECTION('ref_axis',(-2.98108036412941E-12,-0.104528463267653,-0.994521895368273));
#322=DIRECTION('',(0.,0.994521895368273,-0.104528463267653));
#323=DIRECTION('',(-2.98108036412941E-12,-0.104528463267653,-0.994521895368273));
#324=DIRECTION('',(0.,0.994521895368273,-0.104528463267653));
#325=DIRECTION('center_axis',(-2.21452485985556E-12,0.104528463267653,0.994521895368273));
#326=DIRECTION('ref_axis',(1.,2.31480880468718E-13,2.20239346096372E-12));
#327=DIRECTION('',(0.,0.994521895368273,-0.104528463267653));
#328=DIRECTION('',(1.,2.31480880468718E-13,2.20239346096372E-12));
#329=DIRECTION('center_axis',(-1.,4.56811318399345E-13,4.34626937006531E-12));
#330=DIRECTION('ref_axis',(4.37020983681397E-12,0.104528463267653,0.994521895368273));
#331=DIRECTION('',(0.,0.994521895368273,-0.104528463267653));
#332=DIRECTION('',(4.37020983681397E-12,0.104528463267653,0.994521895368273));
#333=DIRECTION('center_axis',(1.05989291417235E-12,-0.104528463267653,-0.994521895368273));
#334=DIRECTION('ref_axis',(-1.,-1.10954730737195E-13,-1.05406928852776E-12));
#335=DIRECTION('',(-1.,-1.10954730737195E-13,-1.05406928852776E-12));
#336=DIRECTION('center_axis',(-1.66666205396266E-16,0.994521895368273,-0.104528463267653));
#337=DIRECTION('ref_axis',(-1.,-1.65753190484533E-16,1.74213623287228E-17));
#338=CARTESIAN_POINT('',(0.,0.,0.));
#339=CARTESIAN_POINT('Origin',(44.7000000001851,-60.2787606779637,60.9231531243499));
#340=CARTESIAN_POINT('',(41.8638150848877,-57.9948788866213,63.5192923905324));
#341=CARTESIAN_POINT('',(40.7000000001851,-58.2897168872203,60.7140961978799));
#342=CARTESIAN_POINT('Origin',(44.7000000001851,-58.2897168872271,60.7140961978146));
#343=CARTESIAN_POINT('',(40.7000000001851,-60.2787606779568,60.9231531244153));
#344=CARTESIAN_POINT('',(40.7000000001851,-60.2787606779568,60.9231531244153));
#345=CARTESIAN_POINT('',(41.8638150848877,-59.9839226773579,63.7283493170677));
#346=CARTESIAN_POINT('Origin',(44.7000000001851,-60.2787606779637,60.9231531243499));
#347=CARTESIAN_POINT('',(41.8638150848877,-59.9839226773579,63.7283493170677));
#348=CARTESIAN_POINT('Origin',(40.7000000002122,-60.1062445718233,62.5645342323928));
#349=CARTESIAN_POINT('',(46.6499999999755,-59.4808743720177,68.5145342321532));
#350=CARTESIAN_POINT('',(50.6980574748781,-59.0554063868068,72.5625917070537));
#351=CARTESIAN_POINT('',(46.6499999999755,-57.4918305812812,68.3054773056178));
#352=CARTESIAN_POINT('',(46.6499999999755,-59.4808743720177,68.5145342321531));
#353=CARTESIAN_POINT('',(50.6980574748781,-57.0663625960702,72.3535347805184));
#354=CARTESIAN_POINT('Origin',(84.4999999999729,-60.4791211962246,59.0168501313782));
#355=CARTESIAN_POINT('',(40.7000000001221,-60.6794817144815,57.1105471384455));
#356=CARTESIAN_POINT('',(40.7000000001243,-60.6655595083857,57.2430080812475));
#357=CARTESIAN_POINT('',(41.863815084813,-60.9743197150929,54.305350945674));
#358=CARTESIAN_POINT('Origin',(44.7000000001221,-60.6794817144884,57.1105471383801));
#359=CARTESIAN_POINT('',(46.6499999998921,-61.4773680204364,49.5191660305575));
#360=CARTESIAN_POINT('',(53.6730574746068,-62.215521105549,42.4961085557877));
#361=CARTESIAN_POINT('',(46.6499999999129,-60.9782446083219,54.2680080810501));
#362=CARTESIAN_POINT('',(45.0250000000423,-60.4791211962238,59.0168501313863));
#363=CARTESIAN_POINT('Origin',(43.5750000000423,-60.4791211962238,59.0168501313863));
#364=CARTESIAN_POINT('Origin',(44.7000000001221,-60.6794817144884,57.1105471383801));
#365=CARTESIAN_POINT('',(40.7000000001221,-58.690437923745,56.9014902119101));
#366=CARTESIAN_POINT('',(41.863815084813,-58.9852759243564,54.0962940191387));
#367=CARTESIAN_POINT('Origin',(44.7000000001221,-58.6904379237518,56.9014902118448));
#368=CARTESIAN_POINT('',(41.863815084813,-60.9743197150929,54.305350945674));
#369=CARTESIAN_POINT('',(40.7000000001221,-60.6794817144815,57.1105471384455));
#370=CARTESIAN_POINT('Origin',(46.6499999998921,-61.4773680204364,49.5191660305575));
#371=CARTESIAN_POINT('',(46.6499999998921,-59.4883242296998,49.3101091040222));
#372=CARTESIAN_POINT('',(53.6730574746068,-60.2264773148124,42.2870516292524));
#373=CARTESIAN_POINT('',(46.6499999998921,-61.4773680204364,49.5191660305575));
#374=CARTESIAN_POINT('Origin',(43.5750000000423,-60.4791211962238,59.0168501313863));
#375=CARTESIAN_POINT('',(45.0250000000423,-58.4900774054872,58.807793204851));
#376=CARTESIAN_POINT('Origin',(43.5750000000423,-58.4900774054872,58.807793204851));
#377=CARTESIAN_POINT('',(45.0250000000423,-60.4791211962238,59.0168501313863));
#378=CARTESIAN_POINT('Origin',(40.700000000095,-60.851997820622,55.4691660304012));
#379=CARTESIAN_POINT('',(40.7000000001243,-58.6765157176492,57.0339511547122));
#380=CARTESIAN_POINT('Origin',(84.4999999999729,-58.4900774054881,58.8077932048429));
#381=CARTESIAN_POINT('',(49.6499999999619,-57.4918305812805,68.3054773056244));
#382=CARTESIAN_POINT('',(65.5749999999637,-57.4918305812768,68.3054773056595));
#383=CARTESIAN_POINT('',(49.649999999905,-59.4883242296995,49.3101091040253));
#384=CARTESIAN_POINT('',(49.6499999999477,-57.9909539933789,63.5566352552853));
#385=CARTESIAN_POINT('',(67.074999999942,-59.4883242296976,49.3101091040437));
#386=CARTESIAN_POINT('Origin',(49.6499999999619,-64.4204175564574,69.0337011411222));
#387=CARTESIAN_POINT('',(49.6499999999619,-64.4204175564574,69.0337011411221));
#388=CARTESIAN_POINT('',(49.6499999999619,-64.4204175564574,69.0337011411221));
#389=CARTESIAN_POINT('',(49.649999999905,-66.4169112048764,50.038332939523));
#390=CARTESIAN_POINT('',(49.6499999999649,-64.3158890931904,70.028223036484));
#391=CARTESIAN_POINT('',(49.649999999905,-66.4169112048764,50.038332939523));
#392=CARTESIAN_POINT('Origin',(46.6499999999755,-64.4204175564581,69.0337011411155));
#393=CARTESIAN_POINT('',(46.6499999999755,-64.4204175564581,69.0337011411155));
#394=CARTESIAN_POINT('',(46.6499999999755,-64.4204175564581,69.0337011411155));
#395=CARTESIAN_POINT('',(46.6499999999755,-64.4204175564581,69.0337011411155));
#396=CARTESIAN_POINT('Origin',(46.6499999998921,-66.4169112048767,50.0383329395199));
#397=CARTESIAN_POINT('',(46.6499999998921,-66.4169112048767,50.0383329395199));
#398=CARTESIAN_POINT('',(46.6499999998921,-66.4169112048767,50.0383329395199));
#399=CARTESIAN_POINT('',(46.6499999998921,-66.4169112048767,50.0383329395199));
#400=CARTESIAN_POINT('Origin',(49.6499999999009,-66.4169112048764,50.038332939523));
#401=CARTESIAN_POINT('',(49.6499999999009,-66.4169112048764,50.038332939523));
#402=CARTESIAN_POINT('Origin',(48.149999999927,-65.4186643806671,59.536017040321));
#403=UNCERTAINTY_MEASURE_WITH_UNIT(LENGTH_MEASURE(0.01),#407,
'DISTANCE_ACCURACY_VALUE',
'Maximum model space distance between geometric entities at asserted c
onnectivities');
#404=UNCERTAINTY_MEASURE_WITH_UNIT(LENGTH_MEASURE(0.01),#407,
'DISTANCE_ACCURACY_VALUE',
'Maximum model space distance between geometric entities at asserted c
onnectivities');
#405=(
GEOMETRIC_REPRESENTATION_CONTEXT(3)
GLOBAL_UNCERTAINTY_ASSIGNED_CONTEXT((#403))
GLOBAL_UNIT_ASSIGNED_CONTEXT((#407,#409,#410))
REPRESENTATION_CONTEXT('','3D')
);
#406=(
GEOMETRIC_REPRESENTATION_CONTEXT(3)
GLOBAL_UNCERTAINTY_ASSIGNED_CONTEXT((#404))
GLOBAL_UNIT_ASSIGNED_CONTEXT((#407,#409,#410))
REPRESENTATION_CONTEXT('','3D')
);
#407=(
LENGTH_UNIT()
NAMED_UNIT(*)
SI_UNIT(.MILLI.,.METRE.)
);
#408=(
LENGTH_UNIT()
NAMED_UNIT(*)
SI_UNIT($,.METRE.)
);
#409=(
NAMED_UNIT(*)
PLANE_ANGLE_UNIT()
SI_UNIT($,.RADIAN.)
);
#410=(
NAMED_UNIT(*)
SI_UNIT($,.STERADIAN.)
SOLID_ANGLE_UNIT()
);
#411=SHAPE_DEFINITION_REPRESENTATION(#412,#413);
#412=PRODUCT_DEFINITION_SHAPE('',$,#415);
#413=SHAPE_REPRESENTATION('',(#253),#405);
#414=PRODUCT_DEFINITION_CONTEXT('part definition',#419,'design');
#415=PRODUCT_DEFINITION('display-clamp (1)','display-clamp (1)',#416,#414);
#416=PRODUCT_DEFINITION_FORMATION('',$,#421);
#417=PRODUCT_RELATED_PRODUCT_CATEGORY('display-clamp (1)',
'display-clamp (1)',(#421));
#418=APPLICATION_PROTOCOL_DEFINITION('international standard',
'automotive_design',2009,#419);
#419=APPLICATION_CONTEXT(
'Core Data for Automotive Mechanical Design Process');
#420=PRODUCT_CONTEXT('part definition',#419,'mechanical');
#421=PRODUCT('display-clamp (1)','display-clamp (1)',$,(#420));
#422=PRESENTATION_STYLE_ASSIGNMENT((#424));
#423=PRESENTATION_STYLE_ASSIGNMENT((#425));
#424=SURFACE_STYLE_USAGE(.BOTH.,#426);
#425=SURFACE_STYLE_USAGE(.BOTH.,#427);
#426=SURFACE_SIDE_STYLE('',(#428));
#427=SURFACE_SIDE_STYLE('',(#429));
#428=SURFACE_STYLE_FILL_AREA(#430);
#429=SURFACE_STYLE_FILL_AREA(#431);
#430=FILL_AREA_STYLE('Steel - Satin',(#432));
#431=FILL_AREA_STYLE('Aluminum - Anodized Rough (Blue)',(#433));
#432=FILL_AREA_STYLE_COLOUR('Steel - Satin',#434);
#433=FILL_AREA_STYLE_COLOUR('Aluminum - Anodized Rough (Blue)',#435);
#434=COLOUR_RGB('Steel - Satin',0.627450980392157,0.627450980392157,0.627450980392157);
#435=COLOUR_RGB('Aluminum - Anodized Rough (Blue)',0.349019607843137,0.584313725490196,
0.854901960784314);
ENDSEC;
END-ISO-10303-21;
