ISO-10303-21;
HEADER;
/* Generated by software containing ST-Developer
 * from STEP Tools, Inc. (www.steptools.com) 
 */

FILE_DESCRIPTION(
/* description */ (''),
/* implementation_level */ '2;1');

FILE_NAME(
/* name */ 'thumb-screw-x1.step',
/* time_stamp */ '2026-09-30T23:19:18+03:00',
/* author */ (''),
/* organization */ (''),
/* preprocessor_version */ 'ST-DEVELOPER v20.1',
/* originating_system */ 'Autodesk Translation Framework v15.8.0.0',
/* authorisation */ '');

FILE_SCHEMA (('AUTOMOTIVE_DESIGN { 1 0 10303 214 3 1 1 }'));
ENDSEC;

DATA;
#10=MECHANICAL_DESIGN_GEOMETRIC_PRESENTATION_REPRESENTATION('',(#13),#1104);
#11=SHAPE_REPRESENTATION_RELATIONSHIP('SRR','None',#1111,#12);
#12=ADVANCED_BREP_SHAPE_REPRESENTATION('',(#14),#1103);
#13=STYLED_ITEM('',(#1120),#14);
#14=MANIFOLD_SOLID_BREP('thumb-screw-x1',#648);
#15=FACE_BOUND('',#234,.T.);
#16=CYLINDRICAL_SURFACE('',#689,2.79999999999999);
#17=CYLINDRICAL_SURFACE('',#693,6.);
#18=CYLINDRICAL_SURFACE('',#697,6.);
#19=CYLINDRICAL_SURFACE('',#701,6.);
#20=CYLINDRICAL_SURFACE('',#705,6.);
#21=CYLINDRICAL_SURFACE('',#709,6.);
#22=CYLINDRICAL_SURFACE('',#713,6.);
#23=LINE('',#903,#84);
#24=LINE('',#905,#85);
#25=LINE('',#907,#86);
#26=LINE('',#908,#87);
#27=LINE('',#911,#88);
#28=LINE('',#913,#89);
#29=LINE('',#915,#90);
#30=LINE('',#919,#91);
#31=LINE('',#921,#92);
#32=LINE('',#923,#93);
#33=LINE('',#927,#94);
#34=LINE('',#929,#95);
#35=LINE('',#931,#96);
#36=LINE('',#935,#97);
#37=LINE('',#937,#98);
#38=LINE('',#939,#99);
#39=LINE('',#943,#100);
#40=LINE('',#945,#101);
#41=LINE('',#947,#102);
#42=LINE('',#951,#103);
#43=LINE('',#952,#104);
#44=LINE('',#965,#105);
#45=LINE('',#967,#106);
#46=LINE('',#968,#107);
#47=LINE('',#981,#108);
#48=LINE('',#983,#109);
#49=LINE('',#984,#110);
#50=LINE('',#997,#111);
#51=LINE('',#999,#112);
#52=LINE('',#1000,#113);
#53=LINE('',#1013,#114);
#54=LINE('',#1015,#115);
#55=LINE('',#1016,#116);
#56=LINE('',#1029,#117);
#57=LINE('',#1031,#118);
#58=LINE('',#1032,#119);
#59=LINE('',#1039,#120);
#60=LINE('',#1042,#121);
#61=LINE('',#1044,#122);
#62=LINE('',#1045,#123);
#63=LINE('',#1047,#124);
#64=LINE('',#1051,#125);
#65=LINE('',#1054,#126);
#66=LINE('',#1055,#127);
#67=LINE('',#1057,#128);
#68=LINE('',#1061,#129);
#69=LINE('',#1064,#130);
#70=LINE('',#1065,#131);
#71=LINE('',#1067,#132);
#72=LINE('',#1071,#133);
#73=LINE('',#1074,#134);
#74=LINE('',#1075,#135);
#75=LINE('',#1077,#136);
#76=LINE('',#1081,#137);
#77=LINE('',#1084,#138);
#78=LINE('',#1085,#139);
#79=LINE('',#1087,#140);
#80=LINE('',#1091,#141);
#81=LINE('',#1094,#142);
#82=LINE('',#1095,#143);
#83=LINE('',#1097,#144);
#84=VECTOR('',#726,10.);
#85=VECTOR('',#727,10.);
#86=VECTOR('',#728,10.);
#87=VECTOR('',#729,10.);
#88=VECTOR('',#732,10.);
#89=VECTOR('',#733,10.);
#90=VECTOR('',#734,10.);
#91=VECTOR('',#737,10.);
#92=VECTOR('',#738,10.);
#93=VECTOR('',#739,10.);
#94=VECTOR('',#742,10.);
#95=VECTOR('',#743,10.);
#96=VECTOR('',#744,10.);
#97=VECTOR('',#747,10.);
#98=VECTOR('',#748,10.);
#99=VECTOR('',#749,10.);
#100=VECTOR('',#752,10.);
#101=VECTOR('',#753,10.);
#102=VECTOR('',#754,10.);
#103=VECTOR('',#757,10.);
#104=VECTOR('',#758,10.);
#105=VECTOR('',#765,10.);
#106=VECTOR('',#766,10.);
#107=VECTOR('',#767,10.);
#108=VECTOR('',#774,10.);
#109=VECTOR('',#775,10.);
#110=VECTOR('',#776,10.);
#111=VECTOR('',#783,10.);
#112=VECTOR('',#784,10.);
#113=VECTOR('',#785,10.);
#114=VECTOR('',#792,10.);
#115=VECTOR('',#793,10.);
#116=VECTOR('',#794,10.);
#117=VECTOR('',#801,10.);
#118=VECTOR('',#802,10.);
#119=VECTOR('',#803,10.);
#120=VECTOR('',#812,2.79999999999999);
#121=VECTOR('',#815,10.);
#122=VECTOR('',#816,10.);
#123=VECTOR('',#817,10.);
#124=VECTOR('',#820,10.);
#125=VECTOR('',#825,10.);
#126=VECTOR('',#828,10.);
#127=VECTOR('',#829,10.);
#128=VECTOR('',#832,10.);
#129=VECTOR('',#837,10.);
#130=VECTOR('',#840,10.);
#131=VECTOR('',#841,10.);
#132=VECTOR('',#844,10.);
#133=VECTOR('',#849,10.);
#134=VECTOR('',#852,10.);
#135=VECTOR('',#853,10.);
#136=VECTOR('',#856,10.);
#137=VECTOR('',#861,10.);
#138=VECTOR('',#864,10.);
#139=VECTOR('',#865,10.);
#140=VECTOR('',#868,10.);
#141=VECTOR('',#873,10.);
#142=VECTOR('',#876,10.);
#143=VECTOR('',#877,10.);
#144=VECTOR('',#880,10.);
#145=PLANE('',#665);
#146=PLANE('',#666);
#147=PLANE('',#674);
#148=PLANE('',#677);
#149=PLANE('',#680);
#150=PLANE('',#683);
#151=PLANE('',#686);
#152=PLANE('',#687);
#153=PLANE('',#691);
#154=PLANE('',#692);
#155=PLANE('',#695);
#156=PLANE('',#696);
#157=PLANE('',#699);
#158=PLANE('',#700);
#159=PLANE('',#703);
#160=PLANE('',#704);
#161=PLANE('',#707);
#162=PLANE('',#708);
#163=PLANE('',#711);
#164=PLANE('',#712);
#165=PLANE('',#715);
#166=FACE_OUTER_BOUND('',#200,.T.);
#167=FACE_OUTER_BOUND('',#201,.T.);
#168=FACE_OUTER_BOUND('',#202,.T.);
#169=FACE_OUTER_BOUND('',#203,.T.);
#170=FACE_OUTER_BOUND('',#204,.T.);
#171=FACE_OUTER_BOUND('',#205,.T.);
#172=FACE_OUTER_BOUND('',#206,.T.);
#173=FACE_OUTER_BOUND('',#207,.T.);
#174=FACE_OUTER_BOUND('',#208,.T.);
#175=FACE_OUTER_BOUND('',#209,.T.);
#176=FACE_OUTER_BOUND('',#210,.T.);
#177=FACE_OUTER_BOUND('',#211,.T.);
#178=FACE_OUTER_BOUND('',#212,.T.);
#179=FACE_OUTER_BOUND('',#213,.T.);
#180=FACE_OUTER_BOUND('',#214,.T.);
#181=FACE_OUTER_BOUND('',#215,.T.);
#182=FACE_OUTER_BOUND('',#216,.T.);
#183=FACE_OUTER_BOUND('',#217,.T.);
#184=FACE_OUTER_BOUND('',#218,.T.);
#185=FACE_OUTER_BOUND('',#219,.T.);
#186=FACE_OUTER_BOUND('',#220,.T.);
#187=FACE_OUTER_BOUND('',#221,.T.);
#188=FACE_OUTER_BOUND('',#222,.T.);
#189=FACE_OUTER_BOUND('',#223,.T.);
#190=FACE_OUTER_BOUND('',#224,.T.);
#191=FACE_OUTER_BOUND('',#225,.T.);
#192=FACE_OUTER_BOUND('',#226,.T.);
#193=FACE_OUTER_BOUND('',#227,.T.);
#194=FACE_OUTER_BOUND('',#228,.T.);
#195=FACE_OUTER_BOUND('',#229,.T.);
#196=FACE_OUTER_BOUND('',#230,.T.);
#197=FACE_OUTER_BOUND('',#231,.T.);
#198=FACE_OUTER_BOUND('',#232,.T.);
#199=FACE_OUTER_BOUND('',#233,.T.);
#200=EDGE_LOOP('',(#422,#423,#424,#425));
#201=EDGE_LOOP('',(#426,#427,#428,#429,#430));
#202=EDGE_LOOP('',(#431,#432,#433,#434,#435,#436,#437,#438,#439,#440,#441,
#442,#443,#444,#445,#446,#447,#448,#449,#450,#451,#452,#453,#454));
#203=EDGE_LOOP('',(#455,#456,#457,#458));
#204=EDGE_LOOP('',(#459,#460,#461,#462,#463));
#205=EDGE_LOOP('',(#464,#465,#466,#467));
#206=EDGE_LOOP('',(#468,#469,#470,#471,#472));
#207=EDGE_LOOP('',(#473,#474,#475,#476));
#208=EDGE_LOOP('',(#477,#478,#479,#480,#481));
#209=EDGE_LOOP('',(#482,#483,#484,#485));
#210=EDGE_LOOP('',(#486,#487,#488,#489,#490));
#211=EDGE_LOOP('',(#491,#492,#493,#494));
#212=EDGE_LOOP('',(#495,#496,#497,#498,#499));
#213=EDGE_LOOP('',(#500));
#214=EDGE_LOOP('',(#501,#502,#503,#504));
#215=EDGE_LOOP('',(#505,#506,#507,#508,#509));
#216=EDGE_LOOP('',(#510,#511,#512,#513));
#217=EDGE_LOOP('',(#514,#515,#516,#517));
#218=EDGE_LOOP('',(#518,#519,#520,#521,#522));
#219=EDGE_LOOP('',(#523,#524,#525,#526));
#220=EDGE_LOOP('',(#527,#528,#529,#530));
#221=EDGE_LOOP('',(#531,#532,#533,#534,#535));
#222=EDGE_LOOP('',(#536,#537,#538,#539));
#223=EDGE_LOOP('',(#540,#541,#542,#543));
#224=EDGE_LOOP('',(#544,#545,#546,#547,#548));
#225=EDGE_LOOP('',(#549,#550,#551,#552));
#226=EDGE_LOOP('',(#553,#554,#555,#556));
#227=EDGE_LOOP('',(#557,#558,#559,#560,#561));
#228=EDGE_LOOP('',(#562,#563,#564,#565));
#229=EDGE_LOOP('',(#566,#567,#568,#569));
#230=EDGE_LOOP('',(#570,#571,#572,#573,#574));
#231=EDGE_LOOP('',(#575,#576,#577,#578));
#232=EDGE_LOOP('',(#579,#580,#581,#582));
#233=EDGE_LOOP('',(#583,#584,#585,#586,#587,#588,#589,#590,#591,#592,#593,
#594,#595,#596,#597,#598,#599,#600,#601,#602,#603,#604,#605,#606));
#234=EDGE_LOOP('',(#607));
#235=CIRCLE('',#663,5.10000000000001);
#236=CIRCLE('',#664,6.);
#237=CIRCLE('',#667,5.1);
#238=CIRCLE('',#668,5.1);
#239=CIRCLE('',#669,5.1);
#240=CIRCLE('',#670,5.09999999999999);
#241=CIRCLE('',#671,5.1);
#242=CIRCLE('',#673,6.);
#243=CIRCLE('',#676,6.);
#244=CIRCLE('',#679,6.);
#245=CIRCLE('',#682,6.);
#246=CIRCLE('',#685,6.);
#247=CIRCLE('',#688,2.79999999999999);
#248=CIRCLE('',#690,2.79999999999999);
#249=CIRCLE('',#694,6.);
#250=CIRCLE('',#698,6.);
#251=CIRCLE('',#702,6.);
#252=CIRCLE('',#706,6.);
#253=CIRCLE('',#710,6.);
#254=CIRCLE('',#714,6.);
#255=(
BOUNDED_CURVE()
B_SPLINE_CURVE(2,(#891,#892,#893),.UNSPECIFIED.,.F.,.F.)
B_SPLINE_CURVE_WITH_KNOTS((3,3),(0.555929071607486,0.742396921227776),
 .UNSPECIFIED.)
CURVE()
GEOMETRIC_REPRESENTATION_ITEM()
RATIONAL_B_SPLINE_CURVE((1.02718966783523,1.01815476714656,1.))
REPRESENTATION_ITEM('')
);
#256=(
BOUNDED_CURVE()
B_SPLINE_CURVE(2,(#897,#898,#899),.UNSPECIFIED.,.F.,.F.)
B_SPLINE_CURVE_WITH_KNOTS((3,3),(0.,0.186467849620277),.UNSPECIFIED.)
CURVE()
GEOMETRIC_REPRESENTATION_ITEM()
RATIONAL_B_SPLINE_CURVE((1.,1.01815476714653,1.02718966783518))
REPRESENTATION_ITEM('')
);
#257=(
BOUNDED_CURVE()
B_SPLINE_CURVE(2,(#955,#956,#957),.UNSPECIFIED.,.F.,.F.)
B_SPLINE_CURVE_WITH_KNOTS((3,3),(0.555929071607464,0.742396921227776),
 .UNSPECIFIED.)
CURVE()
GEOMETRIC_REPRESENTATION_ITEM()
RATIONAL_B_SPLINE_CURVE((1.02718966783495,1.01815476714638,1.))
REPRESENTATION_ITEM('')
);
#258=(
BOUNDED_CURVE()
B_SPLINE_CURVE(2,(#959,#960,#961),.UNSPECIFIED.,.F.,.F.)
B_SPLINE_CURVE_WITH_KNOTS((3,3),(0.,0.186467849620309),.UNSPECIFIED.)
CURVE()
GEOMETRIC_REPRESENTATION_ITEM()
RATIONAL_B_SPLINE_CURVE((1.,1.01815476714643,1.02718966783503))
REPRESENTATION_ITEM('')
);
#259=(
BOUNDED_CURVE()
B_SPLINE_CURVE(2,(#971,#972,#973),.UNSPECIFIED.,.F.,.F.)
B_SPLINE_CURVE_WITH_KNOTS((3,3),(0.555929071607487,0.742396921227768),
 .UNSPECIFIED.)
CURVE()
GEOMETRIC_REPRESENTATION_ITEM()
RATIONAL_B_SPLINE_CURVE((1.0271896678351,1.01815476714648,1.))
REPRESENTATION_ITEM('')
);
#260=(
BOUNDED_CURVE()
B_SPLINE_CURVE(2,(#975,#976,#977),.UNSPECIFIED.,.F.,.F.)
B_SPLINE_CURVE_WITH_KNOTS((3,3),(0.,0.186467849620285),.UNSPECIFIED.)
CURVE()
GEOMETRIC_REPRESENTATION_ITEM()
RATIONAL_B_SPLINE_CURVE((1.,1.0181547671465,1.02718966783513))
REPRESENTATION_ITEM('')
);
#261=(
BOUNDED_CURVE()
B_SPLINE_CURVE(2,(#987,#988,#989),.UNSPECIFIED.,.F.,.F.)
B_SPLINE_CURVE_WITH_KNOTS((3,3),(0.55592907160751,0.742396921227778),
 .UNSPECIFIED.)
CURVE()
GEOMETRIC_REPRESENTATION_ITEM()
RATIONAL_B_SPLINE_CURVE((1.02718966783528,1.0181547671466,1.))
REPRESENTATION_ITEM('')
);
#262=(
BOUNDED_CURVE()
B_SPLINE_CURVE(2,(#991,#992,#993),.UNSPECIFIED.,.F.,.F.)
B_SPLINE_CURVE_WITH_KNOTS((3,3),(0.,0.186467849620267),.UNSPECIFIED.)
CURVE()
GEOMETRIC_REPRESENTATION_ITEM()
RATIONAL_B_SPLINE_CURVE((1.,1.01815476714662,1.02718966783531))
REPRESENTATION_ITEM('')
);
#263=(
BOUNDED_CURVE()
B_SPLINE_CURVE(2,(#1003,#1004,#1005),.UNSPECIFIED.,.F.,.F.)
B_SPLINE_CURVE_WITH_KNOTS((3,3),(0.555929071607496,0.742396921227784),
 .UNSPECIFIED.)
CURVE()
GEOMETRIC_REPRESENTATION_ITEM()
RATIONAL_B_SPLINE_CURVE((1.0271896678351,1.01815476714648,1.))
REPRESENTATION_ITEM('')
);
#264=(
BOUNDED_CURVE()
B_SPLINE_CURVE(2,(#1007,#1008,#1009),.UNSPECIFIED.,.F.,.F.)
B_SPLINE_CURVE_WITH_KNOTS((3,3),(0.,0.18646784962028),.UNSPECIFIED.)
CURVE()
GEOMETRIC_REPRESENTATION_ITEM()
RATIONAL_B_SPLINE_CURVE((1.,1.01815476714661,1.0271896678353))
REPRESENTATION_ITEM('')
);
#265=(
BOUNDED_CURVE()
B_SPLINE_CURVE(2,(#1019,#1020,#1021),.UNSPECIFIED.,.F.,.F.)
B_SPLINE_CURVE_WITH_KNOTS((3,3),(0.555929071607483,0.742396921227758),
 .UNSPECIFIED.)
CURVE()
GEOMETRIC_REPRESENTATION_ITEM()
RATIONAL_B_SPLINE_CURVE((1.02718966783523,1.01815476714656,1.))
REPRESENTATION_ITEM('')
);
#266=(
BOUNDED_CURVE()
B_SPLINE_CURVE(2,(#1023,#1024,#1025),.UNSPECIFIED.,.F.,.F.)
B_SPLINE_CURVE_WITH_KNOTS((3,3),(0.,0.186467849620287),.UNSPECIFIED.)
CURVE()
GEOMETRIC_REPRESENTATION_ITEM()
RATIONAL_B_SPLINE_CURVE((1.,1.01815476714646,1.02718966783508))
REPRESENTATION_ITEM('')
);
#267=VERTEX_POINT('',#889);
#268=VERTEX_POINT('',#890);
#269=VERTEX_POINT('',#894);
#270=VERTEX_POINT('',#896);
#271=VERTEX_POINT('',#902);
#272=VERTEX_POINT('',#904);
#273=VERTEX_POINT('',#906);
#274=VERTEX_POINT('',#910);
#275=VERTEX_POINT('',#912);
#276=VERTEX_POINT('',#914);
#277=VERTEX_POINT('',#916);
#278=VERTEX_POINT('',#918);
#279=VERTEX_POINT('',#920);
#280=VERTEX_POINT('',#922);
#281=VERTEX_POINT('',#924);
#282=VERTEX_POINT('',#926);
#283=VERTEX_POINT('',#928);
#284=VERTEX_POINT('',#930);
#285=VERTEX_POINT('',#932);
#286=VERTEX_POINT('',#934);
#287=VERTEX_POINT('',#936);
#288=VERTEX_POINT('',#938);
#289=VERTEX_POINT('',#940);
#290=VERTEX_POINT('',#942);
#291=VERTEX_POINT('',#944);
#292=VERTEX_POINT('',#946);
#293=VERTEX_POINT('',#948);
#294=VERTEX_POINT('',#950);
#295=VERTEX_POINT('',#954);
#296=VERTEX_POINT('',#958);
#297=VERTEX_POINT('',#964);
#298=VERTEX_POINT('',#966);
#299=VERTEX_POINT('',#970);
#300=VERTEX_POINT('',#974);
#301=VERTEX_POINT('',#980);
#302=VERTEX_POINT('',#982);
#303=VERTEX_POINT('',#986);
#304=VERTEX_POINT('',#990);
#305=VERTEX_POINT('',#996);
#306=VERTEX_POINT('',#998);
#307=VERTEX_POINT('',#1002);
#308=VERTEX_POINT('',#1006);
#309=VERTEX_POINT('',#1012);
#310=VERTEX_POINT('',#1014);
#311=VERTEX_POINT('',#1018);
#312=VERTEX_POINT('',#1022);
#313=VERTEX_POINT('',#1028);
#314=VERTEX_POINT('',#1030);
#315=VERTEX_POINT('',#1034);
#316=VERTEX_POINT('',#1037);
#317=VERTEX_POINT('',#1041);
#318=VERTEX_POINT('',#1043);
#319=VERTEX_POINT('',#1049);
#320=VERTEX_POINT('',#1053);
#321=VERTEX_POINT('',#1059);
#322=VERTEX_POINT('',#1063);
#323=VERTEX_POINT('',#1069);
#324=VERTEX_POINT('',#1073);
#325=VERTEX_POINT('',#1079);
#326=VERTEX_POINT('',#1083);
#327=VERTEX_POINT('',#1089);
#328=VERTEX_POINT('',#1093);
#329=EDGE_CURVE('',#267,#268,#255,.T.);
#330=EDGE_CURVE('',#268,#269,#235,.T.);
#331=EDGE_CURVE('',#269,#270,#256,.T.);
#332=EDGE_CURVE('',#270,#267,#236,.T.);
#333=EDGE_CURVE('',#271,#269,#23,.T.);
#334=EDGE_CURVE('',#272,#271,#24,.T.);
#335=EDGE_CURVE('',#273,#272,#25,.T.);
#336=EDGE_CURVE('',#270,#273,#26,.T.);
#337=EDGE_CURVE('',#268,#274,#27,.T.);
#338=EDGE_CURVE('',#274,#275,#28,.T.);
#339=EDGE_CURVE('',#275,#276,#29,.T.);
#340=EDGE_CURVE('',#277,#276,#237,.T.);
#341=EDGE_CURVE('',#277,#278,#30,.T.);
#342=EDGE_CURVE('',#278,#279,#31,.T.);
#343=EDGE_CURVE('',#279,#280,#32,.T.);
#344=EDGE_CURVE('',#281,#280,#238,.T.);
#345=EDGE_CURVE('',#281,#282,#33,.T.);
#346=EDGE_CURVE('',#282,#283,#34,.T.);
#347=EDGE_CURVE('',#283,#284,#35,.T.);
#348=EDGE_CURVE('',#285,#284,#239,.T.);
#349=EDGE_CURVE('',#285,#286,#36,.T.);
#350=EDGE_CURVE('',#286,#287,#37,.T.);
#351=EDGE_CURVE('',#287,#288,#38,.T.);
#352=EDGE_CURVE('',#289,#288,#240,.T.);
#353=EDGE_CURVE('',#289,#290,#39,.T.);
#354=EDGE_CURVE('',#290,#291,#40,.T.);
#355=EDGE_CURVE('',#291,#292,#41,.T.);
#356=EDGE_CURVE('',#293,#292,#241,.T.);
#357=EDGE_CURVE('',#293,#294,#42,.T.);
#358=EDGE_CURVE('',#294,#271,#43,.T.);
#359=EDGE_CURVE('',#295,#293,#257,.T.);
#360=EDGE_CURVE('',#292,#296,#258,.T.);
#361=EDGE_CURVE('',#296,#295,#242,.T.);
#362=EDGE_CURVE('',#297,#291,#44,.T.);
#363=EDGE_CURVE('',#298,#297,#45,.T.);
#364=EDGE_CURVE('',#298,#296,#46,.T.);
#365=EDGE_CURVE('',#299,#289,#259,.T.);
#366=EDGE_CURVE('',#288,#300,#260,.T.);
#367=EDGE_CURVE('',#300,#299,#243,.T.);
#368=EDGE_CURVE('',#301,#287,#47,.T.);
#369=EDGE_CURVE('',#302,#301,#48,.T.);
#370=EDGE_CURVE('',#302,#300,#49,.T.);
#371=EDGE_CURVE('',#303,#285,#261,.T.);
#372=EDGE_CURVE('',#284,#304,#262,.T.);
#373=EDGE_CURVE('',#304,#303,#244,.T.);
#374=EDGE_CURVE('',#305,#283,#50,.T.);
#375=EDGE_CURVE('',#306,#305,#51,.T.);
#376=EDGE_CURVE('',#306,#304,#52,.T.);
#377=EDGE_CURVE('',#307,#281,#263,.T.);
#378=EDGE_CURVE('',#280,#308,#264,.T.);
#379=EDGE_CURVE('',#308,#307,#245,.T.);
#380=EDGE_CURVE('',#309,#279,#53,.T.);
#381=EDGE_CURVE('',#310,#309,#54,.T.);
#382=EDGE_CURVE('',#310,#308,#55,.T.);
#383=EDGE_CURVE('',#311,#277,#265,.T.);
#384=EDGE_CURVE('',#276,#312,#266,.T.);
#385=EDGE_CURVE('',#312,#311,#246,.T.);
#386=EDGE_CURVE('',#313,#275,#56,.T.);
#387=EDGE_CURVE('',#314,#313,#57,.T.);
#388=EDGE_CURVE('',#314,#312,#58,.T.);
#389=EDGE_CURVE('',#315,#315,#247,.T.);
#390=EDGE_CURVE('',#316,#316,#248,.T.);
#391=EDGE_CURVE('',#316,#315,#59,.T.);
#392=EDGE_CURVE('',#317,#267,#60,.T.);
#393=EDGE_CURVE('',#318,#317,#61,.T.);
#394=EDGE_CURVE('',#318,#274,#62,.T.);
#395=EDGE_CURVE('',#313,#318,#63,.T.);
#396=EDGE_CURVE('',#319,#314,#249,.T.);
#397=EDGE_CURVE('',#319,#311,#64,.T.);
#398=EDGE_CURVE('',#320,#319,#65,.T.);
#399=EDGE_CURVE('',#320,#278,#66,.T.);
#400=EDGE_CURVE('',#309,#320,#67,.T.);
#401=EDGE_CURVE('',#321,#310,#250,.T.);
#402=EDGE_CURVE('',#321,#307,#68,.T.);
#403=EDGE_CURVE('',#322,#321,#69,.T.);
#404=EDGE_CURVE('',#322,#282,#70,.T.);
#405=EDGE_CURVE('',#305,#322,#71,.T.);
#406=EDGE_CURVE('',#323,#306,#251,.T.);
#407=EDGE_CURVE('',#323,#303,#72,.T.);
#408=EDGE_CURVE('',#324,#323,#73,.T.);
#409=EDGE_CURVE('',#324,#286,#74,.T.);
#410=EDGE_CURVE('',#301,#324,#75,.T.);
#411=EDGE_CURVE('',#325,#302,#252,.T.);
#412=EDGE_CURVE('',#325,#299,#76,.T.);
#413=EDGE_CURVE('',#326,#325,#77,.T.);
#414=EDGE_CURVE('',#326,#290,#78,.T.);
#415=EDGE_CURVE('',#297,#326,#79,.T.);
#416=EDGE_CURVE('',#327,#298,#253,.T.);
#417=EDGE_CURVE('',#327,#295,#80,.T.);
#418=EDGE_CURVE('',#328,#327,#81,.T.);
#419=EDGE_CURVE('',#328,#294,#82,.T.);
#420=EDGE_CURVE('',#272,#328,#83,.T.);
#421=EDGE_CURVE('',#317,#273,#254,.T.);
#422=ORIENTED_EDGE('',*,*,#329,.T.);
#423=ORIENTED_EDGE('',*,*,#330,.T.);
#424=ORIENTED_EDGE('',*,*,#331,.T.);
#425=ORIENTED_EDGE('',*,*,#332,.T.);
#426=ORIENTED_EDGE('',*,*,#331,.F.);
#427=ORIENTED_EDGE('',*,*,#333,.F.);
#428=ORIENTED_EDGE('',*,*,#334,.F.);
#429=ORIENTED_EDGE('',*,*,#335,.F.);
#430=ORIENTED_EDGE('',*,*,#336,.F.);
#431=ORIENTED_EDGE('',*,*,#330,.F.);
#432=ORIENTED_EDGE('',*,*,#337,.T.);
#433=ORIENTED_EDGE('',*,*,#338,.T.);
#434=ORIENTED_EDGE('',*,*,#339,.T.);
#435=ORIENTED_EDGE('',*,*,#340,.F.);
#436=ORIENTED_EDGE('',*,*,#341,.T.);
#437=ORIENTED_EDGE('',*,*,#342,.T.);
#438=ORIENTED_EDGE('',*,*,#343,.T.);
#439=ORIENTED_EDGE('',*,*,#344,.F.);
#440=ORIENTED_EDGE('',*,*,#345,.T.);
#441=ORIENTED_EDGE('',*,*,#346,.T.);
#442=ORIENTED_EDGE('',*,*,#347,.T.);
#443=ORIENTED_EDGE('',*,*,#348,.F.);
#444=ORIENTED_EDGE('',*,*,#349,.T.);
#445=ORIENTED_EDGE('',*,*,#350,.T.);
#446=ORIENTED_EDGE('',*,*,#351,.T.);
#447=ORIENTED_EDGE('',*,*,#352,.F.);
#448=ORIENTED_EDGE('',*,*,#353,.T.);
#449=ORIENTED_EDGE('',*,*,#354,.T.);
#450=ORIENTED_EDGE('',*,*,#355,.T.);
#451=ORIENTED_EDGE('',*,*,#356,.F.);
#452=ORIENTED_EDGE('',*,*,#357,.T.);
#453=ORIENTED_EDGE('',*,*,#358,.T.);
#454=ORIENTED_EDGE('',*,*,#333,.T.);
#455=ORIENTED_EDGE('',*,*,#359,.T.);
#456=ORIENTED_EDGE('',*,*,#356,.T.);
#457=ORIENTED_EDGE('',*,*,#360,.T.);
#458=ORIENTED_EDGE('',*,*,#361,.T.);
#459=ORIENTED_EDGE('',*,*,#360,.F.);
#460=ORIENTED_EDGE('',*,*,#355,.F.);
#461=ORIENTED_EDGE('',*,*,#362,.F.);
#462=ORIENTED_EDGE('',*,*,#363,.F.);
#463=ORIENTED_EDGE('',*,*,#364,.T.);
#464=ORIENTED_EDGE('',*,*,#365,.T.);
#465=ORIENTED_EDGE('',*,*,#352,.T.);
#466=ORIENTED_EDGE('',*,*,#366,.T.);
#467=ORIENTED_EDGE('',*,*,#367,.T.);
#468=ORIENTED_EDGE('',*,*,#366,.F.);
#469=ORIENTED_EDGE('',*,*,#351,.F.);
#470=ORIENTED_EDGE('',*,*,#368,.F.);
#471=ORIENTED_EDGE('',*,*,#369,.F.);
#472=ORIENTED_EDGE('',*,*,#370,.T.);
#473=ORIENTED_EDGE('',*,*,#371,.T.);
#474=ORIENTED_EDGE('',*,*,#348,.T.);
#475=ORIENTED_EDGE('',*,*,#372,.T.);
#476=ORIENTED_EDGE('',*,*,#373,.T.);
#477=ORIENTED_EDGE('',*,*,#372,.F.);
#478=ORIENTED_EDGE('',*,*,#347,.F.);
#479=ORIENTED_EDGE('',*,*,#374,.F.);
#480=ORIENTED_EDGE('',*,*,#375,.F.);
#481=ORIENTED_EDGE('',*,*,#376,.T.);
#482=ORIENTED_EDGE('',*,*,#377,.T.);
#483=ORIENTED_EDGE('',*,*,#344,.T.);
#484=ORIENTED_EDGE('',*,*,#378,.T.);
#485=ORIENTED_EDGE('',*,*,#379,.T.);
#486=ORIENTED_EDGE('',*,*,#378,.F.);
#487=ORIENTED_EDGE('',*,*,#343,.F.);
#488=ORIENTED_EDGE('',*,*,#380,.F.);
#489=ORIENTED_EDGE('',*,*,#381,.F.);
#490=ORIENTED_EDGE('',*,*,#382,.T.);
#491=ORIENTED_EDGE('',*,*,#383,.T.);
#492=ORIENTED_EDGE('',*,*,#340,.T.);
#493=ORIENTED_EDGE('',*,*,#384,.T.);
#494=ORIENTED_EDGE('',*,*,#385,.T.);
#495=ORIENTED_EDGE('',*,*,#384,.F.);
#496=ORIENTED_EDGE('',*,*,#339,.F.);
#497=ORIENTED_EDGE('',*,*,#386,.F.);
#498=ORIENTED_EDGE('',*,*,#387,.F.);
#499=ORIENTED_EDGE('',*,*,#388,.T.);
#500=ORIENTED_EDGE('',*,*,#389,.T.);
#501=ORIENTED_EDGE('',*,*,#390,.F.);
#502=ORIENTED_EDGE('',*,*,#391,.T.);
#503=ORIENTED_EDGE('',*,*,#389,.F.);
#504=ORIENTED_EDGE('',*,*,#391,.F.);
#505=ORIENTED_EDGE('',*,*,#329,.F.);
#506=ORIENTED_EDGE('',*,*,#392,.F.);
#507=ORIENTED_EDGE('',*,*,#393,.F.);
#508=ORIENTED_EDGE('',*,*,#394,.T.);
#509=ORIENTED_EDGE('',*,*,#337,.F.);
#510=ORIENTED_EDGE('',*,*,#394,.F.);
#511=ORIENTED_EDGE('',*,*,#395,.F.);
#512=ORIENTED_EDGE('',*,*,#386,.T.);
#513=ORIENTED_EDGE('',*,*,#338,.F.);
#514=ORIENTED_EDGE('',*,*,#385,.F.);
#515=ORIENTED_EDGE('',*,*,#388,.F.);
#516=ORIENTED_EDGE('',*,*,#396,.F.);
#517=ORIENTED_EDGE('',*,*,#397,.T.);
#518=ORIENTED_EDGE('',*,*,#383,.F.);
#519=ORIENTED_EDGE('',*,*,#397,.F.);
#520=ORIENTED_EDGE('',*,*,#398,.F.);
#521=ORIENTED_EDGE('',*,*,#399,.T.);
#522=ORIENTED_EDGE('',*,*,#341,.F.);
#523=ORIENTED_EDGE('',*,*,#399,.F.);
#524=ORIENTED_EDGE('',*,*,#400,.F.);
#525=ORIENTED_EDGE('',*,*,#380,.T.);
#526=ORIENTED_EDGE('',*,*,#342,.F.);
#527=ORIENTED_EDGE('',*,*,#379,.F.);
#528=ORIENTED_EDGE('',*,*,#382,.F.);
#529=ORIENTED_EDGE('',*,*,#401,.F.);
#530=ORIENTED_EDGE('',*,*,#402,.T.);
#531=ORIENTED_EDGE('',*,*,#377,.F.);
#532=ORIENTED_EDGE('',*,*,#402,.F.);
#533=ORIENTED_EDGE('',*,*,#403,.F.);
#534=ORIENTED_EDGE('',*,*,#404,.T.);
#535=ORIENTED_EDGE('',*,*,#345,.F.);
#536=ORIENTED_EDGE('',*,*,#404,.F.);
#537=ORIENTED_EDGE('',*,*,#405,.F.);
#538=ORIENTED_EDGE('',*,*,#374,.T.);
#539=ORIENTED_EDGE('',*,*,#346,.F.);
#540=ORIENTED_EDGE('',*,*,#373,.F.);
#541=ORIENTED_EDGE('',*,*,#376,.F.);
#542=ORIENTED_EDGE('',*,*,#406,.F.);
#543=ORIENTED_EDGE('',*,*,#407,.T.);
#544=ORIENTED_EDGE('',*,*,#371,.F.);
#545=ORIENTED_EDGE('',*,*,#407,.F.);
#546=ORIENTED_EDGE('',*,*,#408,.F.);
#547=ORIENTED_EDGE('',*,*,#409,.T.);
#548=ORIENTED_EDGE('',*,*,#349,.F.);
#549=ORIENTED_EDGE('',*,*,#409,.F.);
#550=ORIENTED_EDGE('',*,*,#410,.F.);
#551=ORIENTED_EDGE('',*,*,#368,.T.);
#552=ORIENTED_EDGE('',*,*,#350,.F.);
#553=ORIENTED_EDGE('',*,*,#367,.F.);
#554=ORIENTED_EDGE('',*,*,#370,.F.);
#555=ORIENTED_EDGE('',*,*,#411,.F.);
#556=ORIENTED_EDGE('',*,*,#412,.T.);
#557=ORIENTED_EDGE('',*,*,#365,.F.);
#558=ORIENTED_EDGE('',*,*,#412,.F.);
#559=ORIENTED_EDGE('',*,*,#413,.F.);
#560=ORIENTED_EDGE('',*,*,#414,.T.);
#561=ORIENTED_EDGE('',*,*,#353,.F.);
#562=ORIENTED_EDGE('',*,*,#414,.F.);
#563=ORIENTED_EDGE('',*,*,#415,.F.);
#564=ORIENTED_EDGE('',*,*,#362,.T.);
#565=ORIENTED_EDGE('',*,*,#354,.F.);
#566=ORIENTED_EDGE('',*,*,#361,.F.);
#567=ORIENTED_EDGE('',*,*,#364,.F.);
#568=ORIENTED_EDGE('',*,*,#416,.F.);
#569=ORIENTED_EDGE('',*,*,#417,.T.);
#570=ORIENTED_EDGE('',*,*,#359,.F.);
#571=ORIENTED_EDGE('',*,*,#417,.F.);
#572=ORIENTED_EDGE('',*,*,#418,.F.);
#573=ORIENTED_EDGE('',*,*,#419,.T.);
#574=ORIENTED_EDGE('',*,*,#357,.F.);
#575=ORIENTED_EDGE('',*,*,#419,.F.);
#576=ORIENTED_EDGE('',*,*,#420,.F.);
#577=ORIENTED_EDGE('',*,*,#334,.T.);
#578=ORIENTED_EDGE('',*,*,#358,.F.);
#579=ORIENTED_EDGE('',*,*,#332,.F.);
#580=ORIENTED_EDGE('',*,*,#336,.T.);
#581=ORIENTED_EDGE('',*,*,#421,.F.);
#582=ORIENTED_EDGE('',*,*,#392,.T.);
#583=ORIENTED_EDGE('',*,*,#421,.T.);
#584=ORIENTED_EDGE('',*,*,#335,.T.);
#585=ORIENTED_EDGE('',*,*,#420,.T.);
#586=ORIENTED_EDGE('',*,*,#418,.T.);
#587=ORIENTED_EDGE('',*,*,#416,.T.);
#588=ORIENTED_EDGE('',*,*,#363,.T.);
#589=ORIENTED_EDGE('',*,*,#415,.T.);
#590=ORIENTED_EDGE('',*,*,#413,.T.);
#591=ORIENTED_EDGE('',*,*,#411,.T.);
#592=ORIENTED_EDGE('',*,*,#369,.T.);
#593=ORIENTED_EDGE('',*,*,#410,.T.);
#594=ORIENTED_EDGE('',*,*,#408,.T.);
#595=ORIENTED_EDGE('',*,*,#406,.T.);
#596=ORIENTED_EDGE('',*,*,#375,.T.);
#597=ORIENTED_EDGE('',*,*,#405,.T.);
#598=ORIENTED_EDGE('',*,*,#403,.T.);
#599=ORIENTED_EDGE('',*,*,#401,.T.);
#600=ORIENTED_EDGE('',*,*,#381,.T.);
#601=ORIENTED_EDGE('',*,*,#400,.T.);
#602=ORIENTED_EDGE('',*,*,#398,.T.);
#603=ORIENTED_EDGE('',*,*,#396,.T.);
#604=ORIENTED_EDGE('',*,*,#387,.T.);
#605=ORIENTED_EDGE('',*,*,#395,.T.);
#606=ORIENTED_EDGE('',*,*,#393,.T.);
#607=ORIENTED_EDGE('',*,*,#390,.T.);
#608=CONICAL_SURFACE('',#662,5.55,0.785398163397438);
#609=CONICAL_SURFACE('',#672,5.55,0.785398163397436);
#610=CONICAL_SURFACE('',#675,5.55,0.785398163397451);
#611=CONICAL_SURFACE('',#678,5.55,0.785398163397455);
#612=CONICAL_SURFACE('',#681,5.55,0.78539816339746);
#613=CONICAL_SURFACE('',#684,5.55,0.78539816339745);
#614=ADVANCED_FACE('',(#166),#608,.T.);
#615=ADVANCED_FACE('',(#167),#145,.T.);
#616=ADVANCED_FACE('',(#168),#146,.T.);
#617=ADVANCED_FACE('',(#169),#609,.T.);
#618=ADVANCED_FACE('',(#170),#147,.T.);
#619=ADVANCED_FACE('',(#171),#610,.T.);
#620=ADVANCED_FACE('',(#172),#148,.T.);
#621=ADVANCED_FACE('',(#173),#611,.T.);
#622=ADVANCED_FACE('',(#174),#149,.T.);
#623=ADVANCED_FACE('',(#175),#612,.T.);
#624=ADVANCED_FACE('',(#176),#150,.T.);
#625=ADVANCED_FACE('',(#177),#613,.T.);
#626=ADVANCED_FACE('',(#178),#151,.T.);
#627=ADVANCED_FACE('',(#179),#152,.F.);
#628=ADVANCED_FACE('',(#180),#16,.F.);
#629=ADVANCED_FACE('',(#181),#153,.T.);
#630=ADVANCED_FACE('',(#182),#154,.T.);
#631=ADVANCED_FACE('',(#183),#17,.T.);
#632=ADVANCED_FACE('',(#184),#155,.T.);
#633=ADVANCED_FACE('',(#185),#156,.T.);
#634=ADVANCED_FACE('',(#186),#18,.T.);
#635=ADVANCED_FACE('',(#187),#157,.T.);
#636=ADVANCED_FACE('',(#188),#158,.T.);
#637=ADVANCED_FACE('',(#189),#19,.T.);
#638=ADVANCED_FACE('',(#190),#159,.T.);
#639=ADVANCED_FACE('',(#191),#160,.T.);
#640=ADVANCED_FACE('',(#192),#20,.T.);
#641=ADVANCED_FACE('',(#193),#161,.T.);
#642=ADVANCED_FACE('',(#194),#162,.T.);
#643=ADVANCED_FACE('',(#195),#21,.T.);
#644=ADVANCED_FACE('',(#196),#163,.T.);
#645=ADVANCED_FACE('',(#197),#164,.T.);
#646=ADVANCED_FACE('',(#198),#22,.T.);
#647=ADVANCED_FACE('',(#199,#15),#165,.F.);
#648=CLOSED_SHELL('',(#614,#615,#616,#617,#618,#619,#620,#621,#622,#623,
#624,#625,#626,#627,#628,#629,#630,#631,#632,#633,#634,#635,#636,#637,#638,
#639,#640,#641,#642,#643,#644,#645,#646,#647));
#649=DERIVED_UNIT_ELEMENT(#651,1.);
#650=DERIVED_UNIT_ELEMENT(#1106,-3.);
#651=(
MASS_UNIT()
NAMED_UNIT(*)
SI_UNIT(.KILO.,.GRAM.)
);
#652=DERIVED_UNIT((#649,#650));
#653=MEASURE_REPRESENTATION_ITEM('density measure',
POSITIVE_RATIO_MEASURE(7850.),#652);
#654=PROPERTY_DEFINITION_REPRESENTATION(#659,#656);
#655=PROPERTY_DEFINITION_REPRESENTATION(#660,#657);
#656=REPRESENTATION('material name',(#658),#1103);
#657=REPRESENTATION('density',(#653),#1103);
#658=DESCRIPTIVE_REPRESENTATION_ITEM('Steel','Steel');
#659=PROPERTY_DEFINITION('material property','material name',#1113);
#660=PROPERTY_DEFINITION('material property','density of part',#1113);
#661=AXIS2_PLACEMENT_3D('',#887,#716,#717);
#662=AXIS2_PLACEMENT_3D('',#888,#718,#719);
#663=AXIS2_PLACEMENT_3D('',#895,#720,#721);
#664=AXIS2_PLACEMENT_3D('',#900,#722,#723);
#665=AXIS2_PLACEMENT_3D('',#901,#724,#725);
#666=AXIS2_PLACEMENT_3D('',#909,#730,#731);
#667=AXIS2_PLACEMENT_3D('',#917,#735,#736);
#668=AXIS2_PLACEMENT_3D('',#925,#740,#741);
#669=AXIS2_PLACEMENT_3D('',#933,#745,#746);
#670=AXIS2_PLACEMENT_3D('',#941,#750,#751);
#671=AXIS2_PLACEMENT_3D('',#949,#755,#756);
#672=AXIS2_PLACEMENT_3D('',#953,#759,#760);
#673=AXIS2_PLACEMENT_3D('',#962,#761,#762);
#674=AXIS2_PLACEMENT_3D('',#963,#763,#764);
#675=AXIS2_PLACEMENT_3D('',#969,#768,#769);
#676=AXIS2_PLACEMENT_3D('',#978,#770,#771);
#677=AXIS2_PLACEMENT_3D('',#979,#772,#773);
#678=AXIS2_PLACEMENT_3D('',#985,#777,#778);
#679=AXIS2_PLACEMENT_3D('',#994,#779,#780);
#680=AXIS2_PLACEMENT_3D('',#995,#781,#782);
#681=AXIS2_PLACEMENT_3D('',#1001,#786,#787);
#682=AXIS2_PLACEMENT_3D('',#1010,#788,#789);
#683=AXIS2_PLACEMENT_3D('',#1011,#790,#791);
#684=AXIS2_PLACEMENT_3D('',#1017,#795,#796);
#685=AXIS2_PLACEMENT_3D('',#1026,#797,#798);
#686=AXIS2_PLACEMENT_3D('',#1027,#799,#800);
#687=AXIS2_PLACEMENT_3D('',#1033,#804,#805);
#688=AXIS2_PLACEMENT_3D('',#1035,#806,#807);
#689=AXIS2_PLACEMENT_3D('',#1036,#808,#809);
#690=AXIS2_PLACEMENT_3D('',#1038,#810,#811);
#691=AXIS2_PLACEMENT_3D('',#1040,#813,#814);
#692=AXIS2_PLACEMENT_3D('',#1046,#818,#819);
#693=AXIS2_PLACEMENT_3D('',#1048,#821,#822);
#694=AXIS2_PLACEMENT_3D('',#1050,#823,#824);
#695=AXIS2_PLACEMENT_3D('',#1052,#826,#827);
#696=AXIS2_PLACEMENT_3D('',#1056,#830,#831);
#697=AXIS2_PLACEMENT_3D('',#1058,#833,#834);
#698=AXIS2_PLACEMENT_3D('',#1060,#835,#836);
#699=AXIS2_PLACEMENT_3D('',#1062,#838,#839);
#700=AXIS2_PLACEMENT_3D('',#1066,#842,#843);
#701=AXIS2_PLACEMENT_3D('',#1068,#845,#846);
#702=AXIS2_PLACEMENT_3D('',#1070,#847,#848);
#703=AXIS2_PLACEMENT_3D('',#1072,#850,#851);
#704=AXIS2_PLACEMENT_3D('',#1076,#854,#855);
#705=AXIS2_PLACEMENT_3D('',#1078,#857,#858);
#706=AXIS2_PLACEMENT_3D('',#1080,#859,#860);
#707=AXIS2_PLACEMENT_3D('',#1082,#862,#863);
#708=AXIS2_PLACEMENT_3D('',#1086,#866,#867);
#709=AXIS2_PLACEMENT_3D('',#1088,#869,#870);
#710=AXIS2_PLACEMENT_3D('',#1090,#871,#872);
#711=AXIS2_PLACEMENT_3D('',#1092,#874,#875);
#712=AXIS2_PLACEMENT_3D('',#1096,#878,#879);
#713=AXIS2_PLACEMENT_3D('',#1098,#881,#882);
#714=AXIS2_PLACEMENT_3D('',#1099,#883,#884);
#715=AXIS2_PLACEMENT_3D('',#1100,#885,#886);
#716=DIRECTION('axis',(0.,0.,1.));
#717=DIRECTION('refdir',(1.,0.,0.));
#718=DIRECTION('center_axis',(-7.89491928622335E-14,1.,0.));
#719=DIRECTION('ref_axis',(1.,7.44682927268093E-14,0.));
#720=DIRECTION('center_axis',(-7.50017332191217E-14,1.,0.));
#721=DIRECTION('ref_axis',(1.,7.50017332191217E-14,0.));
#722=DIRECTION('center_axis',(7.50017332191217E-14,-1.,0.));
#723=DIRECTION('ref_axis',(1.,7.40148683083438E-14,0.));
#724=DIRECTION('center_axis',(0.906307787036638,6.70802515043433E-14,-0.422618261740725));
#725=DIRECTION('ref_axis',(-0.422618261740725,-3.16971021206068E-14,-0.906307787036638));
#726=DIRECTION('',(0.422618261740725,3.16971021206068E-14,0.906307787036638));
#727=DIRECTION('',(7.54951656745106E-14,-1.,0.));
#728=DIRECTION('',(-0.422618261740725,-3.16971021206068E-14,-0.906307787036638));
#729=DIRECTION('',(-7.40148683083438E-14,1.,0.));
#730=DIRECTION('center_axis',(7.50017332191217E-14,-1.,0.));
#731=DIRECTION('ref_axis',(1.,7.50017332191217E-14,0.));
#732=DIRECTION('',(-0.819152044288999,-6.14378230916617E-14,-0.573576436351036));
#733=DIRECTION('',(-0.984807753012206,-7.38622883635442E-14,0.17364817766694));
#734=DIRECTION('',(-0.573576436351027,-4.30192268599742E-14,0.819152044289005));
#735=DIRECTION('center_axis',(-7.50017332191217E-14,1.,0.));
#736=DIRECTION('ref_axis',(-1.,-7.50017332191216E-14,0.));
#737=DIRECTION('',(0.0871557427476346,6.53683176607248E-15,-0.996194698091748));
#738=DIRECTION('',(-0.642787609686544,-4.82101848182671E-14,-0.766044443118974));
#739=DIRECTION('',(-0.996194698091748,-7.47163289805807E-14,-0.0871557427476319));
#740=DIRECTION('center_axis',(-7.50017332191217E-14,1.,0.));
#741=DIRECTION('ref_axis',(-1.,-7.50017332191216E-14,0.));
#742=DIRECTION('',(0.906307787036644,6.79746548577349E-14,-0.422618261740711));
#743=DIRECTION('',(0.342020143325665,2.56521035452773E-14,-0.93969262078591));
#744=DIRECTION('',(-0.422618261740732,-3.16971021206073E-14,-0.906307787036635));
#745=DIRECTION('center_axis',(-7.50017332191217E-14,1.,0.));
#746=DIRECTION('ref_axis',(-1.,-7.50017332191216E-14,0.));
#747=DIRECTION('',(0.819152044289002,6.14378230916619E-14,0.573576436351031));
#748=DIRECTION('',(0.984807753012207,7.38622883635442E-14,-0.173648177666938));
#749=DIRECTION('',(0.573576436351025,4.30192268599741E-14,-0.819152044289007));
#750=DIRECTION('center_axis',(-7.50017332191217E-14,1.,0.));
#751=DIRECTION('ref_axis',(1.,7.50017332191216E-14,0.));
#752=DIRECTION('',(-0.0871557427476353,-6.53683176607254E-15,0.996194698091747));
#753=DIRECTION('',(0.642787609686545,4.82101848182671E-14,0.766044443118974));
#754=DIRECTION('',(0.996194698091748,7.47163289805807E-14,0.087155742747634));
#755=DIRECTION('center_axis',(-7.50017332191217E-14,1.,0.));
#756=DIRECTION('ref_axis',(1.,7.50017332191217E-14,0.));
#757=DIRECTION('',(-0.906307787036643,-6.79746548577348E-14,0.422618261740714));
#758=DIRECTION('',(-0.342020143325661,-2.5652103545277E-14,0.939692620785911));
#759=DIRECTION('center_axis',(-7.89491928622327E-14,1.,0.));
#760=DIRECTION('ref_axis',(1.,7.44682927268093E-14,0.));
#761=DIRECTION('center_axis',(7.50017332191217E-14,-1.,0.));
#762=DIRECTION('ref_axis',(1.,7.40148683083438E-14,0.));
#763=DIRECTION('center_axis',(0.087155742747634,6.45082082178202E-15,-0.996194698091748));
#764=DIRECTION('ref_axis',(-0.996194698091748,-7.47163289805807E-14,-0.087155742747634));
#765=DIRECTION('',(7.54951656745106E-14,-1.,0.));
#766=DIRECTION('',(-0.996194698091748,-7.47163289805807E-14,-0.087155742747634));
#767=DIRECTION('',(7.54951656745106E-14,-1.,0.));
#768=DIRECTION('center_axis',(-7.89491928622343E-14,1.,0.));
#769=DIRECTION('ref_axis',(1.,7.44682927268093E-14,0.));
#770=DIRECTION('center_axis',(7.50017332191217E-14,-1.,0.));
#771=DIRECTION('ref_axis',(1.,7.40148683083438E-14,0.));
#772=DIRECTION('center_axis',(-0.819152044289007,-6.06294306825615E-14,
-0.573576436351025));
#773=DIRECTION('ref_axis',(-0.573576436351025,-4.30192268599741E-14,0.819152044289007));
#774=DIRECTION('',(7.54951656745106E-14,-1.,0.));
#775=DIRECTION('',(-0.573576436351025,-4.30192268599741E-14,0.819152044289007));
#776=DIRECTION('',(7.54951656745106E-14,-1.,0.));
#777=DIRECTION('center_axis',(-7.89491928622335E-14,1.,0.));
#778=DIRECTION('ref_axis',(-1.,-7.44682927268093E-14,0.));
#779=DIRECTION('center_axis',(7.50017332191217E-14,-1.,0.));
#780=DIRECTION('ref_axis',(-1.,-7.40148683083438E-14,0.));
#781=DIRECTION('center_axis',(-0.906307787036635,-6.7080251504343E-14,0.422618261740732));
#782=DIRECTION('ref_axis',(0.422618261740732,3.16971021206073E-14,0.906307787036635));
#783=DIRECTION('',(7.54951656745106E-14,-1.,0.));
#784=DIRECTION('',(0.422618261740732,3.16971021206073E-14,0.906307787036635));
#785=DIRECTION('',(7.54951656745106E-14,-1.,0.));
#786=DIRECTION('center_axis',(-7.89491928622343E-14,1.,0.));
#787=DIRECTION('ref_axis',(-1.,-7.44682927268093E-14,0.));
#788=DIRECTION('center_axis',(7.50017332191217E-14,-1.,0.));
#789=DIRECTION('ref_axis',(-1.,-7.40148683083438E-14,0.));
#790=DIRECTION('center_axis',(-0.0871557427476319,-6.45082082178187E-15,
0.996194698091748));
#791=DIRECTION('ref_axis',(0.996194698091748,7.47163289805807E-14,0.0871557427476319));
#792=DIRECTION('',(7.54951656745106E-14,-1.,0.));
#793=DIRECTION('',(0.996194698091748,7.47163289805807E-14,0.0871557427476319));
#794=DIRECTION('',(7.54951656745106E-14,-1.,0.));
#795=DIRECTION('center_axis',(-7.89491928622327E-14,1.,0.));
#796=DIRECTION('ref_axis',(-1.,-7.44682927268093E-14,0.));
#797=DIRECTION('center_axis',(7.50017332191217E-14,-1.,0.));
#798=DIRECTION('ref_axis',(-1.,-7.40148683083438E-14,0.));
#799=DIRECTION('center_axis',(0.819152044289005,6.06294306825614E-14,0.573576436351027));
#800=DIRECTION('ref_axis',(0.573576436351027,4.30192268599742E-14,-0.819152044289005));
#801=DIRECTION('',(7.54951656745106E-14,-1.,0.));
#802=DIRECTION('',(0.573576436351027,4.30192268599742E-14,-0.819152044289005));
#803=DIRECTION('',(7.54951656745106E-14,-1.,0.));
#804=DIRECTION('center_axis',(7.50017332191217E-14,-1.,0.));
#805=DIRECTION('ref_axis',(1.,7.50017332191217E-14,0.));
#806=DIRECTION('center_axis',(-7.50017332191217E-14,1.,0.));
#807=DIRECTION('ref_axis',(1.,7.50017332191217E-14,0.));
#808=DIRECTION('center_axis',(-7.40148683083438E-14,1.,0.));
#809=DIRECTION('ref_axis',(1.,7.40148683083438E-14,0.));
#810=DIRECTION('center_axis',(7.50017332191217E-14,-1.,0.));
#811=DIRECTION('ref_axis',(1.,7.50017332191217E-14,0.));
#812=DIRECTION('',(7.40148683083438E-14,-1.,0.));
#813=DIRECTION('center_axis',(-0.573576436351036,-4.2453184401291E-14,0.819152044288999));
#814=DIRECTION('ref_axis',(0.819152044288999,6.14378230916617E-14,0.573576436351036));
#815=DIRECTION('',(7.54951656745106E-14,-1.,0.));
#816=DIRECTION('',(0.819152044288999,6.14378230916617E-14,0.573576436351036));
#817=DIRECTION('',(7.54951656745106E-14,-1.,0.));
#818=DIRECTION('center_axis',(0.17364817766694,1.28525470020025E-14,0.984807753012206));
#819=DIRECTION('ref_axis',(0.984807753012206,7.38622883635442E-14,-0.17364817766694));
#820=DIRECTION('',(0.984807753012206,7.38622883635442E-14,-0.17364817766694));
#821=DIRECTION('center_axis',(-7.40148683083438E-14,1.,0.));
#822=DIRECTION('ref_axis',(1.,7.40148683083438E-14,0.));
#823=DIRECTION('center_axis',(-7.50017332191217E-14,1.,0.));
#824=DIRECTION('ref_axis',(1.,7.50017332191217E-14,0.));
#825=DIRECTION('',(7.54951656745106E-14,-1.,0.));
#826=DIRECTION('center_axis',(-0.996194698091748,-7.3733219388731E-14,-0.0871557427476346));
#827=DIRECTION('ref_axis',(-0.0871557427476346,-6.53683176607248E-15,0.996194698091748));
#828=DIRECTION('',(-0.0871557427476346,-6.53683176607248E-15,0.996194698091748));
#829=DIRECTION('',(7.54951656745106E-14,-1.,0.));
#830=DIRECTION('center_axis',(-0.766044443118974,-5.66986785757894E-14,
0.642787609686544));
#831=DIRECTION('ref_axis',(0.642787609686544,4.82101848182671E-14,0.766044443118974));
#832=DIRECTION('',(0.642787609686544,4.82101848182671E-14,0.766044443118974));
#833=DIRECTION('center_axis',(-7.40148683083438E-14,1.,0.));
#834=DIRECTION('ref_axis',(-0.984807753012206,-7.28904161482344E-14,0.173648177666942));
#835=DIRECTION('center_axis',(-7.50017332191217E-14,1.,0.));
#836=DIRECTION('ref_axis',(1.,7.50017332191217E-14,0.));
#837=DIRECTION('',(7.54951656745106E-14,-1.,0.));
#838=DIRECTION('center_axis',(-0.422618261740711,-3.12800349874399E-14,
-0.906307787036645));
#839=DIRECTION('ref_axis',(-0.906307787036644,-6.79746548577349E-14,0.422618261740711));
#840=DIRECTION('',(-0.906307787036644,-6.79746548577349E-14,0.422618261740711));
#841=DIRECTION('',(7.54951656745106E-14,-1.,0.));
#842=DIRECTION('center_axis',(-0.93969262078591,-6.95512255777916E-14,-0.342020143325665));
#843=DIRECTION('ref_axis',(-0.342020143325665,-2.56521035452773E-14,0.93969262078591));
#844=DIRECTION('',(-0.342020143325665,-2.56521035452773E-14,0.93969262078591));
#845=DIRECTION('center_axis',(-7.40148683083438E-14,1.,0.));
#846=DIRECTION('ref_axis',(1.,7.40148683083438E-14,0.));
#847=DIRECTION('center_axis',(-7.50017332191217E-14,1.,0.));
#848=DIRECTION('ref_axis',(1.,7.50017332191217E-14,0.));
#849=DIRECTION('',(7.54951656745106E-14,-1.,0.));
#850=DIRECTION('center_axis',(0.573576436351031,4.24531844012907E-14,-0.819152044289002));
#851=DIRECTION('ref_axis',(-0.819152044289002,-6.14378230916619E-14,-0.573576436351031));
#852=DIRECTION('',(-0.819152044289002,-6.14378230916619E-14,-0.573576436351031));
#853=DIRECTION('',(7.54951656745106E-14,-1.,0.));
#854=DIRECTION('center_axis',(-0.173648177666938,-1.28525470020023E-14,
-0.984807753012207));
#855=DIRECTION('ref_axis',(-0.984807753012207,-7.38622883635442E-14,0.173648177666938));
#856=DIRECTION('',(-0.984807753012207,-7.38622883635442E-14,0.173648177666938));
#857=DIRECTION('center_axis',(-7.40148683083438E-14,1.,0.));
#858=DIRECTION('ref_axis',(1.,7.40148683083438E-14,0.));
#859=DIRECTION('center_axis',(-7.50017332191217E-14,1.,0.));
#860=DIRECTION('ref_axis',(1.,7.50017332191217E-14,0.));
#861=DIRECTION('',(7.54951656745106E-14,-1.,0.));
#862=DIRECTION('center_axis',(0.996194698091748,7.3733219388731E-14,0.0871557427476353));
#863=DIRECTION('ref_axis',(0.0871557427476353,6.53683176607254E-15,-0.996194698091747));
#864=DIRECTION('',(0.0871557427476353,6.53683176607254E-15,-0.996194698091747));
#865=DIRECTION('',(7.54951656745106E-14,-1.,0.));
#866=DIRECTION('center_axis',(0.766044443118974,5.66986785757894E-14,-0.642787609686545));
#867=DIRECTION('ref_axis',(-0.642787609686545,-4.82101848182671E-14,-0.766044443118974));
#868=DIRECTION('',(-0.642787609686545,-4.82101848182671E-14,-0.766044443118974));
#869=DIRECTION('center_axis',(-7.40148683083438E-14,1.,0.));
#870=DIRECTION('ref_axis',(1.,7.40148683083438E-14,0.));
#871=DIRECTION('center_axis',(-7.50017332191217E-14,1.,0.));
#872=DIRECTION('ref_axis',(1.,7.50017332191217E-14,0.));
#873=DIRECTION('',(7.54951656745106E-14,-1.,0.));
#874=DIRECTION('center_axis',(0.422618261740714,3.12800349874401E-14,0.906307787036643));
#875=DIRECTION('ref_axis',(0.906307787036643,6.79746548577348E-14,-0.422618261740714));
#876=DIRECTION('',(0.906307787036643,6.79746548577348E-14,-0.422618261740714));
#877=DIRECTION('',(7.54951656745106E-14,-1.,0.));
#878=DIRECTION('center_axis',(0.939692620785911,6.95512255777917E-14,0.342020143325661));
#879=DIRECTION('ref_axis',(0.342020143325661,2.5652103545277E-14,-0.939692620785911));
#880=DIRECTION('',(0.342020143325661,2.5652103545277E-14,-0.939692620785911));
#881=DIRECTION('center_axis',(-7.40148683083438E-14,1.,0.));
#882=DIRECTION('ref_axis',(1.,7.40148683083438E-14,0.));
#883=DIRECTION('center_axis',(-7.50017332191217E-14,1.,0.));
#884=DIRECTION('ref_axis',(1.,7.50017332191217E-14,0.));
#885=DIRECTION('center_axis',(7.50017332191217E-14,-1.,0.));
#886=DIRECTION('ref_axis',(1.,7.50017332191217E-14,0.));
#887=CARTESIAN_POINT('',(0.,0.,0.));
#888=CARTESIAN_POINT('Origin',(82.0000011920214,-78.0881489732172,25.25));
#889=CARTESIAN_POINT('',(84.62178848797,-77.638148973217,30.6468723696974));
#890=CARTESIAN_POINT('',(83.7536735261693,-78.538148973217,30.0390117294119));
#891=CARTESIAN_POINT('Ctrl Pts',(84.62178848797,-77.638148973217,30.6468723696974));
#892=CARTESIAN_POINT('Ctrl Pts',(84.1525371572669,-78.1387398806454,30.3182990506241));
#893=CARTESIAN_POINT('Ctrl Pts',(83.7536735261692,-78.5381489732171,30.0390117294118));
#894=CARTESIAN_POINT('',(86.4117350673631,-78.5381489732168,27.8086332705497));
#895=CARTESIAN_POINT('Origin',(82.0000011920215,-78.5381489732171,25.25));
#896=CARTESIAN_POINT('',(86.859614357545,-77.6381489732168,28.7691135078979));
#897=CARTESIAN_POINT('Ctrl Pts',(86.411735067363,-78.5381489732168,27.8086332705496));
#898=CARTESIAN_POINT('Ctrl Pts',(86.6175174439331,-78.1387398806452,28.2499350012232));
#899=CARTESIAN_POINT('Ctrl Pts',(86.859614357545,-77.6381489732168,28.7691135078979));
#900=CARTESIAN_POINT('Origin',(82.0000011920214,-77.6381489732172,25.25));
#901=CARTESIAN_POINT('Origin',(86.8596143575449,-76.5381489732168,28.7691135078979));
#902=CARTESIAN_POINT('',(86.4043857509954,-78.5381489732168,27.7928726107382));
#903=CARTESIAN_POINT('',(86.4043857509954,-78.5381489732168,27.7928726107382));
#904=CARTESIAN_POINT('',(86.404385750995,-73.5381489732168,27.7928726107382));
#905=CARTESIAN_POINT('',(86.4043857509952,-76.5381489732168,27.7928726107382));
#906=CARTESIAN_POINT('',(86.8596143575447,-73.5381489732168,28.7691135078979));
#907=CARTESIAN_POINT('',(86.404385750995,-73.5381489732168,27.7928726107382));
#908=CARTESIAN_POINT('',(86.8596143575449,-76.5381489732168,28.7691135078979));
#909=CARTESIAN_POINT('Origin',(82.0000011920215,-78.5381489732171,25.25));
#910=CARTESIAN_POINT('',(83.7394285015888,-78.538148973217,30.0290372558186));
#911=CARTESIAN_POINT('',(83.7394285015888,-78.538148973217,30.0290372558186));
#912=CARTESIAN_POINT('',(82.0000011920215,-78.5381489732171,30.3357452214765));
#913=CARTESIAN_POINT('',(82.0000011920215,-78.5381489732171,30.3357452214765));
#914=CARTESIAN_POINT('',(81.9900267184282,-78.5381489732171,30.349990246057));
#915=CARTESIAN_POINT('',(82.0000011920215,-78.5381489732171,30.3357452214765));
#916=CARTESIAN_POINT('',(78.7294315424031,-78.5381489732174,29.1632306559919));
#917=CARTESIAN_POINT('Origin',(82.0000011920215,-78.5381489732171,25.25));
#918=CARTESIAN_POINT('',(78.730947177634,-78.5381489732174,29.145906866031));
#919=CARTESIAN_POINT('',(78.730947177634,-78.5381489732174,29.145906866031));
#920=CARTESIAN_POINT('',(77.5956166330475,-78.5381489732175,27.7928726107382));
#921=CARTESIAN_POINT('',(77.5956166330475,-78.5381489732175,27.7928726107382));
#922=CARTESIAN_POINT('',(77.5782928430866,-78.5381489732175,27.7913569755074));
#923=CARTESIAN_POINT('',(77.5956166330475,-78.5381489732175,27.7928726107382));
#924=CARTESIAN_POINT('',(76.9757592082552,-78.5381489732175,24.37421892658));
#925=CARTESIAN_POINT('Origin',(82.0000011920215,-78.5381489732171,25.25));
#926=CARTESIAN_POINT('',(76.9915198680666,-78.5381489732175,24.3668696102124));
#927=CARTESIAN_POINT('',(76.9915198680666,-78.5381489732175,24.3668696102124));
#928=CARTESIAN_POINT('',(77.5956166330475,-78.5381489732175,22.7071273892618));
#929=CARTESIAN_POINT('',(77.5956166330475,-78.5381489732175,22.7071273892618));
#930=CARTESIAN_POINT('',(77.5882673166799,-78.5381489732175,22.6913667294504));
#931=CARTESIAN_POINT('',(77.5956166330475,-78.5381489732175,22.7071273892618));
#932=CARTESIAN_POINT('',(80.2463288578736,-78.5381489732173,20.4609882705881));
#933=CARTESIAN_POINT('Origin',(82.0000011920215,-78.5381489732171,25.25));
#934=CARTESIAN_POINT('',(80.2605738824542,-78.5381489732173,20.4709627441814));
#935=CARTESIAN_POINT('',(80.2605738824542,-78.5381489732173,20.4709627441814));
#936=CARTESIAN_POINT('',(82.0000011920215,-78.5381489732171,20.1642547785235));
#937=CARTESIAN_POINT('',(82.0000011920215,-78.5381489732171,20.1642547785235));
#938=CARTESIAN_POINT('',(82.0099756656147,-78.5381489732171,20.150009753943));
#939=CARTESIAN_POINT('',(82.0000011920215,-78.5381489732171,20.1642547785235));
#940=CARTESIAN_POINT('',(85.2705708416399,-78.5381489732169,21.3367693440081));
#941=CARTESIAN_POINT('Origin',(82.0000011920215,-78.5381489732171,25.25));
#942=CARTESIAN_POINT('',(85.269055206409,-78.5381489732169,21.354093133969));
#943=CARTESIAN_POINT('',(85.269055206409,-78.5381489732169,21.354093133969));
#944=CARTESIAN_POINT('',(86.4043857509954,-78.5381489732168,22.7071273892618));
#945=CARTESIAN_POINT('',(86.4043857509954,-78.5381489732168,22.7071273892618));
#946=CARTESIAN_POINT('',(86.4217095409563,-78.5381489732168,22.7086430244927));
#947=CARTESIAN_POINT('',(86.4043857509954,-78.5381489732168,22.7071273892618));
#948=CARTESIAN_POINT('',(87.0242431757877,-78.5381489732168,26.12578107342));
#949=CARTESIAN_POINT('Origin',(82.0000011920215,-78.5381489732171,25.25));
#950=CARTESIAN_POINT('',(87.0084825159763,-78.5381489732168,26.1331303897876));
#951=CARTESIAN_POINT('',(87.0084825159763,-78.5381489732168,26.1331303897876));
#952=CARTESIAN_POINT('',(86.4043857509954,-78.5381489732168,27.7928726107382));
#953=CARTESIAN_POINT('Origin',(82.0000011920214,-78.0881489732172,25.25));
#954=CARTESIAN_POINT('',(87.9847234131359,-77.6381489732167,25.6779017832379));
#955=CARTESIAN_POINT('Ctrl Pts',(87.9847234131359,-77.6381489732167,25.6779017832379));
#956=CARTESIAN_POINT('Ctrl Pts',(87.4655449064611,-78.1387398806453,25.9199986968499));
#957=CARTESIAN_POINT('Ctrl Pts',(87.0242431757876,-78.5381489732168,26.12578107342));
#958=CARTESIAN_POINT('',(87.4774494714238,-77.6381489732167,22.8010083000402));
#959=CARTESIAN_POINT('Ctrl Pts',(86.4217095409562,-78.5381489732169,22.7086430244926));
#960=CARTESIAN_POINT('Ctrl Pts',(86.9067792387385,-78.1387398806453,22.7510811240685));
#961=CARTESIAN_POINT('Ctrl Pts',(87.4774494714238,-77.6381489732167,22.8010083000402));
#962=CARTESIAN_POINT('Origin',(82.0000011920214,-77.6381489732171,25.25));
#963=CARTESIAN_POINT('Origin',(87.4774494714237,-76.5381489732167,22.8010083000402));
#964=CARTESIAN_POINT('',(86.404385750995,-73.5381489732168,22.7071273892618));
#965=CARTESIAN_POINT('',(86.4043857509952,-76.5381489732168,22.7071273892618));
#966=CARTESIAN_POINT('',(87.4774494714234,-73.5381489732167,22.8010083000402));
#967=CARTESIAN_POINT('',(86.404385750995,-73.5381489732168,22.7071273892618));
#968=CARTESIAN_POINT('',(87.4774494714237,-76.5381489732167,22.8010083000402));
#969=CARTESIAN_POINT('Origin',(82.0000011920214,-78.0881489732172,25.25));
#970=CARTESIAN_POINT('',(85.3629361171873,-77.6381489732169,20.2810294135405));
#971=CARTESIAN_POINT('Ctrl Pts',(85.3629361171873,-77.6381489732169,20.2810294135405));
#972=CARTESIAN_POINT('Ctrl Pts',(85.3130089412157,-78.1387398806454,20.8516996462257));
#973=CARTESIAN_POINT('Ctrl Pts',(85.2705708416399,-78.5381489732169,21.3367693440081));
#974=CARTESIAN_POINT('',(82.6178363059002,-77.6381489732171,19.2818947921423));
#975=CARTESIAN_POINT('Ctrl Pts',(82.0099756656147,-78.5381489732172,20.1500097539431));
#976=CARTESIAN_POINT('Ctrl Pts',(82.2892629868269,-78.1387398806456,19.7511461228454));
#977=CARTESIAN_POINT('Ctrl Pts',(82.6178363059002,-77.6381489732171,19.2818947921423));
#978=CARTESIAN_POINT('Origin',(82.0000011920214,-77.6381489732172,25.25));
#979=CARTESIAN_POINT('Origin',(82.6178363059001,-76.5381489732171,19.2818947921423));
#980=CARTESIAN_POINT('',(82.0000011920211,-73.5381489732171,20.1642547785235));
#981=CARTESIAN_POINT('',(82.0000011920213,-76.5381489732171,20.1642547785235));
#982=CARTESIAN_POINT('',(82.6178363058999,-73.5381489732171,19.2818947921423));
#983=CARTESIAN_POINT('',(82.0000011920211,-73.5381489732171,20.1642547785235));
#984=CARTESIAN_POINT('',(82.6178363059001,-76.5381489732171,19.2818947921423));
#985=CARTESIAN_POINT('Origin',(82.0000011920214,-78.0881489732172,25.25));
#986=CARTESIAN_POINT('',(79.3782138960728,-77.6381489732174,19.8531276303026));
#987=CARTESIAN_POINT('Ctrl Pts',(79.3782138960728,-77.6381489732174,19.8531276303026));
#988=CARTESIAN_POINT('Ctrl Pts',(79.8474652267759,-78.1387398806457,20.1817009493759));
#989=CARTESIAN_POINT('Ctrl Pts',(80.2463288578737,-78.5381489732173,20.4609882705882));
#990=CARTESIAN_POINT('',(77.1403880264978,-77.6381489732175,21.7308864921021));
#991=CARTESIAN_POINT('Ctrl Pts',(77.5882673166799,-78.5381489732175,22.6913667294504));
#992=CARTESIAN_POINT('Ctrl Pts',(77.3824849401097,-78.1387398806459,22.2500649987768));
#993=CARTESIAN_POINT('Ctrl Pts',(77.1403880264978,-77.6381489732175,21.7308864921021));
#994=CARTESIAN_POINT('Origin',(82.0000011920214,-77.6381489732172,25.25));
#995=CARTESIAN_POINT('Origin',(77.1403880264977,-76.5381489732175,21.7308864921021));
#996=CARTESIAN_POINT('',(77.5956166330472,-73.5381489732175,22.7071273892618));
#997=CARTESIAN_POINT('',(77.5956166330474,-76.5381489732175,22.7071273892618));
#998=CARTESIAN_POINT('',(77.1403880264975,-73.5381489732175,21.7308864921021));
#999=CARTESIAN_POINT('',(77.5956166330472,-73.5381489732175,22.7071273892618));
#1000=CARTESIAN_POINT('',(77.1403880264977,-76.5381489732175,21.7308864921021));
#1001=CARTESIAN_POINT('Origin',(82.0000011920214,-78.0881489732172,25.25));
#1002=CARTESIAN_POINT('',(76.0152789709069,-77.6381489732176,24.8220982167621));
#1003=CARTESIAN_POINT('Ctrl Pts',(76.0152789709069,-77.6381489732176,24.8220982167621));
#1004=CARTESIAN_POINT('Ctrl Pts',(76.5344574775817,-78.1387398806461,24.5800013031502));
#1005=CARTESIAN_POINT('Ctrl Pts',(76.9757592082553,-78.5381489732176,24.37421892658));
#1006=CARTESIAN_POINT('',(76.522552912619,-77.6381489732176,27.6989916999598));
#1007=CARTESIAN_POINT('Ctrl Pts',(77.5782928430867,-78.5381489732176,27.7913569755074));
#1008=CARTESIAN_POINT('Ctrl Pts',(77.0932231453042,-78.1387398806459,27.7489188759315));
#1009=CARTESIAN_POINT('Ctrl Pts',(76.522552912619,-77.6381489732176,27.6989916999598));
#1010=CARTESIAN_POINT('Origin',(82.0000011920214,-77.6381489732172,25.25));
#1011=CARTESIAN_POINT('Origin',(76.5225529126189,-76.5381489732176,27.6989916999598));
#1012=CARTESIAN_POINT('',(77.5956166330472,-73.5381489732175,27.7928726107382));
#1013=CARTESIAN_POINT('',(77.5956166330474,-76.5381489732175,27.7928726107382));
#1014=CARTESIAN_POINT('',(76.5225529126187,-73.5381489732176,27.6989916999598));
#1015=CARTESIAN_POINT('',(77.5956166330472,-73.5381489732175,27.7928726107382));
#1016=CARTESIAN_POINT('',(76.5225529126189,-76.5381489732176,27.6989916999598));
#1017=CARTESIAN_POINT('Origin',(82.0000011920214,-78.0881489732172,25.25));
#1018=CARTESIAN_POINT('',(78.6370662668555,-77.6381489732174,30.2189705864595));
#1019=CARTESIAN_POINT('Ctrl Pts',(78.6370662668555,-77.6381489732174,30.2189705864595));
#1020=CARTESIAN_POINT('Ctrl Pts',(78.6869934428271,-78.1387398806458,29.6483003537743));
#1021=CARTESIAN_POINT('Ctrl Pts',(78.729431542403,-78.5381489732174,29.1632306559919));
#1022=CARTESIAN_POINT('',(81.3821660781427,-77.6381489732172,31.2181052078577));
#1023=CARTESIAN_POINT('Ctrl Pts',(81.9900267184282,-78.5381489732172,30.349990246057));
#1024=CARTESIAN_POINT('Ctrl Pts',(81.710739397216,-78.1387398806456,30.7488538771546));
#1025=CARTESIAN_POINT('Ctrl Pts',(81.3821660781427,-77.6381489732172,31.2181052078577));
#1026=CARTESIAN_POINT('Origin',(82.0000011920214,-77.6381489732171,25.25));
#1027=CARTESIAN_POINT('Origin',(81.3821660781426,-76.5381489732172,31.2181052078577));
#1028=CARTESIAN_POINT('',(82.0000011920211,-73.5381489732171,30.3357452214765));
#1029=CARTESIAN_POINT('',(82.0000011920213,-76.5381489732171,30.3357452214765));
#1030=CARTESIAN_POINT('',(81.3821660781424,-73.5381489732172,31.2181052078577));
#1031=CARTESIAN_POINT('',(82.0000011920211,-73.5381489732171,30.3357452214765));
#1032=CARTESIAN_POINT('',(81.3821660781426,-76.5381489732172,31.2181052078577));
#1033=CARTESIAN_POINT('Origin',(82.0000011920213,-76.5381489732171,25.25));
#1034=CARTESIAN_POINT('',(79.2000011920213,-76.5381489732174,25.25));
#1035=CARTESIAN_POINT('Origin',(82.0000011920213,-76.5381489732171,25.25));
#1036=CARTESIAN_POINT('Origin',(82.0000011920213,-76.5381489732171,25.25));
#1037=CARTESIAN_POINT('',(79.2000011920211,-73.5381489732174,25.25));
#1038=CARTESIAN_POINT('Origin',(82.0000011920211,-73.5381489732171,25.25));
#1039=CARTESIAN_POINT('',(79.2000011920213,-76.5381489732174,25.25));
#1040=CARTESIAN_POINT('Origin',(83.7394285015886,-76.538148973217,30.0290372558186));
#1041=CARTESIAN_POINT('',(84.6217884879697,-73.5381489732169,30.6468723696974));
#1042=CARTESIAN_POINT('',(84.6217884879699,-76.5381489732169,30.6468723696974));
#1043=CARTESIAN_POINT('',(83.7394285015884,-73.538148973217,30.0290372558186));
#1044=CARTESIAN_POINT('',(83.7394285015884,-73.538148973217,30.0290372558186));
#1045=CARTESIAN_POINT('',(83.7394285015886,-76.538148973217,30.0290372558186));
#1046=CARTESIAN_POINT('Origin',(82.0000011920213,-76.5381489732171,30.3357452214765));
#1047=CARTESIAN_POINT('',(82.0000011920211,-73.5381489732171,30.3357452214765));
#1048=CARTESIAN_POINT('Origin',(82.0000011920213,-76.5381489732171,25.25));
#1049=CARTESIAN_POINT('',(78.6370662668552,-73.5381489732174,30.2189705864595));
#1050=CARTESIAN_POINT('Origin',(82.0000011920211,-73.5381489732171,25.25));
#1051=CARTESIAN_POINT('',(78.6370662668554,-76.5381489732174,30.2189705864595));
#1052=CARTESIAN_POINT('Origin',(78.7309471776338,-76.5381489732174,29.145906866031));
#1053=CARTESIAN_POINT('',(78.7309471776336,-73.5381489732174,29.145906866031));
#1054=CARTESIAN_POINT('',(78.7309471776336,-73.5381489732174,29.145906866031));
#1055=CARTESIAN_POINT('',(78.7309471776338,-76.5381489732174,29.145906866031));
#1056=CARTESIAN_POINT('Origin',(77.5956166330474,-76.5381489732175,27.7928726107382));
#1057=CARTESIAN_POINT('',(77.5956166330472,-73.5381489732175,27.7928726107382));
#1058=CARTESIAN_POINT('Origin',(82.0000011920213,-76.5381489732171,25.25));
#1059=CARTESIAN_POINT('',(76.0152789709066,-73.5381489732176,24.8220982167621));
#1060=CARTESIAN_POINT('Origin',(82.0000011920211,-73.5381489732171,25.25));
#1061=CARTESIAN_POINT('',(76.0152789709068,-76.5381489732176,24.8220982167621));
#1062=CARTESIAN_POINT('Origin',(76.9915198680665,-76.5381489732175,24.3668696102124));
#1063=CARTESIAN_POINT('',(76.9915198680663,-73.5381489732175,24.3668696102124));
#1064=CARTESIAN_POINT('',(76.9915198680663,-73.5381489732175,24.3668696102124));
#1065=CARTESIAN_POINT('',(76.9915198680665,-76.5381489732175,24.3668696102124));
#1066=CARTESIAN_POINT('Origin',(77.5956166330474,-76.5381489732175,22.7071273892618));
#1067=CARTESIAN_POINT('',(77.5956166330472,-73.5381489732175,22.7071273892618));
#1068=CARTESIAN_POINT('Origin',(82.0000011920213,-76.5381489732171,25.25));
#1069=CARTESIAN_POINT('',(79.3782138960725,-73.5381489732173,19.8531276303026));
#1070=CARTESIAN_POINT('Origin',(82.0000011920211,-73.5381489732171,25.25));
#1071=CARTESIAN_POINT('',(79.3782138960727,-76.5381489732173,19.8531276303026));
#1072=CARTESIAN_POINT('Origin',(80.260573882454,-76.5381489732173,20.4709627441814));
#1073=CARTESIAN_POINT('',(80.2605738824538,-73.5381489732173,20.4709627441814));
#1074=CARTESIAN_POINT('',(80.2605738824538,-73.5381489732173,20.4709627441814));
#1075=CARTESIAN_POINT('',(80.260573882454,-76.5381489732173,20.4709627441814));
#1076=CARTESIAN_POINT('Origin',(82.0000011920213,-76.5381489732171,20.1642547785235));
#1077=CARTESIAN_POINT('',(82.0000011920211,-73.5381489732171,20.1642547785235));
#1078=CARTESIAN_POINT('Origin',(82.0000011920213,-76.5381489732171,25.25));
#1079=CARTESIAN_POINT('',(85.362936117187,-73.5381489732169,20.2810294135405));
#1080=CARTESIAN_POINT('Origin',(82.0000011920211,-73.5381489732171,25.25));
#1081=CARTESIAN_POINT('',(85.3629361171873,-76.5381489732169,20.2810294135405));
#1082=CARTESIAN_POINT('Origin',(85.2690552064088,-76.5381489732169,21.354093133969));
#1083=CARTESIAN_POINT('',(85.2690552064086,-73.5381489732169,21.354093133969));
#1084=CARTESIAN_POINT('',(85.2690552064086,-73.5381489732169,21.354093133969));
#1085=CARTESIAN_POINT('',(85.2690552064088,-76.5381489732169,21.354093133969));
#1086=CARTESIAN_POINT('Origin',(86.4043857509952,-76.5381489732168,22.7071273892618));
#1087=CARTESIAN_POINT('',(86.404385750995,-73.5381489732168,22.7071273892618));
#1088=CARTESIAN_POINT('Origin',(82.0000011920213,-76.5381489732171,25.25));
#1089=CARTESIAN_POINT('',(87.9847234131356,-73.5381489732167,25.6779017832379));
#1090=CARTESIAN_POINT('Origin',(82.0000011920211,-73.5381489732171,25.25));
#1091=CARTESIAN_POINT('',(87.9847234131358,-76.5381489732167,25.6779017832379));
#1092=CARTESIAN_POINT('Origin',(87.0084825159761,-76.5381489732168,26.1331303897876));
#1093=CARTESIAN_POINT('',(87.0084825159759,-73.5381489732168,26.1331303897876));
#1094=CARTESIAN_POINT('',(87.0084825159759,-73.5381489732168,26.1331303897876));
#1095=CARTESIAN_POINT('',(87.0084825159761,-76.5381489732168,26.1331303897876));
#1096=CARTESIAN_POINT('Origin',(86.4043857509952,-76.5381489732168,27.7928726107382));
#1097=CARTESIAN_POINT('',(86.404385750995,-73.5381489732168,27.7928726107382));
#1098=CARTESIAN_POINT('Origin',(82.0000011920213,-76.5381489732171,25.25));
#1099=CARTESIAN_POINT('Origin',(82.0000011920211,-73.5381489732171,25.25));
#1100=CARTESIAN_POINT('Origin',(82.0000011920211,-73.5381489732171,25.25));
#1101=UNCERTAINTY_MEASURE_WITH_UNIT(LENGTH_MEASURE(0.01),#1105,
'DISTANCE_ACCURACY_VALUE',
'Maximum model space distance between geometric entities at asserted c
onnectivities');
#1102=UNCERTAINTY_MEASURE_WITH_UNIT(LENGTH_MEASURE(0.01),#1105,
'DISTANCE_ACCURACY_VALUE',
'Maximum model space distance between geometric entities at asserted c
onnectivities');
#1103=(
GEOMETRIC_REPRESENTATION_CONTEXT(3)
GLOBAL_UNCERTAINTY_ASSIGNED_CONTEXT((#1101))
GLOBAL_UNIT_ASSIGNED_CONTEXT((#1105,#1107,#1108))
REPRESENTATION_CONTEXT('','3D')
);
#1104=(
GEOMETRIC_REPRESENTATION_CONTEXT(3)
GLOBAL_UNCERTAINTY_ASSIGNED_CONTEXT((#1102))
GLOBAL_UNIT_ASSIGNED_CONTEXT((#1105,#1107,#1108))
REPRESENTATION_CONTEXT('','3D')
);
#1105=(
LENGTH_UNIT()
NAMED_UNIT(*)
SI_UNIT(.MILLI.,.METRE.)
);
#1106=(
LENGTH_UNIT()
NAMED_UNIT(*)
SI_UNIT($,.METRE.)
);
#1107=(
NAMED_UNIT(*)
PLANE_ANGLE_UNIT()
SI_UNIT($,.RADIAN.)
);
#1108=(
NAMED_UNIT(*)
SI_UNIT($,.STERADIAN.)
SOLID_ANGLE_UNIT()
);
#1109=SHAPE_DEFINITION_REPRESENTATION(#1110,#1111);
#1110=PRODUCT_DEFINITION_SHAPE('',$,#1113);
#1111=SHAPE_REPRESENTATION('',(#661),#1103);
#1112=PRODUCT_DEFINITION_CONTEXT('part definition',#1117,'design');
#1113=PRODUCT_DEFINITION('(Unsaved)','(Unsaved)',#1114,#1112);
#1114=PRODUCT_DEFINITION_FORMATION('',$,#1119);
#1115=PRODUCT_RELATED_PRODUCT_CATEGORY('(Unsaved)','(Unsaved)',(#1119));
#1116=APPLICATION_PROTOCOL_DEFINITION('international standard',
'automotive_design',2009,#1117);
#1117=APPLICATION_CONTEXT(
'Core Data for Automotive Mechanical Design Process');
#1118=PRODUCT_CONTEXT('part definition',#1117,'mechanical');
#1119=PRODUCT('(Unsaved)','(Unsaved)',$,(#1118));
#1120=PRESENTATION_STYLE_ASSIGNMENT((#1121));
#1121=SURFACE_STYLE_USAGE(.BOTH.,#1122);
#1122=SURFACE_SIDE_STYLE('',(#1123));
#1123=SURFACE_STYLE_FILL_AREA(#1124);
#1124=FILL_AREA_STYLE('Steel - Satin',(#1125));
#1125=FILL_AREA_STYLE_COLOUR('Steel - Satin',#1126);
#1126=COLOUR_RGB('Steel - Satin',0.627450980392157,0.627450980392157,0.627450980392157);
ENDSEC;
END-ISO-10303-21;
