ISO-10303-21;
HEADER;
/* Generated by software containing ST-Developer
 * from STEP Tools, Inc. (www.steptools.com) 
 */

FILE_DESCRIPTION(
/* description */ (''),
/* implementation_level */ '2;1');

FILE_NAME(
/* name */ 'footpad-x6.step',
/* time_stamp */ '2026-09-30T23:19:30+03:00',
/* author */ (''),
/* organization */ (''),
/* preprocessor_version */ 'ST-DEVELOPER v20.1',
/* originating_system */ 'Autodesk Translation Framework v15.8.0.0',
/* authorisation */ '');

FILE_SCHEMA (('AUTOMOTIVE_DESIGN { 1 0 10303 214 3 1 1 }'));
ENDSEC;

DATA;
#10=MECHANICAL_DESIGN_GEOMETRIC_PRESENTATION_REPRESENTATION('',(#13),#253);
#11=SHAPE_REPRESENTATION_RELATIONSHIP('SRR','None',#260,#12);
#12=ADVANCED_BREP_SHAPE_REPRESENTATION('',(#14),#252);
#13=STYLED_ITEM('',(#269),#14);
#14=MANIFOLD_SOLID_BREP('footpad-x6',#146);
#15=FACE_BOUND('',#42,.T.);
#16=CYLINDRICAL_SURFACE('',#164,4.5);
#17=PLANE('',#163);
#18=PLANE('',#166);
#19=PLANE('',#167);
#20=PLANE('',#168);
#21=PLANE('',#169);
#22=PLANE('',#170);
#23=PLANE('',#171);
#24=FACE_OUTER_BOUND('',#33,.T.);
#25=FACE_OUTER_BOUND('',#34,.T.);
#26=FACE_OUTER_BOUND('',#35,.T.);
#27=FACE_OUTER_BOUND('',#36,.T.);
#28=FACE_OUTER_BOUND('',#37,.T.);
#29=FACE_OUTER_BOUND('',#38,.T.);
#30=FACE_OUTER_BOUND('',#39,.T.);
#31=FACE_OUTER_BOUND('',#40,.T.);
#32=FACE_OUTER_BOUND('',#41,.T.);
#33=EDGE_LOOP('',(#102,#103,#104,#105));
#34=EDGE_LOOP('',(#106));
#35=EDGE_LOOP('',(#107,#108,#109,#110));
#36=EDGE_LOOP('',(#111,#112,#113,#114));
#37=EDGE_LOOP('',(#115,#116,#117,#118));
#38=EDGE_LOOP('',(#119,#120,#121,#122));
#39=EDGE_LOOP('',(#123,#124,#125,#126));
#40=EDGE_LOOP('',(#127,#128,#129,#130));
#41=EDGE_LOOP('',(#131));
#42=EDGE_LOOP('',(#132,#133,#134,#135));
#43=LINE('',#217,#57);
#44=LINE('',#223,#58);
#45=LINE('',#227,#59);
#46=LINE('',#229,#60);
#47=LINE('',#231,#61);
#48=LINE('',#232,#62);
#49=LINE('',#235,#63);
#50=LINE('',#237,#64);
#51=LINE('',#238,#65);
#52=LINE('',#241,#66);
#53=LINE('',#242,#67);
#54=LINE('',#245,#68);
#55=LINE('',#246,#69);
#56=LINE('',#248,#70);
#57=VECTOR('',#178,4.25);
#58=VECTOR('',#187,4.5);
#59=VECTOR('',#190,10.);
#60=VECTOR('',#191,10.);
#61=VECTOR('',#192,10.);
#62=VECTOR('',#193,10.);
#63=VECTOR('',#196,10.);
#64=VECTOR('',#197,10.);
#65=VECTOR('',#198,10.);
#66=VECTOR('',#201,10.);
#67=VECTOR('',#202,10.);
#68=VECTOR('',#205,10.);
#69=VECTOR('',#206,10.);
#70=VECTOR('',#209,10.);
#71=CIRCLE('',#161,4.);
#72=CIRCLE('',#162,4.5);
#73=CIRCLE('',#165,4.5);
#74=VERTEX_POINT('',#214);
#75=VERTEX_POINT('',#216);
#76=VERTEX_POINT('',#221);
#77=VERTEX_POINT('',#225);
#78=VERTEX_POINT('',#226);
#79=VERTEX_POINT('',#228);
#80=VERTEX_POINT('',#230);
#81=VERTEX_POINT('',#234);
#82=VERTEX_POINT('',#236);
#83=VERTEX_POINT('',#240);
#84=VERTEX_POINT('',#244);
#85=EDGE_CURVE('',#74,#74,#71,.T.);
#86=EDGE_CURVE('',#74,#75,#43,.T.);
#87=EDGE_CURVE('',#75,#75,#72,.T.);
#88=EDGE_CURVE('',#76,#76,#73,.T.);
#89=EDGE_CURVE('',#76,#75,#44,.T.);
#90=EDGE_CURVE('',#77,#78,#45,.T.);
#91=EDGE_CURVE('',#78,#79,#46,.T.);
#92=EDGE_CURVE('',#79,#80,#47,.T.);
#93=EDGE_CURVE('',#80,#77,#48,.T.);
#94=EDGE_CURVE('',#77,#81,#49,.T.);
#95=EDGE_CURVE('',#82,#81,#50,.T.);
#96=EDGE_CURVE('',#78,#82,#51,.T.);
#97=EDGE_CURVE('',#83,#82,#52,.T.);
#98=EDGE_CURVE('',#79,#83,#53,.T.);
#99=EDGE_CURVE('',#84,#83,#54,.T.);
#100=EDGE_CURVE('',#80,#84,#55,.T.);
#101=EDGE_CURVE('',#81,#84,#56,.T.);
#102=ORIENTED_EDGE('',*,*,#85,.T.);
#103=ORIENTED_EDGE('',*,*,#86,.T.);
#104=ORIENTED_EDGE('',*,*,#87,.T.);
#105=ORIENTED_EDGE('',*,*,#86,.F.);
#106=ORIENTED_EDGE('',*,*,#85,.F.);
#107=ORIENTED_EDGE('',*,*,#88,.F.);
#108=ORIENTED_EDGE('',*,*,#89,.T.);
#109=ORIENTED_EDGE('',*,*,#87,.F.);
#110=ORIENTED_EDGE('',*,*,#89,.F.);
#111=ORIENTED_EDGE('',*,*,#90,.T.);
#112=ORIENTED_EDGE('',*,*,#91,.T.);
#113=ORIENTED_EDGE('',*,*,#92,.T.);
#114=ORIENTED_EDGE('',*,*,#93,.T.);
#115=ORIENTED_EDGE('',*,*,#90,.F.);
#116=ORIENTED_EDGE('',*,*,#94,.T.);
#117=ORIENTED_EDGE('',*,*,#95,.F.);
#118=ORIENTED_EDGE('',*,*,#96,.F.);
#119=ORIENTED_EDGE('',*,*,#91,.F.);
#120=ORIENTED_EDGE('',*,*,#96,.T.);
#121=ORIENTED_EDGE('',*,*,#97,.F.);
#122=ORIENTED_EDGE('',*,*,#98,.F.);
#123=ORIENTED_EDGE('',*,*,#92,.F.);
#124=ORIENTED_EDGE('',*,*,#98,.T.);
#125=ORIENTED_EDGE('',*,*,#99,.F.);
#126=ORIENTED_EDGE('',*,*,#100,.F.);
#127=ORIENTED_EDGE('',*,*,#93,.F.);
#128=ORIENTED_EDGE('',*,*,#100,.T.);
#129=ORIENTED_EDGE('',*,*,#101,.F.);
#130=ORIENTED_EDGE('',*,*,#94,.F.);
#131=ORIENTED_EDGE('',*,*,#88,.T.);
#132=ORIENTED_EDGE('',*,*,#101,.T.);
#133=ORIENTED_EDGE('',*,*,#99,.T.);
#134=ORIENTED_EDGE('',*,*,#97,.T.);
#135=ORIENTED_EDGE('',*,*,#95,.T.);
#136=CONICAL_SURFACE('',#160,4.25,0.124354994546759);
#137=ADVANCED_FACE('',(#24),#136,.T.);
#138=ADVANCED_FACE('',(#25),#17,.T.);
#139=ADVANCED_FACE('',(#26),#16,.T.);
#140=ADVANCED_FACE('',(#27),#18,.F.);
#141=ADVANCED_FACE('',(#28),#19,.T.);
#142=ADVANCED_FACE('',(#29),#20,.T.);
#143=ADVANCED_FACE('',(#30),#21,.T.);
#144=ADVANCED_FACE('',(#31),#22,.T.);
#145=ADVANCED_FACE('',(#32,#15),#23,.F.);
#146=CLOSED_SHELL('',(#137,#138,#139,#140,#141,#142,#143,#144,#145));
#147=DERIVED_UNIT_ELEMENT(#149,1.);
#148=DERIVED_UNIT_ELEMENT(#255,-3.);
#149=(
MASS_UNIT()
NAMED_UNIT(*)
SI_UNIT(.KILO.,.GRAM.)
);
#150=DERIVED_UNIT((#147,#148));
#151=MEASURE_REPRESENTATION_ITEM('density measure',
POSITIVE_RATIO_MEASURE(7850.),#150);
#152=PROPERTY_DEFINITION_REPRESENTATION(#157,#154);
#153=PROPERTY_DEFINITION_REPRESENTATION(#158,#155);
#154=REPRESENTATION('material name',(#156),#252);
#155=REPRESENTATION('density',(#151),#252);
#156=DESCRIPTIVE_REPRESENTATION_ITEM('Steel','Steel');
#157=PROPERTY_DEFINITION('material property','material name',#262);
#158=PROPERTY_DEFINITION('material property','density of part',#262);
#159=AXIS2_PLACEMENT_3D('',#212,#172,#173);
#160=AXIS2_PLACEMENT_3D('',#213,#174,#175);
#161=AXIS2_PLACEMENT_3D('',#215,#176,#177);
#162=AXIS2_PLACEMENT_3D('',#218,#179,#180);
#163=AXIS2_PLACEMENT_3D('',#219,#181,#182);
#164=AXIS2_PLACEMENT_3D('',#220,#183,#184);
#165=AXIS2_PLACEMENT_3D('',#222,#185,#186);
#166=AXIS2_PLACEMENT_3D('',#224,#188,#189);
#167=AXIS2_PLACEMENT_3D('',#233,#194,#195);
#168=AXIS2_PLACEMENT_3D('',#239,#199,#200);
#169=AXIS2_PLACEMENT_3D('',#243,#203,#204);
#170=AXIS2_PLACEMENT_3D('',#247,#207,#208);
#171=AXIS2_PLACEMENT_3D('',#249,#210,#211);
#172=DIRECTION('axis',(0.,0.,1.));
#173=DIRECTION('refdir',(1.,0.,0.));
#174=DIRECTION('center_axis',(-2.22044604925031E-15,9.9920072216264E-15,
1.));
#175=DIRECTION('ref_axis',(1.,-1.34806704255498E-30,2.33654780345948E-15));
#176=DIRECTION('center_axis',(-2.46716227694479E-15,9.62193288008469E-15,
1.));
#177=DIRECTION('ref_axis',(1.,-9.13033455116871E-32,2.46716227694479E-15));
#178=DIRECTION('',(-0.124034734589208,9.93003758405286E-15,0.992277876713668));
#179=DIRECTION('center_axis',(2.46716227694479E-15,-9.62193288008469E-15,
-1.));
#180=DIRECTION('ref_axis',(1.,-2.46519032881568E-30,2.22044604925031E-15));
#181=DIRECTION('center_axis',(2.46716227694479E-15,-9.62193288008469E-15,
-1.));
#182=DIRECTION('ref_axis',(1.,0.,2.46716227694479E-15));
#183=DIRECTION('center_axis',(-2.22044604925031E-15,9.9920072216264E-15,
1.));
#184=DIRECTION('ref_axis',(1.,-2.46519032881568E-30,2.22044604925031E-15));
#185=DIRECTION('center_axis',(-2.46716227694479E-15,9.62193288008469E-15,
1.));
#186=DIRECTION('ref_axis',(1.,0.,2.46716227694479E-15));
#187=DIRECTION('',(2.22044604925031E-15,-9.9920072216264E-15,-1.));
#188=DIRECTION('center_axis',(2.46716227694479E-15,-9.62193288008469E-15,
-1.));
#189=DIRECTION('ref_axis',(1.,0.,2.46716227694479E-15));
#190=DIRECTION('',(1.,0.,2.46716227694479E-15));
#191=DIRECTION('',(2.37388698330397E-29,1.,-9.62193288008469E-15));
#192=DIRECTION('',(-1.,0.,-2.46716227694479E-15));
#193=DIRECTION('',(-2.37388698330397E-29,-1.,9.62193288008469E-15));
#194=DIRECTION('center_axis',(2.46519032881566E-29,1.,-9.9920072216264E-15));
#195=DIRECTION('ref_axis',(-1.,0.,-2.46716227694479E-15));
#196=DIRECTION('',(-2.22044604925031E-15,9.9920072216264E-15,1.));
#197=DIRECTION('',(-1.,0.,-2.46716227694479E-15));
#198=DIRECTION('',(-2.22044604925031E-15,9.9920072216264E-15,1.));
#199=DIRECTION('center_axis',(-1.,2.37388698330398E-30,-2.22044604925031E-15));
#200=DIRECTION('ref_axis',(-2.37388698330397E-29,-1.,9.62193288008469E-15));
#201=DIRECTION('',(-2.37388698330397E-29,-1.,9.62193288008469E-15));
#202=DIRECTION('',(-2.22044604925031E-15,9.9920072216264E-15,1.));
#203=DIRECTION('center_axis',(-2.46519032881566E-29,-1.,9.9920072216264E-15));
#204=DIRECTION('ref_axis',(1.,0.,2.46716227694479E-15));
#205=DIRECTION('',(1.,0.,2.46716227694479E-15));
#206=DIRECTION('',(-2.22044604925031E-15,9.9920072216264E-15,1.));
#207=DIRECTION('center_axis',(1.,-2.37388698330398E-30,2.22044604925031E-15));
#208=DIRECTION('ref_axis',(2.37388698330397E-29,1.,-9.62193288008469E-15));
#209=DIRECTION('',(2.37388698330397E-29,1.,-9.62193288008469E-15));
#210=DIRECTION('center_axis',(2.46716227694479E-15,-9.62193288008469E-15,
-1.));
#211=DIRECTION('ref_axis',(1.,0.,2.46716227694479E-15));
#212=CARTESIAN_POINT('',(0.,0.,0.));
#213=CARTESIAN_POINT('Origin',(-72.2938314494179,-25.1999999999653,-50.2350168058864));
#214=CARTESIAN_POINT('',(-76.2938314494179,-25.1999999999654,-52.2350168058864));
#215=CARTESIAN_POINT('Origin',(-72.2938314494179,-25.1999999999654,-52.2350168058864));
#216=CARTESIAN_POINT('',(-76.7938314494179,-25.1999999999653,-48.2350168058864));
#217=CARTESIAN_POINT('',(-76.5438314494179,-25.1999999999653,-50.2350168058864));
#218=CARTESIAN_POINT('Origin',(-72.2938314494179,-25.1999999999653,-48.2350168058864));
#219=CARTESIAN_POINT('Origin',(-72.2938314494179,-25.1999999999654,-52.2350168058864));
#220=CARTESIAN_POINT('Origin',(-72.2938314494179,-25.1999999999653,-49.4350168058864));
#221=CARTESIAN_POINT('',(-76.7938314494179,-25.1999999999653,-45.4350168058864));
#222=CARTESIAN_POINT('Origin',(-72.2938314494179,-25.1999999999653,-45.4350168058864));
#223=CARTESIAN_POINT('',(-76.7938314494179,-25.1999999999653,-49.4350168058864));
#224=CARTESIAN_POINT('Origin',(-72.2938314494179,-25.1999999999653,-49.4350168058864));
#225=CARTESIAN_POINT('',(-74.7938314494179,-27.7999999999653,-49.4350168058864));
#226=CARTESIAN_POINT('',(-69.7938314494179,-27.7999999999653,-49.4350168058864));
#227=CARTESIAN_POINT('',(-74.7938314494179,-27.7999999999653,-49.4350168058864));
#228=CARTESIAN_POINT('',(-69.7938314494179,-22.5999999999653,-49.4350168058864));
#229=CARTESIAN_POINT('',(-69.7938314494179,-22.5999999999653,-49.4350168058864));
#230=CARTESIAN_POINT('',(-74.7938314494179,-22.5999999999653,-49.4350168058864));
#231=CARTESIAN_POINT('',(-74.7938314494179,-22.5999999999653,-49.4350168058864));
#232=CARTESIAN_POINT('',(-74.7938314494179,-27.7999999999653,-49.4350168058864));
#233=CARTESIAN_POINT('Origin',(-69.7938314494179,-27.7999999999653,-49.4350168058864));
#234=CARTESIAN_POINT('',(-74.7938314494179,-27.7999999999653,-45.4350168058864));
#235=CARTESIAN_POINT('',(-74.7938314494179,-27.7999999999653,-49.4350168058864));
#236=CARTESIAN_POINT('',(-69.793831449418,-27.7999999999653,-45.4350168058864));
#237=CARTESIAN_POINT('',(-74.7938314494179,-27.7999999999653,-45.4350168058864));
#238=CARTESIAN_POINT('',(-69.7938314494179,-27.7999999999653,-49.4350168058864));
#239=CARTESIAN_POINT('Origin',(-69.7938314494179,-22.5999999999653,-49.4350168058864));
#240=CARTESIAN_POINT('',(-69.7938314494179,-22.5999999999653,-45.4350168058864));
#241=CARTESIAN_POINT('',(-69.793831449418,-22.5999999999653,-45.4350168058864));
#242=CARTESIAN_POINT('',(-69.7938314494179,-22.5999999999653,-49.4350168058864));
#243=CARTESIAN_POINT('Origin',(-74.7938314494179,-22.5999999999653,-49.4350168058864));
#244=CARTESIAN_POINT('',(-74.7938314494179,-22.5999999999653,-45.4350168058864));
#245=CARTESIAN_POINT('',(-74.7938314494179,-22.5999999999653,-45.4350168058864));
#246=CARTESIAN_POINT('',(-74.7938314494179,-22.5999999999653,-49.4350168058864));
#247=CARTESIAN_POINT('Origin',(-74.7938314494179,-27.7999999999653,-49.4350168058864));
#248=CARTESIAN_POINT('',(-74.7938314494179,-27.7999999999653,-45.4350168058864));
#249=CARTESIAN_POINT('Origin',(-72.2938314494179,-25.1999999999653,-45.4350168058864));
#250=UNCERTAINTY_MEASURE_WITH_UNIT(LENGTH_MEASURE(0.01),#254,
'DISTANCE_ACCURACY_VALUE',
'Maximum model space distance between geometric entities at asserted c
onnectivities');
#251=UNCERTAINTY_MEASURE_WITH_UNIT(LENGTH_MEASURE(0.01),#254,
'DISTANCE_ACCURACY_VALUE',
'Maximum model space distance between geometric entities at asserted c
onnectivities');
#252=(
GEOMETRIC_REPRESENTATION_CONTEXT(3)
GLOBAL_UNCERTAINTY_ASSIGNED_CONTEXT((#250))
GLOBAL_UNIT_ASSIGNED_CONTEXT((#254,#256,#257))
REPRESENTATION_CONTEXT('','3D')
);
#253=(
GEOMETRIC_REPRESENTATION_CONTEXT(3)
GLOBAL_UNCERTAINTY_ASSIGNED_CONTEXT((#251))
GLOBAL_UNIT_ASSIGNED_CONTEXT((#254,#256,#257))
REPRESENTATION_CONTEXT('','3D')
);
#254=(
LENGTH_UNIT()
NAMED_UNIT(*)
SI_UNIT(.MILLI.,.METRE.)
);
#255=(
LENGTH_UNIT()
NAMED_UNIT(*)
SI_UNIT($,.METRE.)
);
#256=(
NAMED_UNIT(*)
PLANE_ANGLE_UNIT()
SI_UNIT($,.RADIAN.)
);
#257=(
NAMED_UNIT(*)
SI_UNIT($,.STERADIAN.)
SOLID_ANGLE_UNIT()
);
#258=SHAPE_DEFINITION_REPRESENTATION(#259,#260);
#259=PRODUCT_DEFINITION_SHAPE('',$,#262);
#260=SHAPE_REPRESENTATION('',(#159),#252);
#261=PRODUCT_DEFINITION_CONTEXT('part definition',#266,'design');
#262=PRODUCT_DEFINITION('(Unsaved)','(Unsaved)',#263,#261);
#263=PRODUCT_DEFINITION_FORMATION('',$,#268);
#264=PRODUCT_RELATED_PRODUCT_CATEGORY('(Unsaved)','(Unsaved)',(#268));
#265=APPLICATION_PROTOCOL_DEFINITION('international standard',
'automotive_design',2009,#266);
#266=APPLICATION_CONTEXT(
'Core Data for Automotive Mechanical Design Process');
#267=PRODUCT_CONTEXT('part definition',#266,'mechanical');
#268=PRODUCT('(Unsaved)','(Unsaved)',$,(#267));
#269=PRESENTATION_STYLE_ASSIGNMENT((#270));
#270=SURFACE_STYLE_USAGE(.BOTH.,#271);
#271=SURFACE_SIDE_STYLE('',(#272));
#272=SURFACE_STYLE_FILL_AREA(#273);
#273=FILL_AREA_STYLE('Steel - Satin',(#274));
#274=FILL_AREA_STYLE_COLOUR('Steel - Satin',#275);
#275=COLOUR_RGB('Steel - Satin',0.627450980392157,0.627450980392157,0.627450980392157);
ENDSEC;
END-ISO-10303-21;
