ISO-10303-21;
HEADER;
/* Generated by software containing ST-Developer
 * from STEP Tools, Inc. (www.steptools.com) 
 */

FILE_DESCRIPTION(
/* description */ (''),
/* implementation_level */ '2;1');

FILE_NAME(
/* name */ 'slider-shaft-x6.step',
/* time_stamp */ '2026-09-30T23:19:31+03:00',
/* author */ (''),
/* organization */ (''),
/* preprocessor_version */ 'ST-DEVELOPER v20.1',
/* originating_system */ 'Autodesk Translation Framework v15.8.0.0',
/* authorisation */ '');

FILE_SCHEMA (('AUTOMOTIVE_DESIGN { 1 0 10303 214 3 1 1 }'));
ENDSEC;

DATA;
#10=MECHANICAL_DESIGN_GEOMETRIC_PRESENTATION_REPRESENTATION('',(#13),#1167);
#11=SHAPE_REPRESENTATION_RELATIONSHIP('SRR','None',#1174,#12);
#12=ADVANCED_BREP_SHAPE_REPRESENTATION('',(#14),#1166);
#13=STYLED_ITEM('',(#1183),#14);
#14=MANIFOLD_SOLID_BREP('slider-shaft-x6',#719);
#15=CYLINDRICAL_SURFACE('',#769,2.);
#16=CYLINDRICAL_SURFACE('',#772,2.);
#17=CIRCLE('',#760,2.);
#18=CIRCLE('',#761,0.999999999999998);
#19=CIRCLE('',#764,2.);
#20=CIRCLE('',#765,1.00000000000001);
#21=CIRCLE('',#770,2.);
#22=CIRCLE('',#773,2.);
#23=CONICAL_SURFACE('',#759,1.5,0.785398163397449);
#24=CONICAL_SURFACE('',#763,1.5,0.785398163397444);
#25=FACE_OUTER_BOUND('',#65,.T.);
#26=FACE_OUTER_BOUND('',#66,.T.);
#27=FACE_OUTER_BOUND('',#67,.T.);
#28=FACE_OUTER_BOUND('',#68,.T.);
#29=FACE_OUTER_BOUND('',#69,.T.);
#30=FACE_OUTER_BOUND('',#70,.T.);
#31=FACE_OUTER_BOUND('',#71,.T.);
#32=FACE_OUTER_BOUND('',#72,.T.);
#33=FACE_OUTER_BOUND('',#73,.T.);
#34=FACE_OUTER_BOUND('',#74,.T.);
#35=FACE_OUTER_BOUND('',#75,.T.);
#36=FACE_OUTER_BOUND('',#76,.T.);
#37=FACE_OUTER_BOUND('',#77,.T.);
#38=FACE_OUTER_BOUND('',#78,.T.);
#39=FACE_OUTER_BOUND('',#79,.T.);
#40=FACE_OUTER_BOUND('',#80,.T.);
#41=FACE_OUTER_BOUND('',#81,.T.);
#42=FACE_OUTER_BOUND('',#82,.T.);
#43=FACE_OUTER_BOUND('',#83,.T.);
#44=FACE_OUTER_BOUND('',#84,.T.);
#45=FACE_OUTER_BOUND('',#85,.T.);
#46=FACE_OUTER_BOUND('',#86,.T.);
#47=FACE_OUTER_BOUND('',#87,.T.);
#48=FACE_OUTER_BOUND('',#88,.T.);
#49=FACE_OUTER_BOUND('',#89,.T.);
#50=FACE_OUTER_BOUND('',#90,.T.);
#51=FACE_OUTER_BOUND('',#91,.T.);
#52=FACE_OUTER_BOUND('',#92,.T.);
#53=FACE_OUTER_BOUND('',#93,.T.);
#54=FACE_OUTER_BOUND('',#94,.T.);
#55=FACE_OUTER_BOUND('',#95,.T.);
#56=FACE_OUTER_BOUND('',#96,.T.);
#57=FACE_OUTER_BOUND('',#97,.T.);
#58=FACE_OUTER_BOUND('',#98,.T.);
#59=FACE_OUTER_BOUND('',#99,.T.);
#60=FACE_OUTER_BOUND('',#100,.T.);
#61=FACE_OUTER_BOUND('',#101,.T.);
#62=FACE_OUTER_BOUND('',#102,.T.);
#63=FACE_OUTER_BOUND('',#103,.T.);
#64=FACE_OUTER_BOUND('',#104,.T.);
#65=EDGE_LOOP('',(#447,#448,#449,#450));
#66=EDGE_LOOP('',(#451,#452,#453,#454,#455,#456,#457,#458));
#67=EDGE_LOOP('',(#459,#460,#461,#462));
#68=EDGE_LOOP('',(#463,#464,#465,#466));
#69=EDGE_LOOP('',(#467,#468,#469,#470));
#70=EDGE_LOOP('',(#471,#472,#473,#474));
#71=EDGE_LOOP('',(#475,#476,#477,#478));
#72=EDGE_LOOP('',(#479,#480,#481,#482,#483,#484,#485,#486,#487,#488,#489,
#490));
#73=EDGE_LOOP('',(#491,#492,#493,#494,#495,#496,#497,#498));
#74=EDGE_LOOP('',(#499,#500,#501,#502,#503,#504,#505,#506));
#75=EDGE_LOOP('',(#507,#508,#509,#510));
#76=EDGE_LOOP('',(#511,#512,#513,#514));
#77=EDGE_LOOP('',(#515,#516,#517,#518));
#78=EDGE_LOOP('',(#519,#520,#521,#522));
#79=EDGE_LOOP('',(#523,#524,#525,#526));
#80=EDGE_LOOP('',(#527,#528,#529,#530));
#81=EDGE_LOOP('',(#531,#532,#533,#534));
#82=EDGE_LOOP('',(#535,#536,#537));
#83=EDGE_LOOP('',(#538,#539,#540,#541));
#84=EDGE_LOOP('',(#542,#543,#544));
#85=EDGE_LOOP('',(#545,#546,#547,#548));
#86=EDGE_LOOP('',(#549,#550,#551,#552));
#87=EDGE_LOOP('',(#553,#554,#555,#556));
#88=EDGE_LOOP('',(#557,#558,#559,#560));
#89=EDGE_LOOP('',(#561,#562,#563,#564));
#90=EDGE_LOOP('',(#565,#566,#567,#568));
#91=EDGE_LOOP('',(#569,#570,#571,#572));
#92=EDGE_LOOP('',(#573,#574,#575,#576));
#93=EDGE_LOOP('',(#577,#578,#579,#580));
#94=EDGE_LOOP('',(#581,#582,#583,#584));
#95=EDGE_LOOP('',(#585,#586,#587,#588));
#96=EDGE_LOOP('',(#589,#590,#591,#592));
#97=EDGE_LOOP('',(#593,#594,#595,#596));
#98=EDGE_LOOP('',(#597,#598,#599,#600));
#99=EDGE_LOOP('',(#601,#602,#603,#604));
#100=EDGE_LOOP('',(#605,#606,#607,#608));
#101=EDGE_LOOP('',(#609,#610,#611,#612));
#102=EDGE_LOOP('',(#613,#614,#615,#616,#617,#618,#619,#620));
#103=EDGE_LOOP('',(#621,#622,#623,#624,#625,#626,#627,#628,#629,#630,#631,
#632,#633,#634));
#104=EDGE_LOOP('',(#635,#636,#637,#638,#639,#640,#641,#642));
#105=LINE('',#969,#197);
#106=LINE('',#971,#198);
#107=LINE('',#973,#199);
#108=LINE('',#974,#200);
#109=LINE('',#977,#201);
#110=LINE('',#979,#202);
#111=LINE('',#981,#203);
#112=LINE('',#983,#204);
#113=LINE('',#985,#205);
#114=LINE('',#987,#206);
#115=LINE('',#988,#207);
#116=LINE('',#991,#208);
#117=LINE('',#992,#209);
#118=LINE('',#995,#210);
#119=LINE('',#996,#211);
#120=LINE('',#1000,#212);
#121=LINE('',#1001,#213);
#122=LINE('',#1002,#214);
#123=LINE('',#1005,#215);
#124=LINE('',#1006,#216);
#125=LINE('',#1009,#217);
#126=LINE('',#1010,#218);
#127=LINE('',#1013,#219);
#128=LINE('',#1015,#220);
#129=LINE('',#1017,#221);
#130=LINE('',#1019,#222);
#131=LINE('',#1021,#223);
#132=LINE('',#1023,#224);
#133=LINE('',#1025,#225);
#134=LINE('',#1027,#226);
#135=LINE('',#1028,#227);
#136=LINE('',#1032,#228);
#137=LINE('',#1034,#229);
#138=LINE('',#1035,#230);
#139=LINE('',#1036,#231);
#140=LINE('',#1040,#232);
#141=LINE('',#1042,#233);
#142=LINE('',#1043,#234);
#143=LINE('',#1044,#235);
#144=LINE('',#1047,#236);
#145=LINE('',#1049,#237);
#146=LINE('',#1050,#238);
#147=LINE('',#1053,#239);
#148=LINE('',#1054,#240);
#149=LINE('',#1056,#241);
#150=LINE('',#1059,#242);
#151=LINE('',#1060,#243);
#152=LINE('',#1063,#244);
#153=LINE('',#1064,#245);
#154=LINE('',#1067,#246);
#155=LINE('',#1068,#247);
#156=LINE('',#1071,#248);
#157=LINE('',#1072,#249);
#158=LINE('',#1076,#250);
#159=LINE('',#1077,#251);
#160=LINE('',#1078,#252);
#161=LINE('',#1080,#253);
#162=LINE('',#1083,#254);
#163=LINE('',#1085,#255);
#164=LINE('',#1086,#256);
#165=LINE('',#1089,#257);
#166=LINE('',#1090,#258);
#167=LINE('',#1092,#259);
#168=LINE('',#1095,#260);
#169=LINE('',#1097,#261);
#170=LINE('',#1098,#262);
#171=LINE('',#1100,#263);
#172=LINE('',#1103,#264);
#173=LINE('',#1105,#265);
#174=LINE('',#1106,#266);
#175=LINE('',#1109,#267);
#176=LINE('',#1111,#268);
#177=LINE('',#1112,#269);
#178=LINE('',#1116,#270);
#179=LINE('',#1121,#271);
#180=LINE('',#1123,#272);
#181=LINE('',#1124,#273);
#182=LINE('',#1128,#274);
#183=LINE('',#1132,#275);
#184=LINE('',#1133,#276);
#185=LINE('',#1136,#277);
#186=LINE('',#1137,#278);
#187=LINE('',#1140,#279);
#188=LINE('',#1141,#280);
#189=LINE('',#1144,#281);
#190=LINE('',#1148,#282);
#191=LINE('',#1149,#283);
#192=LINE('',#1152,#284);
#193=LINE('',#1156,#285);
#194=LINE('',#1157,#286);
#195=LINE('',#1159,#287);
#196=LINE('',#1162,#288);
#197=VECTOR('',#783,10.);
#198=VECTOR('',#784,10.);
#199=VECTOR('',#785,10.);
#200=VECTOR('',#786,10.);
#201=VECTOR('',#789,10.);
#202=VECTOR('',#790,10.);
#203=VECTOR('',#791,10.);
#204=VECTOR('',#792,10.);
#205=VECTOR('',#793,10.);
#206=VECTOR('',#794,10.);
#207=VECTOR('',#795,10.);
#208=VECTOR('',#798,10.);
#209=VECTOR('',#799,10.);
#210=VECTOR('',#802,10.);
#211=VECTOR('',#803,10.);
#212=VECTOR('',#806,10.);
#213=VECTOR('',#807,10.);
#214=VECTOR('',#808,10.);
#215=VECTOR('',#811,10.);
#216=VECTOR('',#812,10.);
#217=VECTOR('',#815,10.);
#218=VECTOR('',#816,10.);
#219=VECTOR('',#819,10.);
#220=VECTOR('',#820,10.);
#221=VECTOR('',#821,10.);
#222=VECTOR('',#822,10.);
#223=VECTOR('',#823,10.);
#224=VECTOR('',#824,10.);
#225=VECTOR('',#825,10.);
#226=VECTOR('',#826,10.);
#227=VECTOR('',#827,10.);
#228=VECTOR('',#830,10.);
#229=VECTOR('',#831,10.);
#230=VECTOR('',#832,10.);
#231=VECTOR('',#833,10.);
#232=VECTOR('',#836,10.);
#233=VECTOR('',#837,10.);
#234=VECTOR('',#838,10.);
#235=VECTOR('',#839,10.);
#236=VECTOR('',#842,10.);
#237=VECTOR('',#843,10.);
#238=VECTOR('',#844,10.);
#239=VECTOR('',#847,10.);
#240=VECTOR('',#848,10.);
#241=VECTOR('',#851,10.);
#242=VECTOR('',#854,10.);
#243=VECTOR('',#855,10.);
#244=VECTOR('',#858,10.);
#245=VECTOR('',#859,10.);
#246=VECTOR('',#862,10.);
#247=VECTOR('',#863,10.);
#248=VECTOR('',#866,10.);
#249=VECTOR('',#867,10.);
#250=VECTOR('',#870,10.);
#251=VECTOR('',#871,10.);
#252=VECTOR('',#872,10.);
#253=VECTOR('',#875,10.);
#254=VECTOR('',#878,10.);
#255=VECTOR('',#879,10.);
#256=VECTOR('',#880,10.);
#257=VECTOR('',#883,10.);
#258=VECTOR('',#884,10.);
#259=VECTOR('',#887,10.);
#260=VECTOR('',#890,10.);
#261=VECTOR('',#891,10.);
#262=VECTOR('',#892,10.);
#263=VECTOR('',#895,10.);
#264=VECTOR('',#898,10.);
#265=VECTOR('',#899,10.);
#266=VECTOR('',#900,10.);
#267=VECTOR('',#903,10.);
#268=VECTOR('',#904,10.);
#269=VECTOR('',#905,10.);
#270=VECTOR('',#908,10.);
#271=VECTOR('',#915,10.);
#272=VECTOR('',#916,10.);
#273=VECTOR('',#917,10.);
#274=VECTOR('',#920,10.);
#275=VECTOR('',#927,10.);
#276=VECTOR('',#928,10.);
#277=VECTOR('',#931,10.);
#278=VECTOR('',#932,10.);
#279=VECTOR('',#935,10.);
#280=VECTOR('',#936,10.);
#281=VECTOR('',#939,10.);
#282=VECTOR('',#944,10.);
#283=VECTOR('',#945,10.);
#284=VECTOR('',#948,10.);
#285=VECTOR('',#953,10.);
#286=VECTOR('',#954,10.);
#287=VECTOR('',#957,10.);
#288=VECTOR('',#962,10.);
#289=VERTEX_POINT('',#967);
#290=VERTEX_POINT('',#968);
#291=VERTEX_POINT('',#970);
#292=VERTEX_POINT('',#972);
#293=VERTEX_POINT('',#976);
#294=VERTEX_POINT('',#978);
#295=VERTEX_POINT('',#980);
#296=VERTEX_POINT('',#982);
#297=VERTEX_POINT('',#984);
#298=VERTEX_POINT('',#986);
#299=VERTEX_POINT('',#990);
#300=VERTEX_POINT('',#994);
#301=VERTEX_POINT('',#998);
#302=VERTEX_POINT('',#999);
#303=VERTEX_POINT('',#1004);
#304=VERTEX_POINT('',#1008);
#305=VERTEX_POINT('',#1012);
#306=VERTEX_POINT('',#1014);
#307=VERTEX_POINT('',#1016);
#308=VERTEX_POINT('',#1018);
#309=VERTEX_POINT('',#1020);
#310=VERTEX_POINT('',#1022);
#311=VERTEX_POINT('',#1024);
#312=VERTEX_POINT('',#1026);
#313=VERTEX_POINT('',#1030);
#314=VERTEX_POINT('',#1031);
#315=VERTEX_POINT('',#1033);
#316=VERTEX_POINT('',#1038);
#317=VERTEX_POINT('',#1039);
#318=VERTEX_POINT('',#1041);
#319=VERTEX_POINT('',#1046);
#320=VERTEX_POINT('',#1048);
#321=VERTEX_POINT('',#1052);
#322=VERTEX_POINT('',#1058);
#323=VERTEX_POINT('',#1062);
#324=VERTEX_POINT('',#1066);
#325=VERTEX_POINT('',#1070);
#326=VERTEX_POINT('',#1074);
#327=VERTEX_POINT('',#1075);
#328=VERTEX_POINT('',#1082);
#329=VERTEX_POINT('',#1084);
#330=VERTEX_POINT('',#1088);
#331=VERTEX_POINT('',#1094);
#332=VERTEX_POINT('',#1096);
#333=VERTEX_POINT('',#1102);
#334=VERTEX_POINT('',#1104);
#335=VERTEX_POINT('',#1108);
#336=VERTEX_POINT('',#1110);
#337=VERTEX_POINT('',#1114);
#338=VERTEX_POINT('',#1115);
#339=VERTEX_POINT('',#1120);
#340=VERTEX_POINT('',#1122);
#341=VERTEX_POINT('',#1126);
#342=VERTEX_POINT('',#1127);
#343=VERTEX_POINT('',#1135);
#344=VERTEX_POINT('',#1139);
#345=VERTEX_POINT('',#1143);
#346=VERTEX_POINT('',#1147);
#347=VERTEX_POINT('',#1151);
#348=VERTEX_POINT('',#1155);
#349=EDGE_CURVE('',#289,#290,#105,.F.);
#350=EDGE_CURVE('',#290,#291,#106,.T.);
#351=EDGE_CURVE('',#291,#292,#107,.T.);
#352=EDGE_CURVE('',#292,#289,#108,.T.);
#353=EDGE_CURVE('',#291,#293,#109,.T.);
#354=EDGE_CURVE('',#294,#293,#110,.T.);
#355=EDGE_CURVE('',#294,#295,#111,.T.);
#356=EDGE_CURVE('',#296,#295,#112,.T.);
#357=EDGE_CURVE('',#296,#297,#113,.T.);
#358=EDGE_CURVE('',#298,#297,#114,.T.);
#359=EDGE_CURVE('',#298,#292,#115,.T.);
#360=EDGE_CURVE('',#290,#299,#116,.T.);
#361=EDGE_CURVE('',#293,#299,#117,.T.);
#362=EDGE_CURVE('',#300,#299,#118,.T.);
#363=EDGE_CURVE('',#300,#294,#119,.T.);
#364=EDGE_CURVE('',#301,#302,#120,.F.);
#365=EDGE_CURVE('',#302,#296,#121,.T.);
#366=EDGE_CURVE('',#295,#301,#122,.T.);
#367=EDGE_CURVE('',#302,#303,#123,.T.);
#368=EDGE_CURVE('',#297,#303,#124,.T.);
#369=EDGE_CURVE('',#304,#303,#125,.T.);
#370=EDGE_CURVE('',#304,#298,#126,.T.);
#371=EDGE_CURVE('',#305,#304,#127,.T.);
#372=EDGE_CURVE('',#306,#305,#128,.T.);
#373=EDGE_CURVE('',#307,#306,#129,.T.);
#374=EDGE_CURVE('',#308,#307,#130,.T.);
#375=EDGE_CURVE('',#309,#308,#131,.T.);
#376=EDGE_CURVE('',#310,#309,#132,.T.);
#377=EDGE_CURVE('',#311,#310,#133,.T.);
#378=EDGE_CURVE('',#312,#311,#134,.T.);
#379=EDGE_CURVE('',#289,#312,#135,.T.);
#380=EDGE_CURVE('',#313,#314,#136,.T.);
#381=EDGE_CURVE('',#315,#313,#137,.T.);
#382=EDGE_CURVE('',#315,#300,#138,.T.);
#383=EDGE_CURVE('',#314,#312,#139,.T.);
#384=EDGE_CURVE('',#316,#317,#140,.T.);
#385=EDGE_CURVE('',#318,#316,#141,.T.);
#386=EDGE_CURVE('',#305,#318,#142,.T.);
#387=EDGE_CURVE('',#301,#317,#143,.T.);
#388=EDGE_CURVE('',#313,#319,#144,.T.);
#389=EDGE_CURVE('',#319,#320,#145,.F.);
#390=EDGE_CURVE('',#320,#315,#146,.T.);
#391=EDGE_CURVE('',#321,#314,#147,.T.);
#392=EDGE_CURVE('',#319,#321,#148,.T.);
#393=EDGE_CURVE('',#311,#321,#149,.F.);
#394=EDGE_CURVE('',#318,#322,#150,.T.);
#395=EDGE_CURVE('',#322,#306,#151,.F.);
#396=EDGE_CURVE('',#323,#316,#152,.T.);
#397=EDGE_CURVE('',#322,#323,#153,.T.);
#398=EDGE_CURVE('',#317,#324,#154,.T.);
#399=EDGE_CURVE('',#324,#323,#155,.F.);
#400=EDGE_CURVE('',#325,#321,#156,.T.);
#401=EDGE_CURVE('',#310,#325,#157,.T.);
#402=EDGE_CURVE('',#326,#327,#158,.T.);
#403=EDGE_CURVE('',#309,#326,#159,.T.);
#404=EDGE_CURVE('',#327,#309,#160,.T.);
#405=EDGE_CURVE('',#326,#325,#161,.T.);
#406=EDGE_CURVE('',#308,#328,#162,.T.);
#407=EDGE_CURVE('',#329,#308,#163,.T.);
#408=EDGE_CURVE('',#328,#329,#164,.T.);
#409=EDGE_CURVE('',#322,#330,#165,.T.);
#410=EDGE_CURVE('',#330,#307,#166,.T.);
#411=EDGE_CURVE('',#330,#329,#167,.T.);
#412=EDGE_CURVE('',#331,#328,#168,.T.);
#413=EDGE_CURVE('',#329,#332,#169,.T.);
#414=EDGE_CURVE('',#331,#332,#170,.T.);
#415=EDGE_CURVE('',#328,#327,#171,.T.);
#416=EDGE_CURVE('',#333,#326,#172,.T.);
#417=EDGE_CURVE('',#327,#334,#173,.T.);
#418=EDGE_CURVE('',#334,#333,#174,.T.);
#419=EDGE_CURVE('',#334,#335,#175,.T.);
#420=EDGE_CURVE('',#335,#336,#176,.T.);
#421=EDGE_CURVE('',#336,#333,#177,.T.);
#422=EDGE_CURVE('',#337,#338,#178,.T.);
#423=EDGE_CURVE('',#338,#336,#17,.T.);
#424=EDGE_CURVE('',#335,#337,#18,.T.);
#425=EDGE_CURVE('',#337,#339,#179,.T.);
#426=EDGE_CURVE('',#339,#340,#180,.T.);
#427=EDGE_CURVE('',#340,#338,#181,.T.);
#428=EDGE_CURVE('',#341,#342,#182,.T.);
#429=EDGE_CURVE('',#342,#340,#19,.T.);
#430=EDGE_CURVE('',#339,#341,#20,.T.);
#431=EDGE_CURVE('',#332,#342,#183,.T.);
#432=EDGE_CURVE('',#341,#331,#184,.T.);
#433=EDGE_CURVE('',#343,#333,#185,.T.);
#434=EDGE_CURVE('',#343,#325,#186,.F.);
#435=EDGE_CURVE('',#344,#336,#187,.T.);
#436=EDGE_CURVE('',#344,#343,#188,.T.);
#437=EDGE_CURVE('',#338,#345,#189,.T.);
#438=EDGE_CURVE('',#345,#344,#21,.T.);
#439=EDGE_CURVE('',#346,#340,#190,.T.);
#440=EDGE_CURVE('',#346,#345,#191,.F.);
#441=EDGE_CURVE('',#342,#347,#192,.T.);
#442=EDGE_CURVE('',#347,#346,#22,.T.);
#443=EDGE_CURVE('',#332,#348,#193,.T.);
#444=EDGE_CURVE('',#348,#347,#194,.T.);
#445=EDGE_CURVE('',#330,#348,#195,.F.);
#446=EDGE_CURVE('',#324,#320,#196,.T.);
#447=ORIENTED_EDGE('',*,*,#349,.T.);
#448=ORIENTED_EDGE('',*,*,#350,.T.);
#449=ORIENTED_EDGE('',*,*,#351,.T.);
#450=ORIENTED_EDGE('',*,*,#352,.T.);
#451=ORIENTED_EDGE('',*,*,#351,.F.);
#452=ORIENTED_EDGE('',*,*,#353,.T.);
#453=ORIENTED_EDGE('',*,*,#354,.F.);
#454=ORIENTED_EDGE('',*,*,#355,.T.);
#455=ORIENTED_EDGE('',*,*,#356,.F.);
#456=ORIENTED_EDGE('',*,*,#357,.T.);
#457=ORIENTED_EDGE('',*,*,#358,.F.);
#458=ORIENTED_EDGE('',*,*,#359,.T.);
#459=ORIENTED_EDGE('',*,*,#350,.F.);
#460=ORIENTED_EDGE('',*,*,#360,.T.);
#461=ORIENTED_EDGE('',*,*,#361,.F.);
#462=ORIENTED_EDGE('',*,*,#353,.F.);
#463=ORIENTED_EDGE('',*,*,#354,.T.);
#464=ORIENTED_EDGE('',*,*,#361,.T.);
#465=ORIENTED_EDGE('',*,*,#362,.F.);
#466=ORIENTED_EDGE('',*,*,#363,.T.);
#467=ORIENTED_EDGE('',*,*,#364,.T.);
#468=ORIENTED_EDGE('',*,*,#365,.T.);
#469=ORIENTED_EDGE('',*,*,#356,.T.);
#470=ORIENTED_EDGE('',*,*,#366,.T.);
#471=ORIENTED_EDGE('',*,*,#365,.F.);
#472=ORIENTED_EDGE('',*,*,#367,.T.);
#473=ORIENTED_EDGE('',*,*,#368,.F.);
#474=ORIENTED_EDGE('',*,*,#357,.F.);
#475=ORIENTED_EDGE('',*,*,#358,.T.);
#476=ORIENTED_EDGE('',*,*,#368,.T.);
#477=ORIENTED_EDGE('',*,*,#369,.F.);
#478=ORIENTED_EDGE('',*,*,#370,.T.);
#479=ORIENTED_EDGE('',*,*,#352,.F.);
#480=ORIENTED_EDGE('',*,*,#359,.F.);
#481=ORIENTED_EDGE('',*,*,#370,.F.);
#482=ORIENTED_EDGE('',*,*,#371,.F.);
#483=ORIENTED_EDGE('',*,*,#372,.F.);
#484=ORIENTED_EDGE('',*,*,#373,.F.);
#485=ORIENTED_EDGE('',*,*,#374,.F.);
#486=ORIENTED_EDGE('',*,*,#375,.F.);
#487=ORIENTED_EDGE('',*,*,#376,.F.);
#488=ORIENTED_EDGE('',*,*,#377,.F.);
#489=ORIENTED_EDGE('',*,*,#378,.F.);
#490=ORIENTED_EDGE('',*,*,#379,.F.);
#491=ORIENTED_EDGE('',*,*,#380,.F.);
#492=ORIENTED_EDGE('',*,*,#381,.F.);
#493=ORIENTED_EDGE('',*,*,#382,.T.);
#494=ORIENTED_EDGE('',*,*,#362,.T.);
#495=ORIENTED_EDGE('',*,*,#360,.F.);
#496=ORIENTED_EDGE('',*,*,#349,.F.);
#497=ORIENTED_EDGE('',*,*,#379,.T.);
#498=ORIENTED_EDGE('',*,*,#383,.F.);
#499=ORIENTED_EDGE('',*,*,#384,.F.);
#500=ORIENTED_EDGE('',*,*,#385,.F.);
#501=ORIENTED_EDGE('',*,*,#386,.F.);
#502=ORIENTED_EDGE('',*,*,#371,.T.);
#503=ORIENTED_EDGE('',*,*,#369,.T.);
#504=ORIENTED_EDGE('',*,*,#367,.F.);
#505=ORIENTED_EDGE('',*,*,#364,.F.);
#506=ORIENTED_EDGE('',*,*,#387,.T.);
#507=ORIENTED_EDGE('',*,*,#381,.T.);
#508=ORIENTED_EDGE('',*,*,#388,.T.);
#509=ORIENTED_EDGE('',*,*,#389,.T.);
#510=ORIENTED_EDGE('',*,*,#390,.T.);
#511=ORIENTED_EDGE('',*,*,#380,.T.);
#512=ORIENTED_EDGE('',*,*,#391,.F.);
#513=ORIENTED_EDGE('',*,*,#392,.F.);
#514=ORIENTED_EDGE('',*,*,#388,.F.);
#515=ORIENTED_EDGE('',*,*,#383,.T.);
#516=ORIENTED_EDGE('',*,*,#378,.T.);
#517=ORIENTED_EDGE('',*,*,#393,.T.);
#518=ORIENTED_EDGE('',*,*,#391,.T.);
#519=ORIENTED_EDGE('',*,*,#386,.T.);
#520=ORIENTED_EDGE('',*,*,#394,.T.);
#521=ORIENTED_EDGE('',*,*,#395,.T.);
#522=ORIENTED_EDGE('',*,*,#372,.T.);
#523=ORIENTED_EDGE('',*,*,#385,.T.);
#524=ORIENTED_EDGE('',*,*,#396,.F.);
#525=ORIENTED_EDGE('',*,*,#397,.F.);
#526=ORIENTED_EDGE('',*,*,#394,.F.);
#527=ORIENTED_EDGE('',*,*,#384,.T.);
#528=ORIENTED_EDGE('',*,*,#398,.T.);
#529=ORIENTED_EDGE('',*,*,#399,.T.);
#530=ORIENTED_EDGE('',*,*,#396,.T.);
#531=ORIENTED_EDGE('',*,*,#400,.T.);
#532=ORIENTED_EDGE('',*,*,#393,.F.);
#533=ORIENTED_EDGE('',*,*,#377,.T.);
#534=ORIENTED_EDGE('',*,*,#401,.T.);
#535=ORIENTED_EDGE('',*,*,#402,.F.);
#536=ORIENTED_EDGE('',*,*,#403,.F.);
#537=ORIENTED_EDGE('',*,*,#404,.F.);
#538=ORIENTED_EDGE('',*,*,#376,.T.);
#539=ORIENTED_EDGE('',*,*,#403,.T.);
#540=ORIENTED_EDGE('',*,*,#405,.T.);
#541=ORIENTED_EDGE('',*,*,#401,.F.);
#542=ORIENTED_EDGE('',*,*,#406,.F.);
#543=ORIENTED_EDGE('',*,*,#407,.F.);
#544=ORIENTED_EDGE('',*,*,#408,.F.);
#545=ORIENTED_EDGE('',*,*,#373,.T.);
#546=ORIENTED_EDGE('',*,*,#395,.F.);
#547=ORIENTED_EDGE('',*,*,#409,.T.);
#548=ORIENTED_EDGE('',*,*,#410,.T.);
#549=ORIENTED_EDGE('',*,*,#411,.T.);
#550=ORIENTED_EDGE('',*,*,#407,.T.);
#551=ORIENTED_EDGE('',*,*,#374,.T.);
#552=ORIENTED_EDGE('',*,*,#410,.F.);
#553=ORIENTED_EDGE('',*,*,#412,.T.);
#554=ORIENTED_EDGE('',*,*,#408,.T.);
#555=ORIENTED_EDGE('',*,*,#413,.T.);
#556=ORIENTED_EDGE('',*,*,#414,.F.);
#557=ORIENTED_EDGE('',*,*,#406,.T.);
#558=ORIENTED_EDGE('',*,*,#415,.T.);
#559=ORIENTED_EDGE('',*,*,#404,.T.);
#560=ORIENTED_EDGE('',*,*,#375,.T.);
#561=ORIENTED_EDGE('',*,*,#416,.T.);
#562=ORIENTED_EDGE('',*,*,#402,.T.);
#563=ORIENTED_EDGE('',*,*,#417,.T.);
#564=ORIENTED_EDGE('',*,*,#418,.T.);
#565=ORIENTED_EDGE('',*,*,#419,.T.);
#566=ORIENTED_EDGE('',*,*,#420,.T.);
#567=ORIENTED_EDGE('',*,*,#421,.T.);
#568=ORIENTED_EDGE('',*,*,#418,.F.);
#569=ORIENTED_EDGE('',*,*,#422,.T.);
#570=ORIENTED_EDGE('',*,*,#423,.T.);
#571=ORIENTED_EDGE('',*,*,#420,.F.);
#572=ORIENTED_EDGE('',*,*,#424,.T.);
#573=ORIENTED_EDGE('',*,*,#422,.F.);
#574=ORIENTED_EDGE('',*,*,#425,.T.);
#575=ORIENTED_EDGE('',*,*,#426,.T.);
#576=ORIENTED_EDGE('',*,*,#427,.T.);
#577=ORIENTED_EDGE('',*,*,#428,.T.);
#578=ORIENTED_EDGE('',*,*,#429,.T.);
#579=ORIENTED_EDGE('',*,*,#426,.F.);
#580=ORIENTED_EDGE('',*,*,#430,.T.);
#581=ORIENTED_EDGE('',*,*,#431,.T.);
#582=ORIENTED_EDGE('',*,*,#428,.F.);
#583=ORIENTED_EDGE('',*,*,#432,.T.);
#584=ORIENTED_EDGE('',*,*,#414,.T.);
#585=ORIENTED_EDGE('',*,*,#405,.F.);
#586=ORIENTED_EDGE('',*,*,#416,.F.);
#587=ORIENTED_EDGE('',*,*,#433,.F.);
#588=ORIENTED_EDGE('',*,*,#434,.T.);
#589=ORIENTED_EDGE('',*,*,#421,.F.);
#590=ORIENTED_EDGE('',*,*,#435,.F.);
#591=ORIENTED_EDGE('',*,*,#436,.T.);
#592=ORIENTED_EDGE('',*,*,#433,.T.);
#593=ORIENTED_EDGE('',*,*,#423,.F.);
#594=ORIENTED_EDGE('',*,*,#437,.T.);
#595=ORIENTED_EDGE('',*,*,#438,.T.);
#596=ORIENTED_EDGE('',*,*,#435,.T.);
#597=ORIENTED_EDGE('',*,*,#427,.F.);
#598=ORIENTED_EDGE('',*,*,#439,.F.);
#599=ORIENTED_EDGE('',*,*,#440,.T.);
#600=ORIENTED_EDGE('',*,*,#437,.F.);
#601=ORIENTED_EDGE('',*,*,#429,.F.);
#602=ORIENTED_EDGE('',*,*,#441,.T.);
#603=ORIENTED_EDGE('',*,*,#442,.T.);
#604=ORIENTED_EDGE('',*,*,#439,.T.);
#605=ORIENTED_EDGE('',*,*,#431,.F.);
#606=ORIENTED_EDGE('',*,*,#443,.T.);
#607=ORIENTED_EDGE('',*,*,#444,.T.);
#608=ORIENTED_EDGE('',*,*,#441,.F.);
#609=ORIENTED_EDGE('',*,*,#413,.F.);
#610=ORIENTED_EDGE('',*,*,#411,.F.);
#611=ORIENTED_EDGE('',*,*,#445,.T.);
#612=ORIENTED_EDGE('',*,*,#443,.F.);
#613=ORIENTED_EDGE('',*,*,#412,.F.);
#614=ORIENTED_EDGE('',*,*,#432,.F.);
#615=ORIENTED_EDGE('',*,*,#430,.F.);
#616=ORIENTED_EDGE('',*,*,#425,.F.);
#617=ORIENTED_EDGE('',*,*,#424,.F.);
#618=ORIENTED_EDGE('',*,*,#419,.F.);
#619=ORIENTED_EDGE('',*,*,#417,.F.);
#620=ORIENTED_EDGE('',*,*,#415,.F.);
#621=ORIENTED_EDGE('',*,*,#400,.F.);
#622=ORIENTED_EDGE('',*,*,#434,.F.);
#623=ORIENTED_EDGE('',*,*,#436,.F.);
#624=ORIENTED_EDGE('',*,*,#438,.F.);
#625=ORIENTED_EDGE('',*,*,#440,.F.);
#626=ORIENTED_EDGE('',*,*,#442,.F.);
#627=ORIENTED_EDGE('',*,*,#444,.F.);
#628=ORIENTED_EDGE('',*,*,#445,.F.);
#629=ORIENTED_EDGE('',*,*,#409,.F.);
#630=ORIENTED_EDGE('',*,*,#397,.T.);
#631=ORIENTED_EDGE('',*,*,#399,.F.);
#632=ORIENTED_EDGE('',*,*,#446,.T.);
#633=ORIENTED_EDGE('',*,*,#389,.F.);
#634=ORIENTED_EDGE('',*,*,#392,.T.);
#635=ORIENTED_EDGE('',*,*,#382,.F.);
#636=ORIENTED_EDGE('',*,*,#390,.F.);
#637=ORIENTED_EDGE('',*,*,#446,.F.);
#638=ORIENTED_EDGE('',*,*,#398,.F.);
#639=ORIENTED_EDGE('',*,*,#387,.F.);
#640=ORIENTED_EDGE('',*,*,#366,.F.);
#641=ORIENTED_EDGE('',*,*,#355,.F.);
#642=ORIENTED_EDGE('',*,*,#363,.F.);
#643=PLANE('',#733);
#644=PLANE('',#734);
#645=PLANE('',#735);
#646=PLANE('',#736);
#647=PLANE('',#737);
#648=PLANE('',#738);
#649=PLANE('',#739);
#650=PLANE('',#740);
#651=PLANE('',#741);
#652=PLANE('',#742);
#653=PLANE('',#743);
#654=PLANE('',#744);
#655=PLANE('',#745);
#656=PLANE('',#746);
#657=PLANE('',#747);
#658=PLANE('',#748);
#659=PLANE('',#749);
#660=PLANE('',#750);
#661=PLANE('',#751);
#662=PLANE('',#752);
#663=PLANE('',#753);
#664=PLANE('',#754);
#665=PLANE('',#755);
#666=PLANE('',#756);
#667=PLANE('',#757);
#668=PLANE('',#758);
#669=PLANE('',#762);
#670=PLANE('',#766);
#671=PLANE('',#767);
#672=PLANE('',#768);
#673=PLANE('',#771);
#674=PLANE('',#774);
#675=PLANE('',#775);
#676=PLANE('',#776);
#677=PLANE('',#777);
#678=PLANE('',#778);
#679=ADVANCED_FACE('',(#25),#643,.T.);
#680=ADVANCED_FACE('',(#26),#644,.T.);
#681=ADVANCED_FACE('',(#27),#645,.F.);
#682=ADVANCED_FACE('',(#28),#646,.T.);
#683=ADVANCED_FACE('',(#29),#647,.T.);
#684=ADVANCED_FACE('',(#30),#648,.F.);
#685=ADVANCED_FACE('',(#31),#649,.T.);
#686=ADVANCED_FACE('',(#32),#650,.T.);
#687=ADVANCED_FACE('',(#33),#651,.F.);
#688=ADVANCED_FACE('',(#34),#652,.F.);
#689=ADVANCED_FACE('',(#35),#653,.T.);
#690=ADVANCED_FACE('',(#36),#654,.T.);
#691=ADVANCED_FACE('',(#37),#655,.T.);
#692=ADVANCED_FACE('',(#38),#656,.T.);
#693=ADVANCED_FACE('',(#39),#657,.T.);
#694=ADVANCED_FACE('',(#40),#658,.T.);
#695=ADVANCED_FACE('',(#41),#659,.T.);
#696=ADVANCED_FACE('',(#42),#660,.T.);
#697=ADVANCED_FACE('',(#43),#661,.T.);
#698=ADVANCED_FACE('',(#44),#662,.T.);
#699=ADVANCED_FACE('',(#45),#663,.T.);
#700=ADVANCED_FACE('',(#46),#664,.T.);
#701=ADVANCED_FACE('',(#47),#665,.T.);
#702=ADVANCED_FACE('',(#48),#666,.T.);
#703=ADVANCED_FACE('',(#49),#667,.T.);
#704=ADVANCED_FACE('',(#50),#668,.T.);
#705=ADVANCED_FACE('',(#51),#23,.T.);
#706=ADVANCED_FACE('',(#52),#669,.T.);
#707=ADVANCED_FACE('',(#53),#24,.T.);
#708=ADVANCED_FACE('',(#54),#670,.T.);
#709=ADVANCED_FACE('',(#55),#671,.T.);
#710=ADVANCED_FACE('',(#56),#672,.T.);
#711=ADVANCED_FACE('',(#57),#15,.T.);
#712=ADVANCED_FACE('',(#58),#673,.T.);
#713=ADVANCED_FACE('',(#59),#16,.T.);
#714=ADVANCED_FACE('',(#60),#674,.T.);
#715=ADVANCED_FACE('',(#61),#675,.T.);
#716=ADVANCED_FACE('',(#62),#676,.T.);
#717=ADVANCED_FACE('',(#63),#677,.F.);
#718=ADVANCED_FACE('',(#64),#678,.T.);
#719=CLOSED_SHELL('',(#679,#680,#681,#682,#683,#684,#685,#686,#687,#688,
#689,#690,#691,#692,#693,#694,#695,#696,#697,#698,#699,#700,#701,#702,#703,
#704,#705,#706,#707,#708,#709,#710,#711,#712,#713,#714,#715,#716,#717,#718));
#720=DERIVED_UNIT_ELEMENT(#722,1.);
#721=DERIVED_UNIT_ELEMENT(#1169,-3.);
#722=(
MASS_UNIT()
NAMED_UNIT(*)
SI_UNIT(.KILO.,.GRAM.)
);
#723=DERIVED_UNIT((#720,#721));
#724=MEASURE_REPRESENTATION_ITEM('density measure',
POSITIVE_RATIO_MEASURE(7850.),#723);
#725=PROPERTY_DEFINITION_REPRESENTATION(#730,#727);
#726=PROPERTY_DEFINITION_REPRESENTATION(#731,#728);
#727=REPRESENTATION('material name',(#729),#1166);
#728=REPRESENTATION('density',(#724),#1166);
#729=DESCRIPTIVE_REPRESENTATION_ITEM('Steel','Steel');
#730=PROPERTY_DEFINITION('material property','material name',#1176);
#731=PROPERTY_DEFINITION('material property','density of part',#1176);
#732=AXIS2_PLACEMENT_3D('',#965,#779,#780);
#733=AXIS2_PLACEMENT_3D('',#966,#781,#782);
#734=AXIS2_PLACEMENT_3D('',#975,#787,#788);
#735=AXIS2_PLACEMENT_3D('',#989,#796,#797);
#736=AXIS2_PLACEMENT_3D('',#993,#800,#801);
#737=AXIS2_PLACEMENT_3D('',#997,#804,#805);
#738=AXIS2_PLACEMENT_3D('',#1003,#809,#810);
#739=AXIS2_PLACEMENT_3D('',#1007,#813,#814);
#740=AXIS2_PLACEMENT_3D('',#1011,#817,#818);
#741=AXIS2_PLACEMENT_3D('',#1029,#828,#829);
#742=AXIS2_PLACEMENT_3D('',#1037,#834,#835);
#743=AXIS2_PLACEMENT_3D('',#1045,#840,#841);
#744=AXIS2_PLACEMENT_3D('',#1051,#845,#846);
#745=AXIS2_PLACEMENT_3D('',#1055,#849,#850);
#746=AXIS2_PLACEMENT_3D('',#1057,#852,#853);
#747=AXIS2_PLACEMENT_3D('',#1061,#856,#857);
#748=AXIS2_PLACEMENT_3D('',#1065,#860,#861);
#749=AXIS2_PLACEMENT_3D('',#1069,#864,#865);
#750=AXIS2_PLACEMENT_3D('',#1073,#868,#869);
#751=AXIS2_PLACEMENT_3D('',#1079,#873,#874);
#752=AXIS2_PLACEMENT_3D('',#1081,#876,#877);
#753=AXIS2_PLACEMENT_3D('',#1087,#881,#882);
#754=AXIS2_PLACEMENT_3D('',#1091,#885,#886);
#755=AXIS2_PLACEMENT_3D('',#1093,#888,#889);
#756=AXIS2_PLACEMENT_3D('',#1099,#893,#894);
#757=AXIS2_PLACEMENT_3D('',#1101,#896,#897);
#758=AXIS2_PLACEMENT_3D('',#1107,#901,#902);
#759=AXIS2_PLACEMENT_3D('',#1113,#906,#907);
#760=AXIS2_PLACEMENT_3D('',#1117,#909,#910);
#761=AXIS2_PLACEMENT_3D('',#1118,#911,#912);
#762=AXIS2_PLACEMENT_3D('',#1119,#913,#914);
#763=AXIS2_PLACEMENT_3D('',#1125,#918,#919);
#764=AXIS2_PLACEMENT_3D('',#1129,#921,#922);
#765=AXIS2_PLACEMENT_3D('',#1130,#923,#924);
#766=AXIS2_PLACEMENT_3D('',#1131,#925,#926);
#767=AXIS2_PLACEMENT_3D('',#1134,#929,#930);
#768=AXIS2_PLACEMENT_3D('',#1138,#933,#934);
#769=AXIS2_PLACEMENT_3D('',#1142,#937,#938);
#770=AXIS2_PLACEMENT_3D('',#1145,#940,#941);
#771=AXIS2_PLACEMENT_3D('',#1146,#942,#943);
#772=AXIS2_PLACEMENT_3D('',#1150,#946,#947);
#773=AXIS2_PLACEMENT_3D('',#1153,#949,#950);
#774=AXIS2_PLACEMENT_3D('',#1154,#951,#952);
#775=AXIS2_PLACEMENT_3D('',#1158,#955,#956);
#776=AXIS2_PLACEMENT_3D('',#1160,#958,#959);
#777=AXIS2_PLACEMENT_3D('',#1161,#960,#961);
#778=AXIS2_PLACEMENT_3D('',#1163,#963,#964);
#779=DIRECTION('axis',(0.,0.,1.));
#780=DIRECTION('refdir',(1.,0.,0.));
#781=DIRECTION('center_axis',(-0.707106781186512,0.707106781186583,-8.84961203985426E-15));
#782=DIRECTION('ref_axis',(-1.25152413685028E-14,0.,1.));
#783=DIRECTION('',(-0.707106781186583,-0.707106781186512,5.49532360539278E-15));
#784=DIRECTION('',(2.52323414687536E-15,-9.9920072216264E-15,-1.));
#785=DIRECTION('',(-0.707106781186583,-0.707106781186512,4.99574873217522E-15));
#786=DIRECTION('',(-2.52323414687536E-15,9.9920072216264E-15,1.));
#787=DIRECTION('center_axis',(2.52323414687536E-15,-9.58828975812635E-15,
-1.));
#788=DIRECTION('ref_axis',(-1.,0.,-2.52323414687536E-15));
#789=DIRECTION('',(1.,5.60270529276293E-31,2.52323414687536E-15));
#790=DIRECTION('',(-0.707106781186567,0.707106781186528,-8.56414068372954E-15));
#791=DIRECTION('',(-2.21235029509097E-29,-1.,9.71445146547012E-15));
#792=DIRECTION('',(0.707106781186595,0.7071067811865,-4.99574873217508E-15));
#793=DIRECTION('',(-1.,-5.60270529276293E-31,-2.52323414687536E-15));
#794=DIRECTION('',(0.707106781186544,-0.707106781186551,8.56414068372971E-15));
#795=DIRECTION('',(2.21235029509097E-29,1.,-9.71445146547012E-15));
#796=DIRECTION('center_axis',(-2.46519032881566E-29,-1.,9.9920072216264E-15));
#797=DIRECTION('ref_axis',(1.,0.,2.46716227694479E-15));
#798=DIRECTION('',(1.,0.,2.46716227694479E-15));
#799=DIRECTION('',(-2.52323414687536E-15,9.9920072216264E-15,1.));
#800=DIRECTION('center_axis',(0.707106781186528,0.707106781186567,-5.28122008830021E-15));
#801=DIRECTION('ref_axis',(-7.4687730747516E-15,0.,-1.));
#802=DIRECTION('',(-0.707106781186567,0.707106781186528,-8.6355085227606E-15));
#803=DIRECTION('',(2.52323414687536E-15,-9.9920072216264E-15,-1.));
#804=DIRECTION('center_axis',(0.7071067811865,-0.707106781186595,8.84961203985435E-15));
#805=DIRECTION('ref_axis',(1.25152413685031E-14,0.,-1.));
#806=DIRECTION('',(0.707106781186595,0.7071067811865,-5.49532360539263E-15));
#807=DIRECTION('',(2.52323414687536E-15,-9.9920072216264E-15,-1.));
#808=DIRECTION('',(-2.52323414687536E-15,9.9920072216264E-15,1.));
#809=DIRECTION('center_axis',(2.46519032881566E-29,1.,-9.9920072216264E-15));
#810=DIRECTION('ref_axis',(-1.,0.,-2.46716227694479E-15));
#811=DIRECTION('',(-1.,0.,-2.46716227694479E-15));
#812=DIRECTION('',(-2.52323414687536E-15,9.9920072216264E-15,1.));
#813=DIRECTION('center_axis',(-0.707106781186551,-0.707106781186544,5.28122008829991E-15));
#814=DIRECTION('ref_axis',(7.46877307475093E-15,0.,1.));
#815=DIRECTION('',(0.707106781186544,-0.707106781186551,8.63550852276079E-15));
#816=DIRECTION('',(2.52323414687536E-15,-9.9920072216264E-15,-1.));
#817=DIRECTION('center_axis',(-1.,-2.38833270492783E-30,-2.52323414687536E-15));
#818=DIRECTION('ref_axis',(2.21235029509097E-29,1.,-9.71445146547012E-15));
#819=DIRECTION('',(2.28238411125051E-29,1.,-9.9920072216264E-15));
#820=DIRECTION('',(2.52323414687536E-15,-9.58828975812635E-15,-1.));
#821=DIRECTION('',(2.21235029509097E-29,1.,-9.71445146547012E-15));
#822=DIRECTION('',(2.52323414687536E-15,-9.76996261670138E-15,-1.));
#823=DIRECTION('',(-2.22635705832288E-29,-1.,9.76996261670138E-15));
#824=DIRECTION('',(-2.52323414687536E-15,9.76996261670138E-15,1.));
#825=DIRECTION('',(2.21235029509097E-29,1.,-9.71445146547012E-15));
#826=DIRECTION('',(-2.52323414687536E-15,9.58828975812635E-15,1.));
#827=DIRECTION('',(2.28238411125051E-29,1.,-9.9920072216264E-15));
#828=DIRECTION('center_axis',(-2.22044604925031E-15,9.9920072216264E-15,
1.));
#829=DIRECTION('ref_axis',(1.,0.,2.22044604925031E-15));
#830=DIRECTION('',(-1.,9.25185853854297E-16,-2.22044604925032E-15));
#831=DIRECTION('',(-0.707106781186582,0.707106781186513,-8.63550852276049E-15));
#832=DIRECTION('',(-2.28238411125051E-29,-1.,9.9920072216264E-15));
#833=DIRECTION('',(-0.707106781186568,-0.707106781186527,5.49532360539296E-15));
#834=DIRECTION('center_axis',(-2.22044604925031E-15,9.9920072216264E-15,
1.));
#835=DIRECTION('ref_axis',(1.,0.,2.22044604925031E-15));
#836=DIRECTION('',(0.707106781186546,0.707106781186549,-5.49532360539323E-15));
#837=DIRECTION('',(1.,9.25185853854296E-16,2.2204460492503E-15));
#838=DIRECTION('',(0.707106781186511,-0.707106781186584,8.63550852276104E-15));
#839=DIRECTION('',(-2.28238411125051E-29,-1.,9.9920072216264E-15));
#840=DIRECTION('center_axis',(0.707106781186513,0.707106781186582,-4.99574873217607E-15));
#841=DIRECTION('ref_axis',(-7.06505561125193E-15,0.,-1.));
#842=DIRECTION('',(-2.52323414687536E-15,9.58828975812635E-15,1.));
#843=DIRECTION('',(-0.707106781186582,0.707106781186513,-8.47950574641692E-15));
#844=DIRECTION('',(2.52323414687536E-15,-9.58828975812635E-15,-1.));
#845=DIRECTION('center_axis',(9.25185853854318E-16,1.,-9.58828975812635E-15));
#846=DIRECTION('ref_axis',(1.,-9.25185853854296E-16,2.27738056333366E-15));
#847=DIRECTION('',(2.52323414687536E-15,-9.58828975812635E-15,-1.));
#848=DIRECTION('',(-1.,9.25185853854296E-16,-2.27738056333366E-15));
#849=DIRECTION('center_axis',(-0.707106781186527,0.707106781186568,-8.56414068372983E-15));
#850=DIRECTION('ref_axis',(-1.21115239050023E-14,0.,1.));
#851=DIRECTION('',(-0.577350269189636,-0.577350269189595,0.577350269189646));
#852=DIRECTION('center_axis',(-0.707106781186584,-0.707106781186511,4.99574873217521E-15));
#853=DIRECTION('ref_axis',(7.06505561125002E-15,0.,1.));
#854=DIRECTION('',(-2.52323414687536E-15,9.58828975812635E-15,1.));
#855=DIRECTION('',(0.577350269189607,-0.57735026918967,-0.577350269189601));
#856=DIRECTION('center_axis',(9.25185853854275E-16,-1.,9.58828975812635E-15));
#857=DIRECTION('ref_axis',(-1.,-9.25185853854296E-16,-2.27738056333364E-15));
#858=DIRECTION('',(2.52323414687536E-15,-9.58828975812635E-15,-1.));
#859=DIRECTION('',(1.,9.25185853854296E-16,2.27738056333364E-15));
#860=DIRECTION('center_axis',(0.707106781186549,-0.707106781186546,8.56414068372967E-15));
#861=DIRECTION('ref_axis',(1.21115239050017E-14,0.,-1.));
#862=DIRECTION('',(-2.52323414687536E-15,9.58828975812635E-15,1.));
#863=DIRECTION('',(0.707106781186546,0.707106781186549,-5.25880326706587E-15));
#864=DIRECTION('center_axis',(-0.707106781186551,-6.86915450674147E-15,
-0.707106781186544));
#865=DIRECTION('ref_axis',(-0.707106781186544,0.,0.707106781186551));
#866=DIRECTION('',(-2.21235029509097E-29,-1.,9.71445146547012E-15));
#867=DIRECTION('',(0.577350269189624,0.577350269189622,-0.577350269189632));
#868=DIRECTION('center_axis',(-0.577350269189632,0.577350269189627,0.577350269189618));
#869=DIRECTION('ref_axis',(0.707106781186539,0.,0.707106781186556));
#870=DIRECTION('',(0.,-0.707106781186542,0.707106781186553));
#871=DIRECTION('',(0.707106781186544,0.707106781186551,0.));
#872=DIRECTION('',(-0.707106781186543,-7.85046229341885E-15,-0.707106781186552));
#873=DIRECTION('center_axis',(-0.707106781186551,0.707106781186544,-8.6926027939856E-15));
#874=DIRECTION('ref_axis',(-1.22931967635766E-14,0.,1.));
#875=DIRECTION('',(2.52323414687536E-15,-9.76996261670138E-15,-1.));
#876=DIRECTION('center_axis',(-0.577350269189629,-0.577350269189619,0.577350269189629));
#877=DIRECTION('ref_axis',(0.707106781186548,0.,0.707106781186548));
#878=DIRECTION('',(0.707106781186543,9.42055475210262E-15,0.707106781186552));
#879=DIRECTION('',(-0.707106781186548,0.707106781186548,-1.25607396694702E-14));
#880=DIRECTION('',(0.,-0.707106781186554,-0.707106781186541));
#881=DIRECTION('center_axis',(-0.707106781186548,-6.8691545067415E-15,-0.707106781186548));
#882=DIRECTION('ref_axis',(-0.707106781186548,0.,0.707106781186548));
#883=DIRECTION('',(-2.21235029509097E-29,-1.,9.71445146547012E-15));
#884=DIRECTION('',(-0.577350269189627,0.57735026918963,0.57735026918962));
#885=DIRECTION('center_axis',(-0.707106781186548,-0.707106781186548,5.12421084243159E-15));
#886=DIRECTION('ref_axis',(7.24672846982602E-15,0.,1.));
#887=DIRECTION('',(-2.52323414687536E-15,9.76996261670138E-15,1.));
#888=DIRECTION('center_axis',(-1.25607396694703E-15,-0.707106781186541,
0.707106781186554));
#889=DIRECTION('ref_axis',(1.,0.,1.77635683940026E-15));
#890=DIRECTION('',(-1.,4.8949830529098E-30,-1.77635683940025E-15));
#891=DIRECTION('',(1.,-4.8949830529098E-30,1.77635683940025E-15));
#892=DIRECTION('',(0.281084637714798,-0.678598344545858,-0.678598344545846));
#893=DIRECTION('center_axis',(-0.707106781186552,6.90840681820858E-15,0.707106781186543));
#894=DIRECTION('ref_axis',(0.707106781186543,0.,0.707106781186552));
#895=DIRECTION('',(2.22635705832288E-29,1.,-9.76996261670138E-15));
#896=DIRECTION('center_axis',(-1.25607396694701E-15,0.707106781186553,0.707106781186542));
#897=DIRECTION('ref_axis',(1.,0.,1.77635683940025E-15));
#898=DIRECTION('',(-1.,4.8949830529098E-30,-1.77635683940025E-15));
#899=DIRECTION('',(1.,-4.8949830529098E-30,1.77635683940025E-15));
#900=DIRECTION('',(0.281084637714809,0.678598344545844,-0.678598344545855));
#901=DIRECTION('center_axis',(0.5,0.500000000000008,0.707106781186542));
#902=DIRECTION('ref_axis',(0.816496580927724,0.,-0.577350269189629));
#903=DIRECTION('',(0.707106781186547,-0.707106781186548,8.16448078515563E-15));
#904=DIRECTION('',(0.500000000000001,0.499999999999989,-0.707106781186555));
#905=DIRECTION('',(-0.707106781186547,0.707106781186548,-8.16448078515563E-15));
#906=DIRECTION('center_axis',(0.,-8.88178419700124E-15,-1.));
#907=DIRECTION('ref_axis',(0.923879532511288,0.382683432365086,-2.30148335721224E-15));
#908=DIRECTION('',(0.707106781186549,-6.28036983473508E-15,-0.707106781186546));
#909=DIRECTION('center_axis',(-1.77635683940025E-15,9.76996261670138E-15,
1.));
#910=DIRECTION('ref_axis',(0.923879532511288,0.382683432365086,-2.4033934848786E-15));
#911=DIRECTION('center_axis',(1.77635683940025E-15,-9.76996261670138E-15,
-1.));
#912=DIRECTION('ref_axis',(0.923879532511288,0.382683432365086,-2.09766310187953E-15));
#913=DIRECTION('center_axis',(0.707106781186552,6.90840681820855E-15,0.707106781186543));
#914=DIRECTION('ref_axis',(0.707106781186543,0.,-0.707106781186552));
#915=DIRECTION('',(-2.22221105640623E-29,-1.,9.76996261670138E-15));
#916=DIRECTION('',(0.707106781186543,-6.28036983473514E-15,-0.707106781186552));
#917=DIRECTION('',(2.22221105640623E-29,1.,-9.76996261670138E-15));
#918=DIRECTION('center_axis',(0.,-8.88178419700124E-15,-1.));
#919=DIRECTION('ref_axis',(0.923879532511287,-0.382683432365091,4.9978388313702E-15));
#920=DIRECTION('',(0.499999999999996,-0.500000000000005,-0.707106781186546));
#921=DIRECTION('center_axis',(-1.77635683940025E-15,9.76996261670138E-15,
1.));
#922=DIRECTION('ref_axis',(0.923879532511287,-0.382683432365091,4.80678696975719E-15));
#923=DIRECTION('center_axis',(1.77635683940025E-15,-9.76996261670138E-15,
-1.));
#924=DIRECTION('ref_axis',(0.923879532511287,-0.38268343236509,5.37994255459623E-15));
#925=DIRECTION('center_axis',(0.500000000000003,-0.5,0.707106781186546));
#926=DIRECTION('ref_axis',(0.816496580927724,0.,-0.577350269189629));
#927=DIRECTION('',(0.707106781186549,0.707106781186546,-5.65233285126157E-15));
#928=DIRECTION('',(-0.707106781186549,-0.707106781186546,5.65233285126157E-15));
#929=DIRECTION('center_axis',(2.22499229677721E-29,1.,-9.76996261670138E-15));
#930=DIRECTION('ref_axis',(-1.,0.,-2.27738056333365E-15));
#931=DIRECTION('',(-1.77635683940025E-15,9.76996261670138E-15,1.));
#932=DIRECTION('',(1.,0.,2.27738056333365E-15));
#933=DIRECTION('center_axis',(0.707106781186548,0.707106781186547,-5.65233285126159E-15));
#934=DIRECTION('ref_axis',(-7.99360577730112E-15,0.,-1.));
#935=DIRECTION('',(-1.77635683940025E-15,9.76996261670138E-15,1.));
#936=DIRECTION('',(-0.707106781186547,0.707106781186548,-8.47950574641718E-15));
#937=DIRECTION('center_axis',(1.77635683940025E-15,-9.76996261670138E-15,
-1.));
#938=DIRECTION('ref_axis',(0.923879532511288,0.382683432365086,-2.4033934848786E-15));
#939=DIRECTION('',(1.77635683940025E-15,-9.76996261670138E-15,-1.));
#940=DIRECTION('center_axis',(-2.27738056333365E-15,9.71445146547012E-15,
1.));
#941=DIRECTION('ref_axis',(0.923879532511288,0.382683432365086,-2.4033934848786E-15));
#942=DIRECTION('center_axis',(1.,-4.86717064920008E-30,1.77635683940025E-15));
#943=DIRECTION('ref_axis',(2.21235029509097E-29,1.,-9.71445146547012E-15));
#944=DIRECTION('',(-1.77635683940025E-15,9.76996261670138E-15,1.));
#945=DIRECTION('',(-2.21235029509097E-29,-1.,9.71445146547012E-15));
#946=DIRECTION('center_axis',(-1.77635683940025E-15,9.76996261670138E-15,
1.));
#947=DIRECTION('ref_axis',(0.923879532511287,-0.382683432365091,4.80678696975719E-15));
#948=DIRECTION('',(1.77635683940025E-15,-9.76996261670138E-15,-1.));
#949=DIRECTION('center_axis',(-2.27738056333365E-15,9.71445146547012E-15,
1.));
#950=DIRECTION('ref_axis',(0.923879532511287,-0.382683432365091,4.80678696975719E-15));
#951=DIRECTION('center_axis',(0.707106781186546,-0.707106781186549,8.16448078515565E-15));
#952=DIRECTION('ref_axis',(1.15463194561017E-14,0.,-1.));
#953=DIRECTION('',(1.77635683940025E-15,-9.76996261670138E-15,-1.));
#954=DIRECTION('',(0.707106781186549,0.707106781186546,-5.25880326706583E-15));
#955=DIRECTION('center_axis',(-2.22499229677721E-29,-1.,9.76996261670138E-15));
#956=DIRECTION('ref_axis',(1.,0.,2.27738056333365E-15));
#957=DIRECTION('',(-1.,0.,-2.27738056333365E-15));
#958=DIRECTION('center_axis',(-1.77635683940025E-15,9.76996261670138E-15,
1.));
#959=DIRECTION('ref_axis',(1.,0.,1.77635683940025E-15));
#960=DIRECTION('center_axis',(-2.27738056333365E-15,9.71445146547012E-15,
1.));
#961=DIRECTION('ref_axis',(-1.,0.,-2.27738056333365E-15));
#962=DIRECTION('',(2.21235029509097E-29,1.,-9.71445146547012E-15));
#963=DIRECTION('center_axis',(1.,2.38833270492783E-30,2.52323414687536E-15));
#964=DIRECTION('ref_axis',(-2.21235029509097E-29,-1.,9.71445146547012E-15));
#965=CARTESIAN_POINT('',(0.,0.,0.));
#966=CARTESIAN_POINT('Origin',(-74.493831449418,-22.8999999999652,-40.6350168058864));
#967=CARTESIAN_POINT('',(-74.693831449418,-23.0999999999653,-45.4350168058864));
#968=CARTESIAN_POINT('',(-74.2938314494179,-22.6999999999653,-45.4350168058864));
#969=CARTESIAN_POINT('',(-73.7688314494179,-22.1749999999653,-45.4350168058864));
#970=CARTESIAN_POINT('',(-74.2938314494179,-22.6999999999653,-49.4350168058864));
#971=CARTESIAN_POINT('',(-74.293831449418,-22.6999999999653,-40.6350168058864));
#972=CARTESIAN_POINT('',(-74.6938314494179,-23.0999999999653,-49.4350168058864));
#973=CARTESIAN_POINT('',(-74.5188314494179,-22.9249999999653,-49.4350168058864));
#974=CARTESIAN_POINT('',(-74.693831449418,-23.0999999999652,-40.6350168058864));
#975=CARTESIAN_POINT('Origin',(-72.2938314494179,-25.1999999999654,-49.4350168058864));
#976=CARTESIAN_POINT('',(-70.2938314494179,-22.6999999999653,-49.4350168058864));
#977=CARTESIAN_POINT('',(-73.4938314494179,-22.6999999999653,-49.4350168058864));
#978=CARTESIAN_POINT('',(-69.8938314494179,-23.0999999999653,-49.4350168058864));
#979=CARTESIAN_POINT('',(-70.0688314494179,-22.9249999999653,-49.4350168058864));
#980=CARTESIAN_POINT('',(-69.8938314494179,-27.2999999999654,-49.4350168058864));
#981=CARTESIAN_POINT('',(-69.8938314494179,-21.6999999999654,-49.4350168058864));
#982=CARTESIAN_POINT('',(-70.2938314494179,-27.6999999999653,-49.4350168058864));
#983=CARTESIAN_POINT('',(-70.068831449418,-27.4749999999655,-49.4350168058864));
#984=CARTESIAN_POINT('',(-74.2938314494179,-27.6999999999653,-49.4350168058864));
#985=CARTESIAN_POINT('',(-71.0938314494179,-27.6999999999653,-49.4350168058864));
#986=CARTESIAN_POINT('',(-74.6938314494179,-27.2999999999653,-49.4350168058864));
#987=CARTESIAN_POINT('',(-74.5188314494179,-27.4749999999653,-49.4350168058864));
#988=CARTESIAN_POINT('',(-74.6938314494179,-33.0000000000447,-49.4350168058863));
#989=CARTESIAN_POINT('Origin',(-74.6938314494179,-22.6999999999653,-49.4350168058864));
#990=CARTESIAN_POINT('',(-70.2938314494179,-22.6999999999653,-45.4350168058864));
#991=CARTESIAN_POINT('',(-74.6938314494179,-22.6999999999653,-45.4350168058864));
#992=CARTESIAN_POINT('',(-70.293831449418,-22.6999999999653,-40.6350168058864));
#993=CARTESIAN_POINT('Origin',(-70.0938314494179,-22.8999999999652,-40.6350168058864));
#994=CARTESIAN_POINT('',(-69.8938314494179,-23.0999999999653,-45.4350168058864));
#995=CARTESIAN_POINT('',(-70.818831449418,-22.1749999999653,-45.4350168058864));
#996=CARTESIAN_POINT('',(-69.893831449418,-23.0999999999652,-40.6350168058864));
#997=CARTESIAN_POINT('Origin',(-70.0938314494179,-27.4999999999653,-40.6350168058864));
#998=CARTESIAN_POINT('',(-69.8938314494179,-27.2999999999654,-45.4350168058864));
#999=CARTESIAN_POINT('',(-70.2938314494179,-27.6999999999653,-45.4350168058864));
#1000=CARTESIAN_POINT('',(-70.818831449418,-28.2249999999653,-45.4350168058864));
#1001=CARTESIAN_POINT('',(-70.293831449418,-27.6999999999652,-40.6350168058864));
#1002=CARTESIAN_POINT('',(-69.893831449418,-27.2999999999653,-40.6350168058864));
#1003=CARTESIAN_POINT('Origin',(-69.8938314494179,-27.6999999999653,-49.4350168058864));
#1004=CARTESIAN_POINT('',(-74.2938314494179,-27.6999999999653,-45.4350168058864));
#1005=CARTESIAN_POINT('',(-74.6938314494179,-27.6999999999653,-45.4350168058864));
#1006=CARTESIAN_POINT('',(-74.293831449418,-27.6999999999652,-40.6350168058864));
#1007=CARTESIAN_POINT('Origin',(-74.493831449418,-27.4999999999652,-40.6350168058864));
#1008=CARTESIAN_POINT('',(-74.693831449418,-27.2999999999653,-45.4350168058864));
#1009=CARTESIAN_POINT('',(-73.7688314494179,-28.2249999999653,-45.4350168058864));
#1010=CARTESIAN_POINT('',(-74.693831449418,-27.2999999999652,-40.6350168058864));
#1011=CARTESIAN_POINT('Origin',(-74.693831449418,-28.6999999999652,-31.8350168058864));
#1012=CARTESIAN_POINT('',(-74.6938314494179,-27.6999999999653,-45.4350168058864));
#1013=CARTESIAN_POINT('',(-74.6938314494179,-28.4499999999653,-45.4350168058864));
#1014=CARTESIAN_POINT('',(-74.693831449418,-27.6999999999651,-30.7350168058864));
#1015=CARTESIAN_POINT('',(-74.693831449418,-27.6999999999651,-31.8350168058864));
#1016=CARTESIAN_POINT('',(-74.693831449418,-31.0000000000445,-30.7350168058864));
#1017=CARTESIAN_POINT('',(-74.693831449418,-26.9499999999652,-30.7350168058864));
#1018=CARTESIAN_POINT('',(-74.693831449418,-31.0000000000445,-27.7350168058864));
#1019=CARTESIAN_POINT('',(-74.693831449418,-31.0000000000445,-31.7850168058864));
#1020=CARTESIAN_POINT('',(-74.693831449418,-19.3999999998859,-27.7350168058865));
#1021=CARTESIAN_POINT('',(-74.693831449418,-26.9499999999652,-27.7350168058864));
#1022=CARTESIAN_POINT('',(-74.693831449418,-19.3999999998859,-30.7350168058865));
#1023=CARTESIAN_POINT('',(-74.693831449418,-19.3999999998859,-31.7850168058865));
#1024=CARTESIAN_POINT('',(-74.693831449418,-22.6999999999651,-30.7350168058864));
#1025=CARTESIAN_POINT('',(-74.693831449418,-26.9499999999652,-30.7350168058864));
#1026=CARTESIAN_POINT('',(-74.6938314494179,-22.6999999999653,-45.4350168058864));
#1027=CARTESIAN_POINT('',(-74.693831449418,-22.6999999999651,-31.8350168058864));
#1028=CARTESIAN_POINT('',(-74.6938314494179,-25.4499999999653,-45.4350168058864));
#1029=CARTESIAN_POINT('Origin',(-72.2938314494179,-22.1999999999653,-45.4350168058864));
#1030=CARTESIAN_POINT('',(-70.8938314494179,-21.6999999999654,-45.4350168058864));
#1031=CARTESIAN_POINT('',(-73.693831449418,-21.6999999999654,-45.4350168058864));
#1032=CARTESIAN_POINT('',(-73.4938314494179,-21.6999999999654,-45.4350168058864));
#1033=CARTESIAN_POINT('',(-69.8938314494179,-22.6999999999653,-45.4350168058864));
#1034=CARTESIAN_POINT('',(-70.868831449418,-21.7249999999653,-45.4350168058864));
#1035=CARTESIAN_POINT('',(-69.8938314494179,-21.9499999999653,-45.4350168058864));
#1036=CARTESIAN_POINT('',(-73.7188314494179,-21.7249999999653,-45.4350168058864));
#1037=CARTESIAN_POINT('Origin',(-72.2938314494179,-28.1999999999653,-45.4350168058864));
#1038=CARTESIAN_POINT('',(-70.8938314494179,-28.6999999999654,-45.4350168058864));
#1039=CARTESIAN_POINT('',(-69.8938314494179,-27.6999999999653,-45.4350168058864));
#1040=CARTESIAN_POINT('',(-70.8688314494179,-28.6749999999653,-45.4350168058864));
#1041=CARTESIAN_POINT('',(-73.693831449418,-28.6999999999654,-45.4350168058864));
#1042=CARTESIAN_POINT('',(-71.0938314494179,-28.6999999999654,-45.4350168058864));
#1043=CARTESIAN_POINT('',(-73.718831449418,-28.6749999999653,-45.4350168058864));
#1044=CARTESIAN_POINT('',(-69.8938314494179,-24.9499999999653,-45.4350168058864));
#1045=CARTESIAN_POINT('Origin',(-70.393831449418,-22.1999999999652,-31.8350168058864));
#1046=CARTESIAN_POINT('',(-70.893831449418,-21.6999999999652,-31.7350168058864));
#1047=CARTESIAN_POINT('',(-70.893831449418,-21.6999999999652,-31.8350168058864));
#1048=CARTESIAN_POINT('',(-69.893831449418,-22.6999999999651,-31.7350168058864));
#1049=CARTESIAN_POINT('',(-69.768831449418,-22.8249999999651,-31.7350168058864));
#1050=CARTESIAN_POINT('',(-69.893831449418,-22.6999999999651,-31.8350168058864));
#1051=CARTESIAN_POINT('Origin',(-74.693831449418,-21.6999999999652,-31.8350168058864));
#1052=CARTESIAN_POINT('',(-73.693831449418,-21.6999999999652,-31.7350168058864));
#1053=CARTESIAN_POINT('',(-73.693831449418,-21.6999999999652,-31.8350168058864));
#1054=CARTESIAN_POINT('',(-74.693831449418,-21.6999999999652,-31.7350168058864));
#1055=CARTESIAN_POINT('Origin',(-74.193831449418,-22.1999999999652,-31.8350168058864));
#1056=CARTESIAN_POINT('',(-74.8854981160846,-22.8916666666318,-30.5433501392198));
#1057=CARTESIAN_POINT('Origin',(-74.193831449418,-28.1999999999652,-31.8350168058864));
#1058=CARTESIAN_POINT('',(-73.693831449418,-28.6999999999652,-31.7350168058864));
#1059=CARTESIAN_POINT('',(-73.693831449418,-28.6999999999652,-31.8350168058864));
#1060=CARTESIAN_POINT('',(-74.3021647827513,-28.0916666666318,-31.126683472553));
#1061=CARTESIAN_POINT('Origin',(-69.893831449418,-28.6999999999652,-31.8350168058864));
#1062=CARTESIAN_POINT('',(-70.893831449418,-28.6999999999652,-31.7350168058864));
#1063=CARTESIAN_POINT('',(-70.893831449418,-28.6999999999652,-31.8350168058864));
#1064=CARTESIAN_POINT('',(-69.893831449418,-28.6999999999652,-31.7350168058864));
#1065=CARTESIAN_POINT('Origin',(-70.393831449418,-28.1999999999652,-31.8350168058864));
#1066=CARTESIAN_POINT('',(-69.893831449418,-27.6999999999652,-31.7350168058864));
#1067=CARTESIAN_POINT('',(-69.893831449418,-27.6999999999652,-31.8350168058864));
#1068=CARTESIAN_POINT('',(-69.768831449418,-27.5749999999652,-31.7350168058864));
#1069=CARTESIAN_POINT('Origin',(-74.193831449418,-26.9499999999652,-31.2350168058864));
#1070=CARTESIAN_POINT('',(-73.693831449418,-18.3999999998859,-31.7350168058865));
#1071=CARTESIAN_POINT('',(-73.693831449418,-26.9499999999652,-31.7350168058864));
#1072=CARTESIAN_POINT('',(-74.693831449418,-19.3999999998859,-30.7350168058865));
#1073=CARTESIAN_POINT('Origin',(-74.693831449418,-19.3999999998859,-27.7350168058865));
#1074=CARTESIAN_POINT('',(-73.693831449418,-18.3999999998859,-27.7350168058865));
#1075=CARTESIAN_POINT('',(-73.693831449418,-19.3999999998859,-26.7350168058865));
#1076=CARTESIAN_POINT('',(-73.693831449418,-18.3999999998859,-27.7350168058865));
#1077=CARTESIAN_POINT('',(-74.693831449418,-19.3999999998859,-27.7350168058865));
#1078=CARTESIAN_POINT('',(-73.693831449418,-19.3999999998859,-26.7350168058865));
#1079=CARTESIAN_POINT('Origin',(-74.193831449418,-18.8999999998859,-31.7850168058865));
#1080=CARTESIAN_POINT('',(-73.693831449418,-18.3999999998859,-31.7850168058865));
#1081=CARTESIAN_POINT('Origin',(-73.693831449418,-32.0000000000445,-27.7350168058863));
#1082=CARTESIAN_POINT('',(-73.693831449418,-31.0000000000445,-26.7350168058863));
#1083=CARTESIAN_POINT('',(-74.693831449418,-31.0000000000445,-27.7350168058864));
#1084=CARTESIAN_POINT('',(-73.693831449418,-32.0000000000445,-27.7350168058863));
#1085=CARTESIAN_POINT('',(-73.693831449418,-32.0000000000445,-27.7350168058863));
#1086=CARTESIAN_POINT('',(-73.693831449418,-31.0000000000445,-26.7350168058863));
#1087=CARTESIAN_POINT('Origin',(-74.193831449418,-26.9499999999652,-31.2350168058864));
#1088=CARTESIAN_POINT('',(-73.693831449418,-32.0000000000445,-31.7350168058863));
#1089=CARTESIAN_POINT('',(-73.693831449418,-26.9499999999652,-31.7350168058864));
#1090=CARTESIAN_POINT('',(-73.693831449418,-32.0000000000445,-31.7350168058863));
#1091=CARTESIAN_POINT('Origin',(-74.193831449418,-31.5000000000445,-31.7850168058863));
#1092=CARTESIAN_POINT('',(-73.693831449418,-32.0000000000445,-31.7850168058863));
#1093=CARTESIAN_POINT('Origin',(-72.793831449418,-31.5000000000445,-27.2350168058863));
#1094=CARTESIAN_POINT('',(-71.0080450117911,-31.0000000000445,-26.7350168058863));
#1095=CARTESIAN_POINT('',(-72.793831449418,-31.0000000000445,-26.7350168058863));
#1096=CARTESIAN_POINT('',(-70.593831449418,-32.0000000000445,-27.7350168058863));
#1097=CARTESIAN_POINT('',(-72.793831449418,-32.0000000000445,-27.7350168058863));
#1098=CARTESIAN_POINT('',(-71.0080450117911,-31.0000000000445,-26.7350168058863));
#1099=CARTESIAN_POINT('Origin',(-74.193831449418,-26.9499999999652,-27.2350168058864));
#1100=CARTESIAN_POINT('',(-73.693831449418,-26.9499999999652,-26.7350168058864));
#1101=CARTESIAN_POINT('Origin',(-68.993831449418,-18.8999999998859,-27.2350168058865));
#1102=CARTESIAN_POINT('',(-70.593831449418,-18.3999999998859,-27.7350168058865));
#1103=CARTESIAN_POINT('',(-68.993831449418,-18.3999999998859,-27.7350168058865));
#1104=CARTESIAN_POINT('',(-71.0080450117911,-19.3999999998859,-26.7350168058865));
#1105=CARTESIAN_POINT('',(-68.993831449418,-19.3999999998859,-26.7350168058865));
#1106=CARTESIAN_POINT('',(-71.0080450117911,-19.3999999998859,-26.7350168058865));
#1107=CARTESIAN_POINT('Origin',(-68.6973848399915,-21.003553390499,-27.2350168058864));
#1108=CARTESIAN_POINT('',(-69.3867246682315,-21.0213203434455,-26.7350168058864));
#1109=CARTESIAN_POINT('',(-69.0509382305847,-21.3571067810922,-26.7350168058864));
#1110=CARTESIAN_POINT('',(-68.6796178870449,-20.314213562259,-27.7350168058864));
#1111=CARTESIAN_POINT('',(-69.3867246682315,-21.0213203434455,-26.7350168058864));
#1112=CARTESIAN_POINT('',(-68.3438314493982,-20.6499999999057,-27.7350168058864));
#1113=CARTESIAN_POINT('Origin',(-70.093831449418,-21.728427124632,-27.2350168058864));
#1114=CARTESIAN_POINT('',(-69.093831449418,-21.728427124632,-26.7350168058864));
#1115=CARTESIAN_POINT('',(-68.093831449418,-21.728427124632,-27.7350168058864));
#1116=CARTESIAN_POINT('',(-69.093831449418,-21.728427124632,-26.7350168058864));
#1117=CARTESIAN_POINT('Origin',(-70.093831449418,-21.728427124632,-27.7350168058864));
#1118=CARTESIAN_POINT('Origin',(-70.093831449418,-21.728427124632,-26.7350168058864));
#1119=CARTESIAN_POINT('Origin',(-68.593831449418,-29.1000000000048,-27.2350168058864));
#1120=CARTESIAN_POINT('',(-69.093831449418,-28.6715728752983,-26.7350168058864));
#1121=CARTESIAN_POINT('',(-69.093831449418,-29.1000000000048,-26.7350168058864));
#1122=CARTESIAN_POINT('',(-68.093831449418,-28.6715728752983,-27.7350168058864));
#1123=CARTESIAN_POINT('',(-69.093831449418,-28.6715728752983,-26.7350168058864));
#1124=CARTESIAN_POINT('',(-68.093831449418,-29.1000000000048,-27.7350168058864));
#1125=CARTESIAN_POINT('Origin',(-70.093831449418,-28.6715728752983,-27.2350168058864));
#1126=CARTESIAN_POINT('',(-69.3867246682315,-29.3786796564849,-26.7350168058864));
#1127=CARTESIAN_POINT('',(-68.6796178870449,-30.0857864376714,-27.7350168058863));
#1128=CARTESIAN_POINT('',(-69.3867246682315,-29.3786796564849,-26.7350168058864));
#1129=CARTESIAN_POINT('Origin',(-70.093831449418,-28.6715728752983,-27.7350168058864));
#1130=CARTESIAN_POINT('Origin',(-70.093831449418,-28.6715728752983,-26.7350168058864));
#1131=CARTESIAN_POINT('Origin',(-68.6973848399914,-29.3964466094314,-27.2350168058864));
#1132=CARTESIAN_POINT('',(-68.3438314493982,-29.7500000000247,-27.7350168058864));
#1133=CARTESIAN_POINT('',(-69.0509382305847,-29.0428932188381,-26.7350168058864));
#1134=CARTESIAN_POINT('Origin',(-67.093831449418,-18.3999999998859,-31.7350168058865));
#1135=CARTESIAN_POINT('',(-70.593831449418,-18.3999999998859,-31.7350168058865));
#1136=CARTESIAN_POINT('',(-70.593831449418,-18.3999999998859,-31.7350168058865));
#1137=CARTESIAN_POINT('',(-68.993831449418,-18.3999999998859,-31.7350168058865));
#1138=CARTESIAN_POINT('Origin',(-69.343831449418,-19.6499999998859,-31.7350168058864));
#1139=CARTESIAN_POINT('',(-68.6796178870449,-20.314213562259,-31.7350168058864));
#1140=CARTESIAN_POINT('',(-68.6796178870449,-20.314213562259,-31.7350168058864));
#1141=CARTESIAN_POINT('',(-68.3438314493982,-20.6499999999057,-31.7350168058864));
#1142=CARTESIAN_POINT('Origin',(-70.093831449418,-21.7284271246321,-31.7350168058864));
#1143=CARTESIAN_POINT('',(-68.093831449418,-21.7284271246321,-31.7350168058864));
#1144=CARTESIAN_POINT('',(-68.093831449418,-21.7284271246321,-31.7350168058864));
#1145=CARTESIAN_POINT('Origin',(-70.093831449418,-21.7284271246321,-31.7350168058864));
#1146=CARTESIAN_POINT('Origin',(-68.093831449418,-33.0000000000445,-31.7350168058863));
#1147=CARTESIAN_POINT('',(-68.093831449418,-28.6715728752984,-31.7350168058864));
#1148=CARTESIAN_POINT('',(-68.093831449418,-28.6715728752984,-31.7350168058864));
#1149=CARTESIAN_POINT('',(-68.093831449418,-29.1000000000049,-31.7350168058864));
#1150=CARTESIAN_POINT('Origin',(-70.093831449418,-28.6715728752984,-31.7350168058864));
#1151=CARTESIAN_POINT('',(-68.6796178870449,-30.0857864376715,-31.7350168058863));
#1152=CARTESIAN_POINT('',(-68.6796178870449,-30.0857864376715,-31.7350168058864));
#1153=CARTESIAN_POINT('Origin',(-70.093831449418,-28.6715728752984,-31.7350168058864));
#1154=CARTESIAN_POINT('Origin',(-69.343831449418,-30.7500000000445,-31.7350168058863));
#1155=CARTESIAN_POINT('',(-70.593831449418,-32.0000000000445,-31.7350168058863));
#1156=CARTESIAN_POINT('',(-70.593831449418,-32.0000000000445,-31.7350168058863));
#1157=CARTESIAN_POINT('',(-68.3438314493982,-29.7500000000247,-31.7350168058864));
#1158=CARTESIAN_POINT('Origin',(-74.693831449418,-32.0000000000445,-31.7350168058863));
#1159=CARTESIAN_POINT('',(-72.793831449418,-32.0000000000445,-31.7350168058863));
#1160=CARTESIAN_POINT('Origin',(-70.893831449418,-25.1999999999652,-26.7350168058864));
#1161=CARTESIAN_POINT('Origin',(-70.893831449418,-25.1999999999652,-31.7350168058864));
#1162=CARTESIAN_POINT('',(-69.893831449418,-21.6999999999652,-31.7350168058864));
#1163=CARTESIAN_POINT('Origin',(-69.893831449418,-21.6999999999652,-31.8350168058864));
#1164=UNCERTAINTY_MEASURE_WITH_UNIT(LENGTH_MEASURE(0.01),#1168,
'DISTANCE_ACCURACY_VALUE',
'Maximum model space distance between geometric entities at asserted c
onnectivities');
#1165=UNCERTAINTY_MEASURE_WITH_UNIT(LENGTH_MEASURE(0.01),#1168,
'DISTANCE_ACCURACY_VALUE',
'Maximum model space distance between geometric entities at asserted c
onnectivities');
#1166=(
GEOMETRIC_REPRESENTATION_CONTEXT(3)
GLOBAL_UNCERTAINTY_ASSIGNED_CONTEXT((#1164))
GLOBAL_UNIT_ASSIGNED_CONTEXT((#1168,#1170,#1171))
REPRESENTATION_CONTEXT('','3D')
);
#1167=(
GEOMETRIC_REPRESENTATION_CONTEXT(3)
GLOBAL_UNCERTAINTY_ASSIGNED_CONTEXT((#1165))
GLOBAL_UNIT_ASSIGNED_CONTEXT((#1168,#1170,#1171))
REPRESENTATION_CONTEXT('','3D')
);
#1168=(
LENGTH_UNIT()
NAMED_UNIT(*)
SI_UNIT(.MILLI.,.METRE.)
);
#1169=(
LENGTH_UNIT()
NAMED_UNIT(*)
SI_UNIT($,.METRE.)
);
#1170=(
NAMED_UNIT(*)
PLANE_ANGLE_UNIT()
SI_UNIT($,.RADIAN.)
);
#1171=(
NAMED_UNIT(*)
SI_UNIT($,.STERADIAN.)
SOLID_ANGLE_UNIT()
);
#1172=SHAPE_DEFINITION_REPRESENTATION(#1173,#1174);
#1173=PRODUCT_DEFINITION_SHAPE('',$,#1176);
#1174=SHAPE_REPRESENTATION('',(#732),#1166);
#1175=PRODUCT_DEFINITION_CONTEXT('part definition',#1180,'design');
#1176=PRODUCT_DEFINITION('(Unsaved)','(Unsaved)',#1177,#1175);
#1177=PRODUCT_DEFINITION_FORMATION('',$,#1182);
#1178=PRODUCT_RELATED_PRODUCT_CATEGORY('(Unsaved)','(Unsaved)',(#1182));
#1179=APPLICATION_PROTOCOL_DEFINITION('international standard',
'automotive_design',2009,#1180);
#1180=APPLICATION_CONTEXT(
'Core Data for Automotive Mechanical Design Process');
#1181=PRODUCT_CONTEXT('part definition',#1180,'mechanical');
#1182=PRODUCT('(Unsaved)','(Unsaved)',$,(#1181));
#1183=PRESENTATION_STYLE_ASSIGNMENT((#1184));
#1184=SURFACE_STYLE_USAGE(.BOTH.,#1185);
#1185=SURFACE_SIDE_STYLE('',(#1186));
#1186=SURFACE_STYLE_FILL_AREA(#1187);
#1187=FILL_AREA_STYLE('Steel - Satin',(#1188));
#1188=FILL_AREA_STYLE_COLOUR('Steel - Satin',#1189);
#1189=COLOUR_RGB('Steel - Satin',0.627450980392157,0.627450980392157,0.627450980392157);
ENDSEC;
END-ISO-10303-21;
