ISO-10303-21;
HEADER;
/* Generated by software containing ST-Developer
 * from STEP Tools, Inc. (www.steptools.com) 
 */

FILE_DESCRIPTION(
/* description */ (''),
/* implementation_level */ '2;1');

FILE_NAME(
/* name */ 'buzzer-mount-x1.step',
/* time_stamp */ '2026-09-30T23:19:20+03:00',
/* author */ (''),
/* organization */ (''),
/* preprocessor_version */ 'ST-DEVELOPER v20.1',
/* originating_system */ 'Autodesk Translation Framework v15.8.0.0',
/* authorisation */ '');

FILE_SCHEMA (('AUTOMOTIVE_DESIGN { 1 0 10303 214 3 1 1 }'));
ENDSEC;

DATA;
#10=MECHANICAL_DESIGN_GEOMETRIC_PRESENTATION_REPRESENTATION('',(#13),#568);
#11=SHAPE_REPRESENTATION_RELATIONSHIP('SRR','None',#575,#12);
#12=ADVANCED_BREP_SHAPE_REPRESENTATION('',(#14),#567);
#13=STYLED_ITEM('',(#584),#14);
#14=MANIFOLD_SOLID_BREP('buzzer-mount-x1',#332);
#15=FACE_BOUND('',#55,.T.);
#16=FACE_BOUND('',#56,.T.);
#17=FACE_BOUND('',#65,.T.);
#18=FACE_BOUND('',#66,.T.);
#19=PLANE('',#349);
#20=PLANE('',#352);
#21=PLANE('',#355);
#22=PLANE('',#358);
#23=PLANE('',#359);
#24=PLANE('',#360);
#25=PLANE('',#369);
#26=PLANE('',#372);
#27=PLANE('',#375);
#28=PLANE('',#376);
#29=FACE_OUTER_BOUND('',#46,.T.);
#30=FACE_OUTER_BOUND('',#47,.T.);
#31=FACE_OUTER_BOUND('',#48,.T.);
#32=FACE_OUTER_BOUND('',#49,.T.);
#33=FACE_OUTER_BOUND('',#50,.T.);
#34=FACE_OUTER_BOUND('',#51,.T.);
#35=FACE_OUTER_BOUND('',#52,.T.);
#36=FACE_OUTER_BOUND('',#53,.T.);
#37=FACE_OUTER_BOUND('',#54,.T.);
#38=FACE_OUTER_BOUND('',#57,.T.);
#39=FACE_OUTER_BOUND('',#58,.T.);
#40=FACE_OUTER_BOUND('',#59,.T.);
#41=FACE_OUTER_BOUND('',#60,.T.);
#42=FACE_OUTER_BOUND('',#61,.T.);
#43=FACE_OUTER_BOUND('',#62,.T.);
#44=FACE_OUTER_BOUND('',#63,.T.);
#45=FACE_OUTER_BOUND('',#64,.T.);
#46=EDGE_LOOP('',(#218,#219,#220,#221));
#47=EDGE_LOOP('',(#222,#223,#224,#225,#226,#227,#228,#229,#230));
#48=EDGE_LOOP('',(#231,#232,#233,#234));
#49=EDGE_LOOP('',(#235,#236,#237,#238));
#50=EDGE_LOOP('',(#239,#240,#241,#242));
#51=EDGE_LOOP('',(#243,#244,#245,#246));
#52=EDGE_LOOP('',(#247,#248,#249,#250));
#53=EDGE_LOOP('',(#251,#252,#253,#254));
#54=EDGE_LOOP('',(#255,#256,#257,#258,#259,#260,#261,#262,#263));
#55=EDGE_LOOP('',(#264));
#56=EDGE_LOOP('',(#265));
#57=EDGE_LOOP('',(#266,#267,#268,#269));
#58=EDGE_LOOP('',(#270,#271,#272,#273));
#59=EDGE_LOOP('',(#274,#275,#276,#277,#278,#279));
#60=EDGE_LOOP('',(#280,#281,#282,#283));
#61=EDGE_LOOP('',(#284,#285,#286,#287));
#62=EDGE_LOOP('',(#288,#289,#290,#291));
#63=EDGE_LOOP('',(#292,#293,#294,#295,#296,#297));
#64=EDGE_LOOP('',(#298,#299,#300,#301,#302,#303,#304,#305));
#65=EDGE_LOOP('',(#306));
#66=EDGE_LOOP('',(#307));
#67=LINE('',#478,#98);
#68=LINE('',#481,#99);
#69=LINE('',#484,#100);
#70=LINE('',#488,#101);
#71=LINE('',#490,#102);
#72=LINE('',#494,#103);
#73=LINE('',#496,#104);
#74=LINE('',#497,#105);
#75=LINE('',#500,#106);
#76=LINE('',#501,#107);
#77=LINE('',#505,#108);
#78=LINE('',#508,#109);
#79=LINE('',#510,#110);
#80=LINE('',#511,#111);
#81=LINE('',#515,#112);
#82=LINE('',#518,#113);
#83=LINE('',#519,#114);
#84=LINE('',#522,#115);
#85=LINE('',#523,#116);
#86=LINE('',#526,#117);
#87=LINE('',#530,#118);
#88=LINE('',#533,#119);
#89=LINE('',#541,#120);
#90=LINE('',#545,#121);
#91=LINE('',#548,#122);
#92=LINE('',#549,#123);
#93=LINE('',#553,#124);
#94=LINE('',#556,#125);
#95=LINE('',#557,#126);
#96=LINE('',#561,#127);
#97=LINE('',#563,#128);
#98=VECTOR('',#383,10.);
#99=VECTOR('',#386,10.);
#100=VECTOR('',#389,10.);
#101=VECTOR('',#392,10.);
#102=VECTOR('',#393,10.);
#103=VECTOR('',#396,10.);
#104=VECTOR('',#397,10.);
#105=VECTOR('',#398,10.);
#106=VECTOR('',#401,10.);
#107=VECTOR('',#402,10.);
#108=VECTOR('',#407,10.);
#109=VECTOR('',#410,10.);
#110=VECTOR('',#411,10.);
#111=VECTOR('',#412,10.);
#112=VECTOR('',#417,10.);
#113=VECTOR('',#420,10.);
#114=VECTOR('',#421,10.);
#115=VECTOR('',#424,10.);
#116=VECTOR('',#425,10.);
#117=VECTOR('',#428,10.);
#118=VECTOR('',#431,10.);
#119=VECTOR('',#434,10.);
#120=VECTOR('',#443,1.45);
#121=VECTOR('',#448,6.);
#122=VECTOR('',#451,10.);
#123=VECTOR('',#452,10.);
#124=VECTOR('',#457,10.);
#125=VECTOR('',#460,10.);
#126=VECTOR('',#461,10.);
#127=VECTOR('',#466,10.);
#128=VECTOR('',#469,10.);
#129=CIRCLE('',#347,2.);
#130=CIRCLE('',#348,2.);
#131=CIRCLE('',#350,9.);
#132=CIRCLE('',#351,2.5);
#133=CIRCLE('',#354,9.);
#134=CIRCLE('',#357,2.5);
#135=CIRCLE('',#361,7.5);
#136=CIRCLE('',#362,2.75);
#137=CIRCLE('',#363,1.45);
#138=CIRCLE('',#364,6.);
#139=CIRCLE('',#366,1.45);
#140=CIRCLE('',#368,6.);
#141=CIRCLE('',#371,7.5);
#142=CIRCLE('',#374,2.75);
#143=VERTEX_POINT('',#474);
#144=VERTEX_POINT('',#475);
#145=VERTEX_POINT('',#477);
#146=VERTEX_POINT('',#479);
#147=VERTEX_POINT('',#483);
#148=VERTEX_POINT('',#485);
#149=VERTEX_POINT('',#487);
#150=VERTEX_POINT('',#489);
#151=VERTEX_POINT('',#491);
#152=VERTEX_POINT('',#493);
#153=VERTEX_POINT('',#495);
#154=VERTEX_POINT('',#499);
#155=VERTEX_POINT('',#503);
#156=VERTEX_POINT('',#507);
#157=VERTEX_POINT('',#509);
#158=VERTEX_POINT('',#513);
#159=VERTEX_POINT('',#517);
#160=VERTEX_POINT('',#521);
#161=VERTEX_POINT('',#525);
#162=VERTEX_POINT('',#527);
#163=VERTEX_POINT('',#529);
#164=VERTEX_POINT('',#531);
#165=VERTEX_POINT('',#534);
#166=VERTEX_POINT('',#536);
#167=VERTEX_POINT('',#539);
#168=VERTEX_POINT('',#543);
#169=VERTEX_POINT('',#547);
#170=VERTEX_POINT('',#551);
#171=VERTEX_POINT('',#555);
#172=VERTEX_POINT('',#559);
#173=EDGE_CURVE('',#143,#144,#129,.T.);
#174=EDGE_CURVE('',#144,#145,#67,.T.);
#175=EDGE_CURVE('',#145,#146,#130,.T.);
#176=EDGE_CURVE('',#146,#143,#68,.T.);
#177=EDGE_CURVE('',#145,#147,#69,.T.);
#178=EDGE_CURVE('',#148,#147,#131,.T.);
#179=EDGE_CURVE('',#148,#149,#70,.T.);
#180=EDGE_CURVE('',#150,#149,#71,.T.);
#181=EDGE_CURVE('',#150,#151,#132,.T.);
#182=EDGE_CURVE('',#152,#151,#72,.T.);
#183=EDGE_CURVE('',#153,#152,#73,.T.);
#184=EDGE_CURVE('',#153,#146,#74,.T.);
#185=EDGE_CURVE('',#154,#144,#75,.T.);
#186=EDGE_CURVE('',#147,#154,#76,.T.);
#187=EDGE_CURVE('',#154,#155,#133,.T.);
#188=EDGE_CURVE('',#155,#148,#77,.T.);
#189=EDGE_CURVE('',#149,#156,#78,.T.);
#190=EDGE_CURVE('',#156,#157,#79,.F.);
#191=EDGE_CURVE('',#157,#150,#80,.T.);
#192=EDGE_CURVE('',#158,#157,#134,.T.);
#193=EDGE_CURVE('',#151,#158,#81,.T.);
#194=EDGE_CURVE('',#159,#158,#82,.T.);
#195=EDGE_CURVE('',#152,#159,#83,.T.);
#196=EDGE_CURVE('',#160,#159,#84,.T.);
#197=EDGE_CURVE('',#153,#160,#85,.T.);
#198=EDGE_CURVE('',#156,#161,#86,.T.);
#199=EDGE_CURVE('',#162,#161,#135,.T.);
#200=EDGE_CURVE('',#162,#163,#87,.T.);
#201=EDGE_CURVE('',#164,#163,#136,.T.);
#202=EDGE_CURVE('',#164,#160,#88,.T.);
#203=EDGE_CURVE('',#165,#165,#137,.T.);
#204=EDGE_CURVE('',#166,#166,#138,.T.);
#205=EDGE_CURVE('',#167,#167,#139,.T.);
#206=EDGE_CURVE('',#167,#165,#89,.T.);
#207=EDGE_CURVE('',#168,#168,#140,.T.);
#208=EDGE_CURVE('',#168,#166,#90,.T.);
#209=EDGE_CURVE('',#169,#155,#91,.T.);
#210=EDGE_CURVE('',#161,#169,#92,.T.);
#211=EDGE_CURVE('',#170,#169,#141,.T.);
#212=EDGE_CURVE('',#162,#170,#93,.T.);
#213=EDGE_CURVE('',#171,#170,#94,.T.);
#214=EDGE_CURVE('',#163,#171,#95,.T.);
#215=EDGE_CURVE('',#172,#171,#142,.T.);
#216=EDGE_CURVE('',#164,#172,#96,.T.);
#217=EDGE_CURVE('',#143,#172,#97,.T.);
#218=ORIENTED_EDGE('',*,*,#173,.T.);
#219=ORIENTED_EDGE('',*,*,#174,.T.);
#220=ORIENTED_EDGE('',*,*,#175,.T.);
#221=ORIENTED_EDGE('',*,*,#176,.T.);
#222=ORIENTED_EDGE('',*,*,#175,.F.);
#223=ORIENTED_EDGE('',*,*,#177,.T.);
#224=ORIENTED_EDGE('',*,*,#178,.F.);
#225=ORIENTED_EDGE('',*,*,#179,.T.);
#226=ORIENTED_EDGE('',*,*,#180,.F.);
#227=ORIENTED_EDGE('',*,*,#181,.T.);
#228=ORIENTED_EDGE('',*,*,#182,.F.);
#229=ORIENTED_EDGE('',*,*,#183,.F.);
#230=ORIENTED_EDGE('',*,*,#184,.T.);
#231=ORIENTED_EDGE('',*,*,#174,.F.);
#232=ORIENTED_EDGE('',*,*,#185,.F.);
#233=ORIENTED_EDGE('',*,*,#186,.F.);
#234=ORIENTED_EDGE('',*,*,#177,.F.);
#235=ORIENTED_EDGE('',*,*,#187,.T.);
#236=ORIENTED_EDGE('',*,*,#188,.T.);
#237=ORIENTED_EDGE('',*,*,#178,.T.);
#238=ORIENTED_EDGE('',*,*,#186,.T.);
#239=ORIENTED_EDGE('',*,*,#180,.T.);
#240=ORIENTED_EDGE('',*,*,#189,.T.);
#241=ORIENTED_EDGE('',*,*,#190,.T.);
#242=ORIENTED_EDGE('',*,*,#191,.T.);
#243=ORIENTED_EDGE('',*,*,#191,.F.);
#244=ORIENTED_EDGE('',*,*,#192,.F.);
#245=ORIENTED_EDGE('',*,*,#193,.F.);
#246=ORIENTED_EDGE('',*,*,#181,.F.);
#247=ORIENTED_EDGE('',*,*,#182,.T.);
#248=ORIENTED_EDGE('',*,*,#193,.T.);
#249=ORIENTED_EDGE('',*,*,#194,.F.);
#250=ORIENTED_EDGE('',*,*,#195,.F.);
#251=ORIENTED_EDGE('',*,*,#183,.T.);
#252=ORIENTED_EDGE('',*,*,#195,.T.);
#253=ORIENTED_EDGE('',*,*,#196,.F.);
#254=ORIENTED_EDGE('',*,*,#197,.F.);
#255=ORIENTED_EDGE('',*,*,#196,.T.);
#256=ORIENTED_EDGE('',*,*,#194,.T.);
#257=ORIENTED_EDGE('',*,*,#192,.T.);
#258=ORIENTED_EDGE('',*,*,#190,.F.);
#259=ORIENTED_EDGE('',*,*,#198,.T.);
#260=ORIENTED_EDGE('',*,*,#199,.F.);
#261=ORIENTED_EDGE('',*,*,#200,.T.);
#262=ORIENTED_EDGE('',*,*,#201,.F.);
#263=ORIENTED_EDGE('',*,*,#202,.T.);
#264=ORIENTED_EDGE('',*,*,#203,.F.);
#265=ORIENTED_EDGE('',*,*,#204,.F.);
#266=ORIENTED_EDGE('',*,*,#205,.F.);
#267=ORIENTED_EDGE('',*,*,#206,.T.);
#268=ORIENTED_EDGE('',*,*,#203,.T.);
#269=ORIENTED_EDGE('',*,*,#206,.F.);
#270=ORIENTED_EDGE('',*,*,#207,.F.);
#271=ORIENTED_EDGE('',*,*,#208,.T.);
#272=ORIENTED_EDGE('',*,*,#204,.T.);
#273=ORIENTED_EDGE('',*,*,#208,.F.);
#274=ORIENTED_EDGE('',*,*,#188,.F.);
#275=ORIENTED_EDGE('',*,*,#209,.F.);
#276=ORIENTED_EDGE('',*,*,#210,.F.);
#277=ORIENTED_EDGE('',*,*,#198,.F.);
#278=ORIENTED_EDGE('',*,*,#189,.F.);
#279=ORIENTED_EDGE('',*,*,#179,.F.);
#280=ORIENTED_EDGE('',*,*,#199,.T.);
#281=ORIENTED_EDGE('',*,*,#210,.T.);
#282=ORIENTED_EDGE('',*,*,#211,.F.);
#283=ORIENTED_EDGE('',*,*,#212,.F.);
#284=ORIENTED_EDGE('',*,*,#200,.F.);
#285=ORIENTED_EDGE('',*,*,#212,.T.);
#286=ORIENTED_EDGE('',*,*,#213,.F.);
#287=ORIENTED_EDGE('',*,*,#214,.F.);
#288=ORIENTED_EDGE('',*,*,#201,.T.);
#289=ORIENTED_EDGE('',*,*,#214,.T.);
#290=ORIENTED_EDGE('',*,*,#215,.F.);
#291=ORIENTED_EDGE('',*,*,#216,.F.);
#292=ORIENTED_EDGE('',*,*,#176,.F.);
#293=ORIENTED_EDGE('',*,*,#184,.F.);
#294=ORIENTED_EDGE('',*,*,#197,.T.);
#295=ORIENTED_EDGE('',*,*,#202,.F.);
#296=ORIENTED_EDGE('',*,*,#216,.T.);
#297=ORIENTED_EDGE('',*,*,#217,.F.);
#298=ORIENTED_EDGE('',*,*,#173,.F.);
#299=ORIENTED_EDGE('',*,*,#217,.T.);
#300=ORIENTED_EDGE('',*,*,#215,.T.);
#301=ORIENTED_EDGE('',*,*,#213,.T.);
#302=ORIENTED_EDGE('',*,*,#211,.T.);
#303=ORIENTED_EDGE('',*,*,#209,.T.);
#304=ORIENTED_EDGE('',*,*,#187,.F.);
#305=ORIENTED_EDGE('',*,*,#185,.T.);
#306=ORIENTED_EDGE('',*,*,#207,.T.);
#307=ORIENTED_EDGE('',*,*,#205,.T.);
#308=CYLINDRICAL_SURFACE('',#346,2.);
#309=CYLINDRICAL_SURFACE('',#353,9.);
#310=CYLINDRICAL_SURFACE('',#356,2.5);
#311=CYLINDRICAL_SURFACE('',#365,1.45);
#312=CYLINDRICAL_SURFACE('',#367,6.);
#313=CYLINDRICAL_SURFACE('',#370,7.5);
#314=CYLINDRICAL_SURFACE('',#373,2.75);
#315=ADVANCED_FACE('',(#29),#308,.T.);
#316=ADVANCED_FACE('',(#30),#19,.F.);
#317=ADVANCED_FACE('',(#31),#20,.T.);
#318=ADVANCED_FACE('',(#32),#309,.T.);
#319=ADVANCED_FACE('',(#33),#21,.T.);
#320=ADVANCED_FACE('',(#34),#310,.F.);
#321=ADVANCED_FACE('',(#35),#22,.T.);
#322=ADVANCED_FACE('',(#36),#23,.T.);
#323=ADVANCED_FACE('',(#37,#15,#16),#24,.F.);
#324=ADVANCED_FACE('',(#38),#311,.F.);
#325=ADVANCED_FACE('',(#39),#312,.F.);
#326=ADVANCED_FACE('',(#40),#25,.T.);
#327=ADVANCED_FACE('',(#41),#313,.T.);
#328=ADVANCED_FACE('',(#42),#26,.T.);
#329=ADVANCED_FACE('',(#43),#314,.T.);
#330=ADVANCED_FACE('',(#44),#27,.T.);
#331=ADVANCED_FACE('',(#45,#17,#18),#28,.T.);
#332=CLOSED_SHELL('',(#315,#316,#317,#318,#319,#320,#321,#322,#323,#324,
#325,#326,#327,#328,#329,#330,#331));
#333=DERIVED_UNIT_ELEMENT(#335,1.);
#334=DERIVED_UNIT_ELEMENT(#570,-3.);
#335=(
MASS_UNIT()
NAMED_UNIT(*)
SI_UNIT(.KILO.,.GRAM.)
);
#336=DERIVED_UNIT((#333,#334));
#337=MEASURE_REPRESENTATION_ITEM('density measure',
POSITIVE_RATIO_MEASURE(7850.),#336);
#338=PROPERTY_DEFINITION_REPRESENTATION(#343,#340);
#339=PROPERTY_DEFINITION_REPRESENTATION(#344,#341);
#340=REPRESENTATION('material name',(#342),#567);
#341=REPRESENTATION('density',(#337),#567);
#342=DESCRIPTIVE_REPRESENTATION_ITEM('Steel','Steel');
#343=PROPERTY_DEFINITION('material property','material name',#577);
#344=PROPERTY_DEFINITION('material property','density of part',#577);
#345=AXIS2_PLACEMENT_3D('',#472,#377,#378);
#346=AXIS2_PLACEMENT_3D('',#473,#379,#380);
#347=AXIS2_PLACEMENT_3D('',#476,#381,#382);
#348=AXIS2_PLACEMENT_3D('',#480,#384,#385);
#349=AXIS2_PLACEMENT_3D('',#482,#387,#388);
#350=AXIS2_PLACEMENT_3D('',#486,#390,#391);
#351=AXIS2_PLACEMENT_3D('',#492,#394,#395);
#352=AXIS2_PLACEMENT_3D('',#498,#399,#400);
#353=AXIS2_PLACEMENT_3D('',#502,#403,#404);
#354=AXIS2_PLACEMENT_3D('',#504,#405,#406);
#355=AXIS2_PLACEMENT_3D('',#506,#408,#409);
#356=AXIS2_PLACEMENT_3D('',#512,#413,#414);
#357=AXIS2_PLACEMENT_3D('',#514,#415,#416);
#358=AXIS2_PLACEMENT_3D('',#516,#418,#419);
#359=AXIS2_PLACEMENT_3D('',#520,#422,#423);
#360=AXIS2_PLACEMENT_3D('',#524,#426,#427);
#361=AXIS2_PLACEMENT_3D('',#528,#429,#430);
#362=AXIS2_PLACEMENT_3D('',#532,#432,#433);
#363=AXIS2_PLACEMENT_3D('',#535,#435,#436);
#364=AXIS2_PLACEMENT_3D('',#537,#437,#438);
#365=AXIS2_PLACEMENT_3D('',#538,#439,#440);
#366=AXIS2_PLACEMENT_3D('',#540,#441,#442);
#367=AXIS2_PLACEMENT_3D('',#542,#444,#445);
#368=AXIS2_PLACEMENT_3D('',#544,#446,#447);
#369=AXIS2_PLACEMENT_3D('',#546,#449,#450);
#370=AXIS2_PLACEMENT_3D('',#550,#453,#454);
#371=AXIS2_PLACEMENT_3D('',#552,#455,#456);
#372=AXIS2_PLACEMENT_3D('',#554,#458,#459);
#373=AXIS2_PLACEMENT_3D('',#558,#462,#463);
#374=AXIS2_PLACEMENT_3D('',#560,#464,#465);
#375=AXIS2_PLACEMENT_3D('',#562,#467,#468);
#376=AXIS2_PLACEMENT_3D('',#564,#470,#471);
#377=DIRECTION('axis',(0.,0.,1.));
#378=DIRECTION('refdir',(1.,0.,0.));
#379=DIRECTION('center_axis',(0.,0.,1.));
#380=DIRECTION('ref_axis',(-0.611542933306172,-0.791211249113208,0.));
#381=DIRECTION('center_axis',(0.,0.,-1.));
#382=DIRECTION('ref_axis',(-0.611542933306172,-0.791211249113208,0.));
#383=DIRECTION('',(0.,0.,-1.));
#384=DIRECTION('center_axis',(0.,0.,1.));
#385=DIRECTION('ref_axis',(-0.611542933306172,-0.791211249113208,0.));
#386=DIRECTION('',(0.,0.,1.));
#387=DIRECTION('center_axis',(0.,0.,1.));
#388=DIRECTION('ref_axis',(-1.,0.,0.));
#389=DIRECTION('',(-0.252030481446565,0.967719296295063,0.));
#390=DIRECTION('center_axis',(0.,0.,1.));
#391=DIRECTION('ref_axis',(-0.991896994726535,-0.127044684471522,0.));
#392=DIRECTION('',(-1.61165582688985E-15,1.,0.));
#393=DIRECTION('',(-0.954732568203158,-0.297465499196465,0.));
#394=DIRECTION('center_axis',(0.,0.,1.));
#395=DIRECTION('ref_axis',(-1.,-9.08606523353228E-13,0.));
#396=DIRECTION('',(-1.,0.,0.));
#397=DIRECTION('',(0.,1.,0.));
#398=DIRECTION('',(-1.,-1.70517417131558E-16,0.));
#399=DIRECTION('center_axis',(-0.967719296295063,-0.252030481446565,0.));
#400=DIRECTION('ref_axis',(0.252030481446565,-0.967719296295063,0.));
#401=DIRECTION('',(0.252030481446565,-0.967719296295063,0.));
#402=DIRECTION('',(0.,0.,1.));
#403=DIRECTION('center_axis',(0.,0.,1.));
#404=DIRECTION('ref_axis',(-0.991896994726535,-0.127044684471522,0.));
#405=DIRECTION('center_axis',(0.,0.,-1.));
#406=DIRECTION('ref_axis',(-0.991896994726535,-0.127044684471522,0.));
#407=DIRECTION('',(0.,0.,-1.));
#408=DIRECTION('center_axis',(-0.297465499196465,0.954732568203158,0.));
#409=DIRECTION('ref_axis',(0.,0.,1.));
#410=DIRECTION('',(0.,0.,1.));
#411=DIRECTION('',(-0.954732568203158,-0.297465499196465,0.));
#412=DIRECTION('',(0.,0.,-1.));
#413=DIRECTION('center_axis',(0.,0.,1.));
#414=DIRECTION('ref_axis',(-1.,-9.08606523353228E-13,0.));
#415=DIRECTION('center_axis',(0.,0.,-1.));
#416=DIRECTION('ref_axis',(-1.,-9.08606523353228E-13,0.));
#417=DIRECTION('',(0.,0.,1.));
#418=DIRECTION('center_axis',(0.,1.,0.));
#419=DIRECTION('ref_axis',(-1.,0.,0.));
#420=DIRECTION('',(-1.,0.,0.));
#421=DIRECTION('',(0.,0.,1.));
#422=DIRECTION('center_axis',(1.,0.,0.));
#423=DIRECTION('ref_axis',(0.,1.,0.));
#424=DIRECTION('',(0.,1.,0.));
#425=DIRECTION('',(0.,0.,1.));
#426=DIRECTION('center_axis',(0.,0.,1.));
#427=DIRECTION('ref_axis',(-1.,0.,0.));
#428=DIRECTION('',(-1.61165582688985E-15,1.,0.));
#429=DIRECTION('center_axis',(0.,0.,1.));
#430=DIRECTION('ref_axis',(-1.,0.,0.));
#431=DIRECTION('',(-0.184552613354006,-0.982822635526984,0.));
#432=DIRECTION('center_axis',(0.,0.,1.));
#433=DIRECTION('ref_axis',(0.,-1.,0.));
#434=DIRECTION('',(-1.,-1.70517417131558E-16,0.));
#435=DIRECTION('center_axis',(0.,0.,-1.));
#436=DIRECTION('ref_axis',(-1.,0.,0.));
#437=DIRECTION('center_axis',(0.,0.,-1.));
#438=DIRECTION('ref_axis',(-1.,0.,0.));
#439=DIRECTION('center_axis',(0.,0.,1.));
#440=DIRECTION('ref_axis',(-1.,0.,0.));
#441=DIRECTION('center_axis',(0.,0.,-1.));
#442=DIRECTION('ref_axis',(-1.,0.,0.));
#443=DIRECTION('',(0.,0.,-1.));
#444=DIRECTION('center_axis',(0.,0.,1.));
#445=DIRECTION('ref_axis',(-1.,0.,0.));
#446=DIRECTION('center_axis',(0.,0.,-1.));
#447=DIRECTION('ref_axis',(-1.,0.,0.));
#448=DIRECTION('',(0.,0.,-1.));
#449=DIRECTION('center_axis',(-1.,-1.61165582688985E-15,0.));
#450=DIRECTION('ref_axis',(1.61165582688985E-15,-1.,0.));
#451=DIRECTION('',(1.61165582688985E-15,-1.,0.));
#452=DIRECTION('',(0.,0.,1.));
#453=DIRECTION('center_axis',(0.,0.,1.));
#454=DIRECTION('ref_axis',(0.0926751435742512,0.99569639838833,0.));
#455=DIRECTION('center_axis',(0.,0.,1.));
#456=DIRECTION('ref_axis',(-1.,0.,0.));
#457=DIRECTION('',(0.,0.,1.));
#458=DIRECTION('center_axis',(0.982822635526984,-0.184552613354006,0.));
#459=DIRECTION('ref_axis',(0.184552613354006,0.982822635526984,0.));
#460=DIRECTION('',(0.184552613354006,0.982822635526984,0.));
#461=DIRECTION('',(0.,0.,1.));
#462=DIRECTION('center_axis',(0.,0.,1.));
#463=DIRECTION('ref_axis',(0.,-1.,0.));
#464=DIRECTION('center_axis',(0.,0.,1.));
#465=DIRECTION('ref_axis',(0.,-1.,0.));
#466=DIRECTION('',(0.,0.,1.));
#467=DIRECTION('center_axis',(1.70517417131558E-16,-1.,0.));
#468=DIRECTION('ref_axis',(1.,1.70517417131558E-16,0.));
#469=DIRECTION('',(1.,1.70517417131558E-16,0.));
#470=DIRECTION('center_axis',(0.,0.,1.));
#471=DIRECTION('ref_axis',(-1.,0.,0.));
#472=CARTESIAN_POINT('',(0.,0.,0.));
#473=CARTESIAN_POINT('Origin',(28.3349329532809,9.60000000009428,47.3500000032413));
#474=CARTESIAN_POINT('',(28.3349329532809,7.60000000009427,49.3500000032413));
#475=CARTESIAN_POINT('',(26.3994943606908,9.09593903720115,49.3500000032413));
#476=CARTESIAN_POINT('Origin',(28.3349329532809,9.60000000009428,49.3500000032413));
#477=CARTESIAN_POINT('',(26.3994943606908,9.09593903720115,45.7500000032413));
#478=CARTESIAN_POINT('',(26.3994943606908,9.09593903720115,47.3500000032413));
#479=CARTESIAN_POINT('',(28.3349329532809,7.60000000009427,45.7500000032413));
#480=CARTESIAN_POINT('Origin',(28.3349329532809,9.60000000009428,45.7500000032413));
#481=CARTESIAN_POINT('',(28.3349329532809,7.60000000009427,47.3500000032413));
#482=CARTESIAN_POINT('Origin',(29.500000000037,11.3601020515384,45.7500000032413));
#483=CARTESIAN_POINT('',(25.9905263333814,10.6662500937187,45.7500000032413));
#484=CARTESIAN_POINT('',(26.7890931184919,7.60000000009427,45.7500000032413));
#485=CARTESIAN_POINT('',(25.700000000037,12.9345244267377,45.7500000032413));
#486=CARTESIAN_POINT('Origin',(34.700000000037,12.9345244267378,45.7500000032413));
#487=CARTESIAN_POINT('',(25.700000000037,14.1202041029825,45.7500000032413));
#488=CARTESIAN_POINT('',(25.700000000037,11.7817815851699,45.7500000032413));
#489=CARTESIAN_POINT('',(26.2680000000364,14.2971755494069,45.7500000032413));
#490=CARTESIAN_POINT('',(27.181942634629,14.5819321515073,45.7500000032413));
#491=CARTESIAN_POINT('',(28.0000000000378,13.600000000094,45.7500000032413));
#492=CARTESIAN_POINT('Origin',(28.0000000000378,16.100000000094,45.7500000032413));
#493=CARTESIAN_POINT('',(33.300000000037,13.6000000000946,45.7500000032413));
#494=CARTESIAN_POINT('',(43.9999999859273,13.6000000000946,45.7500000032413));
#495=CARTESIAN_POINT('',(33.300000000037,7.60000000009428,45.7500000032413));
#496=CARTESIAN_POINT('',(33.300000000037,7.60000000009428,45.7500000032413));
#497=CARTESIAN_POINT('',(33.300000000037,7.60000000009428,45.7500000032413));
#498=CARTESIAN_POINT('Origin',(25.700000000037,11.7817815851699,47.3500000032413));
#499=CARTESIAN_POINT('',(25.9905263333814,10.6662500937187,49.3500000032413));
#500=CARTESIAN_POINT('',(26.7890931184919,7.60000000009427,49.3500000032413));
#501=CARTESIAN_POINT('',(25.9905263333814,10.6662500937187,47.3500000032413));
#502=CARTESIAN_POINT('Origin',(34.700000000037,12.9345244267378,47.3500000032413));
#503=CARTESIAN_POINT('',(25.700000000037,12.9345244267377,49.3500000032413));
#504=CARTESIAN_POINT('Origin',(34.700000000037,12.9345244267378,49.3500000032413));
#505=CARTESIAN_POINT('',(25.700000000037,12.9345244267377,47.3500000032413));
#506=CARTESIAN_POINT('Origin',(25.9840000000367,14.2086898261947,45.7500000032413));
#507=CARTESIAN_POINT('',(25.700000000037,14.1202041029825,47.3500000032413));
#508=CARTESIAN_POINT('',(25.700000000037,14.1202041029825,45.7500000032413));
#509=CARTESIAN_POINT('',(26.2680000000364,14.2971755494069,47.3500000032413));
#510=CARTESIAN_POINT('',(29.7330095553597,15.3767666636334,47.3500000032413));
#511=CARTESIAN_POINT('',(26.2680000000364,14.2971755494069,45.7500000032413));
#512=CARTESIAN_POINT('Origin',(28.0000000000378,16.100000000094,45.7500000032413));
#513=CARTESIAN_POINT('',(28.0000000000378,13.600000000094,47.3500000032413));
#514=CARTESIAN_POINT('Origin',(28.0000000000378,16.100000000094,47.3500000032413));
#515=CARTESIAN_POINT('',(28.0000000000378,13.600000000094,45.7500000032413));
#516=CARTESIAN_POINT('Origin',(33.300000000037,13.6000000000946,45.7500000032413));
#517=CARTESIAN_POINT('',(33.300000000037,13.6000000000946,47.3500000032413));
#518=CARTESIAN_POINT('',(33.250000000037,13.6000000000946,47.3500000032413));
#519=CARTESIAN_POINT('',(33.300000000037,13.6000000000946,45.7500000032413));
#520=CARTESIAN_POINT('Origin',(33.300000000037,7.60000000009428,45.7500000032413));
#521=CARTESIAN_POINT('',(33.300000000037,7.60000000009428,47.3500000032413));
#522=CARTESIAN_POINT('',(33.300000000037,12.5250000000212,47.3500000032413));
#523=CARTESIAN_POINT('',(33.300000000037,7.60000000009428,45.7500000032413));
#524=CARTESIAN_POINT('Origin',(33.200000000037,17.4499999999482,47.3500000032413));
#525=CARTESIAN_POINT('',(25.700000000037,19.7999999998021,47.3500000032413));
#526=CARTESIAN_POINT('',(25.700000000037,11.7817815851699,47.3500000032413));
#527=CARTESIAN_POINT('',(40.5711697664894,18.4158553996471,47.3500000032413));
#528=CARTESIAN_POINT('Origin',(33.200000000037,19.7999999998021,47.3500000032413));
#529=CARTESIAN_POINT('',(38.9612772790335,9.84248031337076,47.3500000032413));
#530=CARTESIAN_POINT('',(40.5711697664894,18.4158553996471,47.3500000032413));
#531=CARTESIAN_POINT('',(36.2585150313343,7.60000000009428,47.3500000032413));
#532=CARTESIAN_POINT('Origin',(36.2585150313343,10.3500000000943,47.3500000032413));
#533=CARTESIAN_POINT('',(33.300000000037,7.60000000009428,47.3500000032413));
#534=CARTESIAN_POINT('',(37.7499999999967,10.3000000000956,47.3500000032413));
#535=CARTESIAN_POINT('Origin',(36.2999999999967,10.3000000000956,47.3500000032413));
#536=CARTESIAN_POINT('',(39.200000000037,19.7999999998021,47.3500000032413));
#537=CARTESIAN_POINT('Origin',(33.200000000037,19.7999999998021,47.3500000032413));
#538=CARTESIAN_POINT('Origin',(36.2999999999967,10.3000000000956,47.3500000032413));
#539=CARTESIAN_POINT('',(37.7499999999967,10.3000000000956,49.3500000032413));
#540=CARTESIAN_POINT('Origin',(36.2999999999967,10.3000000000956,49.3500000032413));
#541=CARTESIAN_POINT('',(37.7499999999967,10.3000000000956,47.3500000032413));
#542=CARTESIAN_POINT('Origin',(33.200000000037,19.7999999998021,47.3500000032413));
#543=CARTESIAN_POINT('',(39.200000000037,19.7999999998021,49.3500000032413));
#544=CARTESIAN_POINT('Origin',(33.200000000037,19.7999999998021,49.3500000032413));
#545=CARTESIAN_POINT('',(39.200000000037,19.7999999998021,47.3500000032413));
#546=CARTESIAN_POINT('Origin',(25.700000000037,19.7999999998021,47.3500000032413));
#547=CARTESIAN_POINT('',(25.700000000037,19.7999999998021,49.3500000032413));
#548=CARTESIAN_POINT('',(25.700000000037,11.7817815851699,49.3500000032413));
#549=CARTESIAN_POINT('',(25.700000000037,19.7999999998021,47.3500000032413));
#550=CARTESIAN_POINT('Origin',(33.200000000037,19.7999999998021,47.3500000032413));
#551=CARTESIAN_POINT('',(40.5711697664894,18.4158553996471,49.3500000032413));
#552=CARTESIAN_POINT('Origin',(33.200000000037,19.7999999998021,49.3500000032413));
#553=CARTESIAN_POINT('',(40.5711697664894,18.4158553996471,47.3500000032413));
#554=CARTESIAN_POINT('Origin',(38.9612772790335,9.84248031337076,47.3500000032413));
#555=CARTESIAN_POINT('',(38.9612772790335,9.84248031337076,49.3500000032413));
#556=CARTESIAN_POINT('',(40.5711697664894,18.4158553996471,49.3500000032413));
#557=CARTESIAN_POINT('',(38.9612772790335,9.84248031337076,47.3500000032413));
#558=CARTESIAN_POINT('Origin',(36.2585150313343,10.3500000000943,47.3500000032413));
#559=CARTESIAN_POINT('',(36.2585150313343,7.60000000009428,49.3500000032413));
#560=CARTESIAN_POINT('Origin',(36.2585150313343,10.3500000000943,49.3500000032413));
#561=CARTESIAN_POINT('',(36.2585150313343,7.60000000009428,47.3500000032413));
#562=CARTESIAN_POINT('Origin',(26.7890931184919,7.60000000009427,47.3500000032413));
#563=CARTESIAN_POINT('',(33.300000000037,7.60000000009428,49.3500000032413));
#564=CARTESIAN_POINT('Origin',(33.200000000037,17.4499999999482,49.3500000032413));
#565=UNCERTAINTY_MEASURE_WITH_UNIT(LENGTH_MEASURE(0.01),#569,
'DISTANCE_ACCURACY_VALUE',
'Maximum model space distance between geometric entities at asserted c
onnectivities');
#566=UNCERTAINTY_MEASURE_WITH_UNIT(LENGTH_MEASURE(0.01),#569,
'DISTANCE_ACCURACY_VALUE',
'Maximum model space distance between geometric entities at asserted c
onnectivities');
#567=(
GEOMETRIC_REPRESENTATION_CONTEXT(3)
GLOBAL_UNCERTAINTY_ASSIGNED_CONTEXT((#565))
GLOBAL_UNIT_ASSIGNED_CONTEXT((#569,#571,#572))
REPRESENTATION_CONTEXT('','3D')
);
#568=(
GEOMETRIC_REPRESENTATION_CONTEXT(3)
GLOBAL_UNCERTAINTY_ASSIGNED_CONTEXT((#566))
GLOBAL_UNIT_ASSIGNED_CONTEXT((#569,#571,#572))
REPRESENTATION_CONTEXT('','3D')
);
#569=(
LENGTH_UNIT()
NAMED_UNIT(*)
SI_UNIT(.MILLI.,.METRE.)
);
#570=(
LENGTH_UNIT()
NAMED_UNIT(*)
SI_UNIT($,.METRE.)
);
#571=(
NAMED_UNIT(*)
PLANE_ANGLE_UNIT()
SI_UNIT($,.RADIAN.)
);
#572=(
NAMED_UNIT(*)
SI_UNIT($,.STERADIAN.)
SOLID_ANGLE_UNIT()
);
#573=SHAPE_DEFINITION_REPRESENTATION(#574,#575);
#574=PRODUCT_DEFINITION_SHAPE('',$,#577);
#575=SHAPE_REPRESENTATION('',(#345),#567);
#576=PRODUCT_DEFINITION_CONTEXT('part definition',#581,'design');
#577=PRODUCT_DEFINITION('(Unsaved)','(Unsaved)',#578,#576);
#578=PRODUCT_DEFINITION_FORMATION('',$,#583);
#579=PRODUCT_RELATED_PRODUCT_CATEGORY('(Unsaved)','(Unsaved)',(#583));
#580=APPLICATION_PROTOCOL_DEFINITION('international standard',
'automotive_design',2009,#581);
#581=APPLICATION_CONTEXT(
'Core Data for Automotive Mechanical Design Process');
#582=PRODUCT_CONTEXT('part definition',#581,'mechanical');
#583=PRODUCT('(Unsaved)','(Unsaved)',$,(#582));
#584=PRESENTATION_STYLE_ASSIGNMENT((#585));
#585=SURFACE_STYLE_USAGE(.BOTH.,#586);
#586=SURFACE_SIDE_STYLE('',(#587));
#587=SURFACE_STYLE_FILL_AREA(#588);
#588=FILL_AREA_STYLE('Steel - Satin',(#589));
#589=FILL_AREA_STYLE_COLOUR('Steel - Satin',#590);
#590=COLOUR_RGB('Steel - Satin',0.627450980392157,0.627450980392157,0.627450980392157);
ENDSEC;
END-ISO-10303-21;
