ISO-10303-21;
HEADER;
/* Generated by software containing ST-Developer
 * from STEP Tools, Inc. (www.steptools.com) 
 */

FILE_DESCRIPTION(
/* description */ (''),
/* implementation_level */ '2;1');

FILE_NAME(
/* name */ 'cable-manager-x1.step',
/* time_stamp */ '2026-09-30T23:19:20+03:00',
/* author */ (''),
/* organization */ (''),
/* preprocessor_version */ 'ST-DEVELOPER v20.1',
/* originating_system */ 'Autodesk Translation Framework v15.8.0.0',
/* authorisation */ '');

FILE_SCHEMA (('AUTOMOTIVE_DESIGN { 1 0 10303 214 3 1 1 }'));
ENDSEC;

DATA;
#10=MECHANICAL_DESIGN_GEOMETRIC_PRESENTATION_REPRESENTATION('',(#13),#812);
#11=SHAPE_REPRESENTATION_RELATIONSHIP('SRR','None',#819,#12);
#12=ADVANCED_BREP_SHAPE_REPRESENTATION('',(#14),#811);
#13=STYLED_ITEM('',(#828),#14);
#14=MANIFOLD_SOLID_BREP('cable-manager-x1',#482);
#15=FACE_BOUND('',#73,.T.);
#16=FACE_BOUND('',#84,.T.);
#17=PLANE('',#501);
#18=PLANE('',#502);
#19=PLANE('',#504);
#20=PLANE('',#509);
#21=PLANE('',#513);
#22=PLANE('',#514);
#23=PLANE('',#521);
#24=PLANE('',#522);
#25=PLANE('',#527);
#26=PLANE('',#530);
#27=PLANE('',#531);
#28=PLANE('',#532);
#29=PLANE('',#533);
#30=PLANE('',#534);
#31=PLANE('',#535);
#32=PLANE('',#536);
#33=FACE_OUTER_BOUND('',#58,.T.);
#34=FACE_OUTER_BOUND('',#59,.T.);
#35=FACE_OUTER_BOUND('',#60,.T.);
#36=FACE_OUTER_BOUND('',#61,.T.);
#37=FACE_OUTER_BOUND('',#62,.T.);
#38=FACE_OUTER_BOUND('',#63,.T.);
#39=FACE_OUTER_BOUND('',#64,.T.);
#40=FACE_OUTER_BOUND('',#65,.T.);
#41=FACE_OUTER_BOUND('',#66,.T.);
#42=FACE_OUTER_BOUND('',#67,.T.);
#43=FACE_OUTER_BOUND('',#68,.T.);
#44=FACE_OUTER_BOUND('',#69,.T.);
#45=FACE_OUTER_BOUND('',#70,.T.);
#46=FACE_OUTER_BOUND('',#71,.T.);
#47=FACE_OUTER_BOUND('',#72,.T.);
#48=FACE_OUTER_BOUND('',#74,.T.);
#49=FACE_OUTER_BOUND('',#75,.T.);
#50=FACE_OUTER_BOUND('',#76,.T.);
#51=FACE_OUTER_BOUND('',#77,.T.);
#52=FACE_OUTER_BOUND('',#78,.T.);
#53=FACE_OUTER_BOUND('',#79,.T.);
#54=FACE_OUTER_BOUND('',#80,.T.);
#55=FACE_OUTER_BOUND('',#81,.T.);
#56=FACE_OUTER_BOUND('',#82,.T.);
#57=FACE_OUTER_BOUND('',#83,.T.);
#58=EDGE_LOOP('',(#314,#315,#316,#317));
#59=EDGE_LOOP('',(#318,#319,#320,#321));
#60=EDGE_LOOP('',(#322,#323,#324,#325,#326,#327,#328,#329,#330,#331,#332,
#333,#334));
#61=EDGE_LOOP('',(#335,#336,#337,#338,#339,#340));
#62=EDGE_LOOP('',(#341,#342,#343,#344));
#63=EDGE_LOOP('',(#345,#346,#347,#348));
#64=EDGE_LOOP('',(#349,#350,#351,#352));
#65=EDGE_LOOP('',(#353,#354,#355,#356));
#66=EDGE_LOOP('',(#357,#358,#359,#360));
#67=EDGE_LOOP('',(#361,#362,#363,#364,#365));
#68=EDGE_LOOP('',(#366,#367,#368,#369,#370,#371));
#69=EDGE_LOOP('',(#372,#373,#374,#375));
#70=EDGE_LOOP('',(#376,#377,#378,#379));
#71=EDGE_LOOP('',(#380,#381,#382,#383));
#72=EDGE_LOOP('',(#384,#385,#386,#387,#388,#389,#390));
#73=EDGE_LOOP('',(#391));
#74=EDGE_LOOP('',(#392,#393,#394,#395));
#75=EDGE_LOOP('',(#396,#397,#398,#399));
#76=EDGE_LOOP('',(#400,#401,#402,#403));
#77=EDGE_LOOP('',(#404,#405,#406,#407));
#78=EDGE_LOOP('',(#408,#409,#410,#411));
#79=EDGE_LOOP('',(#412,#413,#414,#415));
#80=EDGE_LOOP('',(#416,#417,#418,#419));
#81=EDGE_LOOP('',(#420,#421,#422,#423));
#82=EDGE_LOOP('',(#424,#425,#426,#427,#428,#429,#430,#431,#432,#433,#434));
#83=EDGE_LOOP('',(#435,#436,#437,#438,#439,#440,#441,#442,#443,#444,#445,
#446));
#84=EDGE_LOOP('',(#447));
#85=ELLIPSE('',#498,1.08239220029239,1.);
#86=ELLIPSE('',#500,1.4142135623731,1.);
#87=ELLIPSE('',#506,1.41421356237309,1.);
#88=ELLIPSE('',#507,1.08239220029239,1.);
#89=CIRCLE('',#497,1.);
#90=CIRCLE('',#503,1.);
#91=CIRCLE('',#511,1.);
#92=CIRCLE('',#512,1.);
#93=CIRCLE('',#516,1.);
#94=CIRCLE('',#517,1.);
#95=CIRCLE('',#519,1.);
#96=CIRCLE('',#520,1.);
#97=CIRCLE('',#523,1.);
#98=CIRCLE('',#524,1.2);
#99=CIRCLE('',#526,1.);
#100=CIRCLE('',#529,1.2);
#101=LINE('',#676,#152);
#102=LINE('',#680,#153);
#103=LINE('',#684,#154);
#104=LINE('',#687,#155);
#105=LINE('',#690,#156);
#106=LINE('',#692,#157);
#107=LINE('',#694,#158);
#108=LINE('',#696,#159);
#109=LINE('',#698,#160);
#110=LINE('',#700,#161);
#111=LINE('',#702,#162);
#112=LINE('',#704,#163);
#113=LINE('',#706,#164);
#114=LINE('',#708,#165);
#115=LINE('',#709,#166);
#116=LINE('',#712,#167);
#117=LINE('',#716,#168);
#118=LINE('',#717,#169);
#119=LINE('',#720,#170);
#120=LINE('',#721,#171);
#121=LINE('',#724,#172);
#122=LINE('',#728,#173);
#123=LINE('',#731,#174);
#124=LINE('',#733,#175);
#125=LINE('',#739,#176);
#126=LINE('',#742,#177);
#127=LINE('',#744,#178);
#128=LINE('',#746,#179);
#129=LINE('',#747,#180);
#130=LINE('',#750,#181);
#131=LINE('',#752,#182);
#132=LINE('',#753,#183);
#133=LINE('',#759,#184);
#134=LINE('',#765,#185);
#135=LINE('',#768,#186);
#136=LINE('',#770,#187);
#137=LINE('',#771,#188);
#138=LINE('',#774,#189);
#139=LINE('',#781,#190);
#140=LINE('',#783,#191);
#141=LINE('',#786,#192);
#142=LINE('',#790,#193);
#143=LINE('',#792,#194);
#144=LINE('',#793,#195);
#145=LINE('',#795,#196);
#146=LINE('',#799,#197);
#147=LINE('',#800,#198);
#148=LINE('',#801,#199);
#149=LINE('',#803,#200);
#150=LINE('',#805,#201);
#151=LINE('',#807,#202);
#152=VECTOR('',#541,10.);
#153=VECTOR('',#544,10.);
#154=VECTOR('',#549,10.);
#155=VECTOR('',#552,10.);
#156=VECTOR('',#555,10.);
#157=VECTOR('',#556,10.);
#158=VECTOR('',#557,10.);
#159=VECTOR('',#558,10.);
#160=VECTOR('',#559,10.);
#161=VECTOR('',#560,10.);
#162=VECTOR('',#561,10.);
#163=VECTOR('',#562,10.);
#164=VECTOR('',#563,10.);
#165=VECTOR('',#564,10.);
#166=VECTOR('',#565,10.);
#167=VECTOR('',#568,10.);
#168=VECTOR('',#571,10.);
#169=VECTOR('',#572,10.);
#170=VECTOR('',#575,10.);
#171=VECTOR('',#576,10.);
#172=VECTOR('',#579,10.);
#173=VECTOR('',#582,10.);
#174=VECTOR('',#587,10.);
#175=VECTOR('',#590,10.);
#176=VECTOR('',#595,10.);
#177=VECTOR('',#598,10.);
#178=VECTOR('',#601,10.);
#179=VECTOR('',#602,10.);
#180=VECTOR('',#603,10.);
#181=VECTOR('',#606,10.);
#182=VECTOR('',#607,10.);
#183=VECTOR('',#608,10.);
#184=VECTOR('',#615,10.);
#185=VECTOR('',#622,10.);
#186=VECTOR('',#625,10.);
#187=VECTOR('',#626,10.);
#188=VECTOR('',#627,10.);
#189=VECTOR('',#630,10.);
#190=VECTOR('',#639,10.);
#191=VECTOR('',#642,10.);
#192=VECTOR('',#645,1.2);
#193=VECTOR('',#650,10.);
#194=VECTOR('',#651,10.);
#195=VECTOR('',#652,10.);
#196=VECTOR('',#655,10.);
#197=VECTOR('',#658,10.);
#198=VECTOR('',#659,10.);
#199=VECTOR('',#660,10.);
#200=VECTOR('',#663,10.);
#201=VECTOR('',#666,10.);
#202=VECTOR('',#669,10.);
#203=VERTEX_POINT('',#674);
#204=VERTEX_POINT('',#675);
#205=VERTEX_POINT('',#677);
#206=VERTEX_POINT('',#679);
#207=VERTEX_POINT('',#683);
#208=VERTEX_POINT('',#685);
#209=VERTEX_POINT('',#689);
#210=VERTEX_POINT('',#691);
#211=VERTEX_POINT('',#693);
#212=VERTEX_POINT('',#695);
#213=VERTEX_POINT('',#697);
#214=VERTEX_POINT('',#699);
#215=VERTEX_POINT('',#701);
#216=VERTEX_POINT('',#703);
#217=VERTEX_POINT('',#705);
#218=VERTEX_POINT('',#707);
#219=VERTEX_POINT('',#711);
#220=VERTEX_POINT('',#713);
#221=VERTEX_POINT('',#715);
#222=VERTEX_POINT('',#719);
#223=VERTEX_POINT('',#723);
#224=VERTEX_POINT('',#725);
#225=VERTEX_POINT('',#727);
#226=VERTEX_POINT('',#735);
#227=VERTEX_POINT('',#736);
#228=VERTEX_POINT('',#738);
#229=VERTEX_POINT('',#740);
#230=VERTEX_POINT('',#745);
#231=VERTEX_POINT('',#749);
#232=VERTEX_POINT('',#751);
#233=VERTEX_POINT('',#755);
#234=VERTEX_POINT('',#757);
#235=VERTEX_POINT('',#761);
#236=VERTEX_POINT('',#763);
#237=VERTEX_POINT('',#767);
#238=VERTEX_POINT('',#769);
#239=VERTEX_POINT('',#773);
#240=VERTEX_POINT('',#776);
#241=VERTEX_POINT('',#779);
#242=VERTEX_POINT('',#785);
#243=VERTEX_POINT('',#789);
#244=VERTEX_POINT('',#791);
#245=VERTEX_POINT('',#797);
#246=VERTEX_POINT('',#798);
#247=EDGE_CURVE('',#203,#204,#101,.T.);
#248=EDGE_CURVE('',#204,#205,#89,.T.);
#249=EDGE_CURVE('',#205,#206,#102,.T.);
#250=EDGE_CURVE('',#206,#203,#85,.T.);
#251=EDGE_CURVE('',#206,#207,#103,.T.);
#252=EDGE_CURVE('',#207,#208,#86,.T.);
#253=EDGE_CURVE('',#208,#203,#104,.T.);
#254=EDGE_CURVE('',#209,#205,#105,.T.);
#255=EDGE_CURVE('',#210,#209,#106,.T.);
#256=EDGE_CURVE('',#211,#210,#107,.T.);
#257=EDGE_CURVE('',#212,#211,#108,.T.);
#258=EDGE_CURVE('',#213,#212,#109,.T.);
#259=EDGE_CURVE('',#213,#214,#110,.T.);
#260=EDGE_CURVE('',#215,#214,#111,.T.);
#261=EDGE_CURVE('',#216,#215,#112,.T.);
#262=EDGE_CURVE('',#217,#216,#113,.T.);
#263=EDGE_CURVE('',#218,#217,#114,.T.);
#264=EDGE_CURVE('',#207,#218,#115,.T.);
#265=EDGE_CURVE('',#204,#219,#116,.T.);
#266=EDGE_CURVE('',#220,#219,#90,.T.);
#267=EDGE_CURVE('',#220,#221,#117,.T.);
#268=EDGE_CURVE('',#221,#209,#118,.T.);
#269=EDGE_CURVE('',#222,#203,#119,.T.);
#270=EDGE_CURVE('',#219,#222,#120,.T.);
#271=EDGE_CURVE('',#222,#223,#121,.T.);
#272=EDGE_CURVE('',#223,#224,#87,.T.);
#273=EDGE_CURVE('',#224,#225,#122,.T.);
#274=EDGE_CURVE('',#225,#222,#88,.T.);
#275=EDGE_CURVE('',#225,#220,#123,.T.);
#276=EDGE_CURVE('',#208,#223,#124,.T.);
#277=EDGE_CURVE('',#226,#227,#91,.T.);
#278=EDGE_CURVE('',#227,#228,#125,.T.);
#279=EDGE_CURVE('',#228,#229,#92,.T.);
#280=EDGE_CURVE('',#229,#226,#126,.T.);
#281=EDGE_CURVE('',#228,#215,#127,.T.);
#282=EDGE_CURVE('',#214,#230,#128,.T.);
#283=EDGE_CURVE('',#230,#229,#129,.T.);
#284=EDGE_CURVE('',#231,#227,#130,.T.);
#285=EDGE_CURVE('',#232,#231,#131,.T.);
#286=EDGE_CURVE('',#216,#232,#132,.T.);
#287=EDGE_CURVE('',#233,#232,#93,.T.);
#288=EDGE_CURVE('',#231,#234,#94,.T.);
#289=EDGE_CURVE('',#234,#233,#133,.T.);
#290=EDGE_CURVE('',#235,#218,#95,.T.);
#291=EDGE_CURVE('',#217,#236,#96,.T.);
#292=EDGE_CURVE('',#236,#235,#134,.T.);
#293=EDGE_CURVE('',#236,#237,#135,.T.);
#294=EDGE_CURVE('',#238,#237,#136,.T.);
#295=EDGE_CURVE('',#235,#238,#137,.T.);
#296=EDGE_CURVE('',#239,#233,#138,.T.);
#297=EDGE_CURVE('',#237,#239,#97,.T.);
#298=EDGE_CURVE('',#240,#240,#98,.T.);
#299=EDGE_CURVE('',#241,#238,#99,.T.);
#300=EDGE_CURVE('',#239,#241,#139,.T.);
#301=EDGE_CURVE('',#241,#234,#140,.T.);
#302=EDGE_CURVE('',#240,#242,#141,.T.);
#303=EDGE_CURVE('',#242,#242,#100,.T.);
#304=EDGE_CURVE('',#210,#243,#142,.T.);
#305=EDGE_CURVE('',#243,#244,#143,.T.);
#306=EDGE_CURVE('',#244,#211,#144,.T.);
#307=EDGE_CURVE('',#243,#221,#145,.T.);
#308=EDGE_CURVE('',#245,#246,#146,.T.);
#309=EDGE_CURVE('',#246,#213,#147,.T.);
#310=EDGE_CURVE('',#212,#245,#148,.T.);
#311=EDGE_CURVE('',#246,#230,#149,.T.);
#312=EDGE_CURVE('',#245,#244,#150,.T.);
#313=EDGE_CURVE('',#226,#224,#151,.T.);
#314=ORIENTED_EDGE('',*,*,#247,.T.);
#315=ORIENTED_EDGE('',*,*,#248,.T.);
#316=ORIENTED_EDGE('',*,*,#249,.T.);
#317=ORIENTED_EDGE('',*,*,#250,.T.);
#318=ORIENTED_EDGE('',*,*,#251,.T.);
#319=ORIENTED_EDGE('',*,*,#252,.T.);
#320=ORIENTED_EDGE('',*,*,#253,.T.);
#321=ORIENTED_EDGE('',*,*,#250,.F.);
#322=ORIENTED_EDGE('',*,*,#251,.F.);
#323=ORIENTED_EDGE('',*,*,#249,.F.);
#324=ORIENTED_EDGE('',*,*,#254,.F.);
#325=ORIENTED_EDGE('',*,*,#255,.F.);
#326=ORIENTED_EDGE('',*,*,#256,.F.);
#327=ORIENTED_EDGE('',*,*,#257,.F.);
#328=ORIENTED_EDGE('',*,*,#258,.F.);
#329=ORIENTED_EDGE('',*,*,#259,.T.);
#330=ORIENTED_EDGE('',*,*,#260,.F.);
#331=ORIENTED_EDGE('',*,*,#261,.F.);
#332=ORIENTED_EDGE('',*,*,#262,.F.);
#333=ORIENTED_EDGE('',*,*,#263,.F.);
#334=ORIENTED_EDGE('',*,*,#264,.F.);
#335=ORIENTED_EDGE('',*,*,#248,.F.);
#336=ORIENTED_EDGE('',*,*,#265,.T.);
#337=ORIENTED_EDGE('',*,*,#266,.F.);
#338=ORIENTED_EDGE('',*,*,#267,.T.);
#339=ORIENTED_EDGE('',*,*,#268,.T.);
#340=ORIENTED_EDGE('',*,*,#254,.T.);
#341=ORIENTED_EDGE('',*,*,#247,.F.);
#342=ORIENTED_EDGE('',*,*,#269,.F.);
#343=ORIENTED_EDGE('',*,*,#270,.F.);
#344=ORIENTED_EDGE('',*,*,#265,.F.);
#345=ORIENTED_EDGE('',*,*,#271,.T.);
#346=ORIENTED_EDGE('',*,*,#272,.T.);
#347=ORIENTED_EDGE('',*,*,#273,.T.);
#348=ORIENTED_EDGE('',*,*,#274,.T.);
#349=ORIENTED_EDGE('',*,*,#275,.T.);
#350=ORIENTED_EDGE('',*,*,#266,.T.);
#351=ORIENTED_EDGE('',*,*,#270,.T.);
#352=ORIENTED_EDGE('',*,*,#274,.F.);
#353=ORIENTED_EDGE('',*,*,#253,.F.);
#354=ORIENTED_EDGE('',*,*,#276,.T.);
#355=ORIENTED_EDGE('',*,*,#271,.F.);
#356=ORIENTED_EDGE('',*,*,#269,.T.);
#357=ORIENTED_EDGE('',*,*,#277,.T.);
#358=ORIENTED_EDGE('',*,*,#278,.T.);
#359=ORIENTED_EDGE('',*,*,#279,.T.);
#360=ORIENTED_EDGE('',*,*,#280,.T.);
#361=ORIENTED_EDGE('',*,*,#279,.F.);
#362=ORIENTED_EDGE('',*,*,#281,.T.);
#363=ORIENTED_EDGE('',*,*,#260,.T.);
#364=ORIENTED_EDGE('',*,*,#282,.T.);
#365=ORIENTED_EDGE('',*,*,#283,.T.);
#366=ORIENTED_EDGE('',*,*,#278,.F.);
#367=ORIENTED_EDGE('',*,*,#284,.F.);
#368=ORIENTED_EDGE('',*,*,#285,.F.);
#369=ORIENTED_EDGE('',*,*,#286,.F.);
#370=ORIENTED_EDGE('',*,*,#261,.T.);
#371=ORIENTED_EDGE('',*,*,#281,.F.);
#372=ORIENTED_EDGE('',*,*,#287,.T.);
#373=ORIENTED_EDGE('',*,*,#285,.T.);
#374=ORIENTED_EDGE('',*,*,#288,.T.);
#375=ORIENTED_EDGE('',*,*,#289,.T.);
#376=ORIENTED_EDGE('',*,*,#290,.T.);
#377=ORIENTED_EDGE('',*,*,#263,.T.);
#378=ORIENTED_EDGE('',*,*,#291,.T.);
#379=ORIENTED_EDGE('',*,*,#292,.T.);
#380=ORIENTED_EDGE('',*,*,#292,.F.);
#381=ORIENTED_EDGE('',*,*,#293,.T.);
#382=ORIENTED_EDGE('',*,*,#294,.F.);
#383=ORIENTED_EDGE('',*,*,#295,.F.);
#384=ORIENTED_EDGE('',*,*,#291,.F.);
#385=ORIENTED_EDGE('',*,*,#262,.T.);
#386=ORIENTED_EDGE('',*,*,#286,.T.);
#387=ORIENTED_EDGE('',*,*,#287,.F.);
#388=ORIENTED_EDGE('',*,*,#296,.F.);
#389=ORIENTED_EDGE('',*,*,#297,.F.);
#390=ORIENTED_EDGE('',*,*,#293,.F.);
#391=ORIENTED_EDGE('',*,*,#298,.T.);
#392=ORIENTED_EDGE('',*,*,#299,.T.);
#393=ORIENTED_EDGE('',*,*,#294,.T.);
#394=ORIENTED_EDGE('',*,*,#297,.T.);
#395=ORIENTED_EDGE('',*,*,#300,.T.);
#396=ORIENTED_EDGE('',*,*,#289,.F.);
#397=ORIENTED_EDGE('',*,*,#301,.F.);
#398=ORIENTED_EDGE('',*,*,#300,.F.);
#399=ORIENTED_EDGE('',*,*,#296,.T.);
#400=ORIENTED_EDGE('',*,*,#298,.F.);
#401=ORIENTED_EDGE('',*,*,#302,.T.);
#402=ORIENTED_EDGE('',*,*,#303,.F.);
#403=ORIENTED_EDGE('',*,*,#302,.F.);
#404=ORIENTED_EDGE('',*,*,#256,.T.);
#405=ORIENTED_EDGE('',*,*,#304,.T.);
#406=ORIENTED_EDGE('',*,*,#305,.T.);
#407=ORIENTED_EDGE('',*,*,#306,.T.);
#408=ORIENTED_EDGE('',*,*,#304,.F.);
#409=ORIENTED_EDGE('',*,*,#255,.T.);
#410=ORIENTED_EDGE('',*,*,#268,.F.);
#411=ORIENTED_EDGE('',*,*,#307,.F.);
#412=ORIENTED_EDGE('',*,*,#308,.T.);
#413=ORIENTED_EDGE('',*,*,#309,.T.);
#414=ORIENTED_EDGE('',*,*,#258,.T.);
#415=ORIENTED_EDGE('',*,*,#310,.T.);
#416=ORIENTED_EDGE('',*,*,#309,.F.);
#417=ORIENTED_EDGE('',*,*,#311,.T.);
#418=ORIENTED_EDGE('',*,*,#282,.F.);
#419=ORIENTED_EDGE('',*,*,#259,.F.);
#420=ORIENTED_EDGE('',*,*,#306,.F.);
#421=ORIENTED_EDGE('',*,*,#312,.F.);
#422=ORIENTED_EDGE('',*,*,#310,.F.);
#423=ORIENTED_EDGE('',*,*,#257,.T.);
#424=ORIENTED_EDGE('',*,*,#273,.F.);
#425=ORIENTED_EDGE('',*,*,#313,.F.);
#426=ORIENTED_EDGE('',*,*,#280,.F.);
#427=ORIENTED_EDGE('',*,*,#283,.F.);
#428=ORIENTED_EDGE('',*,*,#311,.F.);
#429=ORIENTED_EDGE('',*,*,#308,.F.);
#430=ORIENTED_EDGE('',*,*,#312,.T.);
#431=ORIENTED_EDGE('',*,*,#305,.F.);
#432=ORIENTED_EDGE('',*,*,#307,.T.);
#433=ORIENTED_EDGE('',*,*,#267,.F.);
#434=ORIENTED_EDGE('',*,*,#275,.F.);
#435=ORIENTED_EDGE('',*,*,#252,.F.);
#436=ORIENTED_EDGE('',*,*,#264,.T.);
#437=ORIENTED_EDGE('',*,*,#290,.F.);
#438=ORIENTED_EDGE('',*,*,#295,.T.);
#439=ORIENTED_EDGE('',*,*,#299,.F.);
#440=ORIENTED_EDGE('',*,*,#301,.T.);
#441=ORIENTED_EDGE('',*,*,#288,.F.);
#442=ORIENTED_EDGE('',*,*,#284,.T.);
#443=ORIENTED_EDGE('',*,*,#277,.F.);
#444=ORIENTED_EDGE('',*,*,#313,.T.);
#445=ORIENTED_EDGE('',*,*,#272,.F.);
#446=ORIENTED_EDGE('',*,*,#276,.F.);
#447=ORIENTED_EDGE('',*,*,#303,.T.);
#448=CYLINDRICAL_SURFACE('',#496,1.);
#449=CYLINDRICAL_SURFACE('',#499,1.);
#450=CYLINDRICAL_SURFACE('',#505,1.);
#451=CYLINDRICAL_SURFACE('',#508,1.);
#452=CYLINDRICAL_SURFACE('',#510,1.);
#453=CYLINDRICAL_SURFACE('',#515,1.);
#454=CYLINDRICAL_SURFACE('',#518,1.);
#455=CYLINDRICAL_SURFACE('',#525,1.);
#456=CYLINDRICAL_SURFACE('',#528,1.2);
#457=ADVANCED_FACE('',(#33),#448,.T.);
#458=ADVANCED_FACE('',(#34),#449,.T.);
#459=ADVANCED_FACE('',(#35),#17,.T.);
#460=ADVANCED_FACE('',(#36),#18,.T.);
#461=ADVANCED_FACE('',(#37),#19,.T.);
#462=ADVANCED_FACE('',(#38),#450,.T.);
#463=ADVANCED_FACE('',(#39),#451,.T.);
#464=ADVANCED_FACE('',(#40),#20,.T.);
#465=ADVANCED_FACE('',(#41),#452,.T.);
#466=ADVANCED_FACE('',(#42),#21,.T.);
#467=ADVANCED_FACE('',(#43),#22,.T.);
#468=ADVANCED_FACE('',(#44),#453,.F.);
#469=ADVANCED_FACE('',(#45),#454,.T.);
#470=ADVANCED_FACE('',(#46),#23,.T.);
#471=ADVANCED_FACE('',(#47,#15),#24,.F.);
#472=ADVANCED_FACE('',(#48),#455,.T.);
#473=ADVANCED_FACE('',(#49),#25,.T.);
#474=ADVANCED_FACE('',(#50),#456,.F.);
#475=ADVANCED_FACE('',(#51),#26,.T.);
#476=ADVANCED_FACE('',(#52),#27,.T.);
#477=ADVANCED_FACE('',(#53),#28,.T.);
#478=ADVANCED_FACE('',(#54),#29,.T.);
#479=ADVANCED_FACE('',(#55),#30,.F.);
#480=ADVANCED_FACE('',(#56),#31,.T.);
#481=ADVANCED_FACE('',(#57,#16),#32,.T.);
#482=CLOSED_SHELL('',(#457,#458,#459,#460,#461,#462,#463,#464,#465,#466,
#467,#468,#469,#470,#471,#472,#473,#474,#475,#476,#477,#478,#479,#480,#481));
#483=DERIVED_UNIT_ELEMENT(#485,1.);
#484=DERIVED_UNIT_ELEMENT(#814,-3.);
#485=(
MASS_UNIT()
NAMED_UNIT(*)
SI_UNIT(.KILO.,.GRAM.)
);
#486=DERIVED_UNIT((#483,#484));
#487=MEASURE_REPRESENTATION_ITEM('density measure',
POSITIVE_RATIO_MEASURE(7850.),#486);
#488=PROPERTY_DEFINITION_REPRESENTATION(#493,#490);
#489=PROPERTY_DEFINITION_REPRESENTATION(#494,#491);
#490=REPRESENTATION('material name',(#492),#811);
#491=REPRESENTATION('density',(#487),#811);
#492=DESCRIPTIVE_REPRESENTATION_ITEM('Steel','Steel');
#493=PROPERTY_DEFINITION('material property','material name',#821);
#494=PROPERTY_DEFINITION('material property','density of part',#821);
#495=AXIS2_PLACEMENT_3D('',#672,#537,#538);
#496=AXIS2_PLACEMENT_3D('',#673,#539,#540);
#497=AXIS2_PLACEMENT_3D('',#678,#542,#543);
#498=AXIS2_PLACEMENT_3D('',#681,#545,#546);
#499=AXIS2_PLACEMENT_3D('',#682,#547,#548);
#500=AXIS2_PLACEMENT_3D('',#686,#550,#551);
#501=AXIS2_PLACEMENT_3D('',#688,#553,#554);
#502=AXIS2_PLACEMENT_3D('',#710,#566,#567);
#503=AXIS2_PLACEMENT_3D('',#714,#569,#570);
#504=AXIS2_PLACEMENT_3D('',#718,#573,#574);
#505=AXIS2_PLACEMENT_3D('',#722,#577,#578);
#506=AXIS2_PLACEMENT_3D('',#726,#580,#581);
#507=AXIS2_PLACEMENT_3D('',#729,#583,#584);
#508=AXIS2_PLACEMENT_3D('',#730,#585,#586);
#509=AXIS2_PLACEMENT_3D('',#732,#588,#589);
#510=AXIS2_PLACEMENT_3D('',#734,#591,#592);
#511=AXIS2_PLACEMENT_3D('',#737,#593,#594);
#512=AXIS2_PLACEMENT_3D('',#741,#596,#597);
#513=AXIS2_PLACEMENT_3D('',#743,#599,#600);
#514=AXIS2_PLACEMENT_3D('',#748,#604,#605);
#515=AXIS2_PLACEMENT_3D('',#754,#609,#610);
#516=AXIS2_PLACEMENT_3D('',#756,#611,#612);
#517=AXIS2_PLACEMENT_3D('',#758,#613,#614);
#518=AXIS2_PLACEMENT_3D('',#760,#616,#617);
#519=AXIS2_PLACEMENT_3D('',#762,#618,#619);
#520=AXIS2_PLACEMENT_3D('',#764,#620,#621);
#521=AXIS2_PLACEMENT_3D('',#766,#623,#624);
#522=AXIS2_PLACEMENT_3D('',#772,#628,#629);
#523=AXIS2_PLACEMENT_3D('',#775,#631,#632);
#524=AXIS2_PLACEMENT_3D('',#777,#633,#634);
#525=AXIS2_PLACEMENT_3D('',#778,#635,#636);
#526=AXIS2_PLACEMENT_3D('',#780,#637,#638);
#527=AXIS2_PLACEMENT_3D('',#782,#640,#641);
#528=AXIS2_PLACEMENT_3D('',#784,#643,#644);
#529=AXIS2_PLACEMENT_3D('',#787,#646,#647);
#530=AXIS2_PLACEMENT_3D('',#788,#648,#649);
#531=AXIS2_PLACEMENT_3D('',#794,#653,#654);
#532=AXIS2_PLACEMENT_3D('',#796,#656,#657);
#533=AXIS2_PLACEMENT_3D('',#802,#661,#662);
#534=AXIS2_PLACEMENT_3D('',#804,#664,#665);
#535=AXIS2_PLACEMENT_3D('',#806,#667,#668);
#536=AXIS2_PLACEMENT_3D('',#808,#670,#671);
#537=DIRECTION('axis',(0.,0.,1.));
#538=DIRECTION('refdir',(1.,0.,0.));
#539=DIRECTION('center_axis',(0.,0.,-1.));
#540=DIRECTION('ref_axis',(-0.707106781186497,-0.707106781186598,0.));
#541=DIRECTION('',(0.,0.,-1.));
#542=DIRECTION('center_axis',(0.,0.,1.));
#543=DIRECTION('ref_axis',(-0.707106781186497,-0.707106781186598,0.));
#544=DIRECTION('',(0.,0.,1.));
#545=DIRECTION('center_axis',(-0.382683432365092,0.,-0.923879532511286));
#546=DIRECTION('ref_axis',(-0.923879532511286,0.,0.382683432365092));
#547=DIRECTION('center_axis',(0.707106781186548,0.,0.707106781186548));
#548=DIRECTION('ref_axis',(-0.499999999999977,-0.707106781186589,0.499999999999964));
#549=DIRECTION('',(0.707106781186548,0.,0.707106781186548));
#550=DIRECTION('center_axis',(0.,0.,-1.));
#551=DIRECTION('ref_axis',(-1.,1.47196168001604E-16,-3.46944695195341E-17));
#552=DIRECTION('',(-0.707106781186548,0.,-0.707106781186548));
#553=DIRECTION('center_axis',(0.,-1.,0.));
#554=DIRECTION('ref_axis',(1.,0.,0.));
#555=DIRECTION('',(-1.,0.,0.));
#556=DIRECTION('',(0.,0.,-1.));
#557=DIRECTION('',(-0.707106781186548,0.,-0.707106781186548));
#558=DIRECTION('',(-1.,0.,0.));
#559=DIRECTION('',(-0.70710678118655,0.,0.707106781186545));
#560=DIRECTION('',(0.,0.,-1.));
#561=DIRECTION('',(-1.,0.,0.));
#562=DIRECTION('',(0.,0.,-1.));
#563=DIRECTION('',(-1.,0.,0.));
#564=DIRECTION('',(0.,0.,-1.));
#565=DIRECTION('',(1.,0.,0.));
#566=DIRECTION('center_axis',(0.,0.,-1.));
#567=DIRECTION('ref_axis',(-1.,0.,0.));
#568=DIRECTION('',(-1.4210854715202E-13,1.,0.));
#569=DIRECTION('center_axis',(0.,0.,1.));
#570=DIRECTION('ref_axis',(-0.707106781186598,0.707106781186497,0.));
#571=DIRECTION('',(1.,1.07440937865629E-15,0.));
#572=DIRECTION('',(2.04964250700029E-15,-1.,0.));
#573=DIRECTION('center_axis',(-1.,-1.4210854715202E-13,0.));
#574=DIRECTION('ref_axis',(1.4210854715202E-13,-1.,0.));
#575=DIRECTION('',(1.4210854715202E-13,-1.,0.));
#576=DIRECTION('',(0.,0.,1.));
#577=DIRECTION('center_axis',(-0.707106781186548,-7.59722157418291E-16,
-0.707106781186548));
#578=DIRECTION('ref_axis',(-0.500000000000025,0.707106781186512,0.500000000000025));
#579=DIRECTION('',(0.707106781186548,7.59722157418291E-16,0.707106781186548));
#580=DIRECTION('center_axis',(0.,0.,-1.));
#581=DIRECTION('ref_axis',(-1.,-1.27570012268057E-15,3.46944695195345E-17));
#582=DIRECTION('',(-0.707106781186548,-7.59722157418291E-16,-0.707106781186548));
#583=DIRECTION('center_axis',(0.382683432365099,0.,0.923879532511283));
#584=DIRECTION('ref_axis',(0.923879532511283,1.98524966895748E-15,-0.382683432365099));
#585=DIRECTION('center_axis',(0.,0.,1.));
#586=DIRECTION('ref_axis',(-0.707106781186598,0.707106781186497,0.));
#587=DIRECTION('',(0.,0.,-1.));
#588=DIRECTION('center_axis',(-0.707106781186548,-1.00485917355762E-13,
0.707106781186548));
#589=DIRECTION('ref_axis',(0.707106781186548,0.,0.707106781186548));
#590=DIRECTION('',(-1.4210854715202E-13,1.,0.));
#591=DIRECTION('center_axis',(0.,0.,1.));
#592=DIRECTION('ref_axis',(0.707106781186546,0.707106781186549,0.));
#593=DIRECTION('center_axis',(0.,0.,-1.));
#594=DIRECTION('ref_axis',(0.707106781186546,0.707106781186549,0.));
#595=DIRECTION('',(0.,0.,-1.));
#596=DIRECTION('center_axis',(0.,0.,1.));
#597=DIRECTION('ref_axis',(0.707106781186546,0.707106781186549,0.));
#598=DIRECTION('',(0.,0.,1.));
#599=DIRECTION('center_axis',(0.,0.,-1.));
#600=DIRECTION('ref_axis',(-1.,0.,0.));
#601=DIRECTION('',(0.,-1.,0.));
#602=DIRECTION('',(0.,1.,0.));
#603=DIRECTION('',(1.,1.07440937865629E-15,0.));
#604=DIRECTION('center_axis',(1.,0.,0.));
#605=DIRECTION('ref_axis',(0.,1.,0.));
#606=DIRECTION('',(0.,1.,0.));
#607=DIRECTION('',(0.,0.,1.));
#608=DIRECTION('',(0.,1.,0.));
#609=DIRECTION('center_axis',(0.,0.,1.));
#610=DIRECTION('ref_axis',(-0.707106781186548,-0.707106781186548,0.));
#611=DIRECTION('center_axis',(0.,0.,-1.));
#612=DIRECTION('ref_axis',(-0.707106781186548,-0.707106781186548,0.));
#613=DIRECTION('center_axis',(0.,0.,1.));
#614=DIRECTION('ref_axis',(-0.707106781186548,-0.707106781186548,0.));
#615=DIRECTION('',(0.,0.,-1.));
#616=DIRECTION('center_axis',(0.,0.,1.));
#617=DIRECTION('ref_axis',(0.707106781186548,-0.707106781186548,0.));
#618=DIRECTION('center_axis',(0.,0.,-1.));
#619=DIRECTION('ref_axis',(0.707106781186548,-0.707106781186548,0.));
#620=DIRECTION('center_axis',(0.,0.,1.));
#621=DIRECTION('ref_axis',(0.707106781186548,-0.707106781186548,0.));
#622=DIRECTION('',(0.,0.,1.));
#623=DIRECTION('center_axis',(1.,0.,0.));
#624=DIRECTION('ref_axis',(0.,1.,0.));
#625=DIRECTION('',(0.,1.,0.));
#626=DIRECTION('',(0.,0.,-1.));
#627=DIRECTION('',(0.,1.,0.));
#628=DIRECTION('center_axis',(0.,0.,1.));
#629=DIRECTION('ref_axis',(-1.,0.,0.));
#630=DIRECTION('',(-1.,0.,0.));
#631=DIRECTION('center_axis',(0.,0.,1.));
#632=DIRECTION('ref_axis',(0.707106781186544,0.707106781186551,0.));
#633=DIRECTION('center_axis',(0.,0.,1.));
#634=DIRECTION('ref_axis',(-1.,0.,0.));
#635=DIRECTION('center_axis',(0.,0.,1.));
#636=DIRECTION('ref_axis',(0.707106781186544,0.707106781186551,0.));
#637=DIRECTION('center_axis',(0.,0.,-1.));
#638=DIRECTION('ref_axis',(0.707106781186544,0.707106781186551,0.));
#639=DIRECTION('',(0.,0.,1.));
#640=DIRECTION('center_axis',(0.,1.,0.));
#641=DIRECTION('ref_axis',(-1.,0.,0.));
#642=DIRECTION('',(-1.,0.,0.));
#643=DIRECTION('center_axis',(0.,0.,1.));
#644=DIRECTION('ref_axis',(-1.,0.,0.));
#645=DIRECTION('',(0.,0.,1.));
#646=DIRECTION('center_axis',(0.,0.,-1.));
#647=DIRECTION('ref_axis',(-1.,0.,0.));
#648=DIRECTION('center_axis',(0.707106781186548,1.4493161157081E-15,-0.707106781186548));
#649=DIRECTION('ref_axis',(-0.707106781186548,0.,-0.707106781186548));
#650=DIRECTION('',(-2.04964250700029E-15,1.,0.));
#651=DIRECTION('',(0.707106781186548,7.59722157418291E-16,0.707106781186548));
#652=DIRECTION('',(2.04964250700029E-15,-1.,0.));
#653=DIRECTION('center_axis',(1.,2.04964250700029E-15,0.));
#654=DIRECTION('ref_axis',(2.04964250700029E-15,-1.,0.));
#655=DIRECTION('',(0.,0.,-1.));
#656=DIRECTION('center_axis',(-0.707106781186545,0.,-0.70710678118655));
#657=DIRECTION('ref_axis',(-0.70710678118655,0.,0.707106781186545));
#658=DIRECTION('',(0.70710678118655,7.59722157418293E-16,-0.707106781186545));
#659=DIRECTION('',(0.,-1.,0.));
#660=DIRECTION('',(0.,1.,0.));
#661=DIRECTION('center_axis',(-1.,0.,0.));
#662=DIRECTION('ref_axis',(0.,1.,0.));
#663=DIRECTION('',(0.,0.,-1.));
#664=DIRECTION('center_axis',(0.,0.,1.));
#665=DIRECTION('ref_axis',(-1.,0.,0.));
#666=DIRECTION('',(-1.,-1.07440937865629E-15,0.));
#667=DIRECTION('center_axis',(-1.07440937865629E-15,1.,0.));
#668=DIRECTION('ref_axis',(-1.,-1.07440937865629E-15,0.));
#669=DIRECTION('',(-1.,-1.07440937865629E-15,0.));
#670=DIRECTION('center_axis',(0.,0.,1.));
#671=DIRECTION('ref_axis',(1.,0.,0.));
#672=CARTESIAN_POINT('',(0.,0.,0.));
#673=CARTESIAN_POINT('Origin',(42.399999999846,-31.2499999999044,52.7500000067587));
#674=CARTESIAN_POINT('',(41.399999999846,-31.2499999999046,52.7500000067587));
#675=CARTESIAN_POINT('',(41.399999999846,-31.2499999999046,42.1500000067587));
#676=CARTESIAN_POINT('',(41.399999999846,-31.2499999999046,52.7500000067587));
#677=CARTESIAN_POINT('',(42.399999999846,-32.2499999999044,42.1500000067587));
#678=CARTESIAN_POINT('Origin',(42.399999999846,-31.2499999999044,42.1500000067587));
#679=CARTESIAN_POINT('',(42.399999999846,-32.2499999999044,52.3357864443856));
#680=CARTESIAN_POINT('',(42.399999999846,-32.2499999999044,52.7500000067587));
#681=CARTESIAN_POINT('Origin',(42.399999999846,-31.2499999999044,52.3357864443856));
#682=CARTESIAN_POINT('Origin',(42.8571067810323,-31.2499999999044,52.7928932255719));
#683=CARTESIAN_POINT('',(45.8142135622191,-32.2499999999044,55.7500000067587));
#684=CARTESIAN_POINT('',(42.8571067810323,-32.2499999999044,52.7928932255719));
#685=CARTESIAN_POINT('',(44.399999999846,-31.2499999999045,55.7500000067587));
#686=CARTESIAN_POINT('Origin',(45.8142135622191,-31.2499999999044,55.7500000067587));
#687=CARTESIAN_POINT('',(42.1499999998457,-31.2499999999045,53.5000000067584));
#688=CARTESIAN_POINT('Origin',(41.3999999998461,-32.2499999999044,52.7500000067587));
#689=CARTESIAN_POINT('',(43.3999999998461,-32.2499999999044,42.1500000067587));
#690=CARTESIAN_POINT('',(48.60384757729,-32.2499999999044,42.1500000067587));
#691=CARTESIAN_POINT('',(43.3999999998461,-32.2499999999044,51.2500000067587));
#692=CARTESIAN_POINT('',(43.3999999998461,-32.2499999999044,52.7500000067587));
#693=CARTESIAN_POINT('',(44.8999999998461,-32.2499999999044,52.7500000067587));
#694=CARTESIAN_POINT('',(43.6499999998461,-32.2499999999044,51.5000000067587));
#695=CARTESIAN_POINT('',(50.2999999999967,-32.2499999999044,52.7500000067587));
#696=CARTESIAN_POINT('',(48.60384757729,-32.2499999999044,52.7500000067587));
#697=CARTESIAN_POINT('',(51.7999999999968,-32.2499999999044,51.2500000067587));
#698=CARTESIAN_POINT('',(48.4499999999591,-32.2499999999044,54.6000000067963));
#699=CARTESIAN_POINT('',(51.7999999999968,-32.2499999999044,46.1500000067587));
#700=CARTESIAN_POINT('',(51.7999999999968,-32.2499999999044,52.7500000067587));
#701=CARTESIAN_POINT('',(53.7999999999968,-32.2499999999044,46.1500000067587));
#702=CARTESIAN_POINT('',(48.60384757729,-32.2499999999044,46.1500000067587));
#703=CARTESIAN_POINT('',(53.7999999999968,-32.2499999999044,52.7500000067587));
#704=CARTESIAN_POINT('',(53.7999999999968,-32.2499999999044,52.7500000067587));
#705=CARTESIAN_POINT('',(59.8499999999968,-32.2499999999044,52.7500000067587));
#706=CARTESIAN_POINT('',(48.60384757729,-32.2499999999044,52.7500000067587));
#707=CARTESIAN_POINT('',(59.8499999999968,-32.2499999999044,55.7500000067587));
#708=CARTESIAN_POINT('',(59.8499999999968,-32.2499999999044,52.7500000067587));
#709=CARTESIAN_POINT('',(48.60384757729,-32.2499999999044,55.7500000067587));
#710=CARTESIAN_POINT('Origin',(42.3999999998452,-25.7499999999044,42.1500000067587));
#711=CARTESIAN_POINT('',(41.3999999998444,-20.2499999999046,42.1500000067587));
#712=CARTESIAN_POINT('',(41.3999999998461,-32.2499999999044,42.1500000067587));
#713=CARTESIAN_POINT('',(42.3999999998444,-19.2499999999044,42.1500000067587));
#714=CARTESIAN_POINT('Origin',(42.3999999998444,-20.2499999999044,42.1500000067587));
#715=CARTESIAN_POINT('',(43.3999999998461,-19.2499999999044,42.1500000067587));
#716=CARTESIAN_POINT('',(53.7999999999968,-19.2499999999044,42.1500000067587));
#717=CARTESIAN_POINT('',(43.3999999998461,-19.2499999999044,42.1500000067587));
#718=CARTESIAN_POINT('Origin',(41.3999999998443,-19.2499999999044,52.7500000067587));
#719=CARTESIAN_POINT('',(41.3999999998444,-20.2499999999045,52.7500000067587));
#720=CARTESIAN_POINT('',(41.3999999998447,-22.4999999999051,52.7500000067587));
#721=CARTESIAN_POINT('',(41.3999999998444,-20.2499999999046,52.7500000067587));
#722=CARTESIAN_POINT('Origin',(45.9571067810691,-20.2499999999044,55.8928932256103));
#723=CARTESIAN_POINT('',(44.3999999998444,-20.2499999999045,55.7500000067587));
#724=CARTESIAN_POINT('',(45.2499999998826,-20.2499999999045,56.6000000067969));
#725=CARTESIAN_POINT('',(45.8142135622175,-19.2499999999044,55.7500000067587));
#726=CARTESIAN_POINT('Origin',(45.8142135622175,-20.2499999999044,55.7500000067587));
#727=CARTESIAN_POINT('',(42.3999999998444,-19.2499999999044,52.3357864443856));
#728=CARTESIAN_POINT('',(45.9571067810691,-19.2499999999044,55.8928932256103));
#729=CARTESIAN_POINT('Origin',(42.3999999998444,-20.2499999999044,52.3357864443856));
#730=CARTESIAN_POINT('Origin',(42.3999999998444,-20.2499999999044,52.7500000067587));
#731=CARTESIAN_POINT('',(42.3999999998444,-19.2499999999044,52.7500000067587));
#732=CARTESIAN_POINT('Origin',(42.8999999998447,-22.4999999999049,54.2500000067587));
#733=CARTESIAN_POINT('',(44.3999999998447,-22.4999999999047,55.7500000067587));
#734=CARTESIAN_POINT('Origin',(52.7999999999968,-20.2499999999044,52.7500000067587));
#735=CARTESIAN_POINT('',(52.7999999999968,-19.2499999999044,55.7500000067587));
#736=CARTESIAN_POINT('',(53.7999999999968,-20.2499999999044,55.7500000067587));
#737=CARTESIAN_POINT('Origin',(52.7999999999968,-20.2499999999044,55.7500000067587));
#738=CARTESIAN_POINT('',(53.7999999999968,-20.2499999999044,46.1500000067587));
#739=CARTESIAN_POINT('',(53.7999999999968,-20.2499999999044,52.7500000067587));
#740=CARTESIAN_POINT('',(52.7999999999968,-19.2499999999044,46.1500000067587));
#741=CARTESIAN_POINT('Origin',(52.7999999999968,-20.2499999999044,46.1500000067587));
#742=CARTESIAN_POINT('',(52.7999999999968,-19.2499999999044,52.7500000067587));
#743=CARTESIAN_POINT('Origin',(52.7999999999968,-25.7499999999044,46.1500000067587));
#744=CARTESIAN_POINT('',(53.7999999999968,-25.7499999999044,46.1500000067587));
#745=CARTESIAN_POINT('',(51.7999999999968,-19.2499999999044,46.1500000067587));
#746=CARTESIAN_POINT('',(51.7999999999968,-19.2499999999044,46.1500000067587));
#747=CARTESIAN_POINT('',(53.7999999999968,-19.2499999999044,46.1500000067587));
#748=CARTESIAN_POINT('Origin',(53.7999999999968,-25.7499999999044,52.7500000067587));
#749=CARTESIAN_POINT('',(53.7999999999968,-24.7499999999044,55.7500000067587));
#750=CARTESIAN_POINT('',(53.7999999999968,-25.7499999999044,55.7500000067587));
#751=CARTESIAN_POINT('',(53.7999999999968,-24.7499999999044,52.7500000067587));
#752=CARTESIAN_POINT('',(53.7999999999968,-24.7499999999044,52.7500000067587));
#753=CARTESIAN_POINT('',(53.7999999999968,-22.4999999999044,52.7500000067587));
#754=CARTESIAN_POINT('Origin',(54.7999999999968,-24.7499999999044,52.7500000067587));
#755=CARTESIAN_POINT('',(54.7999999999968,-25.7499999999044,52.7500000067587));
#756=CARTESIAN_POINT('Origin',(54.7999999999968,-24.7499999999044,52.7500000067587));
#757=CARTESIAN_POINT('',(54.7999999999968,-25.7499999999044,55.7500000067587));
#758=CARTESIAN_POINT('Origin',(54.7999999999968,-24.7499999999044,55.7500000067587));
#759=CARTESIAN_POINT('',(54.7999999999968,-25.7499999999044,52.7500000067587));
#760=CARTESIAN_POINT('Origin',(59.8499999999968,-31.2499999999044,52.7500000067587));
#761=CARTESIAN_POINT('',(60.8499999999968,-31.2499999999044,55.7500000067587));
#762=CARTESIAN_POINT('Origin',(59.8499999999968,-31.2499999999044,55.7500000067587));
#763=CARTESIAN_POINT('',(60.8499999999968,-31.2499999999044,52.7500000067587));
#764=CARTESIAN_POINT('Origin',(59.8499999999968,-31.2499999999044,52.7500000067587));
#765=CARTESIAN_POINT('',(60.8499999999968,-31.2499999999044,52.7500000067587));
#766=CARTESIAN_POINT('Origin',(60.8499999999968,-32.2499999999044,52.7500000067587));
#767=CARTESIAN_POINT('',(60.8499999999968,-26.7499999999044,52.7500000067587));
#768=CARTESIAN_POINT('',(60.8499999999968,-32.2499999999044,52.7500000067587));
#769=CARTESIAN_POINT('',(60.8499999999968,-26.7499999999044,55.7500000067587));
#770=CARTESIAN_POINT('',(60.8499999999968,-26.7499999999044,52.7500000067587));
#771=CARTESIAN_POINT('',(60.8499999999968,-32.2499999999044,55.7500000067587));
#772=CARTESIAN_POINT('Origin',(51.1249999999205,-25.7499999999044,52.7500000067587));
#773=CARTESIAN_POINT('',(59.8499999999968,-25.7499999999044,52.7500000067587));
#774=CARTESIAN_POINT('',(60.8499999999968,-25.7499999999044,52.7500000067587));
#775=CARTESIAN_POINT('Origin',(59.8499999999968,-26.7499999999044,52.7500000067587));
#776=CARTESIAN_POINT('',(58.7000000000033,-28.9999999999044,52.7500000067587));
#777=CARTESIAN_POINT('Origin',(57.5000000000033,-28.9999999999044,52.7500000067587));
#778=CARTESIAN_POINT('Origin',(59.8499999999968,-26.7499999999044,52.7500000067587));
#779=CARTESIAN_POINT('',(59.8499999999968,-25.7499999999044,55.7500000067587));
#780=CARTESIAN_POINT('Origin',(59.8499999999968,-26.7499999999044,55.7500000067587));
#781=CARTESIAN_POINT('',(59.8499999999968,-25.7499999999044,52.7500000067587));
#782=CARTESIAN_POINT('Origin',(60.8499999999968,-25.7499999999044,52.7500000067587));
#783=CARTESIAN_POINT('',(60.8499999999968,-25.7499999999044,55.7500000067587));
#784=CARTESIAN_POINT('Origin',(57.5000000000033,-28.9999999999044,52.7500000067587));
#785=CARTESIAN_POINT('',(58.7000000000033,-28.9999999999044,55.7500000067587));
#786=CARTESIAN_POINT('',(58.7000000000033,-28.9999999999044,52.7500000067587));
#787=CARTESIAN_POINT('Origin',(57.5000000000033,-28.9999999999044,55.7500000067587));
#788=CARTESIAN_POINT('Origin',(44.1499999998461,-22.4999999999044,52.0000000067587));
#789=CARTESIAN_POINT('',(43.3999999998461,-19.2499999999044,51.2500000067587));
#790=CARTESIAN_POINT('',(43.3999999998461,-22.4999999999044,51.2500000067587));
#791=CARTESIAN_POINT('',(44.8999999998461,-19.2499999999044,52.7500000067587));
#792=CARTESIAN_POINT('',(46.7499999998838,-19.2499999999044,54.6000000067963));
#793=CARTESIAN_POINT('',(44.8999999998461,-22.4999999999044,52.7500000067587));
#794=CARTESIAN_POINT('Origin',(43.3999999998461,-19.2499999999044,52.7500000067587));
#795=CARTESIAN_POINT('',(43.3999999998461,-19.2499999999044,52.7500000067587));
#796=CARTESIAN_POINT('Origin',(51.0499999999968,-28.9999999999044,52.0000000067587));
#797=CARTESIAN_POINT('',(50.2999999999967,-19.2499999999044,52.7500000067587));
#798=CARTESIAN_POINT('',(51.7999999999968,-19.2499999999044,51.2500000067587));
#799=CARTESIAN_POINT('',(51.5499999999968,-19.2499999999044,51.5000000067587));
#800=CARTESIAN_POINT('',(51.7999999999968,-28.9999999999044,51.2500000067587));
#801=CARTESIAN_POINT('',(50.2999999999967,-28.9999999999044,52.7500000067587));
#802=CARTESIAN_POINT('Origin',(51.7999999999968,-32.2499999999044,52.7500000067587));
#803=CARTESIAN_POINT('',(51.7999999999968,-19.2499999999044,52.7500000067587));
#804=CARTESIAN_POINT('Origin',(51.1249999999205,-25.7499999999044,52.7500000067587));
#805=CARTESIAN_POINT('',(53.7999999999968,-19.2499999999044,52.7500000067587));
#806=CARTESIAN_POINT('Origin',(53.7999999999968,-19.2499999999044,52.7500000067587));
#807=CARTESIAN_POINT('',(53.7999999999968,-19.2499999999044,55.7500000067587));
#808=CARTESIAN_POINT('Origin',(51.1249999999205,-25.7499999999044,55.7500000067587));
#809=UNCERTAINTY_MEASURE_WITH_UNIT(LENGTH_MEASURE(0.01),#813,
'DISTANCE_ACCURACY_VALUE',
'Maximum model space distance between geometric entities at asserted c
onnectivities');
#810=UNCERTAINTY_MEASURE_WITH_UNIT(LENGTH_MEASURE(0.01),#813,
'DISTANCE_ACCURACY_VALUE',
'Maximum model space distance between geometric entities at asserted c
onnectivities');
#811=(
GEOMETRIC_REPRESENTATION_CONTEXT(3)
GLOBAL_UNCERTAINTY_ASSIGNED_CONTEXT((#809))
GLOBAL_UNIT_ASSIGNED_CONTEXT((#813,#815,#816))
REPRESENTATION_CONTEXT('','3D')
);
#812=(
GEOMETRIC_REPRESENTATION_CONTEXT(3)
GLOBAL_UNCERTAINTY_ASSIGNED_CONTEXT((#810))
GLOBAL_UNIT_ASSIGNED_CONTEXT((#813,#815,#816))
REPRESENTATION_CONTEXT('','3D')
);
#813=(
LENGTH_UNIT()
NAMED_UNIT(*)
SI_UNIT(.MILLI.,.METRE.)
);
#814=(
LENGTH_UNIT()
NAMED_UNIT(*)
SI_UNIT($,.METRE.)
);
#815=(
NAMED_UNIT(*)
PLANE_ANGLE_UNIT()
SI_UNIT($,.RADIAN.)
);
#816=(
NAMED_UNIT(*)
SI_UNIT($,.STERADIAN.)
SOLID_ANGLE_UNIT()
);
#817=SHAPE_DEFINITION_REPRESENTATION(#818,#819);
#818=PRODUCT_DEFINITION_SHAPE('',$,#821);
#819=SHAPE_REPRESENTATION('',(#495),#811);
#820=PRODUCT_DEFINITION_CONTEXT('part definition',#825,'design');
#821=PRODUCT_DEFINITION('(Unsaved)','(Unsaved)',#822,#820);
#822=PRODUCT_DEFINITION_FORMATION('',$,#827);
#823=PRODUCT_RELATED_PRODUCT_CATEGORY('(Unsaved)','(Unsaved)',(#827));
#824=APPLICATION_PROTOCOL_DEFINITION('international standard',
'automotive_design',2009,#825);
#825=APPLICATION_CONTEXT(
'Core Data for Automotive Mechanical Design Process');
#826=PRODUCT_CONTEXT('part definition',#825,'mechanical');
#827=PRODUCT('(Unsaved)','(Unsaved)',$,(#826));
#828=PRESENTATION_STYLE_ASSIGNMENT((#829));
#829=SURFACE_STYLE_USAGE(.BOTH.,#830);
#830=SURFACE_SIDE_STYLE('',(#831));
#831=SURFACE_STYLE_FILL_AREA(#832);
#832=FILL_AREA_STYLE('Steel - Satin',(#833));
#833=FILL_AREA_STYLE_COLOUR('Steel - Satin',#834);
#834=COLOUR_RGB('Steel - Satin',0.627450980392157,0.627450980392157,0.627450980392157);
ENDSEC;
END-ISO-10303-21;
