ISO-10303-21;
HEADER;
/* Generated by software containing ST-Developer
 * from STEP Tools, Inc. (www.steptools.com) 
 */

FILE_DESCRIPTION(
/* description */ (''),
/* implementation_level */ '2;1');

FILE_NAME(
/* name */ 'micro-switch-mount-x1.step',
/* time_stamp */ '2026-09-30T23:19:21+03:00',
/* author */ (''),
/* organization */ (''),
/* preprocessor_version */ 'ST-DEVELOPER v20.1',
/* originating_system */ 'Autodesk Translation Framework v15.8.0.0',
/* authorisation */ '');

FILE_SCHEMA (('AUTOMOTIVE_DESIGN { 1 0 10303 214 3 1 1 }'));
ENDSEC;

DATA;
#10=MECHANICAL_DESIGN_GEOMETRIC_PRESENTATION_REPRESENTATION('',(#13),#572);
#11=SHAPE_REPRESENTATION_RELATIONSHIP('SRR','None',#579,#12);
#12=ADVANCED_BREP_SHAPE_REPRESENTATION('',(#14),#571);
#13=STYLED_ITEM('',(#588),#14);
#14=MANIFOLD_SOLID_BREP('micro-switch-mount-x1',#336);
#15=FACE_BOUND('',#53,.T.);
#16=FACE_BOUND('',#60,.T.);
#17=FACE_BOUND('',#61,.T.);
#18=FACE_BOUND('',#66,.T.);
#19=FACE_BOUND('',#67,.T.);
#20=FACE_BOUND('',#70,.T.);
#21=PLANE('',#359);
#22=PLANE('',#360);
#23=PLANE('',#367);
#24=PLANE('',#370);
#25=PLANE('',#373);
#26=PLANE('',#374);
#27=PLANE('',#377);
#28=PLANE('',#378);
#29=PLANE('',#379);
#30=PLANE('',#380);
#31=FACE_OUTER_BOUND('',#48,.T.);
#32=FACE_OUTER_BOUND('',#49,.T.);
#33=FACE_OUTER_BOUND('',#50,.T.);
#34=FACE_OUTER_BOUND('',#51,.T.);
#35=FACE_OUTER_BOUND('',#52,.T.);
#36=FACE_OUTER_BOUND('',#54,.T.);
#37=FACE_OUTER_BOUND('',#55,.T.);
#38=FACE_OUTER_BOUND('',#56,.T.);
#39=FACE_OUTER_BOUND('',#57,.T.);
#40=FACE_OUTER_BOUND('',#58,.T.);
#41=FACE_OUTER_BOUND('',#59,.T.);
#42=FACE_OUTER_BOUND('',#62,.T.);
#43=FACE_OUTER_BOUND('',#63,.T.);
#44=FACE_OUTER_BOUND('',#64,.T.);
#45=FACE_OUTER_BOUND('',#65,.T.);
#46=FACE_OUTER_BOUND('',#68,.T.);
#47=FACE_OUTER_BOUND('',#69,.T.);
#48=EDGE_LOOP('',(#222,#223,#224,#225));
#49=EDGE_LOOP('',(#226,#227,#228,#229));
#50=EDGE_LOOP('',(#230,#231,#232,#233));
#51=EDGE_LOOP('',(#234,#235,#236,#237));
#52=EDGE_LOOP('',(#238,#239,#240,#241,#242,#243,#244,#245));
#53=EDGE_LOOP('',(#246));
#54=EDGE_LOOP('',(#247,#248,#249,#250));
#55=EDGE_LOOP('',(#251,#252,#253,#254));
#56=EDGE_LOOP('',(#255,#256,#257,#258));
#57=EDGE_LOOP('',(#259,#260,#261,#262));
#58=EDGE_LOOP('',(#263,#264,#265,#266));
#59=EDGE_LOOP('',(#267,#268,#269,#270,#271,#272,#273,#274));
#60=EDGE_LOOP('',(#275));
#61=EDGE_LOOP('',(#276));
#62=EDGE_LOOP('',(#277,#278,#279,#280));
#63=EDGE_LOOP('',(#281,#282,#283,#284));
#64=EDGE_LOOP('',(#285,#286,#287,#288));
#65=EDGE_LOOP('',(#289,#290,#291,#292));
#66=EDGE_LOOP('',(#293));
#67=EDGE_LOOP('',(#294));
#68=EDGE_LOOP('',(#295,#296,#297,#298));
#69=EDGE_LOOP('',(#299,#300,#301,#302,#303,#304,#305,#306,#307,#308,#309,
#310));
#70=EDGE_LOOP('',(#311));
#71=LINE('',#481,#102);
#72=LINE('',#487,#103);
#73=LINE('',#494,#104);
#74=LINE('',#497,#105);
#75=LINE('',#500,#106);
#76=LINE('',#502,#107);
#77=LINE('',#503,#108);
#78=LINE('',#506,#109);
#79=LINE('',#510,#110);
#80=LINE('',#514,#111);
#81=LINE('',#521,#112);
#82=LINE('',#524,#113);
#83=LINE('',#525,#114);
#84=LINE('',#528,#115);
#85=LINE('',#531,#116);
#86=LINE('',#533,#117);
#87=LINE('',#536,#118);
#88=LINE('',#540,#119);
#89=LINE('',#542,#120);
#90=LINE('',#544,#121);
#91=LINE('',#546,#122);
#92=LINE('',#547,#123);
#93=LINE('',#550,#124);
#94=LINE('',#552,#125);
#95=LINE('',#553,#126);
#96=LINE('',#557,#127);
#97=LINE('',#560,#128);
#98=LINE('',#561,#129);
#99=LINE('',#564,#130);
#100=LINE('',#565,#131);
#101=LINE('',#567,#132);
#102=VECTOR('',#387,1.60000000000001);
#103=VECTOR('',#394,1.6);
#104=VECTOR('',#401,10.);
#105=VECTOR('',#404,10.);
#106=VECTOR('',#407,10.);
#107=VECTOR('',#408,10.);
#108=VECTOR('',#409,10.);
#109=VECTOR('',#412,10.);
#110=VECTOR('',#415,10.);
#111=VECTOR('',#418,10.);
#112=VECTOR('',#427,10.);
#113=VECTOR('',#430,10.);
#114=VECTOR('',#431,10.);
#115=VECTOR('',#434,10.);
#116=VECTOR('',#437,10.);
#117=VECTOR('',#440,10.);
#118=VECTOR('',#443,10.);
#119=VECTOR('',#448,10.);
#120=VECTOR('',#449,10.);
#121=VECTOR('',#450,10.);
#122=VECTOR('',#451,10.);
#123=VECTOR('',#452,10.);
#124=VECTOR('',#455,10.);
#125=VECTOR('',#456,10.);
#126=VECTOR('',#457,10.);
#127=VECTOR('',#462,1.2);
#128=VECTOR('',#465,10.);
#129=VECTOR('',#466,10.);
#130=VECTOR('',#469,10.);
#131=VECTOR('',#470,10.);
#132=VECTOR('',#473,10.);
#133=CIRCLE('',#351,1.55000000000001);
#134=CIRCLE('',#352,1.55000000000001);
#135=CIRCLE('',#354,1.55);
#136=CIRCLE('',#355,1.55);
#137=CIRCLE('',#357,1.);
#138=CIRCLE('',#358,1.);
#139=CIRCLE('',#361,1.);
#140=CIRCLE('',#362,1.);
#141=CIRCLE('',#363,1.);
#142=CIRCLE('',#364,1.2);
#143=CIRCLE('',#366,1.);
#144=CIRCLE('',#369,1.);
#145=CIRCLE('',#372,1.);
#146=CIRCLE('',#376,1.2);
#147=VERTEX_POINT('',#478);
#148=VERTEX_POINT('',#480);
#149=VERTEX_POINT('',#484);
#150=VERTEX_POINT('',#486);
#151=VERTEX_POINT('',#490);
#152=VERTEX_POINT('',#491);
#153=VERTEX_POINT('',#493);
#154=VERTEX_POINT('',#495);
#155=VERTEX_POINT('',#499);
#156=VERTEX_POINT('',#501);
#157=VERTEX_POINT('',#505);
#158=VERTEX_POINT('',#507);
#159=VERTEX_POINT('',#509);
#160=VERTEX_POINT('',#511);
#161=VERTEX_POINT('',#513);
#162=VERTEX_POINT('',#516);
#163=VERTEX_POINT('',#519);
#164=VERTEX_POINT('',#523);
#165=VERTEX_POINT('',#527);
#166=VERTEX_POINT('',#529);
#167=VERTEX_POINT('',#535);
#168=VERTEX_POINT('',#539);
#169=VERTEX_POINT('',#541);
#170=VERTEX_POINT('',#543);
#171=VERTEX_POINT('',#545);
#172=VERTEX_POINT('',#549);
#173=VERTEX_POINT('',#551);
#174=VERTEX_POINT('',#555);
#175=VERTEX_POINT('',#559);
#176=VERTEX_POINT('',#563);
#177=EDGE_CURVE('',#147,#147,#133,.T.);
#178=EDGE_CURVE('',#147,#148,#71,.T.);
#179=EDGE_CURVE('',#148,#148,#134,.T.);
#180=EDGE_CURVE('',#149,#149,#135,.T.);
#181=EDGE_CURVE('',#149,#150,#72,.T.);
#182=EDGE_CURVE('',#150,#150,#136,.T.);
#183=EDGE_CURVE('',#151,#152,#137,.T.);
#184=EDGE_CURVE('',#152,#153,#73,.T.);
#185=EDGE_CURVE('',#153,#154,#138,.T.);
#186=EDGE_CURVE('',#154,#151,#74,.T.);
#187=EDGE_CURVE('',#155,#154,#75,.T.);
#188=EDGE_CURVE('',#156,#155,#76,.T.);
#189=EDGE_CURVE('',#151,#156,#77,.T.);
#190=EDGE_CURVE('',#153,#157,#78,.T.);
#191=EDGE_CURVE('',#158,#157,#139,.T.);
#192=EDGE_CURVE('',#158,#159,#79,.T.);
#193=EDGE_CURVE('',#160,#159,#140,.T.);
#194=EDGE_CURVE('',#160,#161,#80,.T.);
#195=EDGE_CURVE('',#155,#161,#141,.T.);
#196=EDGE_CURVE('',#162,#162,#142,.T.);
#197=EDGE_CURVE('',#163,#156,#143,.T.);
#198=EDGE_CURVE('',#161,#163,#81,.T.);
#199=EDGE_CURVE('',#164,#160,#82,.T.);
#200=EDGE_CURVE('',#163,#164,#83,.T.);
#201=EDGE_CURVE('',#157,#165,#84,.T.);
#202=EDGE_CURVE('',#165,#166,#144,.T.);
#203=EDGE_CURVE('',#166,#158,#85,.T.);
#204=EDGE_CURVE('',#165,#152,#86,.T.);
#205=EDGE_CURVE('',#159,#167,#87,.T.);
#206=EDGE_CURVE('',#167,#164,#145,.T.);
#207=EDGE_CURVE('',#168,#166,#88,.T.);
#208=EDGE_CURVE('',#169,#168,#89,.T.);
#209=EDGE_CURVE('',#170,#169,#90,.T.);
#210=EDGE_CURVE('',#170,#171,#91,.T.);
#211=EDGE_CURVE('',#167,#171,#92,.T.);
#212=EDGE_CURVE('',#169,#172,#93,.T.);
#213=EDGE_CURVE('',#172,#173,#94,.T.);
#214=EDGE_CURVE('',#173,#170,#95,.T.);
#215=EDGE_CURVE('',#174,#174,#146,.T.);
#216=EDGE_CURVE('',#174,#162,#96,.T.);
#217=EDGE_CURVE('',#175,#168,#97,.T.);
#218=EDGE_CURVE('',#172,#175,#98,.T.);
#219=EDGE_CURVE('',#176,#175,#99,.T.);
#220=EDGE_CURVE('',#173,#176,#100,.T.);
#221=EDGE_CURVE('',#171,#176,#101,.T.);
#222=ORIENTED_EDGE('',*,*,#177,.F.);
#223=ORIENTED_EDGE('',*,*,#178,.T.);
#224=ORIENTED_EDGE('',*,*,#179,.F.);
#225=ORIENTED_EDGE('',*,*,#178,.F.);
#226=ORIENTED_EDGE('',*,*,#180,.F.);
#227=ORIENTED_EDGE('',*,*,#181,.T.);
#228=ORIENTED_EDGE('',*,*,#182,.F.);
#229=ORIENTED_EDGE('',*,*,#181,.F.);
#230=ORIENTED_EDGE('',*,*,#183,.T.);
#231=ORIENTED_EDGE('',*,*,#184,.T.);
#232=ORIENTED_EDGE('',*,*,#185,.T.);
#233=ORIENTED_EDGE('',*,*,#186,.T.);
#234=ORIENTED_EDGE('',*,*,#186,.F.);
#235=ORIENTED_EDGE('',*,*,#187,.F.);
#236=ORIENTED_EDGE('',*,*,#188,.F.);
#237=ORIENTED_EDGE('',*,*,#189,.F.);
#238=ORIENTED_EDGE('',*,*,#185,.F.);
#239=ORIENTED_EDGE('',*,*,#190,.T.);
#240=ORIENTED_EDGE('',*,*,#191,.F.);
#241=ORIENTED_EDGE('',*,*,#192,.T.);
#242=ORIENTED_EDGE('',*,*,#193,.F.);
#243=ORIENTED_EDGE('',*,*,#194,.T.);
#244=ORIENTED_EDGE('',*,*,#195,.F.);
#245=ORIENTED_EDGE('',*,*,#187,.T.);
#246=ORIENTED_EDGE('',*,*,#196,.F.);
#247=ORIENTED_EDGE('',*,*,#197,.T.);
#248=ORIENTED_EDGE('',*,*,#188,.T.);
#249=ORIENTED_EDGE('',*,*,#195,.T.);
#250=ORIENTED_EDGE('',*,*,#198,.T.);
#251=ORIENTED_EDGE('',*,*,#198,.F.);
#252=ORIENTED_EDGE('',*,*,#194,.F.);
#253=ORIENTED_EDGE('',*,*,#199,.F.);
#254=ORIENTED_EDGE('',*,*,#200,.F.);
#255=ORIENTED_EDGE('',*,*,#191,.T.);
#256=ORIENTED_EDGE('',*,*,#201,.T.);
#257=ORIENTED_EDGE('',*,*,#202,.T.);
#258=ORIENTED_EDGE('',*,*,#203,.T.);
#259=ORIENTED_EDGE('',*,*,#184,.F.);
#260=ORIENTED_EDGE('',*,*,#204,.F.);
#261=ORIENTED_EDGE('',*,*,#201,.F.);
#262=ORIENTED_EDGE('',*,*,#190,.F.);
#263=ORIENTED_EDGE('',*,*,#193,.T.);
#264=ORIENTED_EDGE('',*,*,#205,.T.);
#265=ORIENTED_EDGE('',*,*,#206,.T.);
#266=ORIENTED_EDGE('',*,*,#199,.T.);
#267=ORIENTED_EDGE('',*,*,#203,.F.);
#268=ORIENTED_EDGE('',*,*,#207,.F.);
#269=ORIENTED_EDGE('',*,*,#208,.F.);
#270=ORIENTED_EDGE('',*,*,#209,.F.);
#271=ORIENTED_EDGE('',*,*,#210,.T.);
#272=ORIENTED_EDGE('',*,*,#211,.F.);
#273=ORIENTED_EDGE('',*,*,#205,.F.);
#274=ORIENTED_EDGE('',*,*,#192,.F.);
#275=ORIENTED_EDGE('',*,*,#179,.T.);
#276=ORIENTED_EDGE('',*,*,#182,.T.);
#277=ORIENTED_EDGE('',*,*,#209,.T.);
#278=ORIENTED_EDGE('',*,*,#212,.T.);
#279=ORIENTED_EDGE('',*,*,#213,.T.);
#280=ORIENTED_EDGE('',*,*,#214,.T.);
#281=ORIENTED_EDGE('',*,*,#215,.F.);
#282=ORIENTED_EDGE('',*,*,#216,.T.);
#283=ORIENTED_EDGE('',*,*,#196,.T.);
#284=ORIENTED_EDGE('',*,*,#216,.F.);
#285=ORIENTED_EDGE('',*,*,#208,.T.);
#286=ORIENTED_EDGE('',*,*,#217,.F.);
#287=ORIENTED_EDGE('',*,*,#218,.F.);
#288=ORIENTED_EDGE('',*,*,#212,.F.);
#289=ORIENTED_EDGE('',*,*,#218,.T.);
#290=ORIENTED_EDGE('',*,*,#219,.F.);
#291=ORIENTED_EDGE('',*,*,#220,.F.);
#292=ORIENTED_EDGE('',*,*,#213,.F.);
#293=ORIENTED_EDGE('',*,*,#177,.T.);
#294=ORIENTED_EDGE('',*,*,#180,.T.);
#295=ORIENTED_EDGE('',*,*,#220,.T.);
#296=ORIENTED_EDGE('',*,*,#221,.F.);
#297=ORIENTED_EDGE('',*,*,#210,.F.);
#298=ORIENTED_EDGE('',*,*,#214,.F.);
#299=ORIENTED_EDGE('',*,*,#183,.F.);
#300=ORIENTED_EDGE('',*,*,#189,.T.);
#301=ORIENTED_EDGE('',*,*,#197,.F.);
#302=ORIENTED_EDGE('',*,*,#200,.T.);
#303=ORIENTED_EDGE('',*,*,#206,.F.);
#304=ORIENTED_EDGE('',*,*,#211,.T.);
#305=ORIENTED_EDGE('',*,*,#221,.T.);
#306=ORIENTED_EDGE('',*,*,#219,.T.);
#307=ORIENTED_EDGE('',*,*,#217,.T.);
#308=ORIENTED_EDGE('',*,*,#207,.T.);
#309=ORIENTED_EDGE('',*,*,#202,.F.);
#310=ORIENTED_EDGE('',*,*,#204,.T.);
#311=ORIENTED_EDGE('',*,*,#215,.T.);
#312=CYLINDRICAL_SURFACE('',#350,1.55000000000001);
#313=CYLINDRICAL_SURFACE('',#353,1.55);
#314=CYLINDRICAL_SURFACE('',#356,1.);
#315=CYLINDRICAL_SURFACE('',#365,1.);
#316=CYLINDRICAL_SURFACE('',#368,1.);
#317=CYLINDRICAL_SURFACE('',#371,1.);
#318=CYLINDRICAL_SURFACE('',#375,1.2);
#319=ADVANCED_FACE('',(#31),#312,.F.);
#320=ADVANCED_FACE('',(#32),#313,.F.);
#321=ADVANCED_FACE('',(#33),#314,.T.);
#322=ADVANCED_FACE('',(#34),#21,.T.);
#323=ADVANCED_FACE('',(#35,#15),#22,.F.);
#324=ADVANCED_FACE('',(#36),#315,.T.);
#325=ADVANCED_FACE('',(#37),#23,.T.);
#326=ADVANCED_FACE('',(#38),#316,.F.);
#327=ADVANCED_FACE('',(#39),#24,.T.);
#328=ADVANCED_FACE('',(#40),#317,.F.);
#329=ADVANCED_FACE('',(#41,#16,#17),#25,.T.);
#330=ADVANCED_FACE('',(#42),#26,.T.);
#331=ADVANCED_FACE('',(#43),#318,.F.);
#332=ADVANCED_FACE('',(#44),#27,.T.);
#333=ADVANCED_FACE('',(#45,#18,#19),#28,.T.);
#334=ADVANCED_FACE('',(#46),#29,.T.);
#335=ADVANCED_FACE('',(#47,#20),#30,.T.);
#336=CLOSED_SHELL('',(#319,#320,#321,#322,#323,#324,#325,#326,#327,#328,
#329,#330,#331,#332,#333,#334,#335));
#337=DERIVED_UNIT_ELEMENT(#339,1.);
#338=DERIVED_UNIT_ELEMENT(#574,-3.);
#339=(
MASS_UNIT()
NAMED_UNIT(*)
SI_UNIT(.KILO.,.GRAM.)
);
#340=DERIVED_UNIT((#337,#338));
#341=MEASURE_REPRESENTATION_ITEM('density measure',
POSITIVE_RATIO_MEASURE(7850.),#340);
#342=PROPERTY_DEFINITION_REPRESENTATION(#347,#344);
#343=PROPERTY_DEFINITION_REPRESENTATION(#348,#345);
#344=REPRESENTATION('material name',(#346),#571);
#345=REPRESENTATION('density',(#341),#571);
#346=DESCRIPTIVE_REPRESENTATION_ITEM('Steel','Steel');
#347=PROPERTY_DEFINITION('material property','material name',#581);
#348=PROPERTY_DEFINITION('material property','density of part',#581);
#349=AXIS2_PLACEMENT_3D('',#476,#381,#382);
#350=AXIS2_PLACEMENT_3D('',#477,#383,#384);
#351=AXIS2_PLACEMENT_3D('',#479,#385,#386);
#352=AXIS2_PLACEMENT_3D('',#482,#388,#389);
#353=AXIS2_PLACEMENT_3D('',#483,#390,#391);
#354=AXIS2_PLACEMENT_3D('',#485,#392,#393);
#355=AXIS2_PLACEMENT_3D('',#488,#395,#396);
#356=AXIS2_PLACEMENT_3D('',#489,#397,#398);
#357=AXIS2_PLACEMENT_3D('',#492,#399,#400);
#358=AXIS2_PLACEMENT_3D('',#496,#402,#403);
#359=AXIS2_PLACEMENT_3D('',#498,#405,#406);
#360=AXIS2_PLACEMENT_3D('',#504,#410,#411);
#361=AXIS2_PLACEMENT_3D('',#508,#413,#414);
#362=AXIS2_PLACEMENT_3D('',#512,#416,#417);
#363=AXIS2_PLACEMENT_3D('',#515,#419,#420);
#364=AXIS2_PLACEMENT_3D('',#517,#421,#422);
#365=AXIS2_PLACEMENT_3D('',#518,#423,#424);
#366=AXIS2_PLACEMENT_3D('',#520,#425,#426);
#367=AXIS2_PLACEMENT_3D('',#522,#428,#429);
#368=AXIS2_PLACEMENT_3D('',#526,#432,#433);
#369=AXIS2_PLACEMENT_3D('',#530,#435,#436);
#370=AXIS2_PLACEMENT_3D('',#532,#438,#439);
#371=AXIS2_PLACEMENT_3D('',#534,#441,#442);
#372=AXIS2_PLACEMENT_3D('',#537,#444,#445);
#373=AXIS2_PLACEMENT_3D('',#538,#446,#447);
#374=AXIS2_PLACEMENT_3D('',#548,#453,#454);
#375=AXIS2_PLACEMENT_3D('',#554,#458,#459);
#376=AXIS2_PLACEMENT_3D('',#556,#460,#461);
#377=AXIS2_PLACEMENT_3D('',#558,#463,#464);
#378=AXIS2_PLACEMENT_3D('',#562,#467,#468);
#379=AXIS2_PLACEMENT_3D('',#566,#471,#472);
#380=AXIS2_PLACEMENT_3D('',#568,#474,#475);
#381=DIRECTION('axis',(0.,0.,1.));
#382=DIRECTION('refdir',(1.,0.,0.));
#383=DIRECTION('center_axis',(1.,0.,0.));
#384=DIRECTION('ref_axis',(0.,-1.,0.));
#385=DIRECTION('center_axis',(1.,0.,0.));
#386=DIRECTION('ref_axis',(0.,-1.,0.));
#387=DIRECTION('',(1.,0.,0.));
#388=DIRECTION('center_axis',(-1.,0.,0.));
#389=DIRECTION('ref_axis',(0.,-1.,0.));
#390=DIRECTION('center_axis',(1.,0.,0.));
#391=DIRECTION('ref_axis',(0.,-1.,0.));
#392=DIRECTION('center_axis',(1.,0.,0.));
#393=DIRECTION('ref_axis',(0.,-1.,0.));
#394=DIRECTION('',(1.,0.,0.));
#395=DIRECTION('center_axis',(-1.,0.,0.));
#396=DIRECTION('ref_axis',(0.,-1.,0.));
#397=DIRECTION('center_axis',(0.,0.,1.));
#398=DIRECTION('ref_axis',(0.707106781186548,-0.707106781186548,0.));
#399=DIRECTION('center_axis',(0.,0.,-1.));
#400=DIRECTION('ref_axis',(0.707106781186548,-0.707106781186548,0.));
#401=DIRECTION('',(0.,0.,-1.));
#402=DIRECTION('center_axis',(0.,0.,1.));
#403=DIRECTION('ref_axis',(0.707106781186548,-0.707106781186548,0.));
#404=DIRECTION('',(0.,0.,1.));
#405=DIRECTION('center_axis',(1.,0.,0.));
#406=DIRECTION('ref_axis',(0.,1.,0.));
#407=DIRECTION('',(0.,-1.,0.));
#408=DIRECTION('',(0.,0.,-1.));
#409=DIRECTION('',(0.,1.,0.));
#410=DIRECTION('center_axis',(0.,0.,1.));
#411=DIRECTION('ref_axis',(-1.,0.,0.));
#412=DIRECTION('',(-1.,0.,0.));
#413=DIRECTION('center_axis',(0.,0.,-1.));
#414=DIRECTION('ref_axis',(-0.707106781186544,0.707106781186551,0.));
#415=DIRECTION('',(0.,1.,0.));
#416=DIRECTION('center_axis',(0.,0.,-1.));
#417=DIRECTION('ref_axis',(-0.707106781186544,-0.707106781186551,0.));
#418=DIRECTION('',(1.,0.,0.));
#419=DIRECTION('center_axis',(0.,0.,1.));
#420=DIRECTION('ref_axis',(0.707106781186544,0.707106781186551,0.));
#421=DIRECTION('center_axis',(0.,0.,-1.));
#422=DIRECTION('ref_axis',(-1.,0.,0.));
#423=DIRECTION('center_axis',(0.,0.,1.));
#424=DIRECTION('ref_axis',(0.707106781186544,0.707106781186551,0.));
#425=DIRECTION('center_axis',(0.,0.,-1.));
#426=DIRECTION('ref_axis',(0.707106781186544,0.707106781186551,0.));
#427=DIRECTION('',(0.,0.,1.));
#428=DIRECTION('center_axis',(0.,1.,0.));
#429=DIRECTION('ref_axis',(-1.,0.,0.));
#430=DIRECTION('',(0.,0.,-1.));
#431=DIRECTION('',(-1.,0.,0.));
#432=DIRECTION('center_axis',(0.,0.,1.));
#433=DIRECTION('ref_axis',(-0.707106781186544,0.707106781186551,0.));
#434=DIRECTION('',(0.,0.,1.));
#435=DIRECTION('center_axis',(0.,0.,1.));
#436=DIRECTION('ref_axis',(-0.707106781186544,0.707106781186551,0.));
#437=DIRECTION('',(0.,0.,-1.));
#438=DIRECTION('center_axis',(0.,-1.,0.));
#439=DIRECTION('ref_axis',(1.,0.,0.));
#440=DIRECTION('',(1.,0.,0.));
#441=DIRECTION('center_axis',(0.,0.,1.));
#442=DIRECTION('ref_axis',(-0.707106781186544,-0.707106781186551,0.));
#443=DIRECTION('',(0.,0.,1.));
#444=DIRECTION('center_axis',(0.,0.,1.));
#445=DIRECTION('ref_axis',(-0.707106781186544,-0.707106781186551,0.));
#446=DIRECTION('center_axis',(1.,0.,0.));
#447=DIRECTION('ref_axis',(0.,1.,0.));
#448=DIRECTION('',(0.,1.,0.));
#449=DIRECTION('',(0.,0.,1.));
#450=DIRECTION('',(0.,-1.,0.));
#451=DIRECTION('',(0.,0.,1.));
#452=DIRECTION('',(0.,1.,0.));
#453=DIRECTION('center_axis',(0.,0.,-1.));
#454=DIRECTION('ref_axis',(-1.,0.,0.));
#455=DIRECTION('',(-0.866025403784439,0.499999999999999,0.));
#456=DIRECTION('',(0.,1.,0.));
#457=DIRECTION('',(0.866025403784438,0.500000000000001,0.));
#458=DIRECTION('center_axis',(0.,0.,1.));
#459=DIRECTION('ref_axis',(-1.,0.,0.));
#460=DIRECTION('center_axis',(0.,0.,-1.));
#461=DIRECTION('ref_axis',(-1.,0.,0.));
#462=DIRECTION('',(0.,0.,-1.));
#463=DIRECTION('center_axis',(-0.499999999999999,-0.866025403784439,0.));
#464=DIRECTION('ref_axis',(0.866025403784439,-0.499999999999999,0.));
#465=DIRECTION('',(0.866025403784439,-0.499999999999999,0.));
#466=DIRECTION('',(0.,0.,1.));
#467=DIRECTION('center_axis',(-1.,0.,0.));
#468=DIRECTION('ref_axis',(0.,-1.,0.));
#469=DIRECTION('',(0.,-1.,0.));
#470=DIRECTION('',(0.,0.,1.));
#471=DIRECTION('center_axis',(-0.500000000000001,0.866025403784438,0.));
#472=DIRECTION('ref_axis',(-0.866025403784438,-0.500000000000001,0.));
#473=DIRECTION('',(-0.866025403784438,-0.500000000000001,0.));
#474=DIRECTION('center_axis',(0.,0.,1.));
#475=DIRECTION('ref_axis',(-1.,0.,0.));
#476=CARTESIAN_POINT('',(0.,0.,0.));
#477=CARTESIAN_POINT('Origin',(50.8499999999968,25.6000000000956,50.7500000067587));
#478=CARTESIAN_POINT('',(50.8499999999968,27.1500000000956,50.7500000067587));
#479=CARTESIAN_POINT('Origin',(50.8499999999968,25.6000000000956,50.7500000067587));
#480=CARTESIAN_POINT('',(53.8499999999968,27.1500000000956,50.7500000067587));
#481=CARTESIAN_POINT('',(50.8499999999968,27.1500000000956,50.7500000067587));
#482=CARTESIAN_POINT('Origin',(53.8499999999968,25.6000000000956,50.7500000067587));
#483=CARTESIAN_POINT('Origin',(50.8499999999968,32.4000000000956,50.7500000067587));
#484=CARTESIAN_POINT('',(50.8499999999968,33.9500000000956,50.7500000067587));
#485=CARTESIAN_POINT('Origin',(50.8499999999968,32.4000000000956,50.7500000067587));
#486=CARTESIAN_POINT('',(53.8499999999968,33.9500000000956,50.7500000067587));
#487=CARTESIAN_POINT('',(50.8499999999968,33.9500000000956,50.7500000067587));
#488=CARTESIAN_POINT('Origin',(53.8499999999968,32.4000000000956,50.7500000067587));
#489=CARTESIAN_POINT('Origin',(59.8499999999968,26.7500000000956,52.7500000067587));
#490=CARTESIAN_POINT('',(60.8499999999968,26.7500000000956,55.7500000067587));
#491=CARTESIAN_POINT('',(59.8499999999968,25.7500000000956,55.7500000067587));
#492=CARTESIAN_POINT('Origin',(59.8499999999968,26.7500000000956,55.7500000067587));
#493=CARTESIAN_POINT('',(59.8499999999968,25.7500000000956,52.7500000067587));
#494=CARTESIAN_POINT('',(59.8499999999968,25.7500000000956,52.7500000067587));
#495=CARTESIAN_POINT('',(60.8499999999968,26.7500000000956,52.7500000067587));
#496=CARTESIAN_POINT('Origin',(59.8499999999968,26.7500000000956,52.7500000067587));
#497=CARTESIAN_POINT('',(60.8499999999968,26.7500000000956,52.7500000067587));
#498=CARTESIAN_POINT('Origin',(60.8499999999968,25.7500000000956,52.7500000067587));
#499=CARTESIAN_POINT('',(60.8499999999968,31.2500000000956,52.7500000067587));
#500=CARTESIAN_POINT('',(60.8499999999968,32.2500000000956,52.7500000067587));
#501=CARTESIAN_POINT('',(60.8499999999968,31.2500000000956,55.7500000067587));
#502=CARTESIAN_POINT('',(60.8499999999968,31.2500000000956,52.7500000067587));
#503=CARTESIAN_POINT('',(60.8499999999968,32.2500000000956,55.7500000067587));
#504=CARTESIAN_POINT('Origin',(55.8499999999968,29.0000000000956,52.7500000067587));
#505=CARTESIAN_POINT('',(54.8499999999968,25.7500000000956,52.7500000067587));
#506=CARTESIAN_POINT('',(60.8499999999968,25.7500000000956,52.7500000067587));
#507=CARTESIAN_POINT('',(53.8499999999968,24.7500000000956,52.7500000067587));
#508=CARTESIAN_POINT('Origin',(54.8499999999968,24.7500000000956,52.7500000067587));
#509=CARTESIAN_POINT('',(53.8499999999968,33.2500000000956,52.7500000067587));
#510=CARTESIAN_POINT('',(53.8499999999968,33.06602540388,52.7500000067587));
#511=CARTESIAN_POINT('',(54.8499999999968,32.2500000000956,52.7500000067587));
#512=CARTESIAN_POINT('Origin',(54.8499999999968,33.2500000000956,52.7500000067587));
#513=CARTESIAN_POINT('',(59.8499999999968,32.2500000000956,52.7500000067587));
#514=CARTESIAN_POINT('',(50.8499999999968,32.2500000000956,52.7500000067587));
#515=CARTESIAN_POINT('Origin',(59.8499999999968,31.2500000000956,52.7500000067587));
#516=CARTESIAN_POINT('',(58.7000000000031,29.0000000000956,52.7500000067587));
#517=CARTESIAN_POINT('Origin',(57.5000000000031,29.0000000000956,52.7500000067587));
#518=CARTESIAN_POINT('Origin',(59.8499999999968,31.2500000000956,52.7500000067587));
#519=CARTESIAN_POINT('',(59.8499999999968,32.2500000000956,55.7500000067587));
#520=CARTESIAN_POINT('Origin',(59.8499999999968,31.2500000000956,55.7500000067587));
#521=CARTESIAN_POINT('',(59.8499999999968,32.2500000000956,52.7500000067587));
#522=CARTESIAN_POINT('Origin',(60.8499999999968,32.2500000000956,52.7500000067587));
#523=CARTESIAN_POINT('',(54.8499999999968,32.2500000000956,55.7500000067587));
#524=CARTESIAN_POINT('',(54.8499999999968,32.2500000000956,52.7500000067587));
#525=CARTESIAN_POINT('',(50.8499999999968,32.2500000000956,55.7500000067587));
#526=CARTESIAN_POINT('Origin',(54.8499999999968,24.7500000000956,52.7500000067587));
#527=CARTESIAN_POINT('',(54.8499999999968,25.7500000000956,55.7500000067587));
#528=CARTESIAN_POINT('',(54.8499999999968,25.7500000000956,52.7500000067587));
#529=CARTESIAN_POINT('',(53.8499999999968,24.7500000000956,55.7500000067587));
#530=CARTESIAN_POINT('Origin',(54.8499999999968,24.7500000000956,55.7500000067587));
#531=CARTESIAN_POINT('',(53.8499999999968,24.7500000000956,52.7500000067587));
#532=CARTESIAN_POINT('Origin',(53.8499999999968,25.7500000000956,52.7500000067587));
#533=CARTESIAN_POINT('',(60.8499999999968,25.7500000000956,55.7500000067587));
#534=CARTESIAN_POINT('Origin',(54.8499999999968,33.2500000000956,52.7500000067587));
#535=CARTESIAN_POINT('',(53.8499999999968,33.2500000000956,55.7500000067587));
#536=CARTESIAN_POINT('',(53.8499999999968,33.2500000000956,52.7500000067587));
#537=CARTESIAN_POINT('Origin',(54.8499999999968,33.2500000000956,55.7500000067587));
#538=CARTESIAN_POINT('Origin',(53.8499999999968,20.8679491925267,52.7500000067587));
#539=CARTESIAN_POINT('',(53.8499999999968,20.8679491925267,55.7500000067587));
#540=CARTESIAN_POINT('',(53.8499999999968,20.8679491925267,55.7500000067587));
#541=CARTESIAN_POINT('',(53.8499999999968,20.8679491925267,46.1500000067587));
#542=CARTESIAN_POINT('',(53.8499999999968,20.8679491925267,52.7500000067587));
#543=CARTESIAN_POINT('',(53.8499999999968,37.1320508076645,46.1500000067587));
#544=CARTESIAN_POINT('',(53.8499999999968,20.8679491925267,46.1500000067587));
#545=CARTESIAN_POINT('',(53.8499999999968,37.1320508076645,55.7500000067587));
#546=CARTESIAN_POINT('',(53.8499999999968,37.1320508076645,52.7500000067587));
#547=CARTESIAN_POINT('',(53.8499999999968,32.2500000000956,55.7500000067587));
#548=CARTESIAN_POINT('Origin',(52.3499999999968,29.0000000000956,46.1500000067587));
#549=CARTESIAN_POINT('',(50.8499999999968,22.6000000000956,46.1500000067587));
#550=CARTESIAN_POINT('',(50.8499999999968,22.6000000000956,46.1500000067587));
#551=CARTESIAN_POINT('',(50.8499999999968,35.4000000000956,46.1500000067587));
#552=CARTESIAN_POINT('',(50.8499999999968,35.4000000000956,46.1500000067587));
#553=CARTESIAN_POINT('',(53.8499999999968,37.1320508076645,46.1500000067587));
#554=CARTESIAN_POINT('Origin',(57.5000000000031,29.0000000000956,52.7500000067587));
#555=CARTESIAN_POINT('',(58.7000000000031,29.0000000000956,55.7500000067587));
#556=CARTESIAN_POINT('Origin',(57.5000000000031,29.0000000000956,55.7500000067587));
#557=CARTESIAN_POINT('',(58.7000000000031,29.0000000000956,52.7500000067587));
#558=CARTESIAN_POINT('Origin',(50.8499999999968,22.6000000000956,52.7500000067587));
#559=CARTESIAN_POINT('',(50.8499999999968,22.6000000000956,55.7500000067587));
#560=CARTESIAN_POINT('',(50.8499999999968,22.6000000000956,55.7500000067587));
#561=CARTESIAN_POINT('',(50.8499999999968,22.6000000000956,52.7500000067587));
#562=CARTESIAN_POINT('Origin',(50.8499999999968,35.4000000000956,52.7500000067587));
#563=CARTESIAN_POINT('',(50.8499999999968,35.4000000000956,55.7500000067587));
#564=CARTESIAN_POINT('',(50.8499999999968,35.4000000000956,55.7500000067587));
#565=CARTESIAN_POINT('',(50.8499999999968,35.4000000000956,52.7500000067587));
#566=CARTESIAN_POINT('Origin',(53.8499999999968,37.1320508076645,52.7500000067587));
#567=CARTESIAN_POINT('',(53.8499999999968,37.1320508076645,55.7500000067587));
#568=CARTESIAN_POINT('Origin',(55.8499999999968,29.0000000000956,55.7500000067587));
#569=UNCERTAINTY_MEASURE_WITH_UNIT(LENGTH_MEASURE(0.01),#573,
'DISTANCE_ACCURACY_VALUE',
'Maximum model space distance between geometric entities at asserted c
onnectivities');
#570=UNCERTAINTY_MEASURE_WITH_UNIT(LENGTH_MEASURE(0.01),#573,
'DISTANCE_ACCURACY_VALUE',
'Maximum model space distance between geometric entities at asserted c
onnectivities');
#571=(
GEOMETRIC_REPRESENTATION_CONTEXT(3)
GLOBAL_UNCERTAINTY_ASSIGNED_CONTEXT((#569))
GLOBAL_UNIT_ASSIGNED_CONTEXT((#573,#575,#576))
REPRESENTATION_CONTEXT('','3D')
);
#572=(
GEOMETRIC_REPRESENTATION_CONTEXT(3)
GLOBAL_UNCERTAINTY_ASSIGNED_CONTEXT((#570))
GLOBAL_UNIT_ASSIGNED_CONTEXT((#573,#575,#576))
REPRESENTATION_CONTEXT('','3D')
);
#573=(
LENGTH_UNIT()
NAMED_UNIT(*)
SI_UNIT(.MILLI.,.METRE.)
);
#574=(
LENGTH_UNIT()
NAMED_UNIT(*)
SI_UNIT($,.METRE.)
);
#575=(
NAMED_UNIT(*)
PLANE_ANGLE_UNIT()
SI_UNIT($,.RADIAN.)
);
#576=(
NAMED_UNIT(*)
SI_UNIT($,.STERADIAN.)
SOLID_ANGLE_UNIT()
);
#577=SHAPE_DEFINITION_REPRESENTATION(#578,#579);
#578=PRODUCT_DEFINITION_SHAPE('',$,#581);
#579=SHAPE_REPRESENTATION('',(#349),#571);
#580=PRODUCT_DEFINITION_CONTEXT('part definition',#585,'design');
#581=PRODUCT_DEFINITION('(Unsaved)','(Unsaved)',#582,#580);
#582=PRODUCT_DEFINITION_FORMATION('',$,#587);
#583=PRODUCT_RELATED_PRODUCT_CATEGORY('(Unsaved)','(Unsaved)',(#587));
#584=APPLICATION_PROTOCOL_DEFINITION('international standard',
'automotive_design',2009,#585);
#585=APPLICATION_CONTEXT(
'Core Data for Automotive Mechanical Design Process');
#586=PRODUCT_CONTEXT('part definition',#585,'mechanical');
#587=PRODUCT('(Unsaved)','(Unsaved)',$,(#586));
#588=PRESENTATION_STYLE_ASSIGNMENT((#589));
#589=SURFACE_STYLE_USAGE(.BOTH.,#590);
#590=SURFACE_SIDE_STYLE('',(#591));
#591=SURFACE_STYLE_FILL_AREA(#592);
#592=FILL_AREA_STYLE('Steel - Satin',(#593));
#593=FILL_AREA_STYLE_COLOUR('Steel - Satin',#594);
#594=COLOUR_RGB('Steel - Satin',0.627450980392157,0.627450980392157,0.627450980392157);
ENDSEC;
END-ISO-10303-21;
