ISO-10303-21;
HEADER;
/* Generated by software containing ST-Developer
 * from STEP Tools, Inc. (www.steptools.com) 
 */

FILE_DESCRIPTION(
/* description */ (''),
/* implementation_level */ '2;1');

FILE_NAME(
/* name */ 'tip-shaft-x6.step',
/* time_stamp */ '2026-09-30T23:19:29+03:00',
/* author */ (''),
/* organization */ (''),
/* preprocessor_version */ 'ST-DEVELOPER v20.1',
/* originating_system */ 'Autodesk Translation Framework v15.8.0.0',
/* authorisation */ '');

FILE_SCHEMA (('AUTOMOTIVE_DESIGN { 1 0 10303 214 3 1 1 }'));
ENDSEC;

DATA;
#10=MECHANICAL_DESIGN_GEOMETRIC_PRESENTATION_REPRESENTATION('',(#13),#621);
#11=SHAPE_REPRESENTATION_RELATIONSHIP('SRR','None',#628,#12);
#12=ADVANCED_BREP_SHAPE_REPRESENTATION('',(#14),#620);
#13=STYLED_ITEM('',(#637),#14);
#14=MANIFOLD_SOLID_BREP('tip-shaft-x6',#371);
#15=CYLINDRICAL_SURFACE('',#407,3.1);
#16=CONICAL_SURFACE('',#404,2.1,0.785398163397448);
#17=CIRCLE('',#399,3.1);
#18=CIRCLE('',#402,3.1);
#19=CIRCLE('',#405,1.1);
#20=CIRCLE('',#406,3.1);
#21=CIRCLE('',#408,3.1);
#22=CIRCLE('',#409,3.1);
#23=FACE_OUTER_BOUND('',#47,.T.);
#24=FACE_OUTER_BOUND('',#48,.T.);
#25=FACE_OUTER_BOUND('',#49,.T.);
#26=FACE_OUTER_BOUND('',#50,.T.);
#27=FACE_OUTER_BOUND('',#51,.T.);
#28=FACE_OUTER_BOUND('',#52,.T.);
#29=FACE_OUTER_BOUND('',#53,.T.);
#30=FACE_OUTER_BOUND('',#54,.T.);
#31=FACE_OUTER_BOUND('',#55,.T.);
#32=FACE_OUTER_BOUND('',#56,.T.);
#33=FACE_OUTER_BOUND('',#57,.T.);
#34=FACE_OUTER_BOUND('',#58,.T.);
#35=FACE_OUTER_BOUND('',#59,.T.);
#36=FACE_OUTER_BOUND('',#60,.T.);
#37=FACE_OUTER_BOUND('',#61,.T.);
#38=FACE_OUTER_BOUND('',#62,.T.);
#39=FACE_OUTER_BOUND('',#63,.T.);
#40=FACE_OUTER_BOUND('',#64,.T.);
#41=FACE_OUTER_BOUND('',#65,.T.);
#42=FACE_OUTER_BOUND('',#66,.T.);
#43=FACE_OUTER_BOUND('',#67,.T.);
#44=FACE_OUTER_BOUND('',#68,.T.);
#45=FACE_OUTER_BOUND('',#69,.T.);
#46=FACE_OUTER_BOUND('',#70,.T.);
#47=EDGE_LOOP('',(#229,#230,#231));
#48=EDGE_LOOP('',(#232,#233,#234,#235));
#49=EDGE_LOOP('',(#236,#237,#238));
#50=EDGE_LOOP('',(#239,#240,#241,#242));
#51=EDGE_LOOP('',(#243,#244,#245,#246));
#52=EDGE_LOOP('',(#247,#248,#249));
#53=EDGE_LOOP('',(#250,#251,#252,#253));
#54=EDGE_LOOP('',(#254,#255,#256));
#55=EDGE_LOOP('',(#257,#258,#259,#260));
#56=EDGE_LOOP('',(#261,#262,#263,#264));
#57=EDGE_LOOP('',(#265,#266,#267,#268));
#58=EDGE_LOOP('',(#269,#270,#271,#272));
#59=EDGE_LOOP('',(#273,#274,#275,#276,#277));
#60=EDGE_LOOP('',(#278,#279,#280,#281));
#61=EDGE_LOOP('',(#282,#283,#284,#285,#286));
#62=EDGE_LOOP('',(#287,#288,#289,#290));
#63=EDGE_LOOP('',(#291,#292,#293,#294));
#64=EDGE_LOOP('',(#295,#296,#297,#298));
#65=EDGE_LOOP('',(#299,#300,#301,#302,#303,#304,#305));
#66=EDGE_LOOP('',(#306));
#67=EDGE_LOOP('',(#307,#308,#309,#310));
#68=EDGE_LOOP('',(#311,#312,#313,#314));
#69=EDGE_LOOP('',(#315,#316,#317,#318,#319));
#70=EDGE_LOOP('',(#320,#321,#322,#323,#324));
#71=LINE('',#523,#113);
#72=LINE('',#525,#114);
#73=LINE('',#526,#115);
#74=LINE('',#530,#116);
#75=LINE('',#531,#117);
#76=LINE('',#532,#118);
#77=LINE('',#536,#119);
#78=LINE('',#538,#120);
#79=LINE('',#539,#121);
#80=LINE('',#543,#122);
#81=LINE('',#544,#123);
#82=LINE('',#545,#124);
#83=LINE('',#547,#125);
#84=LINE('',#548,#126);
#85=LINE('',#552,#127);
#86=LINE('',#554,#128);
#87=LINE('',#555,#129);
#88=LINE('',#559,#130);
#89=LINE('',#560,#131);
#90=LINE('',#561,#132);
#91=LINE('',#565,#133);
#92=LINE('',#567,#134);
#93=LINE('',#568,#135);
#94=LINE('',#572,#136);
#95=LINE('',#573,#137);
#96=LINE('',#574,#138);
#97=LINE('',#576,#139);
#98=LINE('',#577,#140);
#99=LINE('',#579,#141);
#100=LINE('',#580,#142);
#101=LINE('',#582,#143);
#102=LINE('',#583,#144);
#103=LINE('',#586,#145);
#104=LINE('',#587,#146);
#105=LINE('',#590,#147);
#106=LINE('',#593,#148);
#107=LINE('',#596,#149);
#108=LINE('',#603,#150);
#109=LINE('',#606,#151);
#110=LINE('',#612,#152);
#111=LINE('',#614,#153);
#112=LINE('',#615,#154);
#113=VECTOR('',#419,10.);
#114=VECTOR('',#420,10.);
#115=VECTOR('',#421,10.);
#116=VECTOR('',#424,10.);
#117=VECTOR('',#425,10.);
#118=VECTOR('',#426,10.);
#119=VECTOR('',#429,10.);
#120=VECTOR('',#430,10.);
#121=VECTOR('',#431,10.);
#122=VECTOR('',#434,10.);
#123=VECTOR('',#435,10.);
#124=VECTOR('',#436,10.);
#125=VECTOR('',#439,10.);
#126=VECTOR('',#440,10.);
#127=VECTOR('',#443,10.);
#128=VECTOR('',#444,10.);
#129=VECTOR('',#445,10.);
#130=VECTOR('',#448,10.);
#131=VECTOR('',#449,10.);
#132=VECTOR('',#450,10.);
#133=VECTOR('',#453,10.);
#134=VECTOR('',#454,10.);
#135=VECTOR('',#455,10.);
#136=VECTOR('',#458,10.);
#137=VECTOR('',#459,10.);
#138=VECTOR('',#460,10.);
#139=VECTOR('',#463,10.);
#140=VECTOR('',#464,10.);
#141=VECTOR('',#467,10.);
#142=VECTOR('',#468,10.);
#143=VECTOR('',#471,10.);
#144=VECTOR('',#472,10.);
#145=VECTOR('',#475,10.);
#146=VECTOR('',#476,10.);
#147=VECTOR('',#479,10.);
#148=VECTOR('',#484,10.);
#149=VECTOR('',#487,10.);
#150=VECTOR('',#496,2.1);
#151=VECTOR('',#501,3.1);
#152=VECTOR('',#510,10.);
#153=VECTOR('',#513,10.);
#154=VECTOR('',#514,10.);
#155=VERTEX_POINT('',#521);
#156=VERTEX_POINT('',#522);
#157=VERTEX_POINT('',#524);
#158=VERTEX_POINT('',#528);
#159=VERTEX_POINT('',#529);
#160=VERTEX_POINT('',#534);
#161=VERTEX_POINT('',#535);
#162=VERTEX_POINT('',#537);
#163=VERTEX_POINT('',#541);
#164=VERTEX_POINT('',#542);
#165=VERTEX_POINT('',#550);
#166=VERTEX_POINT('',#551);
#167=VERTEX_POINT('',#553);
#168=VERTEX_POINT('',#557);
#169=VERTEX_POINT('',#558);
#170=VERTEX_POINT('',#563);
#171=VERTEX_POINT('',#564);
#172=VERTEX_POINT('',#566);
#173=VERTEX_POINT('',#570);
#174=VERTEX_POINT('',#571);
#175=VERTEX_POINT('',#585);
#176=VERTEX_POINT('',#589);
#177=VERTEX_POINT('',#595);
#178=VERTEX_POINT('',#600);
#179=VERTEX_POINT('',#602);
#180=VERTEX_POINT('',#607);
#181=EDGE_CURVE('',#155,#156,#71,.T.);
#182=EDGE_CURVE('',#157,#155,#72,.T.);
#183=EDGE_CURVE('',#156,#157,#73,.T.);
#184=EDGE_CURVE('',#158,#159,#74,.T.);
#185=EDGE_CURVE('',#159,#157,#75,.T.);
#186=EDGE_CURVE('',#155,#158,#76,.T.);
#187=EDGE_CURVE('',#160,#161,#77,.T.);
#188=EDGE_CURVE('',#162,#160,#78,.T.);
#189=EDGE_CURVE('',#161,#162,#79,.T.);
#190=EDGE_CURVE('',#163,#164,#80,.T.);
#191=EDGE_CURVE('',#164,#162,#81,.T.);
#192=EDGE_CURVE('',#160,#163,#82,.T.);
#193=EDGE_CURVE('',#156,#161,#83,.T.);
#194=EDGE_CURVE('',#162,#155,#84,.T.);
#195=EDGE_CURVE('',#165,#166,#85,.T.);
#196=EDGE_CURVE('',#167,#165,#86,.T.);
#197=EDGE_CURVE('',#166,#167,#87,.T.);
#198=EDGE_CURVE('',#168,#169,#88,.T.);
#199=EDGE_CURVE('',#169,#167,#89,.T.);
#200=EDGE_CURVE('',#165,#168,#90,.T.);
#201=EDGE_CURVE('',#170,#171,#91,.T.);
#202=EDGE_CURVE('',#172,#170,#92,.T.);
#203=EDGE_CURVE('',#171,#172,#93,.T.);
#204=EDGE_CURVE('',#173,#174,#94,.T.);
#205=EDGE_CURVE('',#174,#172,#95,.T.);
#206=EDGE_CURVE('',#170,#173,#96,.T.);
#207=EDGE_CURVE('',#161,#171,#97,.T.);
#208=EDGE_CURVE('',#172,#160,#98,.T.);
#209=EDGE_CURVE('',#171,#166,#99,.T.);
#210=EDGE_CURVE('',#167,#170,#100,.T.);
#211=EDGE_CURVE('',#166,#156,#101,.T.);
#212=EDGE_CURVE('',#157,#165,#102,.T.);
#213=EDGE_CURVE('',#164,#175,#103,.T.);
#214=EDGE_CURVE('',#175,#158,#104,.T.);
#215=EDGE_CURVE('',#176,#163,#105,.T.);
#216=EDGE_CURVE('',#176,#175,#17,.T.);
#217=EDGE_CURVE('',#174,#176,#106,.T.);
#218=EDGE_CURVE('',#177,#173,#107,.T.);
#219=EDGE_CURVE('',#177,#176,#18,.T.);
#220=EDGE_CURVE('',#178,#178,#19,.T.);
#221=EDGE_CURVE('',#178,#179,#108,.T.);
#222=EDGE_CURVE('',#179,#179,#20,.T.);
#223=EDGE_CURVE('',#179,#177,#109,.T.);
#224=EDGE_CURVE('',#180,#177,#21,.T.);
#225=EDGE_CURVE('',#175,#180,#22,.T.);
#226=EDGE_CURVE('',#159,#180,#110,.T.);
#227=EDGE_CURVE('',#180,#168,#111,.T.);
#228=EDGE_CURVE('',#169,#177,#112,.T.);
#229=ORIENTED_EDGE('',*,*,#181,.F.);
#230=ORIENTED_EDGE('',*,*,#182,.F.);
#231=ORIENTED_EDGE('',*,*,#183,.F.);
#232=ORIENTED_EDGE('',*,*,#184,.T.);
#233=ORIENTED_EDGE('',*,*,#185,.T.);
#234=ORIENTED_EDGE('',*,*,#182,.T.);
#235=ORIENTED_EDGE('',*,*,#186,.T.);
#236=ORIENTED_EDGE('',*,*,#187,.F.);
#237=ORIENTED_EDGE('',*,*,#188,.F.);
#238=ORIENTED_EDGE('',*,*,#189,.F.);
#239=ORIENTED_EDGE('',*,*,#190,.T.);
#240=ORIENTED_EDGE('',*,*,#191,.T.);
#241=ORIENTED_EDGE('',*,*,#188,.T.);
#242=ORIENTED_EDGE('',*,*,#192,.T.);
#243=ORIENTED_EDGE('',*,*,#181,.T.);
#244=ORIENTED_EDGE('',*,*,#193,.T.);
#245=ORIENTED_EDGE('',*,*,#189,.T.);
#246=ORIENTED_EDGE('',*,*,#194,.T.);
#247=ORIENTED_EDGE('',*,*,#195,.F.);
#248=ORIENTED_EDGE('',*,*,#196,.F.);
#249=ORIENTED_EDGE('',*,*,#197,.F.);
#250=ORIENTED_EDGE('',*,*,#198,.T.);
#251=ORIENTED_EDGE('',*,*,#199,.T.);
#252=ORIENTED_EDGE('',*,*,#196,.T.);
#253=ORIENTED_EDGE('',*,*,#200,.T.);
#254=ORIENTED_EDGE('',*,*,#201,.F.);
#255=ORIENTED_EDGE('',*,*,#202,.F.);
#256=ORIENTED_EDGE('',*,*,#203,.F.);
#257=ORIENTED_EDGE('',*,*,#204,.T.);
#258=ORIENTED_EDGE('',*,*,#205,.T.);
#259=ORIENTED_EDGE('',*,*,#202,.T.);
#260=ORIENTED_EDGE('',*,*,#206,.T.);
#261=ORIENTED_EDGE('',*,*,#187,.T.);
#262=ORIENTED_EDGE('',*,*,#207,.T.);
#263=ORIENTED_EDGE('',*,*,#203,.T.);
#264=ORIENTED_EDGE('',*,*,#208,.T.);
#265=ORIENTED_EDGE('',*,*,#201,.T.);
#266=ORIENTED_EDGE('',*,*,#209,.T.);
#267=ORIENTED_EDGE('',*,*,#197,.T.);
#268=ORIENTED_EDGE('',*,*,#210,.T.);
#269=ORIENTED_EDGE('',*,*,#195,.T.);
#270=ORIENTED_EDGE('',*,*,#211,.T.);
#271=ORIENTED_EDGE('',*,*,#183,.T.);
#272=ORIENTED_EDGE('',*,*,#212,.T.);
#273=ORIENTED_EDGE('',*,*,#186,.F.);
#274=ORIENTED_EDGE('',*,*,#194,.F.);
#275=ORIENTED_EDGE('',*,*,#191,.F.);
#276=ORIENTED_EDGE('',*,*,#213,.T.);
#277=ORIENTED_EDGE('',*,*,#214,.T.);
#278=ORIENTED_EDGE('',*,*,#190,.F.);
#279=ORIENTED_EDGE('',*,*,#215,.F.);
#280=ORIENTED_EDGE('',*,*,#216,.T.);
#281=ORIENTED_EDGE('',*,*,#213,.F.);
#282=ORIENTED_EDGE('',*,*,#192,.F.);
#283=ORIENTED_EDGE('',*,*,#208,.F.);
#284=ORIENTED_EDGE('',*,*,#205,.F.);
#285=ORIENTED_EDGE('',*,*,#217,.T.);
#286=ORIENTED_EDGE('',*,*,#215,.T.);
#287=ORIENTED_EDGE('',*,*,#204,.F.);
#288=ORIENTED_EDGE('',*,*,#218,.F.);
#289=ORIENTED_EDGE('',*,*,#219,.T.);
#290=ORIENTED_EDGE('',*,*,#217,.F.);
#291=ORIENTED_EDGE('',*,*,#193,.F.);
#292=ORIENTED_EDGE('',*,*,#211,.F.);
#293=ORIENTED_EDGE('',*,*,#209,.F.);
#294=ORIENTED_EDGE('',*,*,#207,.F.);
#295=ORIENTED_EDGE('',*,*,#220,.T.);
#296=ORIENTED_EDGE('',*,*,#221,.T.);
#297=ORIENTED_EDGE('',*,*,#222,.T.);
#298=ORIENTED_EDGE('',*,*,#221,.F.);
#299=ORIENTED_EDGE('',*,*,#222,.F.);
#300=ORIENTED_EDGE('',*,*,#223,.T.);
#301=ORIENTED_EDGE('',*,*,#224,.F.);
#302=ORIENTED_EDGE('',*,*,#225,.F.);
#303=ORIENTED_EDGE('',*,*,#216,.F.);
#304=ORIENTED_EDGE('',*,*,#219,.F.);
#305=ORIENTED_EDGE('',*,*,#223,.F.);
#306=ORIENTED_EDGE('',*,*,#220,.F.);
#307=ORIENTED_EDGE('',*,*,#184,.F.);
#308=ORIENTED_EDGE('',*,*,#214,.F.);
#309=ORIENTED_EDGE('',*,*,#225,.T.);
#310=ORIENTED_EDGE('',*,*,#226,.F.);
#311=ORIENTED_EDGE('',*,*,#198,.F.);
#312=ORIENTED_EDGE('',*,*,#227,.F.);
#313=ORIENTED_EDGE('',*,*,#224,.T.);
#314=ORIENTED_EDGE('',*,*,#228,.F.);
#315=ORIENTED_EDGE('',*,*,#199,.F.);
#316=ORIENTED_EDGE('',*,*,#228,.T.);
#317=ORIENTED_EDGE('',*,*,#218,.T.);
#318=ORIENTED_EDGE('',*,*,#206,.F.);
#319=ORIENTED_EDGE('',*,*,#210,.F.);
#320=ORIENTED_EDGE('',*,*,#185,.F.);
#321=ORIENTED_EDGE('',*,*,#226,.T.);
#322=ORIENTED_EDGE('',*,*,#227,.T.);
#323=ORIENTED_EDGE('',*,*,#200,.F.);
#324=ORIENTED_EDGE('',*,*,#212,.F.);
#325=PLANE('',#385);
#326=PLANE('',#386);
#327=PLANE('',#387);
#328=PLANE('',#388);
#329=PLANE('',#389);
#330=PLANE('',#390);
#331=PLANE('',#391);
#332=PLANE('',#392);
#333=PLANE('',#393);
#334=PLANE('',#394);
#335=PLANE('',#395);
#336=PLANE('',#396);
#337=PLANE('',#397);
#338=PLANE('',#398);
#339=PLANE('',#400);
#340=PLANE('',#401);
#341=PLANE('',#403);
#342=PLANE('',#410);
#343=PLANE('',#411);
#344=PLANE('',#412);
#345=PLANE('',#413);
#346=PLANE('',#414);
#347=ADVANCED_FACE('',(#23),#325,.T.);
#348=ADVANCED_FACE('',(#24),#326,.T.);
#349=ADVANCED_FACE('',(#25),#327,.T.);
#350=ADVANCED_FACE('',(#26),#328,.T.);
#351=ADVANCED_FACE('',(#27),#329,.T.);
#352=ADVANCED_FACE('',(#28),#330,.T.);
#353=ADVANCED_FACE('',(#29),#331,.T.);
#354=ADVANCED_FACE('',(#30),#332,.T.);
#355=ADVANCED_FACE('',(#31),#333,.T.);
#356=ADVANCED_FACE('',(#32),#334,.T.);
#357=ADVANCED_FACE('',(#33),#335,.T.);
#358=ADVANCED_FACE('',(#34),#336,.T.);
#359=ADVANCED_FACE('',(#35),#337,.T.);
#360=ADVANCED_FACE('',(#36),#338,.T.);
#361=ADVANCED_FACE('',(#37),#339,.T.);
#362=ADVANCED_FACE('',(#38),#340,.T.);
#363=ADVANCED_FACE('',(#39),#341,.T.);
#364=ADVANCED_FACE('',(#40),#16,.T.);
#365=ADVANCED_FACE('',(#41),#15,.T.);
#366=ADVANCED_FACE('',(#42),#342,.T.);
#367=ADVANCED_FACE('',(#43),#343,.T.);
#368=ADVANCED_FACE('',(#44),#344,.T.);
#369=ADVANCED_FACE('',(#45),#345,.T.);
#370=ADVANCED_FACE('',(#46),#346,.T.);
#371=CLOSED_SHELL('',(#347,#348,#349,#350,#351,#352,#353,#354,#355,#356,
#357,#358,#359,#360,#361,#362,#363,#364,#365,#366,#367,#368,#369,#370));
#372=DERIVED_UNIT_ELEMENT(#374,1.);
#373=DERIVED_UNIT_ELEMENT(#623,-3.);
#374=(
MASS_UNIT()
NAMED_UNIT(*)
SI_UNIT(.KILO.,.GRAM.)
);
#375=DERIVED_UNIT((#372,#373));
#376=MEASURE_REPRESENTATION_ITEM('density measure',
POSITIVE_RATIO_MEASURE(7850.),#375);
#377=PROPERTY_DEFINITION_REPRESENTATION(#382,#379);
#378=PROPERTY_DEFINITION_REPRESENTATION(#383,#380);
#379=REPRESENTATION('material name',(#381),#620);
#380=REPRESENTATION('density',(#376),#620);
#381=DESCRIPTIVE_REPRESENTATION_ITEM('Steel','Steel');
#382=PROPERTY_DEFINITION('material property','material name',#630);
#383=PROPERTY_DEFINITION('material property','density of part',#630);
#384=AXIS2_PLACEMENT_3D('',#519,#415,#416);
#385=AXIS2_PLACEMENT_3D('',#520,#417,#418);
#386=AXIS2_PLACEMENT_3D('',#527,#422,#423);
#387=AXIS2_PLACEMENT_3D('',#533,#427,#428);
#388=AXIS2_PLACEMENT_3D('',#540,#432,#433);
#389=AXIS2_PLACEMENT_3D('',#546,#437,#438);
#390=AXIS2_PLACEMENT_3D('',#549,#441,#442);
#391=AXIS2_PLACEMENT_3D('',#556,#446,#447);
#392=AXIS2_PLACEMENT_3D('',#562,#451,#452);
#393=AXIS2_PLACEMENT_3D('',#569,#456,#457);
#394=AXIS2_PLACEMENT_3D('',#575,#461,#462);
#395=AXIS2_PLACEMENT_3D('',#578,#465,#466);
#396=AXIS2_PLACEMENT_3D('',#581,#469,#470);
#397=AXIS2_PLACEMENT_3D('',#584,#473,#474);
#398=AXIS2_PLACEMENT_3D('',#588,#477,#478);
#399=AXIS2_PLACEMENT_3D('',#591,#480,#481);
#400=AXIS2_PLACEMENT_3D('',#592,#482,#483);
#401=AXIS2_PLACEMENT_3D('',#594,#485,#486);
#402=AXIS2_PLACEMENT_3D('',#597,#488,#489);
#403=AXIS2_PLACEMENT_3D('',#598,#490,#491);
#404=AXIS2_PLACEMENT_3D('',#599,#492,#493);
#405=AXIS2_PLACEMENT_3D('',#601,#494,#495);
#406=AXIS2_PLACEMENT_3D('',#604,#497,#498);
#407=AXIS2_PLACEMENT_3D('',#605,#499,#500);
#408=AXIS2_PLACEMENT_3D('',#608,#502,#503);
#409=AXIS2_PLACEMENT_3D('',#609,#504,#505);
#410=AXIS2_PLACEMENT_3D('',#610,#506,#507);
#411=AXIS2_PLACEMENT_3D('',#611,#508,#509);
#412=AXIS2_PLACEMENT_3D('',#613,#511,#512);
#413=AXIS2_PLACEMENT_3D('',#616,#515,#516);
#414=AXIS2_PLACEMENT_3D('',#617,#517,#518);
#415=DIRECTION('axis',(0.,0.,1.));
#416=DIRECTION('refdir',(1.,0.,0.));
#417=DIRECTION('center_axis',(0.57735026918963,0.57735026918962,0.577350269189627));
#418=DIRECTION('ref_axis',(0.707106781186546,0.,-0.707106781186549));
#419=DIRECTION('',(-0.707106781186548,3.14018491736756E-15,0.707106781186548));
#420=DIRECTION('',(0.707106781186541,-0.707106781186554,0.));
#421=DIRECTION('',(6.28036983473511E-15,0.707106781186549,-0.707106781186546));
#422=DIRECTION('center_axis',(0.707106781186554,0.707106781186541,0.));
#423=DIRECTION('ref_axis',(0.,0.,-1.));
#424=DIRECTION('',(-0.707106781186541,0.707106781186554,2.76153976339332E-18));
#425=DIRECTION('',(0.,0.,1.));
#426=DIRECTION('',(0.,0.,-1.));
#427=DIRECTION('center_axis',(0.577350269189627,-0.577350269189622,0.577350269189629));
#428=DIRECTION('ref_axis',(0.707106781186549,0.,-0.707106781186546));
#429=DIRECTION('',(-6.28036983473511E-15,0.707106781186549,0.707106781186546));
#430=DIRECTION('',(-0.707106781186544,-0.707106781186551,0.));
#431=DIRECTION('',(0.707106781186548,-3.14018491736756E-15,-0.707106781186548));
#432=DIRECTION('center_axis',(0.707106781186551,-0.707106781186544,0.));
#433=DIRECTION('ref_axis',(0.,0.,-1.));
#434=DIRECTION('',(0.707106781186544,0.707106781186551,2.7615397633933E-18));
#435=DIRECTION('',(0.,0.,1.));
#436=DIRECTION('',(0.,0.,-1.));
#437=DIRECTION('center_axis',(0.707106781186548,4.71305097632276E-49,0.707106781186548));
#438=DIRECTION('ref_axis',(0.707106781186548,0.,-0.707106781186548));
#439=DIRECTION('',(6.66526061087141E-49,-1.,0.));
#440=DIRECTION('',(-6.66526061087141E-49,1.,0.));
#441=DIRECTION('center_axis',(-0.57735026918963,0.57735026918962,0.577350269189628));
#442=DIRECTION('ref_axis',(0.707106781186546,0.,0.707106781186549));
#443=DIRECTION('',(6.28036983473511E-15,-0.707106781186549,0.707106781186546));
#444=DIRECTION('',(0.707106781186541,0.707106781186554,0.));
#445=DIRECTION('',(-0.707106781186548,-3.14018491736756E-15,-0.707106781186548));
#446=DIRECTION('center_axis',(-0.707106781186554,0.707106781186541,0.));
#447=DIRECTION('ref_axis',(0.,0.,1.));
#448=DIRECTION('',(-0.707106781186541,-0.707106781186554,-2.76153976339332E-18));
#449=DIRECTION('',(0.,0.,1.));
#450=DIRECTION('',(0.,0.,-1.));
#451=DIRECTION('center_axis',(-0.577350269189628,-0.577350269189621,0.577350269189628));
#452=DIRECTION('ref_axis',(0.707106781186548,0.,0.707106781186548));
#453=DIRECTION('',(0.707106781186548,0.,0.707106781186548));
#454=DIRECTION('',(-0.707106781186543,0.707106781186552,0.));
#455=DIRECTION('',(-6.28036983473511E-15,-0.707106781186549,-0.707106781186546));
#456=DIRECTION('center_axis',(-0.707106781186552,-0.707106781186543,0.));
#457=DIRECTION('ref_axis',(0.,0.,1.));
#458=DIRECTION('',(0.707106781186543,-0.707106781186552,-2.76153976339332E-18));
#459=DIRECTION('',(0.,0.,1.));
#460=DIRECTION('',(0.,0.,-1.));
#461=DIRECTION('center_axis',(4.82273521973258E-49,-0.707106781186546,0.707106781186549));
#462=DIRECTION('ref_axis',(1.,0.,-6.82037755548019E-49));
#463=DIRECTION('',(-1.,-6.82037755548021E-49,0.));
#464=DIRECTION('',(1.,6.82037755548021E-49,0.));
#465=DIRECTION('center_axis',(-0.707106781186548,-4.71305097632276E-49,
0.707106781186548));
#466=DIRECTION('ref_axis',(0.707106781186548,0.,0.707106781186548));
#467=DIRECTION('',(-6.66526061087141E-49,1.,0.));
#468=DIRECTION('',(6.66526061087141E-49,-1.,0.));
#469=DIRECTION('center_axis',(-4.82273521973258E-49,0.707106781186546,0.707106781186549));
#470=DIRECTION('ref_axis',(1.,0.,6.82037755548019E-49));
#471=DIRECTION('',(1.,6.82037755548021E-49,0.));
#472=DIRECTION('',(-1.,-6.82037755548021E-49,0.));
#473=DIRECTION('center_axis',(1.,6.66526061087141E-49,0.));
#474=DIRECTION('ref_axis',(-6.66526061087141E-49,1.,3.90540698642339E-18));
#475=DIRECTION('',(-6.66526061087141E-49,1.,3.90540698642339E-18));
#476=DIRECTION('',(-6.66526061087141E-49,1.,3.90540698642339E-18));
#477=DIRECTION('center_axis',(-3.97185095300049E-33,3.90540698642339E-18,
-1.));
#478=DIRECTION('ref_axis',(-1.,0.,3.97185095300049E-33));
#479=DIRECTION('',(1.,6.82037755548021E-49,-3.97185095300049E-33));
#480=DIRECTION('center_axis',(3.97185095300049E-33,-3.90540698642339E-18,
1.));
#481=DIRECTION('ref_axis',(1.,6.82037755548021E-49,0.));
#482=DIRECTION('center_axis',(6.82037755548021E-49,-1.,0.));
#483=DIRECTION('ref_axis',(1.,6.82037755548021E-49,-3.97185095300049E-33));
#484=DIRECTION('',(1.,6.82037755548021E-49,-3.97185095300049E-33));
#485=DIRECTION('center_axis',(-3.97185095300049E-33,3.90540698642339E-18,
-1.));
#486=DIRECTION('ref_axis',(-1.,0.,3.97185095300049E-33));
#487=DIRECTION('',(6.66526061087141E-49,-1.,-3.90540698642339E-18));
#488=DIRECTION('center_axis',(3.97185095300049E-33,-3.90540698642339E-18,
1.));
#489=DIRECTION('ref_axis',(1.,6.82037755548021E-49,0.));
#490=DIRECTION('center_axis',(0.,0.,1.));
#491=DIRECTION('ref_axis',(1.,0.,0.));
#492=DIRECTION('center_axis',(0.,0.,1.));
#493=DIRECTION('ref_axis',(1.,6.86100342192538E-49,-1.0402466781668E-33));
#494=DIRECTION('center_axis',(3.97185095300049E-33,-3.90540698642339E-18,
1.));
#495=DIRECTION('ref_axis',(1.,6.97549450008902E-49,-3.97185095300049E-33));
#496=DIRECTION('',(-0.707106781186547,8.65956056235493E-17,0.707106781186547));
#497=DIRECTION('center_axis',(-3.97185095300049E-33,3.90540698642339E-18,
-1.));
#498=DIRECTION('ref_axis',(1.,6.82037755548021E-49,0.));
#499=DIRECTION('center_axis',(0.,0.,-1.));
#500=DIRECTION('ref_axis',(1.,6.82037755548021E-49,0.));
#501=DIRECTION('',(0.,0.,1.));
#502=DIRECTION('center_axis',(3.97185095300049E-33,-3.90540698642339E-18,
1.));
#503=DIRECTION('ref_axis',(1.,6.82037755548021E-49,0.));
#504=DIRECTION('center_axis',(3.97185095300049E-33,-3.90540698642339E-18,
1.));
#505=DIRECTION('ref_axis',(1.,6.82037755548021E-49,0.));
#506=DIRECTION('center_axis',(-3.97185095300049E-33,3.90540698642339E-18,
-1.));
#507=DIRECTION('ref_axis',(-1.,0.,3.97185095300049E-33));
#508=DIRECTION('center_axis',(-3.97185095300049E-33,3.90540698642339E-18,
-1.));
#509=DIRECTION('ref_axis',(-1.,0.,3.97185095300049E-33));
#510=DIRECTION('',(-1.,-6.82037755548021E-49,3.97185095300049E-33));
#511=DIRECTION('center_axis',(-3.97185095300049E-33,3.90540698642339E-18,
-1.));
#512=DIRECTION('ref_axis',(-1.,0.,3.97185095300049E-33));
#513=DIRECTION('',(-1.,-6.82037755548021E-49,3.97185095300049E-33));
#514=DIRECTION('',(6.66526061087141E-49,-1.,-3.90540698642339E-18));
#515=DIRECTION('center_axis',(-1.,-6.66526061087141E-49,0.));
#516=DIRECTION('ref_axis',(6.66526061087141E-49,-1.,-3.90540698642339E-18));
#517=DIRECTION('center_axis',(-6.82037755548021E-49,1.,0.));
#518=DIRECTION('ref_axis',(-1.,-6.82037755548021E-49,3.97185095300049E-33));
#519=CARTESIAN_POINT('',(0.,0.,0.));
#520=CARTESIAN_POINT('Origin',(-70.0438314494182,-21.5999999996749,-33.5350168024223));
#521=CARTESIAN_POINT('',(-69.0438314494182,-22.5999999996749,-33.5350168024223));
#522=CARTESIAN_POINT('',(-70.0438314494182,-22.5999999996749,-32.5350168024223));
#523=CARTESIAN_POINT('',(-69.0438314494182,-22.5999999996749,-33.5350168024223));
#524=CARTESIAN_POINT('',(-70.0438314494182,-21.5999999996749,-33.5350168024223));
#525=CARTESIAN_POINT('',(-70.0438314494182,-21.5999999996749,-33.5350168024223));
#526=CARTESIAN_POINT('',(-70.0438314494182,-22.5999999996749,-32.5350168024223));
#527=CARTESIAN_POINT('Origin',(-69.5438314494182,-22.0999999996749,-42.5350168024223));
#528=CARTESIAN_POINT('',(-69.0438314494182,-22.5999999996749,-42.5350168024223));
#529=CARTESIAN_POINT('',(-70.0438314494182,-21.5999999996749,-42.5350168024223));
#530=CARTESIAN_POINT('',(-69.5438314494182,-22.0999999996749,-42.5350168024223));
#531=CARTESIAN_POINT('',(-70.0438314494182,-21.5999999996749,-42.5350168024223));
#532=CARTESIAN_POINT('',(-69.0438314494182,-22.5999999996749,-42.5350168024223));
#533=CARTESIAN_POINT('Origin',(-69.0438314494182,-26.7999999996749,-33.5350168024223));
#534=CARTESIAN_POINT('',(-70.0438314494182,-27.7999999996749,-33.5350168024223));
#535=CARTESIAN_POINT('',(-70.0438314494182,-26.7999999996749,-32.5350168024223));
#536=CARTESIAN_POINT('',(-70.0438314494182,-27.7999999996749,-33.5350168024223));
#537=CARTESIAN_POINT('',(-69.0438314494182,-26.7999999996749,-33.5350168024223));
#538=CARTESIAN_POINT('',(-69.0438314494182,-26.7999999996749,-33.5350168024223));
#539=CARTESIAN_POINT('',(-70.0438314494182,-26.7999999996749,-32.5350168024223));
#540=CARTESIAN_POINT('Origin',(-69.5438314494182,-27.2999999996749,-42.5350168024223));
#541=CARTESIAN_POINT('',(-70.0438314494182,-27.7999999996749,-42.5350168024223));
#542=CARTESIAN_POINT('',(-69.0438314494182,-26.7999999996749,-42.5350168024223));
#543=CARTESIAN_POINT('',(-69.5438314494182,-27.2999999996749,-42.5350168024223));
#544=CARTESIAN_POINT('',(-69.0438314494182,-26.7999999996749,-42.5350168024223));
#545=CARTESIAN_POINT('',(-70.0438314494182,-27.7999999996749,-42.5350168024223));
#546=CARTESIAN_POINT('Origin',(-69.5438314494182,-26.2499999996749,-33.0350168024223));
#547=CARTESIAN_POINT('',(-70.0438314494182,-26.2499999996749,-32.5350168024223));
#548=CARTESIAN_POINT('',(-69.0438314494182,-26.2499999996749,-33.5350168024223));
#549=CARTESIAN_POINT('Origin',(-75.2438314494182,-22.5999999996749,-33.5350168024223));
#550=CARTESIAN_POINT('',(-74.2438314494182,-21.5999999996749,-33.5350168024223));
#551=CARTESIAN_POINT('',(-74.2438314494182,-22.5999999996749,-32.5350168024223));
#552=CARTESIAN_POINT('',(-74.2438314494182,-21.5999999996749,-33.5350168024223));
#553=CARTESIAN_POINT('',(-75.2438314494182,-22.5999999996749,-33.5350168024223));
#554=CARTESIAN_POINT('',(-75.2438314494182,-22.5999999996749,-33.5350168024223));
#555=CARTESIAN_POINT('',(-74.2438314494182,-22.5999999996749,-32.5350168024223));
#556=CARTESIAN_POINT('Origin',(-74.7438314494182,-22.0999999996749,-42.5350168024223));
#557=CARTESIAN_POINT('',(-74.2438314494182,-21.5999999996749,-42.5350168024223));
#558=CARTESIAN_POINT('',(-75.2438314494182,-22.5999999996749,-42.5350168024223));
#559=CARTESIAN_POINT('',(-74.7438314494182,-22.0999999996749,-42.5350168024223));
#560=CARTESIAN_POINT('',(-75.2438314494182,-22.5999999996749,-42.5350168024223));
#561=CARTESIAN_POINT('',(-74.2438314494182,-21.5999999996749,-42.5350168024223));
#562=CARTESIAN_POINT('Origin',(-74.2438314494182,-27.7999999996749,-33.5350168024223));
#563=CARTESIAN_POINT('',(-75.2438314494182,-26.7999999996749,-33.5350168024223));
#564=CARTESIAN_POINT('',(-74.2438314494182,-26.7999999996749,-32.5350168024223));
#565=CARTESIAN_POINT('',(-75.2438314494182,-26.7999999996749,-33.5350168024223));
#566=CARTESIAN_POINT('',(-74.2438314494182,-27.7999999996749,-33.5350168024223));
#567=CARTESIAN_POINT('',(-74.2438314494182,-27.7999999996749,-33.5350168024223));
#568=CARTESIAN_POINT('',(-74.2438314494182,-26.7999999996749,-32.5350168024223));
#569=CARTESIAN_POINT('Origin',(-74.7438314494182,-27.2999999996749,-42.5350168024223));
#570=CARTESIAN_POINT('',(-75.2438314494182,-26.7999999996749,-42.5350168024223));
#571=CARTESIAN_POINT('',(-74.2438314494182,-27.7999999996749,-42.5350168024223));
#572=CARTESIAN_POINT('',(-74.7438314494182,-27.2999999996749,-42.5350168024223));
#573=CARTESIAN_POINT('',(-74.2438314494182,-27.7999999996749,-42.5350168024223));
#574=CARTESIAN_POINT('',(-75.2438314494182,-26.7999999996749,-42.5350168024223));
#575=CARTESIAN_POINT('Origin',(-73.6938314494182,-27.2999999996749,-33.0350168024223));
#576=CARTESIAN_POINT('',(-73.6938314494182,-26.7999999996749,-32.5350168024223));
#577=CARTESIAN_POINT('',(-73.6938314494182,-27.7999999996749,-33.5350168024223));
#578=CARTESIAN_POINT('Origin',(-74.7438314494182,-23.1499999996749,-33.0350168024223));
#579=CARTESIAN_POINT('',(-74.2438314494182,-23.1499999996749,-32.5350168024223));
#580=CARTESIAN_POINT('',(-75.2438314494182,-23.1499999996749,-33.5350168024223));
#581=CARTESIAN_POINT('Origin',(-70.5938314494182,-22.0999999996749,-33.0350168024223));
#582=CARTESIAN_POINT('',(-70.5938314494182,-22.5999999996749,-32.5350168024223));
#583=CARTESIAN_POINT('',(-70.5938314494182,-21.5999999996749,-33.5350168024223));
#584=CARTESIAN_POINT('Origin',(-69.0438314494182,-27.7999999996749,-42.5350168024223));
#585=CARTESIAN_POINT('',(-69.0438314494182,-24.6999999996749,-42.5350168024223));
#586=CARTESIAN_POINT('',(-69.0438314494182,-26.2499999996749,-42.5350168024223));
#587=CARTESIAN_POINT('',(-69.0438314494182,-26.2499999996749,-42.5350168024223));
#588=CARTESIAN_POINT('Origin',(-72.1438314494182,-24.6999999996749,-42.5350168024223));
#589=CARTESIAN_POINT('',(-72.1438314494182,-27.7999999996749,-42.5350168024223));
#590=CARTESIAN_POINT('',(-73.6938314494182,-27.7999999996749,-42.5350168024223));
#591=CARTESIAN_POINT('Origin',(-72.1438314494182,-24.6999999996749,-42.5350168024223));
#592=CARTESIAN_POINT('Origin',(-75.2438314494182,-27.7999999996749,-42.5350168024223));
#593=CARTESIAN_POINT('',(-73.6938314494182,-27.7999999996749,-42.5350168024223));
#594=CARTESIAN_POINT('Origin',(-72.1438314494182,-24.6999999996749,-42.5350168024223));
#595=CARTESIAN_POINT('',(-75.2438314494182,-24.6999999996749,-42.5350168024223));
#596=CARTESIAN_POINT('',(-75.2438314494182,-23.1499999996749,-42.5350168024223));
#597=CARTESIAN_POINT('Origin',(-72.1438314494182,-24.6999999996749,-42.5350168024223));
#598=CARTESIAN_POINT('Origin',(-72.1438314494182,-24.6999999996749,-32.5350168024223));
#599=CARTESIAN_POINT('Origin',(-72.1438314494182,-24.6999999996749,-56.3350168024223));
#600=CARTESIAN_POINT('',(-73.2438314494182,-24.6999999996749,-57.3350168024223));
#601=CARTESIAN_POINT('Origin',(-72.1438314494182,-24.6999999996749,-57.3350168024223));
#602=CARTESIAN_POINT('',(-75.2438314494182,-24.6999999996749,-55.3350168024223));
#603=CARTESIAN_POINT('',(-74.2438314494182,-24.6999999996749,-56.3350168024223));
#604=CARTESIAN_POINT('Origin',(-72.1438314494182,-24.6999999996749,-55.3350168024223));
#605=CARTESIAN_POINT('Origin',(-72.1438314494182,-24.6999999996749,-42.5350168024223));
#606=CARTESIAN_POINT('',(-75.2438314494182,-24.6999999996749,-42.5350168024223));
#607=CARTESIAN_POINT('',(-72.1438314494182,-21.5999999996749,-42.5350168024223));
#608=CARTESIAN_POINT('Origin',(-72.1438314494182,-24.6999999996749,-42.5350168024223));
#609=CARTESIAN_POINT('Origin',(-72.1438314494182,-24.6999999996749,-42.5350168024223));
#610=CARTESIAN_POINT('Origin',(-72.1438314494182,-24.6999999996749,-57.3350168024223));
#611=CARTESIAN_POINT('Origin',(-72.1438314494182,-24.6999999996749,-42.5350168024223));
#612=CARTESIAN_POINT('',(-70.5938314494182,-21.5999999996749,-42.5350168024223));
#613=CARTESIAN_POINT('Origin',(-72.1438314494182,-24.6999999996749,-42.5350168024223));
#614=CARTESIAN_POINT('',(-70.5938314494182,-21.5999999996749,-42.5350168024223));
#615=CARTESIAN_POINT('',(-75.2438314494182,-23.1499999996749,-42.5350168024223));
#616=CARTESIAN_POINT('Origin',(-75.2438314494182,-21.5999999996749,-42.5350168024223));
#617=CARTESIAN_POINT('Origin',(-69.0438314494182,-21.5999999996749,-42.5350168024223));
#618=UNCERTAINTY_MEASURE_WITH_UNIT(LENGTH_MEASURE(0.01),#622,
'DISTANCE_ACCURACY_VALUE',
'Maximum model space distance between geometric entities at asserted c
onnectivities');
#619=UNCERTAINTY_MEASURE_WITH_UNIT(LENGTH_MEASURE(0.01),#622,
'DISTANCE_ACCURACY_VALUE',
'Maximum model space distance between geometric entities at asserted c
onnectivities');
#620=(
GEOMETRIC_REPRESENTATION_CONTEXT(3)
GLOBAL_UNCERTAINTY_ASSIGNED_CONTEXT((#618))
GLOBAL_UNIT_ASSIGNED_CONTEXT((#622,#624,#625))
REPRESENTATION_CONTEXT('','3D')
);
#621=(
GEOMETRIC_REPRESENTATION_CONTEXT(3)
GLOBAL_UNCERTAINTY_ASSIGNED_CONTEXT((#619))
GLOBAL_UNIT_ASSIGNED_CONTEXT((#622,#624,#625))
REPRESENTATION_CONTEXT('','3D')
);
#622=(
LENGTH_UNIT()
NAMED_UNIT(*)
SI_UNIT(.MILLI.,.METRE.)
);
#623=(
LENGTH_UNIT()
NAMED_UNIT(*)
SI_UNIT($,.METRE.)
);
#624=(
NAMED_UNIT(*)
PLANE_ANGLE_UNIT()
SI_UNIT($,.RADIAN.)
);
#625=(
NAMED_UNIT(*)
SI_UNIT($,.STERADIAN.)
SOLID_ANGLE_UNIT()
);
#626=SHAPE_DEFINITION_REPRESENTATION(#627,#628);
#627=PRODUCT_DEFINITION_SHAPE('',$,#630);
#628=SHAPE_REPRESENTATION('',(#384),#620);
#629=PRODUCT_DEFINITION_CONTEXT('part definition',#634,'design');
#630=PRODUCT_DEFINITION('(Unsaved)','(Unsaved)',#631,#629);
#631=PRODUCT_DEFINITION_FORMATION('',$,#636);
#632=PRODUCT_RELATED_PRODUCT_CATEGORY('(Unsaved)','(Unsaved)',(#636));
#633=APPLICATION_PROTOCOL_DEFINITION('international standard',
'automotive_design',2009,#634);
#634=APPLICATION_CONTEXT(
'Core Data for Automotive Mechanical Design Process');
#635=PRODUCT_CONTEXT('part definition',#634,'mechanical');
#636=PRODUCT('(Unsaved)','(Unsaved)',$,(#635));
#637=PRESENTATION_STYLE_ASSIGNMENT((#638));
#638=SURFACE_STYLE_USAGE(.BOTH.,#639);
#639=SURFACE_SIDE_STYLE('',(#640));
#640=SURFACE_STYLE_FILL_AREA(#641);
#641=FILL_AREA_STYLE('Steel - Satin',(#642));
#642=FILL_AREA_STYLE_COLOUR('Steel - Satin',#643);
#643=COLOUR_RGB('Steel - Satin',0.627450980392157,0.627450980392157,0.627450980392157);
ENDSEC;
END-ISO-10303-21;
