ISO-10303-21;
HEADER;
/* Generated by software containing ST-Developer
 * from STEP Tools, Inc. (www.steptools.com) 
 */

FILE_DESCRIPTION(
/* description */ (''),
/* implementation_level */ '2;1');

FILE_NAME(
/* name */ 'bolt-washer-x36.step',
/* time_stamp */ '2026-09-30T23:19:21+03:00',
/* author */ (''),
/* organization */ (''),
/* preprocessor_version */ 'ST-DEVELOPER v20.1',
/* originating_system */ 'Autodesk Translation Framework v15.8.0.0',
/* authorisation */ '');

FILE_SCHEMA (('AUTOMOTIVE_DESIGN { 1 0 10303 214 3 1 1 }'));
ENDSEC;

DATA;
#10=MECHANICAL_DESIGN_GEOMETRIC_PRESENTATION_REPRESENTATION('',(#13),#735);
#11=SHAPE_REPRESENTATION_RELATIONSHIP('SRR','None',#742,#12);
#12=ADVANCED_BREP_SHAPE_REPRESENTATION('',(#14),#734);
#13=STYLED_ITEM('',(#751),#14);
#14=MANIFOLD_SOLID_BREP('bolt-washer-x36',#435);
#15=FACE_BOUND('',#74,.T.);
#16=FACE_BOUND('',#75,.T.);
#17=FACE_BOUND('',#77,.T.);
#18=FACE_BOUND('',#78,.T.);
#19=CIRCLE('',#454,1.90000000000001);
#20=CIRCLE('',#455,1.90000000000001);
#21=CIRCLE('',#458,1.90000000000001);
#22=CIRCLE('',#459,1.90000000000001);
#23=CIRCLE('',#464,1.45);
#24=CIRCLE('',#465,1.9);
#25=CIRCLE('',#466,1.45);
#26=CIRCLE('',#467,1.9);
#27=CIRCLE('',#469,1.45);
#28=CIRCLE('',#470,1.45);
#29=CIRCLE('',#473,1.45);
#30=CIRCLE('',#474,1.45);
#31=CIRCLE('',#477,1.9);
#32=CIRCLE('',#480,1.45);
#33=CIRCLE('',#481,1.45);
#34=CIRCLE('',#484,1.9);
#35=CYLINDRICAL_SURFACE('',#453,1.90000000000001);
#36=CYLINDRICAL_SURFACE('',#457,1.90000000000001);
#37=CYLINDRICAL_SURFACE('',#472,1.45);
#38=CYLINDRICAL_SURFACE('',#476,1.9);
#39=CYLINDRICAL_SURFACE('',#479,1.45);
#40=CYLINDRICAL_SURFACE('',#483,1.9);
#41=FACE_OUTER_BOUND('',#63,.T.);
#42=FACE_OUTER_BOUND('',#64,.T.);
#43=FACE_OUTER_BOUND('',#65,.T.);
#44=FACE_OUTER_BOUND('',#66,.T.);
#45=FACE_OUTER_BOUND('',#67,.T.);
#46=FACE_OUTER_BOUND('',#68,.T.);
#47=FACE_OUTER_BOUND('',#69,.T.);
#48=FACE_OUTER_BOUND('',#70,.T.);
#49=FACE_OUTER_BOUND('',#71,.T.);
#50=FACE_OUTER_BOUND('',#72,.T.);
#51=FACE_OUTER_BOUND('',#73,.T.);
#52=FACE_OUTER_BOUND('',#76,.T.);
#53=FACE_OUTER_BOUND('',#79,.T.);
#54=FACE_OUTER_BOUND('',#80,.T.);
#55=FACE_OUTER_BOUND('',#81,.T.);
#56=FACE_OUTER_BOUND('',#82,.T.);
#57=FACE_OUTER_BOUND('',#83,.T.);
#58=FACE_OUTER_BOUND('',#84,.T.);
#59=FACE_OUTER_BOUND('',#85,.T.);
#60=FACE_OUTER_BOUND('',#86,.T.);
#61=FACE_OUTER_BOUND('',#87,.T.);
#62=FACE_OUTER_BOUND('',#88,.T.);
#63=EDGE_LOOP('',(#277,#278,#279,#280));
#64=EDGE_LOOP('',(#281,#282,#283,#284));
#65=EDGE_LOOP('',(#285,#286,#287,#288));
#66=EDGE_LOOP('',(#289,#290,#291,#292));
#67=EDGE_LOOP('',(#293,#294,#295,#296));
#68=EDGE_LOOP('',(#297,#298,#299,#300));
#69=EDGE_LOOP('',(#301,#302,#303,#304));
#70=EDGE_LOOP('',(#305,#306,#307,#308));
#71=EDGE_LOOP('',(#309,#310,#311,#312));
#72=EDGE_LOOP('',(#313,#314,#315,#316));
#73=EDGE_LOOP('',(#317,#318,#319,#320,#321,#322,#323,#324,#325,#326));
#74=EDGE_LOOP('',(#327,#328,#329,#330));
#75=EDGE_LOOP('',(#331,#332,#333,#334));
#76=EDGE_LOOP('',(#335,#336,#337,#338,#339,#340,#341,#342,#343,#344));
#77=EDGE_LOOP('',(#345));
#78=EDGE_LOOP('',(#346));
#79=EDGE_LOOP('',(#347,#348,#349,#350));
#80=EDGE_LOOP('',(#351,#352,#353,#354,#355,#356,#357,#358));
#81=EDGE_LOOP('',(#359,#360,#361,#362));
#82=EDGE_LOOP('',(#363,#364,#365,#366));
#83=EDGE_LOOP('',(#367,#368,#369,#370,#371));
#84=EDGE_LOOP('',(#372,#373,#374,#375,#376,#377,#378,#379));
#85=EDGE_LOOP('',(#380,#381,#382,#383));
#86=EDGE_LOOP('',(#384,#385,#386,#387));
#87=EDGE_LOOP('',(#388,#389,#390,#391));
#88=EDGE_LOOP('',(#392,#393,#394,#395,#396));
#89=LINE('',#613,#133);
#90=LINE('',#615,#134);
#91=LINE('',#617,#135);
#92=LINE('',#618,#136);
#93=LINE('',#621,#137);
#94=LINE('',#623,#138);
#95=LINE('',#624,#139);
#96=LINE('',#627,#140);
#97=LINE('',#629,#141);
#98=LINE('',#630,#142);
#99=LINE('',#633,#143);
#100=LINE('',#635,#144);
#101=LINE('',#636,#145);
#102=LINE('',#642,#146);
#103=LINE('',#645,#147);
#104=LINE('',#647,#148);
#105=LINE('',#648,#149);
#106=LINE('',#654,#150);
#107=LINE('',#657,#151);
#108=LINE('',#659,#152);
#109=LINE('',#660,#153);
#110=LINE('',#663,#154);
#111=LINE('',#665,#155);
#112=LINE('',#666,#156);
#113=LINE('',#668,#157);
#114=LINE('',#669,#158);
#115=LINE('',#673,#159);
#116=LINE('',#677,#160);
#117=LINE('',#681,#161);
#118=LINE('',#685,#162);
#119=LINE('',#694,#163);
#120=LINE('',#696,#164);
#121=LINE('',#697,#165);
#122=LINE('',#701,#166);
#123=LINE('',#704,#167);
#124=LINE('',#707,#168);
#125=LINE('',#708,#169);
#126=LINE('',#714,#170);
#127=LINE('',#717,#171);
#128=LINE('',#720,#172);
#129=LINE('',#723,#173);
#130=LINE('',#724,#174);
#131=LINE('',#728,#175);
#132=LINE('',#730,#176);
#133=VECTOR('',#491,10.);
#134=VECTOR('',#492,10.);
#135=VECTOR('',#493,10.);
#136=VECTOR('',#494,10.);
#137=VECTOR('',#497,10.);
#138=VECTOR('',#498,10.);
#139=VECTOR('',#499,10.);
#140=VECTOR('',#502,10.);
#141=VECTOR('',#503,10.);
#142=VECTOR('',#504,10.);
#143=VECTOR('',#507,10.);
#144=VECTOR('',#508,10.);
#145=VECTOR('',#509,10.);
#146=VECTOR('',#516,10.);
#147=VECTOR('',#519,10.);
#148=VECTOR('',#520,10.);
#149=VECTOR('',#521,10.);
#150=VECTOR('',#528,10.);
#151=VECTOR('',#531,10.);
#152=VECTOR('',#532,10.);
#153=VECTOR('',#533,10.);
#154=VECTOR('',#536,10.);
#155=VECTOR('',#537,10.);
#156=VECTOR('',#538,10.);
#157=VECTOR('',#541,10.);
#158=VECTOR('',#542,10.);
#159=VECTOR('',#545,10.);
#160=VECTOR('',#548,10.);
#161=VECTOR('',#551,10.);
#162=VECTOR('',#554,10.);
#163=VECTOR('',#565,10.);
#164=VECTOR('',#566,10.);
#165=VECTOR('',#567,10.);
#166=VECTOR('',#572,1.45);
#167=VECTOR('',#575,10.);
#168=VECTOR('',#578,10.);
#169=VECTOR('',#579,10.);
#170=VECTOR('',#588,10.);
#171=VECTOR('',#591,1.45);
#172=VECTOR('',#594,10.);
#173=VECTOR('',#597,10.);
#174=VECTOR('',#598,10.);
#175=VECTOR('',#603,10.);
#176=VECTOR('',#606,10.);
#177=VERTEX_POINT('',#611);
#178=VERTEX_POINT('',#612);
#179=VERTEX_POINT('',#614);
#180=VERTEX_POINT('',#616);
#181=VERTEX_POINT('',#620);
#182=VERTEX_POINT('',#622);
#183=VERTEX_POINT('',#626);
#184=VERTEX_POINT('',#628);
#185=VERTEX_POINT('',#632);
#186=VERTEX_POINT('',#634);
#187=VERTEX_POINT('',#638);
#188=VERTEX_POINT('',#640);
#189=VERTEX_POINT('',#644);
#190=VERTEX_POINT('',#646);
#191=VERTEX_POINT('',#650);
#192=VERTEX_POINT('',#652);
#193=VERTEX_POINT('',#656);
#194=VERTEX_POINT('',#658);
#195=VERTEX_POINT('',#662);
#196=VERTEX_POINT('',#664);
#197=VERTEX_POINT('',#671);
#198=VERTEX_POINT('',#672);
#199=VERTEX_POINT('',#674);
#200=VERTEX_POINT('',#676);
#201=VERTEX_POINT('',#679);
#202=VERTEX_POINT('',#680);
#203=VERTEX_POINT('',#682);
#204=VERTEX_POINT('',#684);
#205=VERTEX_POINT('',#688);
#206=VERTEX_POINT('',#690);
#207=VERTEX_POINT('',#693);
#208=VERTEX_POINT('',#695);
#209=VERTEX_POINT('',#699);
#210=VERTEX_POINT('',#702);
#211=VERTEX_POINT('',#706);
#212=VERTEX_POINT('',#713);
#213=VERTEX_POINT('',#715);
#214=VERTEX_POINT('',#718);
#215=VERTEX_POINT('',#722);
#216=VERTEX_POINT('',#726);
#217=EDGE_CURVE('',#177,#178,#89,.T.);
#218=EDGE_CURVE('',#177,#179,#90,.T.);
#219=EDGE_CURVE('',#180,#179,#91,.T.);
#220=EDGE_CURVE('',#178,#180,#92,.T.);
#221=EDGE_CURVE('',#178,#181,#93,.T.);
#222=EDGE_CURVE('',#182,#180,#94,.T.);
#223=EDGE_CURVE('',#181,#182,#95,.T.);
#224=EDGE_CURVE('',#183,#181,#96,.T.);
#225=EDGE_CURVE('',#184,#182,#97,.T.);
#226=EDGE_CURVE('',#183,#184,#98,.T.);
#227=EDGE_CURVE('',#185,#183,#99,.T.);
#228=EDGE_CURVE('',#186,#184,#100,.T.);
#229=EDGE_CURVE('',#185,#186,#101,.T.);
#230=EDGE_CURVE('',#185,#187,#19,.T.);
#231=EDGE_CURVE('',#188,#186,#20,.T.);
#232=EDGE_CURVE('',#187,#188,#102,.T.);
#233=EDGE_CURVE('',#189,#187,#103,.T.);
#234=EDGE_CURVE('',#190,#188,#104,.T.);
#235=EDGE_CURVE('',#189,#190,#105,.T.);
#236=EDGE_CURVE('',#189,#191,#21,.T.);
#237=EDGE_CURVE('',#192,#190,#22,.T.);
#238=EDGE_CURVE('',#191,#192,#106,.T.);
#239=EDGE_CURVE('',#193,#191,#107,.T.);
#240=EDGE_CURVE('',#194,#192,#108,.T.);
#241=EDGE_CURVE('',#193,#194,#109,.T.);
#242=EDGE_CURVE('',#195,#193,#110,.T.);
#243=EDGE_CURVE('',#196,#194,#111,.T.);
#244=EDGE_CURVE('',#195,#196,#112,.T.);
#245=EDGE_CURVE('',#195,#177,#113,.T.);
#246=EDGE_CURVE('',#179,#196,#114,.T.);
#247=EDGE_CURVE('',#197,#198,#115,.T.);
#248=EDGE_CURVE('',#197,#199,#23,.T.);
#249=EDGE_CURVE('',#200,#199,#116,.T.);
#250=EDGE_CURVE('',#198,#200,#24,.T.);
#251=EDGE_CURVE('',#201,#202,#117,.T.);
#252=EDGE_CURVE('',#202,#203,#25,.T.);
#253=EDGE_CURVE('',#203,#204,#118,.T.);
#254=EDGE_CURVE('',#201,#204,#26,.T.);
#255=EDGE_CURVE('',#205,#205,#27,.T.);
#256=EDGE_CURVE('',#206,#206,#28,.T.);
#257=EDGE_CURVE('',#201,#207,#119,.T.);
#258=EDGE_CURVE('',#208,#207,#120,.T.);
#259=EDGE_CURVE('',#202,#208,#121,.T.);
#260=EDGE_CURVE('',#209,#208,#29,.T.);
#261=EDGE_CURVE('',#209,#206,#122,.T.);
#262=EDGE_CURVE('',#210,#209,#30,.T.);
#263=EDGE_CURVE('',#203,#210,#123,.T.);
#264=EDGE_CURVE('',#211,#210,#124,.T.);
#265=EDGE_CURVE('',#204,#211,#125,.T.);
#266=EDGE_CURVE('',#207,#211,#31,.T.);
#267=EDGE_CURVE('',#197,#212,#126,.T.);
#268=EDGE_CURVE('',#213,#212,#32,.T.);
#269=EDGE_CURVE('',#213,#205,#127,.T.);
#270=EDGE_CURVE('',#214,#213,#33,.T.);
#271=EDGE_CURVE('',#199,#214,#128,.T.);
#272=EDGE_CURVE('',#215,#214,#129,.T.);
#273=EDGE_CURVE('',#200,#215,#130,.T.);
#274=EDGE_CURVE('',#216,#215,#34,.T.);
#275=EDGE_CURVE('',#198,#216,#131,.T.);
#276=EDGE_CURVE('',#212,#216,#132,.T.);
#277=ORIENTED_EDGE('',*,*,#217,.F.);
#278=ORIENTED_EDGE('',*,*,#218,.T.);
#279=ORIENTED_EDGE('',*,*,#219,.F.);
#280=ORIENTED_EDGE('',*,*,#220,.F.);
#281=ORIENTED_EDGE('',*,*,#221,.F.);
#282=ORIENTED_EDGE('',*,*,#220,.T.);
#283=ORIENTED_EDGE('',*,*,#222,.F.);
#284=ORIENTED_EDGE('',*,*,#223,.F.);
#285=ORIENTED_EDGE('',*,*,#224,.T.);
#286=ORIENTED_EDGE('',*,*,#223,.T.);
#287=ORIENTED_EDGE('',*,*,#225,.F.);
#288=ORIENTED_EDGE('',*,*,#226,.F.);
#289=ORIENTED_EDGE('',*,*,#227,.T.);
#290=ORIENTED_EDGE('',*,*,#226,.T.);
#291=ORIENTED_EDGE('',*,*,#228,.F.);
#292=ORIENTED_EDGE('',*,*,#229,.F.);
#293=ORIENTED_EDGE('',*,*,#230,.F.);
#294=ORIENTED_EDGE('',*,*,#229,.T.);
#295=ORIENTED_EDGE('',*,*,#231,.F.);
#296=ORIENTED_EDGE('',*,*,#232,.F.);
#297=ORIENTED_EDGE('',*,*,#233,.T.);
#298=ORIENTED_EDGE('',*,*,#232,.T.);
#299=ORIENTED_EDGE('',*,*,#234,.F.);
#300=ORIENTED_EDGE('',*,*,#235,.F.);
#301=ORIENTED_EDGE('',*,*,#236,.F.);
#302=ORIENTED_EDGE('',*,*,#235,.T.);
#303=ORIENTED_EDGE('',*,*,#237,.F.);
#304=ORIENTED_EDGE('',*,*,#238,.F.);
#305=ORIENTED_EDGE('',*,*,#239,.T.);
#306=ORIENTED_EDGE('',*,*,#238,.T.);
#307=ORIENTED_EDGE('',*,*,#240,.F.);
#308=ORIENTED_EDGE('',*,*,#241,.F.);
#309=ORIENTED_EDGE('',*,*,#242,.T.);
#310=ORIENTED_EDGE('',*,*,#241,.T.);
#311=ORIENTED_EDGE('',*,*,#243,.F.);
#312=ORIENTED_EDGE('',*,*,#244,.F.);
#313=ORIENTED_EDGE('',*,*,#245,.F.);
#314=ORIENTED_EDGE('',*,*,#244,.T.);
#315=ORIENTED_EDGE('',*,*,#246,.F.);
#316=ORIENTED_EDGE('',*,*,#218,.F.);
#317=ORIENTED_EDGE('',*,*,#245,.T.);
#318=ORIENTED_EDGE('',*,*,#217,.T.);
#319=ORIENTED_EDGE('',*,*,#221,.T.);
#320=ORIENTED_EDGE('',*,*,#224,.F.);
#321=ORIENTED_EDGE('',*,*,#227,.F.);
#322=ORIENTED_EDGE('',*,*,#230,.T.);
#323=ORIENTED_EDGE('',*,*,#233,.F.);
#324=ORIENTED_EDGE('',*,*,#236,.T.);
#325=ORIENTED_EDGE('',*,*,#239,.F.);
#326=ORIENTED_EDGE('',*,*,#242,.F.);
#327=ORIENTED_EDGE('',*,*,#247,.F.);
#328=ORIENTED_EDGE('',*,*,#248,.T.);
#329=ORIENTED_EDGE('',*,*,#249,.F.);
#330=ORIENTED_EDGE('',*,*,#250,.F.);
#331=ORIENTED_EDGE('',*,*,#251,.T.);
#332=ORIENTED_EDGE('',*,*,#252,.T.);
#333=ORIENTED_EDGE('',*,*,#253,.T.);
#334=ORIENTED_EDGE('',*,*,#254,.F.);
#335=ORIENTED_EDGE('',*,*,#246,.T.);
#336=ORIENTED_EDGE('',*,*,#243,.T.);
#337=ORIENTED_EDGE('',*,*,#240,.T.);
#338=ORIENTED_EDGE('',*,*,#237,.T.);
#339=ORIENTED_EDGE('',*,*,#234,.T.);
#340=ORIENTED_EDGE('',*,*,#231,.T.);
#341=ORIENTED_EDGE('',*,*,#228,.T.);
#342=ORIENTED_EDGE('',*,*,#225,.T.);
#343=ORIENTED_EDGE('',*,*,#222,.T.);
#344=ORIENTED_EDGE('',*,*,#219,.T.);
#345=ORIENTED_EDGE('',*,*,#255,.T.);
#346=ORIENTED_EDGE('',*,*,#256,.T.);
#347=ORIENTED_EDGE('',*,*,#251,.F.);
#348=ORIENTED_EDGE('',*,*,#257,.T.);
#349=ORIENTED_EDGE('',*,*,#258,.F.);
#350=ORIENTED_EDGE('',*,*,#259,.F.);
#351=ORIENTED_EDGE('',*,*,#259,.T.);
#352=ORIENTED_EDGE('',*,*,#260,.F.);
#353=ORIENTED_EDGE('',*,*,#261,.T.);
#354=ORIENTED_EDGE('',*,*,#256,.F.);
#355=ORIENTED_EDGE('',*,*,#261,.F.);
#356=ORIENTED_EDGE('',*,*,#262,.F.);
#357=ORIENTED_EDGE('',*,*,#263,.F.);
#358=ORIENTED_EDGE('',*,*,#252,.F.);
#359=ORIENTED_EDGE('',*,*,#253,.F.);
#360=ORIENTED_EDGE('',*,*,#263,.T.);
#361=ORIENTED_EDGE('',*,*,#264,.F.);
#362=ORIENTED_EDGE('',*,*,#265,.F.);
#363=ORIENTED_EDGE('',*,*,#254,.T.);
#364=ORIENTED_EDGE('',*,*,#265,.T.);
#365=ORIENTED_EDGE('',*,*,#266,.F.);
#366=ORIENTED_EDGE('',*,*,#257,.F.);
#367=ORIENTED_EDGE('',*,*,#266,.T.);
#368=ORIENTED_EDGE('',*,*,#264,.T.);
#369=ORIENTED_EDGE('',*,*,#262,.T.);
#370=ORIENTED_EDGE('',*,*,#260,.T.);
#371=ORIENTED_EDGE('',*,*,#258,.T.);
#372=ORIENTED_EDGE('',*,*,#267,.T.);
#373=ORIENTED_EDGE('',*,*,#268,.F.);
#374=ORIENTED_EDGE('',*,*,#269,.T.);
#375=ORIENTED_EDGE('',*,*,#255,.F.);
#376=ORIENTED_EDGE('',*,*,#269,.F.);
#377=ORIENTED_EDGE('',*,*,#270,.F.);
#378=ORIENTED_EDGE('',*,*,#271,.F.);
#379=ORIENTED_EDGE('',*,*,#248,.F.);
#380=ORIENTED_EDGE('',*,*,#249,.T.);
#381=ORIENTED_EDGE('',*,*,#271,.T.);
#382=ORIENTED_EDGE('',*,*,#272,.F.);
#383=ORIENTED_EDGE('',*,*,#273,.F.);
#384=ORIENTED_EDGE('',*,*,#250,.T.);
#385=ORIENTED_EDGE('',*,*,#273,.T.);
#386=ORIENTED_EDGE('',*,*,#274,.F.);
#387=ORIENTED_EDGE('',*,*,#275,.F.);
#388=ORIENTED_EDGE('',*,*,#247,.T.);
#389=ORIENTED_EDGE('',*,*,#275,.T.);
#390=ORIENTED_EDGE('',*,*,#276,.F.);
#391=ORIENTED_EDGE('',*,*,#267,.F.);
#392=ORIENTED_EDGE('',*,*,#276,.T.);
#393=ORIENTED_EDGE('',*,*,#274,.T.);
#394=ORIENTED_EDGE('',*,*,#272,.T.);
#395=ORIENTED_EDGE('',*,*,#270,.T.);
#396=ORIENTED_EDGE('',*,*,#268,.T.);
#397=PLANE('',#449);
#398=PLANE('',#450);
#399=PLANE('',#451);
#400=PLANE('',#452);
#401=PLANE('',#456);
#402=PLANE('',#460);
#403=PLANE('',#461);
#404=PLANE('',#462);
#405=PLANE('',#463);
#406=PLANE('',#468);
#407=PLANE('',#471);
#408=PLANE('',#475);
#409=PLANE('',#478);
#410=PLANE('',#482);
#411=PLANE('',#485);
#412=PLANE('',#486);
#413=ADVANCED_FACE('',(#41),#397,.T.);
#414=ADVANCED_FACE('',(#42),#398,.T.);
#415=ADVANCED_FACE('',(#43),#399,.T.);
#416=ADVANCED_FACE('',(#44),#400,.T.);
#417=ADVANCED_FACE('',(#45),#35,.T.);
#418=ADVANCED_FACE('',(#46),#401,.T.);
#419=ADVANCED_FACE('',(#47),#36,.T.);
#420=ADVANCED_FACE('',(#48),#402,.T.);
#421=ADVANCED_FACE('',(#49),#403,.T.);
#422=ADVANCED_FACE('',(#50),#404,.T.);
#423=ADVANCED_FACE('',(#51,#15,#16),#405,.T.);
#424=ADVANCED_FACE('',(#52,#17,#18),#406,.F.);
#425=ADVANCED_FACE('',(#53),#407,.T.);
#426=ADVANCED_FACE('',(#54),#37,.F.);
#427=ADVANCED_FACE('',(#55),#408,.T.);
#428=ADVANCED_FACE('',(#56),#38,.T.);
#429=ADVANCED_FACE('',(#57),#409,.T.);
#430=ADVANCED_FACE('',(#58),#39,.F.);
#431=ADVANCED_FACE('',(#59),#410,.T.);
#432=ADVANCED_FACE('',(#60),#40,.T.);
#433=ADVANCED_FACE('',(#61),#411,.T.);
#434=ADVANCED_FACE('',(#62),#412,.T.);
#435=CLOSED_SHELL('',(#413,#414,#415,#416,#417,#418,#419,#420,#421,#422,
#423,#424,#425,#426,#427,#428,#429,#430,#431,#432,#433,#434));
#436=DERIVED_UNIT_ELEMENT(#438,1.);
#437=DERIVED_UNIT_ELEMENT(#737,-3.);
#438=(
MASS_UNIT()
NAMED_UNIT(*)
SI_UNIT(.KILO.,.GRAM.)
);
#439=DERIVED_UNIT((#436,#437));
#440=MEASURE_REPRESENTATION_ITEM('density measure',
POSITIVE_RATIO_MEASURE(7850.),#439);
#441=PROPERTY_DEFINITION_REPRESENTATION(#446,#443);
#442=PROPERTY_DEFINITION_REPRESENTATION(#447,#444);
#443=REPRESENTATION('material name',(#445),#734);
#444=REPRESENTATION('density',(#440),#734);
#445=DESCRIPTIVE_REPRESENTATION_ITEM('Steel','Steel');
#446=PROPERTY_DEFINITION('material property','material name',#744);
#447=PROPERTY_DEFINITION('material property','density of part',#744);
#448=AXIS2_PLACEMENT_3D('',#609,#487,#488);
#449=AXIS2_PLACEMENT_3D('',#610,#489,#490);
#450=AXIS2_PLACEMENT_3D('',#619,#495,#496);
#451=AXIS2_PLACEMENT_3D('',#625,#500,#501);
#452=AXIS2_PLACEMENT_3D('',#631,#505,#506);
#453=AXIS2_PLACEMENT_3D('',#637,#510,#511);
#454=AXIS2_PLACEMENT_3D('',#639,#512,#513);
#455=AXIS2_PLACEMENT_3D('',#641,#514,#515);
#456=AXIS2_PLACEMENT_3D('',#643,#517,#518);
#457=AXIS2_PLACEMENT_3D('',#649,#522,#523);
#458=AXIS2_PLACEMENT_3D('',#651,#524,#525);
#459=AXIS2_PLACEMENT_3D('',#653,#526,#527);
#460=AXIS2_PLACEMENT_3D('',#655,#529,#530);
#461=AXIS2_PLACEMENT_3D('',#661,#534,#535);
#462=AXIS2_PLACEMENT_3D('',#667,#539,#540);
#463=AXIS2_PLACEMENT_3D('',#670,#543,#544);
#464=AXIS2_PLACEMENT_3D('',#675,#546,#547);
#465=AXIS2_PLACEMENT_3D('',#678,#549,#550);
#466=AXIS2_PLACEMENT_3D('',#683,#552,#553);
#467=AXIS2_PLACEMENT_3D('',#686,#555,#556);
#468=AXIS2_PLACEMENT_3D('',#687,#557,#558);
#469=AXIS2_PLACEMENT_3D('',#689,#559,#560);
#470=AXIS2_PLACEMENT_3D('',#691,#561,#562);
#471=AXIS2_PLACEMENT_3D('',#692,#563,#564);
#472=AXIS2_PLACEMENT_3D('',#698,#568,#569);
#473=AXIS2_PLACEMENT_3D('',#700,#570,#571);
#474=AXIS2_PLACEMENT_3D('',#703,#573,#574);
#475=AXIS2_PLACEMENT_3D('',#705,#576,#577);
#476=AXIS2_PLACEMENT_3D('',#709,#580,#581);
#477=AXIS2_PLACEMENT_3D('',#710,#582,#583);
#478=AXIS2_PLACEMENT_3D('',#711,#584,#585);
#479=AXIS2_PLACEMENT_3D('',#712,#586,#587);
#480=AXIS2_PLACEMENT_3D('',#716,#589,#590);
#481=AXIS2_PLACEMENT_3D('',#719,#592,#593);
#482=AXIS2_PLACEMENT_3D('',#721,#595,#596);
#483=AXIS2_PLACEMENT_3D('',#725,#599,#600);
#484=AXIS2_PLACEMENT_3D('',#727,#601,#602);
#485=AXIS2_PLACEMENT_3D('',#729,#604,#605);
#486=AXIS2_PLACEMENT_3D('',#731,#607,#608);
#487=DIRECTION('axis',(0.,0.,1.));
#488=DIRECTION('refdir',(1.,0.,0.));
#489=DIRECTION('center_axis',(-0.642787609686423,0.,-0.766044443119076));
#490=DIRECTION('ref_axis',(-0.766044443119076,0.,0.642787609686423));
#491=DIRECTION('',(0.766044443119076,0.,-0.642787609686423));
#492=DIRECTION('',(0.,1.,0.));
#493=DIRECTION('',(-0.766044443119076,0.,0.642787609686423));
#494=DIRECTION('',(0.,1.,0.));
#495=DIRECTION('center_axis',(-0.766044443118963,0.,0.642787609686558));
#496=DIRECTION('ref_axis',(0.642787609686558,0.,0.766044443118963));
#497=DIRECTION('',(-0.642787609686558,0.,-0.766044443118963));
#498=DIRECTION('',(0.642787609686558,0.,0.766044443118963));
#499=DIRECTION('',(0.,1.,0.));
#500=DIRECTION('center_axis',(-0.642787609686544,0.,-0.766044443118974));
#501=DIRECTION('ref_axis',(-0.766044443118974,0.,0.642787609686544));
#502=DIRECTION('',(-0.766044443118974,0.,0.642787609686544));
#503=DIRECTION('',(-0.766044443118974,0.,0.642787609686544));
#504=DIRECTION('',(0.,1.,0.));
#505=DIRECTION('center_axis',(0.766044443119392,0.,-0.642787609686046));
#506=DIRECTION('ref_axis',(-0.642787609686046,0.,-0.766044443119392));
#507=DIRECTION('',(-0.642787609686046,0.,-0.766044443119392));
#508=DIRECTION('',(-0.642787609686046,0.,-0.766044443119392));
#509=DIRECTION('',(0.,1.,0.));
#510=DIRECTION('center_axis',(0.,1.,0.));
#511=DIRECTION('ref_axis',(0.766044443118977,0.,-0.642787609686541));
#512=DIRECTION('center_axis',(0.,-1.,0.));
#513=DIRECTION('ref_axis',(0.766044443118977,0.,-0.642787609686541));
#514=DIRECTION('center_axis',(0.,1.,0.));
#515=DIRECTION('ref_axis',(0.766044443118977,0.,-0.642787609686541));
#516=DIRECTION('',(0.,1.,0.));
#517=DIRECTION('center_axis',(0.642787609686538,0.,0.766044443118979));
#518=DIRECTION('ref_axis',(0.766044443118979,0.,-0.642787609686538));
#519=DIRECTION('',(0.766044443118979,0.,-0.642787609686538));
#520=DIRECTION('',(0.766044443118979,0.,-0.642787609686538));
#521=DIRECTION('',(0.,1.,0.));
#522=DIRECTION('center_axis',(0.,1.,0.));
#523=DIRECTION('ref_axis',(0.642787609686542,0.,0.766044443118976));
#524=DIRECTION('center_axis',(0.,-1.,0.));
#525=DIRECTION('ref_axis',(0.642787609686542,0.,0.766044443118976));
#526=DIRECTION('center_axis',(0.,1.,0.));
#527=DIRECTION('ref_axis',(0.642787609686542,0.,0.766044443118976));
#528=DIRECTION('',(0.,1.,0.));
#529=DIRECTION('center_axis',(-0.766044443119103,0.,0.64278760968639));
#530=DIRECTION('ref_axis',(0.64278760968639,0.,0.766044443119103));
#531=DIRECTION('',(0.64278760968639,0.,0.766044443119103));
#532=DIRECTION('',(0.64278760968639,0.,0.766044443119103));
#533=DIRECTION('',(0.,1.,0.));
#534=DIRECTION('center_axis',(-0.642787609686544,0.,-0.766044443118974));
#535=DIRECTION('ref_axis',(-0.766044443118974,0.,0.642787609686544));
#536=DIRECTION('',(-0.766044443118974,0.,0.642787609686544));
#537=DIRECTION('',(-0.766044443118974,0.,0.642787609686544));
#538=DIRECTION('',(0.,1.,0.));
#539=DIRECTION('center_axis',(0.766044443118898,0.,-0.642787609686635));
#540=DIRECTION('ref_axis',(-0.642787609686634,0.,-0.766044443118898));
#541=DIRECTION('',(0.642787609686635,0.,0.766044443118898));
#542=DIRECTION('',(-0.642787609686635,0.,-0.766044443118898));
#543=DIRECTION('center_axis',(0.,-1.,0.));
#544=DIRECTION('ref_axis',(-1.,0.,0.));
#545=DIRECTION('',(0.766044443118745,0.,-0.642787609686817));
#546=DIRECTION('center_axis',(0.,1.,0.));
#547=DIRECTION('ref_axis',(-1.,0.,0.));
#548=DIRECTION('',(0.76604444311868,0.,-0.642787609686895));
#549=DIRECTION('center_axis',(0.,-1.,0.));
#550=DIRECTION('ref_axis',(-1.,0.,0.));
#551=DIRECTION('',(-0.766044443119522,0.,0.642787609685891));
#552=DIRECTION('center_axis',(0.,1.,0.));
#553=DIRECTION('ref_axis',(-1.,0.,0.));
#554=DIRECTION('',(-0.766044443119501,0.,0.642787609685916));
#555=DIRECTION('center_axis',(0.,-1.,0.));
#556=DIRECTION('ref_axis',(-1.,0.,0.));
#557=DIRECTION('center_axis',(0.,-1.,0.));
#558=DIRECTION('ref_axis',(-1.,0.,0.));
#559=DIRECTION('center_axis',(0.,-1.,0.));
#560=DIRECTION('ref_axis',(-1.,0.,0.));
#561=DIRECTION('center_axis',(0.,-1.,0.));
#562=DIRECTION('ref_axis',(-1.,0.,0.));
#563=DIRECTION('center_axis',(-0.642787609685891,0.,-0.766044443119522));
#564=DIRECTION('ref_axis',(0.766044443119522,0.,-0.642787609685891));
#565=DIRECTION('',(0.,-1.,0.));
#566=DIRECTION('',(0.766044443119522,0.,-0.642787609685891));
#567=DIRECTION('',(0.,-1.,0.));
#568=DIRECTION('center_axis',(0.,-1.,0.));
#569=DIRECTION('ref_axis',(-1.,0.,0.));
#570=DIRECTION('center_axis',(0.,1.,0.));
#571=DIRECTION('ref_axis',(-1.,0.,0.));
#572=DIRECTION('',(0.,1.,0.));
#573=DIRECTION('center_axis',(0.,1.,0.));
#574=DIRECTION('ref_axis',(-1.,0.,0.));
#575=DIRECTION('',(0.,-1.,0.));
#576=DIRECTION('center_axis',(-0.642787609685916,0.,-0.766044443119501));
#577=DIRECTION('ref_axis',(0.766044443119501,0.,-0.642787609685916));
#578=DIRECTION('',(0.766044443119501,0.,-0.642787609685916));
#579=DIRECTION('',(0.,-1.,0.));
#580=DIRECTION('center_axis',(0.,-1.,0.));
#581=DIRECTION('ref_axis',(0.642787609686507,0.,0.766044443119005));
#582=DIRECTION('center_axis',(0.,-1.,0.));
#583=DIRECTION('ref_axis',(-1.,0.,0.));
#584=DIRECTION('center_axis',(0.,-1.,0.));
#585=DIRECTION('ref_axis',(-1.,0.,0.));
#586=DIRECTION('center_axis',(0.,-1.,0.));
#587=DIRECTION('ref_axis',(-1.,0.,0.));
#588=DIRECTION('',(0.,-1.,0.));
#589=DIRECTION('center_axis',(0.,1.,0.));
#590=DIRECTION('ref_axis',(-1.,0.,0.));
#591=DIRECTION('',(0.,1.,0.));
#592=DIRECTION('center_axis',(0.,1.,0.));
#593=DIRECTION('ref_axis',(-1.,0.,0.));
#594=DIRECTION('',(0.,-1.,0.));
#595=DIRECTION('center_axis',(-0.642787609686895,0.,-0.76604444311868));
#596=DIRECTION('ref_axis',(0.76604444311868,0.,-0.642787609686895));
#597=DIRECTION('',(0.76604444311868,0.,-0.642787609686895));
#598=DIRECTION('',(0.,-1.,0.));
#599=DIRECTION('center_axis',(0.,-1.,0.));
#600=DIRECTION('ref_axis',(0.642787609686506,0.,0.766044443119006));
#601=DIRECTION('center_axis',(0.,-1.,0.));
#602=DIRECTION('ref_axis',(-1.,0.,0.));
#603=DIRECTION('',(0.,-1.,0.));
#604=DIRECTION('center_axis',(-0.642787609686817,0.,-0.766044443118745));
#605=DIRECTION('ref_axis',(0.766044443118745,0.,-0.642787609686817));
#606=DIRECTION('',(0.766044443118745,0.,-0.642787609686817));
#607=DIRECTION('center_axis',(0.,-1.,0.));
#608=DIRECTION('ref_axis',(-1.,0.,0.));
#609=CARTESIAN_POINT('',(0.,0.,0.));
#610=CARTESIAN_POINT('Origin',(-16.214547126497,-15.9,86.9042398095581));
#611=CARTESIAN_POINT('',(-17.7466360127345,-15.9,88.1898150289304));
#612=CARTESIAN_POINT('',(-16.214547126497,-15.9,86.9042398095581));
#613=CARTESIAN_POINT('',(-17.7466360127345,-15.9,88.1898150289304));
#614=CARTESIAN_POINT('',(-17.7466360127345,-13.9,88.1898150289304));
#615=CARTESIAN_POINT('',(-17.7466360127345,-15.9,88.1898150289304));
#616=CARTESIAN_POINT('',(-16.214547126497,-13.9,86.9042398095581));
#617=CARTESIAN_POINT('',(-17.7466360127345,-13.9,88.1898150289304));
#618=CARTESIAN_POINT('',(-16.214547126497,-15.9,86.9042398095581));
#619=CARTESIAN_POINT('Origin',(-19.9748546431635,-15.9,82.4228798173119));
#620=CARTESIAN_POINT('',(-19.9748546431635,-15.9,82.4228798173119));
#621=CARTESIAN_POINT('',(-16.214547126497,-15.9,86.9042398095581));
#622=CARTESIAN_POINT('',(-19.9748546431635,-13.9,82.4228798173119));
#623=CARTESIAN_POINT('',(-16.214547126497,-13.9,86.9042398095581));
#624=CARTESIAN_POINT('',(-19.9748546431635,-15.9,82.4228798173119));
#625=CARTESIAN_POINT('Origin',(-13.65498798743,-15.9,77.1198820373963));
#626=CARTESIAN_POINT('',(-13.65498798743,-15.9,77.1198820373963));
#627=CARTESIAN_POINT('',(-13.65498798743,-15.9,77.1198820373963));
#628=CARTESIAN_POINT('',(-13.65498798743,-13.9,77.1198820373963));
#629=CARTESIAN_POINT('',(-13.65498798743,-13.9,77.1198820373963));
#630=CARTESIAN_POINT('',(-13.65498798743,-15.9,77.1198820373963));
#631=CARTESIAN_POINT('Origin',(-10.5374680804526,-15.9,80.8351975865254));
#632=CARTESIAN_POINT('',(-10.5374680804526,-15.9,80.8351975865254));
#633=CARTESIAN_POINT('',(-10.5374680804526,-15.9,80.8351975865254));
#634=CARTESIAN_POINT('',(-10.5374680804526,-13.9,80.8351975865254));
#635=CARTESIAN_POINT('',(-10.5374680804526,-13.9,80.8351975865254));
#636=CARTESIAN_POINT('',(-10.5374680804526,-15.9,80.8351975865254));
#637=CARTESIAN_POINT('Origin',(-11.9929525223787,-15.9,82.0564940449298));
#638=CARTESIAN_POINT('',(-10.7716560639742,-15.9,83.5119784868559));
#639=CARTESIAN_POINT('Origin',(-11.9929525223787,-15.9,82.0564940449298));
#640=CARTESIAN_POINT('',(-10.7716560639742,-13.9,83.5119784868559));
#641=CARTESIAN_POINT('Origin',(-11.9929525223787,-13.9,82.0564940449298));
#642=CARTESIAN_POINT('',(-10.7716560639742,-15.9,83.5119784868559));
#643=CARTESIAN_POINT('Origin',(-22.0325093778219,-15.9,92.9609563492468));
#644=CARTESIAN_POINT('',(-22.0325093778219,-15.9,92.9609563492468));
#645=CARTESIAN_POINT('',(-22.0325093778219,-15.9,92.9609563492468));
#646=CARTESIAN_POINT('',(-22.0325093778219,-13.9,92.9609563492468));
#647=CARTESIAN_POINT('',(-22.0325093778219,-13.9,92.9609563492468));
#648=CARTESIAN_POINT('',(-22.0325093778219,-15.9,92.9609563492468));
#649=CARTESIAN_POINT('Origin',(-23.2538058362263,-15.9,91.5054719073208));
#650=CARTESIAN_POINT('',(-24.7092902781524,-15.9,92.7267683657252));
#651=CARTESIAN_POINT('Origin',(-23.2538058362263,-15.9,91.5054719073208));
#652=CARTESIAN_POINT('',(-24.7092902781524,-13.9,92.7267683657252));
#653=CARTESIAN_POINT('Origin',(-23.2538058362263,-13.9,91.5054719073208));
#654=CARTESIAN_POINT('',(-24.7092902781524,-15.9,92.7267683657252));
#655=CARTESIAN_POINT('Origin',(-27.8268101851313,-15.9,89.0114528165976));
#656=CARTESIAN_POINT('',(-27.8268101851313,-15.9,89.0114528165976));
#657=CARTESIAN_POINT('',(-27.8268101851313,-15.9,89.0114528165976));
#658=CARTESIAN_POINT('',(-27.8268101851313,-13.9,89.0114528165976));
#659=CARTESIAN_POINT('',(-27.8268101851313,-13.9,89.0114528165976));
#660=CARTESIAN_POINT('',(-27.8268101851313,-15.9,89.0114528165976));
#661=CARTESIAN_POINT('Origin',(-21.5069435294012,-15.9,83.7084550366848));
#662=CARTESIAN_POINT('',(-21.5069435294012,-15.9,83.7084550366848));
#663=CARTESIAN_POINT('',(-13.65498798743,-15.9,77.1198820373963));
#664=CARTESIAN_POINT('',(-21.5069435294012,-13.9,83.7084550366848));
#665=CARTESIAN_POINT('',(-13.65498798743,-13.9,77.1198820373963));
#666=CARTESIAN_POINT('',(-21.5069435294012,-15.9,83.7084550366848));
#667=CARTESIAN_POINT('Origin',(-17.7466360127345,-15.9,88.1898150289304));
#668=CARTESIAN_POINT('',(-21.5069435294012,-15.9,83.7084550366848));
#669=CARTESIAN_POINT('',(-21.5069435294012,-13.9,83.7084550366848));
#670=CARTESIAN_POINT('Origin',(-18.959881353755,-15.9,85.2626769723585));
#671=CARTESIAN_POINT('',(-21.2924564903891,-15.9,87.9774002688434));
#672=CARTESIAN_POINT('',(-21.1858204966393,-15.9,87.8879220458177));
#673=CARTESIAN_POINT('',(-21.2924564903891,-15.9,87.9774002688434));
#674=CARTESIAN_POINT('',(-23.4684961393821,-15.9,89.8033143357406));
#675=CARTESIAN_POINT('Origin',(-22.1928282178948,-15.9,89.1139875960245));
#676=CARTESIAN_POINT('',(-23.5750899897463,-15.9,89.8927571962667));
#677=CARTESIAN_POINT('',(-23.5750899897459,-15.9,89.8927571962667));
#678=CARTESIAN_POINT('Origin',(-21.6827991357932,-15.9,89.7217737934311));
#679=CARTESIAN_POINT('',(-13.5253760654494,-15.9,81.4600459489525));
#680=CARTESIAN_POINT('',(-13.6319699158134,-15.9,81.5494888094784));
#681=CARTESIAN_POINT('',(-13.5253760654494,-15.9,81.4600459489525));
#682=CARTESIAN_POINT('',(-15.8080095648063,-15.9,83.3754028763757));
#683=CARTESIAN_POINT('Origin',(-14.5323416433188,-15.9,82.6860761366596));
#684=CARTESIAN_POINT('',(-15.9146455585562,-15.9,83.4648810994013));
#685=CARTESIAN_POINT('',(-15.8080095648063,-15.9,83.3754028763757));
#686=CARTESIAN_POINT('Origin',(-14.0223547046031,-15.9,83.2938976965658));
#687=CARTESIAN_POINT('Origin',(-18.959881353755,-13.9,85.2626769723585));
#688=CARTESIAN_POINT('',(-20.7428282178948,-13.9,89.1139875960245));
#689=CARTESIAN_POINT('Origin',(-22.1928282178948,-13.9,89.1139875960245));
#690=CARTESIAN_POINT('',(-13.0823416433188,-13.9,82.6860761366596));
#691=CARTESIAN_POINT('Origin',(-14.5323416433188,-13.9,82.6860761366596));
#692=CARTESIAN_POINT('Origin',(-13.6319699158134,-15.9,81.5494888094784));
#693=CARTESIAN_POINT('',(-13.5253760654494,-19.,81.4600459489525));
#694=CARTESIAN_POINT('',(-13.5253760654494,-15.9,81.4600459489525));
#695=CARTESIAN_POINT('',(-13.6319699158134,-19.,81.5494888094784));
#696=CARTESIAN_POINT('',(-13.5253760654494,-19.,81.4600459489525));
#697=CARTESIAN_POINT('',(-13.6319699158134,-15.9,81.5494888094784));
#698=CARTESIAN_POINT('Origin',(-14.5323416433188,-15.9,82.6860761366596));
#699=CARTESIAN_POINT('',(-13.0823416433188,-19.,82.6860761366596));
#700=CARTESIAN_POINT('Origin',(-14.5323416433188,-19.,82.6860761366596));
#701=CARTESIAN_POINT('',(-13.0823416433188,-15.9,82.6860761366596));
#702=CARTESIAN_POINT('',(-15.8080095648063,-19.,83.3754028763757));
#703=CARTESIAN_POINT('Origin',(-14.5323416433188,-19.,82.6860761366596));
#704=CARTESIAN_POINT('',(-15.8080095648063,-15.9,83.3754028763757));
#705=CARTESIAN_POINT('Origin',(-15.9146455585562,-15.9,83.4648810994013));
#706=CARTESIAN_POINT('',(-15.9146455585562,-19.,83.4648810994013));
#707=CARTESIAN_POINT('',(-15.8080095648063,-19.,83.3754028763757));
#708=CARTESIAN_POINT('',(-15.9146455585562,-15.9,83.4648810994013));
#709=CARTESIAN_POINT('Origin',(-14.0223547046031,-15.9,83.2938976965658));
#710=CARTESIAN_POINT('Origin',(-14.0223547046031,-19.,83.2938976965658));
#711=CARTESIAN_POINT('Origin',(-14.0185001315796,-19.,83.3269718227591));
#712=CARTESIAN_POINT('Origin',(-22.1928282178948,-15.9,89.1139875960245));
#713=CARTESIAN_POINT('',(-21.2924564903891,-19.,87.9774002688434));
#714=CARTESIAN_POINT('',(-21.2924564903891,-15.9,87.9774002688434));
#715=CARTESIAN_POINT('',(-20.7428282178948,-19.,89.1139875960245));
#716=CARTESIAN_POINT('Origin',(-22.1928282178948,-19.,89.1139875960245));
#717=CARTESIAN_POINT('',(-20.7428282178948,-15.9,89.1139875960245));
#718=CARTESIAN_POINT('',(-23.4684961393821,-19.,89.8033143357406));
#719=CARTESIAN_POINT('Origin',(-22.1928282178948,-19.,89.1139875960245));
#720=CARTESIAN_POINT('',(-23.4684961393821,-15.9,89.8033143357406));
#721=CARTESIAN_POINT('Origin',(-23.5750899897459,-15.9,89.8927571962667));
#722=CARTESIAN_POINT('',(-23.5750899897463,-19.,89.8927571962667));
#723=CARTESIAN_POINT('',(-23.5750899897459,-19.,89.8927571962667));
#724=CARTESIAN_POINT('',(-23.5750899897463,-15.9,89.8927571962667));
#725=CARTESIAN_POINT('Origin',(-21.6827991357932,-15.9,89.7217737934311));
#726=CARTESIAN_POINT('',(-21.1858204966393,-19.,87.8879220458177));
#727=CARTESIAN_POINT('Origin',(-21.6827991357932,-19.,89.7217737934311));
#728=CARTESIAN_POINT('',(-21.1858204966393,-15.9,87.8879220458177));
#729=CARTESIAN_POINT('Origin',(-21.2924564903891,-15.9,87.9774002688434));
#730=CARTESIAN_POINT('',(-21.2924564903891,-19.,87.9774002688434));
#731=CARTESIAN_POINT('Origin',(-21.6789445627698,-19.,89.7548479196244));
#732=UNCERTAINTY_MEASURE_WITH_UNIT(LENGTH_MEASURE(0.01),#736,
'DISTANCE_ACCURACY_VALUE',
'Maximum model space distance between geometric entities at asserted c
onnectivities');
#733=UNCERTAINTY_MEASURE_WITH_UNIT(LENGTH_MEASURE(0.01),#736,
'DISTANCE_ACCURACY_VALUE',
'Maximum model space distance between geometric entities at asserted c
onnectivities');
#734=(
GEOMETRIC_REPRESENTATION_CONTEXT(3)
GLOBAL_UNCERTAINTY_ASSIGNED_CONTEXT((#732))
GLOBAL_UNIT_ASSIGNED_CONTEXT((#736,#738,#739))
REPRESENTATION_CONTEXT('','3D')
);
#735=(
GEOMETRIC_REPRESENTATION_CONTEXT(3)
GLOBAL_UNCERTAINTY_ASSIGNED_CONTEXT((#733))
GLOBAL_UNIT_ASSIGNED_CONTEXT((#736,#738,#739))
REPRESENTATION_CONTEXT('','3D')
);
#736=(
LENGTH_UNIT()
NAMED_UNIT(*)
SI_UNIT(.MILLI.,.METRE.)
);
#737=(
LENGTH_UNIT()
NAMED_UNIT(*)
SI_UNIT($,.METRE.)
);
#738=(
NAMED_UNIT(*)
PLANE_ANGLE_UNIT()
SI_UNIT($,.RADIAN.)
);
#739=(
NAMED_UNIT(*)
SI_UNIT($,.STERADIAN.)
SOLID_ANGLE_UNIT()
);
#740=SHAPE_DEFINITION_REPRESENTATION(#741,#742);
#741=PRODUCT_DEFINITION_SHAPE('',$,#744);
#742=SHAPE_REPRESENTATION('',(#448),#734);
#743=PRODUCT_DEFINITION_CONTEXT('part definition',#748,'design');
#744=PRODUCT_DEFINITION('(Unsaved)','(Unsaved)',#745,#743);
#745=PRODUCT_DEFINITION_FORMATION('',$,#750);
#746=PRODUCT_RELATED_PRODUCT_CATEGORY('(Unsaved)','(Unsaved)',(#750));
#747=APPLICATION_PROTOCOL_DEFINITION('international standard',
'automotive_design',2009,#748);
#748=APPLICATION_CONTEXT(
'Core Data for Automotive Mechanical Design Process');
#749=PRODUCT_CONTEXT('part definition',#748,'mechanical');
#750=PRODUCT('(Unsaved)','(Unsaved)',$,(#749));
#751=PRESENTATION_STYLE_ASSIGNMENT((#752));
#752=SURFACE_STYLE_USAGE(.BOTH.,#753);
#753=SURFACE_SIDE_STYLE('',(#754));
#754=SURFACE_STYLE_FILL_AREA(#755);
#755=FILL_AREA_STYLE('Steel - Satin',(#756));
#756=FILL_AREA_STYLE_COLOUR('Steel - Satin',#757);
#757=COLOUR_RGB('Steel - Satin',0.627450980392157,0.627450980392157,0.627450980392157);
ENDSEC;
END-ISO-10303-21;
