ISO-10303-21;
HEADER;
/* Generated by software containing ST-Developer
 * from STEP Tools, Inc. (www.steptools.com) 
 */

FILE_DESCRIPTION(
/* description */ (''),
/* implementation_level */ '2;1');

FILE_NAME(
/* name */ 'friction-adjuster-x18.step',
/* time_stamp */ '2026-09-30T23:19:23+03:00',
/* author */ (''),
/* organization */ (''),
/* preprocessor_version */ 'ST-DEVELOPER v20.1',
/* originating_system */ 'Autodesk Translation Framework v15.8.0.0',
/* authorisation */ '');

FILE_SCHEMA (('AUTOMOTIVE_DESIGN { 1 0 10303 214 3 1 1 }'));
ENDSEC;

DATA;
#10=MECHANICAL_DESIGN_GEOMETRIC_PRESENTATION_REPRESENTATION('',(#13),#711);
#11=SHAPE_REPRESENTATION_RELATIONSHIP('SRR','None',#718,#12);
#12=ADVANCED_BREP_SHAPE_REPRESENTATION('',(#14),#710);
#13=STYLED_ITEM('',(#727),#14);
#14=MANIFOLD_SOLID_BREP('friction-adjuster-x18',#426);
#15=CYLINDRICAL_SURFACE('',#459,1.15);
#16=CYLINDRICAL_SURFACE('',#467,6.5);
#17=CYLINDRICAL_SURFACE('',#472,10.5);
#18=CONICAL_SURFACE('',#454,1.65,0.78539816339745);
#19=CONICAL_SURFACE('',#464,6.,0.78539816339745);
#20=CONICAL_SURFACE('',#470,10.,0.78539816339745);
#21=FACE_BOUND('',#73,.T.);
#22=FACE_BOUND('',#76,.T.);
#23=FACE_BOUND('',#85,.T.);
#24=FACE_BOUND('',#89,.T.);
#25=CIRCLE('',#453,1.15);
#26=CIRCLE('',#455,2.15);
#27=CIRCLE('',#456,1.15);
#28=CIRCLE('',#458,9.5);
#29=CIRCLE('',#465,5.5);
#30=CIRCLE('',#466,6.5);
#31=CIRCLE('',#468,6.5);
#32=CIRCLE('',#471,10.5);
#33=CIRCLE('',#473,10.5);
#34=FACE_OUTER_BOUND('',#60,.T.);
#35=FACE_OUTER_BOUND('',#61,.T.);
#36=FACE_OUTER_BOUND('',#62,.T.);
#37=FACE_OUTER_BOUND('',#63,.T.);
#38=FACE_OUTER_BOUND('',#64,.T.);
#39=FACE_OUTER_BOUND('',#65,.T.);
#40=FACE_OUTER_BOUND('',#66,.T.);
#41=FACE_OUTER_BOUND('',#67,.T.);
#42=FACE_OUTER_BOUND('',#68,.T.);
#43=FACE_OUTER_BOUND('',#69,.T.);
#44=FACE_OUTER_BOUND('',#70,.T.);
#45=FACE_OUTER_BOUND('',#71,.T.);
#46=FACE_OUTER_BOUND('',#72,.T.);
#47=FACE_OUTER_BOUND('',#74,.T.);
#48=FACE_OUTER_BOUND('',#75,.T.);
#49=FACE_OUTER_BOUND('',#77,.T.);
#50=FACE_OUTER_BOUND('',#78,.T.);
#51=FACE_OUTER_BOUND('',#79,.T.);
#52=FACE_OUTER_BOUND('',#80,.T.);
#53=FACE_OUTER_BOUND('',#81,.T.);
#54=FACE_OUTER_BOUND('',#82,.T.);
#55=FACE_OUTER_BOUND('',#83,.T.);
#56=FACE_OUTER_BOUND('',#84,.T.);
#57=FACE_OUTER_BOUND('',#86,.T.);
#58=FACE_OUTER_BOUND('',#87,.T.);
#59=FACE_OUTER_BOUND('',#88,.T.);
#60=EDGE_LOOP('',(#270,#271,#272,#273));
#61=EDGE_LOOP('',(#274,#275,#276,#277));
#62=EDGE_LOOP('',(#278,#279,#280,#281));
#63=EDGE_LOOP('',(#282,#283,#284,#285));
#64=EDGE_LOOP('',(#286,#287,#288,#289));
#65=EDGE_LOOP('',(#290,#291,#292,#293));
#66=EDGE_LOOP('',(#294,#295,#296,#297));
#67=EDGE_LOOP('',(#298,#299,#300,#301));
#68=EDGE_LOOP('',(#302,#303,#304,#305));
#69=EDGE_LOOP('',(#306,#307,#308,#309));
#70=EDGE_LOOP('',(#310,#311,#312,#313));
#71=EDGE_LOOP('',(#314,#315,#316,#317));
#72=EDGE_LOOP('',(#318,#319,#320,#321,#322,#323,#324,#325));
#73=EDGE_LOOP('',(#326));
#74=EDGE_LOOP('',(#327,#328,#329,#330));
#75=EDGE_LOOP('',(#331));
#76=EDGE_LOOP('',(#332));
#77=EDGE_LOOP('',(#333,#334,#335,#336));
#78=EDGE_LOOP('',(#337,#338,#339,#340));
#79=EDGE_LOOP('',(#341,#342,#343,#344));
#80=EDGE_LOOP('',(#345,#346,#347,#348));
#81=EDGE_LOOP('',(#349,#350,#351,#352));
#82=EDGE_LOOP('',(#353,#354,#355,#356));
#83=EDGE_LOOP('',(#357,#358,#359,#360));
#84=EDGE_LOOP('',(#361));
#85=EDGE_LOOP('',(#362,#363,#364,#365,#366,#367,#368,#369));
#86=EDGE_LOOP('',(#370,#371,#372,#373));
#87=EDGE_LOOP('',(#374,#375,#376,#377));
#88=EDGE_LOOP('',(#378));
#89=EDGE_LOOP('',(#379));
#90=LINE('',#597,#136);
#91=LINE('',#599,#137);
#92=LINE('',#601,#138);
#93=LINE('',#602,#139);
#94=LINE('',#605,#140);
#95=LINE('',#607,#141);
#96=LINE('',#608,#142);
#97=LINE('',#611,#143);
#98=LINE('',#613,#144);
#99=LINE('',#614,#145);
#100=LINE('',#617,#146);
#101=LINE('',#619,#147);
#102=LINE('',#620,#148);
#103=LINE('',#623,#149);
#104=LINE('',#625,#150);
#105=LINE('',#626,#151);
#106=LINE('',#629,#152);
#107=LINE('',#631,#153);
#108=LINE('',#632,#154);
#109=LINE('',#635,#155);
#110=LINE('',#637,#156);
#111=LINE('',#638,#157);
#112=LINE('',#640,#158);
#113=LINE('',#641,#159);
#114=LINE('',#644,#160);
#115=LINE('',#646,#161);
#116=LINE('',#647,#162);
#117=LINE('',#650,#163);
#118=LINE('',#651,#164);
#119=LINE('',#654,#165);
#120=LINE('',#655,#166);
#121=LINE('',#658,#167);
#122=LINE('',#659,#168);
#123=LINE('',#667,#169);
#124=LINE('',#673,#170);
#125=LINE('',#676,#171);
#126=LINE('',#677,#172);
#127=LINE('',#680,#173);
#128=LINE('',#681,#174);
#129=LINE('',#684,#175);
#130=LINE('',#685,#176);
#131=LINE('',#687,#177);
#132=LINE('',#692,#178);
#133=LINE('',#696,#179);
#134=LINE('',#701,#180);
#135=LINE('',#705,#181);
#136=VECTOR('',#479,10.);
#137=VECTOR('',#480,10.);
#138=VECTOR('',#481,10.);
#139=VECTOR('',#482,10.);
#140=VECTOR('',#485,10.);
#141=VECTOR('',#486,10.);
#142=VECTOR('',#487,10.);
#143=VECTOR('',#490,10.);
#144=VECTOR('',#491,10.);
#145=VECTOR('',#492,10.);
#146=VECTOR('',#495,10.);
#147=VECTOR('',#496,10.);
#148=VECTOR('',#497,10.);
#149=VECTOR('',#500,10.);
#150=VECTOR('',#501,10.);
#151=VECTOR('',#502,10.);
#152=VECTOR('',#505,10.);
#153=VECTOR('',#506,10.);
#154=VECTOR('',#507,10.);
#155=VECTOR('',#510,10.);
#156=VECTOR('',#511,10.);
#157=VECTOR('',#512,10.);
#158=VECTOR('',#515,10.);
#159=VECTOR('',#516,10.);
#160=VECTOR('',#519,10.);
#161=VECTOR('',#520,10.);
#162=VECTOR('',#521,10.);
#163=VECTOR('',#524,10.);
#164=VECTOR('',#525,10.);
#165=VECTOR('',#528,10.);
#166=VECTOR('',#529,10.);
#167=VECTOR('',#532,10.);
#168=VECTOR('',#533,10.);
#169=VECTOR('',#542,1.65);
#170=VECTOR('',#551,1.15);
#171=VECTOR('',#554,10.);
#172=VECTOR('',#555,10.);
#173=VECTOR('',#558,10.);
#174=VECTOR('',#559,10.);
#175=VECTOR('',#562,10.);
#176=VECTOR('',#563,10.);
#177=VECTOR('',#566,10.);
#178=VECTOR('',#571,6.);
#179=VECTOR('',#576,6.5);
#180=VECTOR('',#583,10.);
#181=VECTOR('',#588,10.5);
#182=VERTEX_POINT('',#595);
#183=VERTEX_POINT('',#596);
#184=VERTEX_POINT('',#598);
#185=VERTEX_POINT('',#600);
#186=VERTEX_POINT('',#604);
#187=VERTEX_POINT('',#606);
#188=VERTEX_POINT('',#610);
#189=VERTEX_POINT('',#612);
#190=VERTEX_POINT('',#616);
#191=VERTEX_POINT('',#618);
#192=VERTEX_POINT('',#622);
#193=VERTEX_POINT('',#624);
#194=VERTEX_POINT('',#628);
#195=VERTEX_POINT('',#630);
#196=VERTEX_POINT('',#634);
#197=VERTEX_POINT('',#636);
#198=VERTEX_POINT('',#643);
#199=VERTEX_POINT('',#645);
#200=VERTEX_POINT('',#649);
#201=VERTEX_POINT('',#653);
#202=VERTEX_POINT('',#657);
#203=VERTEX_POINT('',#661);
#204=VERTEX_POINT('',#664);
#205=VERTEX_POINT('',#666);
#206=VERTEX_POINT('',#670);
#207=VERTEX_POINT('',#675);
#208=VERTEX_POINT('',#679);
#209=VERTEX_POINT('',#683);
#210=VERTEX_POINT('',#689);
#211=VERTEX_POINT('',#691);
#212=VERTEX_POINT('',#695);
#213=VERTEX_POINT('',#700);
#214=VERTEX_POINT('',#704);
#215=EDGE_CURVE('',#182,#183,#90,.T.);
#216=EDGE_CURVE('',#183,#184,#91,.T.);
#217=EDGE_CURVE('',#184,#185,#92,.T.);
#218=EDGE_CURVE('',#182,#185,#93,.T.);
#219=EDGE_CURVE('',#183,#186,#94,.T.);
#220=EDGE_CURVE('',#186,#187,#95,.T.);
#221=EDGE_CURVE('',#187,#184,#96,.T.);
#222=EDGE_CURVE('',#186,#188,#97,.T.);
#223=EDGE_CURVE('',#188,#189,#98,.T.);
#224=EDGE_CURVE('',#189,#187,#99,.T.);
#225=EDGE_CURVE('',#188,#190,#100,.T.);
#226=EDGE_CURVE('',#190,#191,#101,.T.);
#227=EDGE_CURVE('',#191,#189,#102,.T.);
#228=EDGE_CURVE('',#190,#192,#103,.T.);
#229=EDGE_CURVE('',#192,#193,#104,.T.);
#230=EDGE_CURVE('',#193,#191,#105,.T.);
#231=EDGE_CURVE('',#194,#193,#106,.T.);
#232=EDGE_CURVE('',#192,#195,#107,.T.);
#233=EDGE_CURVE('',#195,#194,#108,.T.);
#234=EDGE_CURVE('',#196,#194,#109,.T.);
#235=EDGE_CURVE('',#195,#197,#110,.T.);
#236=EDGE_CURVE('',#197,#196,#111,.T.);
#237=EDGE_CURVE('',#185,#196,#112,.T.);
#238=EDGE_CURVE('',#197,#182,#113,.T.);
#239=EDGE_CURVE('',#194,#198,#114,.T.);
#240=EDGE_CURVE('',#198,#199,#115,.F.);
#241=EDGE_CURVE('',#199,#193,#116,.T.);
#242=EDGE_CURVE('',#200,#196,#117,.T.);
#243=EDGE_CURVE('',#198,#200,#118,.T.);
#244=EDGE_CURVE('',#185,#201,#119,.T.);
#245=EDGE_CURVE('',#201,#200,#120,.F.);
#246=EDGE_CURVE('',#202,#184,#121,.T.);
#247=EDGE_CURVE('',#201,#202,#122,.T.);
#248=EDGE_CURVE('',#203,#203,#25,.T.);
#249=EDGE_CURVE('',#204,#204,#26,.T.);
#250=EDGE_CURVE('',#204,#205,#123,.T.);
#251=EDGE_CURVE('',#205,#205,#27,.T.);
#252=EDGE_CURVE('',#206,#206,#28,.T.);
#253=EDGE_CURVE('',#205,#203,#124,.T.);
#254=EDGE_CURVE('',#207,#199,#125,.T.);
#255=EDGE_CURVE('',#191,#207,#126,.T.);
#256=EDGE_CURVE('',#207,#208,#127,.F.);
#257=EDGE_CURVE('',#208,#189,#128,.T.);
#258=EDGE_CURVE('',#187,#209,#129,.T.);
#259=EDGE_CURVE('',#209,#202,#130,.F.);
#260=EDGE_CURVE('',#209,#208,#131,.T.);
#261=EDGE_CURVE('',#210,#210,#29,.T.);
#262=EDGE_CURVE('',#210,#211,#132,.T.);
#263=EDGE_CURVE('',#211,#211,#30,.T.);
#264=EDGE_CURVE('',#211,#212,#133,.T.);
#265=EDGE_CURVE('',#212,#212,#31,.T.);
#266=EDGE_CURVE('',#206,#213,#134,.T.);
#267=EDGE_CURVE('',#213,#213,#32,.T.);
#268=EDGE_CURVE('',#213,#214,#135,.T.);
#269=EDGE_CURVE('',#214,#214,#33,.T.);
#270=ORIENTED_EDGE('',*,*,#215,.T.);
#271=ORIENTED_EDGE('',*,*,#216,.T.);
#272=ORIENTED_EDGE('',*,*,#217,.T.);
#273=ORIENTED_EDGE('',*,*,#218,.F.);
#274=ORIENTED_EDGE('',*,*,#219,.T.);
#275=ORIENTED_EDGE('',*,*,#220,.T.);
#276=ORIENTED_EDGE('',*,*,#221,.T.);
#277=ORIENTED_EDGE('',*,*,#216,.F.);
#278=ORIENTED_EDGE('',*,*,#222,.T.);
#279=ORIENTED_EDGE('',*,*,#223,.T.);
#280=ORIENTED_EDGE('',*,*,#224,.T.);
#281=ORIENTED_EDGE('',*,*,#220,.F.);
#282=ORIENTED_EDGE('',*,*,#225,.T.);
#283=ORIENTED_EDGE('',*,*,#226,.T.);
#284=ORIENTED_EDGE('',*,*,#227,.T.);
#285=ORIENTED_EDGE('',*,*,#223,.F.);
#286=ORIENTED_EDGE('',*,*,#228,.T.);
#287=ORIENTED_EDGE('',*,*,#229,.T.);
#288=ORIENTED_EDGE('',*,*,#230,.T.);
#289=ORIENTED_EDGE('',*,*,#226,.F.);
#290=ORIENTED_EDGE('',*,*,#231,.T.);
#291=ORIENTED_EDGE('',*,*,#229,.F.);
#292=ORIENTED_EDGE('',*,*,#232,.T.);
#293=ORIENTED_EDGE('',*,*,#233,.T.);
#294=ORIENTED_EDGE('',*,*,#234,.T.);
#295=ORIENTED_EDGE('',*,*,#233,.F.);
#296=ORIENTED_EDGE('',*,*,#235,.T.);
#297=ORIENTED_EDGE('',*,*,#236,.T.);
#298=ORIENTED_EDGE('',*,*,#237,.T.);
#299=ORIENTED_EDGE('',*,*,#236,.F.);
#300=ORIENTED_EDGE('',*,*,#238,.T.);
#301=ORIENTED_EDGE('',*,*,#218,.T.);
#302=ORIENTED_EDGE('',*,*,#231,.F.);
#303=ORIENTED_EDGE('',*,*,#239,.T.);
#304=ORIENTED_EDGE('',*,*,#240,.T.);
#305=ORIENTED_EDGE('',*,*,#241,.T.);
#306=ORIENTED_EDGE('',*,*,#234,.F.);
#307=ORIENTED_EDGE('',*,*,#242,.F.);
#308=ORIENTED_EDGE('',*,*,#243,.F.);
#309=ORIENTED_EDGE('',*,*,#239,.F.);
#310=ORIENTED_EDGE('',*,*,#237,.F.);
#311=ORIENTED_EDGE('',*,*,#244,.T.);
#312=ORIENTED_EDGE('',*,*,#245,.T.);
#313=ORIENTED_EDGE('',*,*,#242,.T.);
#314=ORIENTED_EDGE('',*,*,#217,.F.);
#315=ORIENTED_EDGE('',*,*,#246,.F.);
#316=ORIENTED_EDGE('',*,*,#247,.F.);
#317=ORIENTED_EDGE('',*,*,#244,.F.);
#318=ORIENTED_EDGE('',*,*,#215,.F.);
#319=ORIENTED_EDGE('',*,*,#238,.F.);
#320=ORIENTED_EDGE('',*,*,#235,.F.);
#321=ORIENTED_EDGE('',*,*,#232,.F.);
#322=ORIENTED_EDGE('',*,*,#228,.F.);
#323=ORIENTED_EDGE('',*,*,#225,.F.);
#324=ORIENTED_EDGE('',*,*,#222,.F.);
#325=ORIENTED_EDGE('',*,*,#219,.F.);
#326=ORIENTED_EDGE('',*,*,#248,.T.);
#327=ORIENTED_EDGE('',*,*,#249,.T.);
#328=ORIENTED_EDGE('',*,*,#250,.T.);
#329=ORIENTED_EDGE('',*,*,#251,.T.);
#330=ORIENTED_EDGE('',*,*,#250,.F.);
#331=ORIENTED_EDGE('',*,*,#252,.F.);
#332=ORIENTED_EDGE('',*,*,#249,.F.);
#333=ORIENTED_EDGE('',*,*,#251,.F.);
#334=ORIENTED_EDGE('',*,*,#253,.T.);
#335=ORIENTED_EDGE('',*,*,#248,.F.);
#336=ORIENTED_EDGE('',*,*,#253,.F.);
#337=ORIENTED_EDGE('',*,*,#230,.F.);
#338=ORIENTED_EDGE('',*,*,#241,.F.);
#339=ORIENTED_EDGE('',*,*,#254,.F.);
#340=ORIENTED_EDGE('',*,*,#255,.F.);
#341=ORIENTED_EDGE('',*,*,#227,.F.);
#342=ORIENTED_EDGE('',*,*,#255,.T.);
#343=ORIENTED_EDGE('',*,*,#256,.T.);
#344=ORIENTED_EDGE('',*,*,#257,.T.);
#345=ORIENTED_EDGE('',*,*,#221,.F.);
#346=ORIENTED_EDGE('',*,*,#258,.T.);
#347=ORIENTED_EDGE('',*,*,#259,.T.);
#348=ORIENTED_EDGE('',*,*,#246,.T.);
#349=ORIENTED_EDGE('',*,*,#224,.F.);
#350=ORIENTED_EDGE('',*,*,#257,.F.);
#351=ORIENTED_EDGE('',*,*,#260,.F.);
#352=ORIENTED_EDGE('',*,*,#258,.F.);
#353=ORIENTED_EDGE('',*,*,#261,.T.);
#354=ORIENTED_EDGE('',*,*,#262,.T.);
#355=ORIENTED_EDGE('',*,*,#263,.T.);
#356=ORIENTED_EDGE('',*,*,#262,.F.);
#357=ORIENTED_EDGE('',*,*,#263,.F.);
#358=ORIENTED_EDGE('',*,*,#264,.T.);
#359=ORIENTED_EDGE('',*,*,#265,.F.);
#360=ORIENTED_EDGE('',*,*,#264,.F.);
#361=ORIENTED_EDGE('',*,*,#261,.F.);
#362=ORIENTED_EDGE('',*,*,#254,.T.);
#363=ORIENTED_EDGE('',*,*,#240,.F.);
#364=ORIENTED_EDGE('',*,*,#243,.T.);
#365=ORIENTED_EDGE('',*,*,#245,.F.);
#366=ORIENTED_EDGE('',*,*,#247,.T.);
#367=ORIENTED_EDGE('',*,*,#259,.F.);
#368=ORIENTED_EDGE('',*,*,#260,.T.);
#369=ORIENTED_EDGE('',*,*,#256,.F.);
#370=ORIENTED_EDGE('',*,*,#252,.T.);
#371=ORIENTED_EDGE('',*,*,#266,.T.);
#372=ORIENTED_EDGE('',*,*,#267,.T.);
#373=ORIENTED_EDGE('',*,*,#266,.F.);
#374=ORIENTED_EDGE('',*,*,#267,.F.);
#375=ORIENTED_EDGE('',*,*,#268,.T.);
#376=ORIENTED_EDGE('',*,*,#269,.F.);
#377=ORIENTED_EDGE('',*,*,#268,.F.);
#378=ORIENTED_EDGE('',*,*,#269,.T.);
#379=ORIENTED_EDGE('',*,*,#265,.T.);
#380=PLANE('',#440);
#381=PLANE('',#441);
#382=PLANE('',#442);
#383=PLANE('',#443);
#384=PLANE('',#444);
#385=PLANE('',#445);
#386=PLANE('',#446);
#387=PLANE('',#447);
#388=PLANE('',#448);
#389=PLANE('',#449);
#390=PLANE('',#450);
#391=PLANE('',#451);
#392=PLANE('',#452);
#393=PLANE('',#457);
#394=PLANE('',#460);
#395=PLANE('',#461);
#396=PLANE('',#462);
#397=PLANE('',#463);
#398=PLANE('',#469);
#399=PLANE('',#474);
#400=ADVANCED_FACE('',(#34),#380,.T.);
#401=ADVANCED_FACE('',(#35),#381,.T.);
#402=ADVANCED_FACE('',(#36),#382,.T.);
#403=ADVANCED_FACE('',(#37),#383,.T.);
#404=ADVANCED_FACE('',(#38),#384,.T.);
#405=ADVANCED_FACE('',(#39),#385,.T.);
#406=ADVANCED_FACE('',(#40),#386,.T.);
#407=ADVANCED_FACE('',(#41),#387,.T.);
#408=ADVANCED_FACE('',(#42),#388,.T.);
#409=ADVANCED_FACE('',(#43),#389,.T.);
#410=ADVANCED_FACE('',(#44),#390,.T.);
#411=ADVANCED_FACE('',(#45),#391,.T.);
#412=ADVANCED_FACE('',(#46,#21),#392,.T.);
#413=ADVANCED_FACE('',(#47),#18,.F.);
#414=ADVANCED_FACE('',(#48,#22),#393,.F.);
#415=ADVANCED_FACE('',(#49),#15,.F.);
#416=ADVANCED_FACE('',(#50),#394,.T.);
#417=ADVANCED_FACE('',(#51),#395,.T.);
#418=ADVANCED_FACE('',(#52),#396,.T.);
#419=ADVANCED_FACE('',(#53),#397,.T.);
#420=ADVANCED_FACE('',(#54),#19,.T.);
#421=ADVANCED_FACE('',(#55),#16,.T.);
#422=ADVANCED_FACE('',(#56,#23),#398,.T.);
#423=ADVANCED_FACE('',(#57),#20,.T.);
#424=ADVANCED_FACE('',(#58),#17,.T.);
#425=ADVANCED_FACE('',(#59,#24),#399,.T.);
#426=CLOSED_SHELL('',(#400,#401,#402,#403,#404,#405,#406,#407,#408,#409,
#410,#411,#412,#413,#414,#415,#416,#417,#418,#419,#420,#421,#422,#423,#424,
#425));
#427=DERIVED_UNIT_ELEMENT(#429,1.);
#428=DERIVED_UNIT_ELEMENT(#713,-3.);
#429=(
MASS_UNIT()
NAMED_UNIT(*)
SI_UNIT(.KILO.,.GRAM.)
);
#430=DERIVED_UNIT((#427,#428));
#431=MEASURE_REPRESENTATION_ITEM('density measure',
POSITIVE_RATIO_MEASURE(7850.),#430);
#432=PROPERTY_DEFINITION_REPRESENTATION(#437,#434);
#433=PROPERTY_DEFINITION_REPRESENTATION(#438,#435);
#434=REPRESENTATION('material name',(#436),#710);
#435=REPRESENTATION('density',(#431),#710);
#436=DESCRIPTIVE_REPRESENTATION_ITEM('Steel','Steel');
#437=PROPERTY_DEFINITION('material property','material name',#720);
#438=PROPERTY_DEFINITION('material property','density of part',#720);
#439=AXIS2_PLACEMENT_3D('',#593,#475,#476);
#440=AXIS2_PLACEMENT_3D('',#594,#477,#478);
#441=AXIS2_PLACEMENT_3D('',#603,#483,#484);
#442=AXIS2_PLACEMENT_3D('',#609,#488,#489);
#443=AXIS2_PLACEMENT_3D('',#615,#493,#494);
#444=AXIS2_PLACEMENT_3D('',#621,#498,#499);
#445=AXIS2_PLACEMENT_3D('',#627,#503,#504);
#446=AXIS2_PLACEMENT_3D('',#633,#508,#509);
#447=AXIS2_PLACEMENT_3D('',#639,#513,#514);
#448=AXIS2_PLACEMENT_3D('',#642,#517,#518);
#449=AXIS2_PLACEMENT_3D('',#648,#522,#523);
#450=AXIS2_PLACEMENT_3D('',#652,#526,#527);
#451=AXIS2_PLACEMENT_3D('',#656,#530,#531);
#452=AXIS2_PLACEMENT_3D('',#660,#534,#535);
#453=AXIS2_PLACEMENT_3D('',#662,#536,#537);
#454=AXIS2_PLACEMENT_3D('',#663,#538,#539);
#455=AXIS2_PLACEMENT_3D('',#665,#540,#541);
#456=AXIS2_PLACEMENT_3D('',#668,#543,#544);
#457=AXIS2_PLACEMENT_3D('',#669,#545,#546);
#458=AXIS2_PLACEMENT_3D('',#671,#547,#548);
#459=AXIS2_PLACEMENT_3D('',#672,#549,#550);
#460=AXIS2_PLACEMENT_3D('',#674,#552,#553);
#461=AXIS2_PLACEMENT_3D('',#678,#556,#557);
#462=AXIS2_PLACEMENT_3D('',#682,#560,#561);
#463=AXIS2_PLACEMENT_3D('',#686,#564,#565);
#464=AXIS2_PLACEMENT_3D('',#688,#567,#568);
#465=AXIS2_PLACEMENT_3D('',#690,#569,#570);
#466=AXIS2_PLACEMENT_3D('',#693,#572,#573);
#467=AXIS2_PLACEMENT_3D('',#694,#574,#575);
#468=AXIS2_PLACEMENT_3D('',#697,#577,#578);
#469=AXIS2_PLACEMENT_3D('',#698,#579,#580);
#470=AXIS2_PLACEMENT_3D('',#699,#581,#582);
#471=AXIS2_PLACEMENT_3D('',#702,#584,#585);
#472=AXIS2_PLACEMENT_3D('',#703,#586,#587);
#473=AXIS2_PLACEMENT_3D('',#706,#589,#590);
#474=AXIS2_PLACEMENT_3D('',#707,#591,#592);
#475=DIRECTION('axis',(0.,0.,1.));
#476=DIRECTION('refdir',(1.,0.,0.));
#477=DIRECTION('center_axis',(6.09026617109163E-16,0.70710678119006,0.707106781183035));
#478=DIRECTION('ref_axis',(1.,0.,-8.61293701766262E-16));
#479=DIRECTION('',(-1.,-1.26616616755496E-16,9.87910318523016E-16));
#480=DIRECTION('',(-0.281084637714824,-0.678598344542445,0.678598344549247));
#481=DIRECTION('',(1.,1.26616616755496E-16,-9.87910318523016E-16));
#482=DIRECTION('',(0.281084637714829,-0.678598344542445,0.678598344549246));
#483=DIRECTION('center_axis',(-0.499999999999988,0.707106781189056,0.499999999996464));
#484=DIRECTION('ref_axis',(0.707106781184056,0.,0.707106781189039));
#485=DIRECTION('',(-0.707106781186548,-3.52373791234521E-12,-0.707106781186547));
#486=DIRECTION('',(-0.678598344545863,-0.67859834454443,0.281084637718204));
#487=DIRECTION('',(0.707106781186548,3.52373791234521E-12,0.707106781186547));
#488=DIRECTION('center_axis',(-0.70710678118654,0.707106781186555,-3.52378143955987E-12));
#489=DIRECTION('ref_axis',(-4.98337950266421E-12,0.,1.));
#490=DIRECTION('',(1.88173394004264E-16,-4.98319132927009E-12,-1.));
#491=DIRECTION('',(-0.678598344545845,-0.678598344547248,-0.281084637711441));
#492=DIRECTION('',(-1.88173394004264E-16,4.98319132927009E-12,1.));
#493=DIRECTION('center_axis',(-0.500000000000012,0.707106781184038,-0.500000000003537));
#494=DIRECTION('ref_axis',(-0.70710678118904,0.,0.707106781184055));
#495=DIRECTION('',(0.707106781186549,-3.52355884940856E-12,-0.707106781186546));
#496=DIRECTION('',(-0.281084637714828,-0.678598344549202,-0.678598344542489));
#497=DIRECTION('',(-0.707106781186549,3.52355884940856E-12,0.707106781186546));
#498=DIRECTION('center_axis',(7.08820629313595E-16,0.70710678118305,-0.707106781190045));
#499=DIRECTION('ref_axis',(-1.,0.,-1.00242374726016E-15));
#500=DIRECTION('',(1.,1.26616616766045E-16,1.12904036402495E-15));
#501=DIRECTION('',(0.28108463771482,-0.678598344549217,-0.678598344542478));
#502=DIRECTION('',(-1.,-1.26616616766045E-16,-1.12904036402495E-15));
#503=DIRECTION('center_axis',(0.500000000000003,0.707106781184052,-0.500000000003527));
#504=DIRECTION('ref_axis',(-0.70710678118904,0.,-0.707106781184055));
#505=DIRECTION('',(-0.707106781186548,-3.52373791234521E-12,-0.707106781186547));
#506=DIRECTION('',(0.707106781186548,3.52373791234521E-12,0.707106781186547));
#507=DIRECTION('',(0.678598344545861,-0.678598344547232,-0.281084637711443));
#508=DIRECTION('center_axis',(0.70710678118654,0.707106781186555,-3.52444673297456E-12));
#509=DIRECTION('ref_axis',(-4.98432036963423E-12,0.,-1.));
#510=DIRECTION('',(-1.12904036402559E-15,-4.98319132927009E-12,-1.));
#511=DIRECTION('',(1.12904036402559E-15,4.98319132927009E-12,1.));
#512=DIRECTION('',(0.678598344545875,-0.678598344544414,0.281084637718213));
#513=DIRECTION('center_axis',(0.499999999999977,0.707106781189073,0.499999999996452));
#514=DIRECTION('ref_axis',(0.707106781184055,0.,-0.70710678118904));
#515=DIRECTION('',(0.707106781186547,-3.52355884940857E-12,-0.707106781186548));
#516=DIRECTION('',(-0.707106781186547,3.52355884940857E-12,0.707106781186548));
#517=DIRECTION('center_axis',(0.707106781186547,-3.5235818696224E-12,-0.707106781186548));
#518=DIRECTION('ref_axis',(-0.707106781186548,0.,-0.707106781186547));
#519=DIRECTION('',(1.38777878078145E-16,-1.,4.98323604603002E-12));
#520=DIRECTION('',(0.707106781186548,3.52373791234521E-12,0.707106781186547));
#521=DIRECTION('',(-1.38777878078145E-16,1.,-4.98323604603002E-12));
#522=DIRECTION('center_axis',(1.,1.38777878072518E-16,-1.12904036402628E-15));
#523=DIRECTION('ref_axis',(-1.12904036402559E-15,-4.98319132927009E-12,
-1.));
#524=DIRECTION('',(-1.38777878078145E-16,1.,-4.98323604603002E-12));
#525=DIRECTION('',(1.12904036402559E-15,4.98319132927009E-12,1.));
#526=DIRECTION('center_axis',(0.707106781186548,3.52377813117973E-12,0.707106781186547));
#527=DIRECTION('ref_axis',(0.707106781186547,0.,-0.707106781186548));
#528=DIRECTION('',(1.38777878078145E-16,-1.,4.98323604603002E-12));
#529=DIRECTION('',(-0.707106781186547,3.52355884940857E-12,0.707106781186548));
#530=DIRECTION('center_axis',(9.87910318522385E-16,4.98323604603002E-12,
1.));
#531=DIRECTION('ref_axis',(1.,1.26616616755496E-16,-9.87910318523016E-16));
#532=DIRECTION('',(-1.38777878078145E-16,1.,-4.98323604603002E-12));
#533=DIRECTION('',(-1.,-1.26616616755496E-16,9.87910318523016E-16));
#534=DIRECTION('center_axis',(-1.26616616760419E-16,1.,-4.98319132927009E-12));
#535=DIRECTION('ref_axis',(1.,1.26616616760419E-16,-6.30940812757081E-28));
#536=DIRECTION('center_axis',(1.26616616760419E-16,-1.,4.98319132927009E-12));
#537=DIRECTION('ref_axis',(1.,1.26616616760419E-16,-6.30940812757081E-28));
#538=DIRECTION('center_axis',(1.26616616755108E-16,-1.,4.98323604603003E-12));
#539=DIRECTION('ref_axis',(1.,1.30854632068111E-16,-6.52060197703889E-28));
#540=DIRECTION('center_axis',(1.26616616760419E-16,-1.,4.98319132927009E-12));
#541=DIRECTION('ref_axis',(1.,1.26616616760419E-16,-6.30941356569283E-28));
#542=DIRECTION('',(0.707106781186549,0.707106781186546,-3.52359340479544E-12));
#543=DIRECTION('center_axis',(-1.26616616760419E-16,1.,-4.98319132927009E-12));
#544=DIRECTION('ref_axis',(1.,1.38777878078144E-16,-6.9154324852076E-28));
#545=DIRECTION('center_axis',(-1.26616616760419E-16,1.,-4.98319132927009E-12));
#546=DIRECTION('ref_axis',(1.,1.26616616760419E-16,-6.30940812757081E-28));
#547=DIRECTION('center_axis',(-1.26616616760419E-16,1.,-4.98319132927009E-12));
#548=DIRECTION('ref_axis',(1.,1.26616616760419E-16,-6.30941356569283E-28));
#549=DIRECTION('center_axis',(1.38777878078144E-16,-1.,4.98323604603001E-12));
#550=DIRECTION('ref_axis',(1.,1.38777878078144E-16,-6.9154324852076E-28));
#551=DIRECTION('',(-1.38777878078144E-16,1.,-4.98323604603001E-12));
#552=DIRECTION('center_axis',(1.12904036402558E-15,-4.98323604603002E-12,
-1.));
#553=DIRECTION('ref_axis',(-1.,-1.26616616766045E-16,-1.12904036402495E-15));
#554=DIRECTION('',(1.,1.26616616766045E-16,1.12904036402495E-15));
#555=DIRECTION('',(1.38777878078145E-16,-1.,4.98323604603002E-12));
#556=DIRECTION('center_axis',(-0.707106781186546,-3.52377813117974E-12,
-0.707106781186549));
#557=DIRECTION('ref_axis',(-0.707106781186549,0.,0.707106781186546));
#558=DIRECTION('',(0.707106781186549,-3.52355884940856E-12,-0.707106781186546));
#559=DIRECTION('',(-1.38777878078145E-16,1.,-4.98323604603002E-12));
#560=DIRECTION('center_axis',(-0.707106781186547,3.5235818696224E-12,0.707106781186548));
#561=DIRECTION('ref_axis',(0.707106781186548,0.,0.707106781186547));
#562=DIRECTION('',(1.38777878078145E-16,-1.,4.98323604603002E-12));
#563=DIRECTION('',(-0.707106781186548,-3.52373791234521E-12,-0.707106781186547));
#564=DIRECTION('center_axis',(-1.,-1.38777878079082E-16,-1.88173394003572E-16));
#565=DIRECTION('ref_axis',(-1.88173394004264E-16,4.98319132927009E-12,1.));
#566=DIRECTION('',(1.88173394004264E-16,-4.98319132927009E-12,-1.));
#567=DIRECTION('center_axis',(1.26616616755108E-16,-1.,4.98323604603003E-12));
#568=DIRECTION('ref_axis',(1.,1.08146849765633E-16,-5.38907214664796E-28));
#569=DIRECTION('center_axis',(1.26616616760419E-16,-1.,4.98319132927009E-12));
#570=DIRECTION('ref_axis',(1.,1.26616616760419E-16,-6.30945597406853E-28));
#571=DIRECTION('',(-0.707106781186549,-0.707106781186546,3.52376659600669E-12));
#572=DIRECTION('center_axis',(-1.26616616760419E-16,1.,-4.98319132927009E-12));
#573=DIRECTION('ref_axis',(1.,9.25185853854295E-17,-4.61028583113825E-28));
#574=DIRECTION('center_axis',(-9.25185853854295E-17,1.,-4.98305100885923E-12));
#575=DIRECTION('ref_axis',(1.,9.25185853854295E-17,-4.61028583113825E-28));
#576=DIRECTION('',(9.25185853854295E-17,-1.,4.98305100885923E-12));
#577=DIRECTION('center_axis',(1.26616616760419E-16,-1.,4.98319132927009E-12));
#578=DIRECTION('ref_axis',(1.,9.25185853854295E-17,-4.61028583113825E-28));
#579=DIRECTION('center_axis',(-1.26616616760419E-16,1.,-4.98319132927009E-12));
#580=DIRECTION('ref_axis',(1.,1.26616616760419E-16,-6.30940812757081E-28));
#581=DIRECTION('center_axis',(-1.26616616755108E-16,1.,-4.98323604603003E-12));
#582=DIRECTION('ref_axis',(1.,1.33001278952225E-16,-6.62757349843808E-28));
#583=DIRECTION('',(-0.707106781186549,0.707106781186546,-3.52376659600669E-12));
#584=DIRECTION('center_axis',(1.26616616760419E-16,-1.,4.98319132927009E-12));
#585=DIRECTION('ref_axis',(1.,1.38777878078144E-16,-6.9154324852076E-28));
#586=DIRECTION('center_axis',(1.38777878078144E-16,-1.,4.98323604603001E-12));
#587=DIRECTION('ref_axis',(1.,1.38777878078144E-16,-6.9154324852076E-28));
#588=DIRECTION('',(-1.38777878078144E-16,1.,-4.98323604603001E-12));
#589=DIRECTION('center_axis',(-1.26616616760419E-16,1.,-4.98319132927009E-12));
#590=DIRECTION('ref_axis',(1.,1.26616616760419E-16,-6.30940812757081E-28));
#591=DIRECTION('center_axis',(-1.26616616760419E-16,1.,-4.98319132927009E-12));
#592=DIRECTION('ref_axis',(1.,1.26616616760419E-16,-6.30940812757081E-28));
#593=CARTESIAN_POINT('',(0.,0.,0.));
#594=CARTESIAN_POINT('Origin',(-1.47499999986135,-48.4999999998929,-1.44999999988391));
#595=CARTESIAN_POINT('',(2.26715728766403,-48.3999999998934,-1.54999999988441));
#596=CARTESIAN_POINT('',(-2.26715728738674,-48.3999999998934,-1.5499999998844));
#597=CARTESIAN_POINT('',(-1.47499999986135,-48.3999999998934,-1.5499999998844));
#598=CARTESIAN_POINT('',(-2.34999999986136,-48.5999999998924,-1.34999999988341));
#599=CARTESIAN_POINT('',(-2.26715728738674,-48.3999999998934,-1.5499999998844));
#600=CARTESIAN_POINT('',(2.35000000013865,-48.5999999998924,-1.34999999988341));
#601=CARTESIAN_POINT('',(-1.47499999986135,-48.5999999998924,-1.34999999988341));
#602=CARTESIAN_POINT('',(2.26715728766403,-48.3999999998934,-1.54999999988441));
#603=CARTESIAN_POINT('Origin',(-2.5792893217427,-48.4999999998943,-1.72071067800256));
#604=CARTESIAN_POINT('',(-2.74999999986135,-48.3999999998958,-2.03284271235902));
#605=CARTESIAN_POINT('',(-2.50857864362405,-48.3999999998946,-1.79142135612171));
#606=CARTESIAN_POINT('',(-2.94999999986136,-48.5999999998954,-1.9499999998834));
#607=CARTESIAN_POINT('',(-2.74999999986135,-48.3999999998958,-2.03284271235902));
#608=CARTESIAN_POINT('',(-2.64999999986135,-48.5999999998939,-1.6499999998834));
#609=CARTESIAN_POINT('Origin',(-2.84999999986135,-48.4999999999145,-5.7749999998839));
#610=CARTESIAN_POINT('',(-2.74999999986135,-48.3999999999184,-6.56715728740978));
#611=CARTESIAN_POINT('',(-2.74999999986135,-48.3999999999145,-5.7749999998844));
#612=CARTESIAN_POINT('',(-2.94999999986135,-48.5999999999188,-6.64999999988341));
#613=CARTESIAN_POINT('',(-2.74999999986135,-48.3999999999184,-6.56715728740978));
#614=CARTESIAN_POINT('',(-2.94999999986135,-48.5999999999145,-5.7749999998834));
#615=CARTESIAN_POINT('Origin',(-2.5792893217427,-48.49999999992,-6.87928932176525));
#616=CARTESIAN_POINT('',(-2.26715728738673,-48.3999999999208,-7.0499999998844));
#617=CARTESIAN_POINT('',(-2.50857864362404,-48.3999999999196,-6.80857864364709));
#618=CARTESIAN_POINT('',(-2.34999999986135,-48.5999999999218,-7.2499999998834));
#619=CARTESIAN_POINT('',(-2.26715728738673,-48.3999999999208,-7.0499999998844));
#620=CARTESIAN_POINT('',(-2.64999999986135,-48.5999999999203,-6.94999999988341));
#621=CARTESIAN_POINT('Origin',(1.47500000013864,-48.4999999999213,-7.1499999998839));
#622=CARTESIAN_POINT('',(2.26715728766402,-48.3999999999208,-7.0499999998844));
#623=CARTESIAN_POINT('',(1.47500000013864,-48.3999999999208,-7.0499999998844));
#624=CARTESIAN_POINT('',(2.35000000013864,-48.5999999999218,-7.2499999998834));
#625=CARTESIAN_POINT('',(2.26715728766402,-48.3999999999208,-7.0499999998844));
#626=CARTESIAN_POINT('',(1.47500000013864,-48.5999999999218,-7.2499999998834));
#627=CARTESIAN_POINT('Origin',(2.57928932201998,-48.49999999992,-6.87928932176524));
#628=CARTESIAN_POINT('',(2.95000000013864,-48.5999999999188,-6.6499999998834));
#629=CARTESIAN_POINT('',(2.65000000013864,-48.5999999999203,-6.9499999998834));
#630=CARTESIAN_POINT('',(2.75000000013864,-48.3999999999184,-6.56715728740978));
#631=CARTESIAN_POINT('',(2.50857864390133,-48.3999999999196,-6.80857864364709));
#632=CARTESIAN_POINT('',(2.75000000013864,-48.3999999999184,-6.56715728740978));
#633=CARTESIAN_POINT('Origin',(2.85000000013864,-48.4999999998998,-2.82499999988391));
#634=CARTESIAN_POINT('',(2.95000000013864,-48.5999999998954,-1.94999999988341));
#635=CARTESIAN_POINT('',(2.95000000013864,-48.5999999998998,-2.82499999988341));
#636=CARTESIAN_POINT('',(2.75000000013864,-48.3999999998958,-2.03284271235903));
#637=CARTESIAN_POINT('',(2.75000000013864,-48.3999999998998,-2.82499999988441));
#638=CARTESIAN_POINT('',(2.75000000013864,-48.3999999998958,-2.03284271235903));
#639=CARTESIAN_POINT('Origin',(2.57928932201999,-48.4999999998943,-1.72071067800256));
#640=CARTESIAN_POINT('',(2.65000000013865,-48.5999999998939,-1.64999999988341));
#641=CARTESIAN_POINT('',(2.50857864390134,-48.3999999998946,-1.79142135612172));
#642=CARTESIAN_POINT('Origin',(2.65000000013864,-51.3999999999203,-6.94999999986945));
#643=CARTESIAN_POINT('',(2.95000000013864,-51.3999999999188,-6.64999999986945));
#644=CARTESIAN_POINT('',(2.95000000013864,-51.3999999999188,-6.64999999986945));
#645=CARTESIAN_POINT('',(2.35000000013864,-51.3999999999218,-7.24999999986944));
#646=CARTESIAN_POINT('',(2.65000000013864,-51.3999999999203,-6.94999999986945));
#647=CARTESIAN_POINT('',(2.35000000013864,-51.3999999999218,-7.24999999986945));
#648=CARTESIAN_POINT('Origin',(2.95000000013865,-51.3999999998924,-1.34999999986946));
#649=CARTESIAN_POINT('',(2.95000000013865,-51.3999999998954,-1.94999999986946));
#650=CARTESIAN_POINT('',(2.95000000013865,-51.3999999998954,-1.94999999986946));
#651=CARTESIAN_POINT('',(2.95000000013864,-51.3999999998998,-2.82499999986945));
#652=CARTESIAN_POINT('Origin',(2.65000000013865,-51.3999999998939,-1.64999999986946));
#653=CARTESIAN_POINT('',(2.35000000013865,-51.3999999998924,-1.34999999986946));
#654=CARTESIAN_POINT('',(2.35000000013865,-51.3999999998924,-1.34999999986946));
#655=CARTESIAN_POINT('',(2.65000000013864,-51.3999999998939,-1.64999999986946));
#656=CARTESIAN_POINT('Origin',(-2.94999999986135,-51.3999999998924,-1.34999999986945));
#657=CARTESIAN_POINT('',(-2.34999999986135,-51.3999999998924,-1.34999999986945));
#658=CARTESIAN_POINT('',(-2.34999999986135,-51.3999999998924,-1.34999999986945));
#659=CARTESIAN_POINT('',(-1.47499999986135,-51.3999999998924,-1.34999999986945));
#660=CARTESIAN_POINT('Origin',(1.38645191960534E-10,-48.3999999999071,-4.2999999998844));
#661=CARTESIAN_POINT('',(-1.14999999986136,-48.3999999999071,-4.2999999998844));
#662=CARTESIAN_POINT('Origin',(1.38641722513582E-10,-48.3999999999071,-4.2999999998844));
#663=CARTESIAN_POINT('Origin',(1.38642530858328E-10,-54.3999999999071,-4.2999999998545));
#664=CARTESIAN_POINT('',(-2.14999999986136,-54.8999999999071,-4.29999999985201));
#665=CARTESIAN_POINT('Origin',(1.38642594166636E-10,-54.8999999999071,-4.29999999985201));
#666=CARTESIAN_POINT('',(-1.14999999986136,-53.8999999999071,-4.29999999985699));
#667=CARTESIAN_POINT('',(-1.64999999986136,-54.3999999999071,-4.2999999998545));
#668=CARTESIAN_POINT('Origin',(1.38642467550019E-10,-53.8999999999071,-4.29999999985699));
#669=CARTESIAN_POINT('Origin',(1.38643300217288E-10,-54.8999999999071,-4.29999999985201));
#670=CARTESIAN_POINT('',(-9.49999999986136,-54.8999999999071,-4.29999999985201));
#671=CARTESIAN_POINT('Origin',(1.38642732944514E-10,-54.8999999999071,-4.29999999985201));
#672=CARTESIAN_POINT('Origin',(1.38642328772141E-10,-52.8999999999071,-4.29999999986197));
#673=CARTESIAN_POINT('',(-1.14999999986136,-52.8999999999071,-4.29999999986197));
#674=CARTESIAN_POINT('Origin',(2.95000000013864,-51.3999999999218,-7.24999999986944));
#675=CARTESIAN_POINT('',(-2.34999999986135,-51.3999999999218,-7.24999999986945));
#676=CARTESIAN_POINT('',(1.47500000013864,-51.3999999999218,-7.24999999986945));
#677=CARTESIAN_POINT('',(-2.34999999986135,-51.3999999999218,-7.24999999986945));
#678=CARTESIAN_POINT('Origin',(-2.64999999986135,-51.3999999999203,-6.94999999986945));
#679=CARTESIAN_POINT('',(-2.94999999986135,-51.3999999999188,-6.64999999986945));
#680=CARTESIAN_POINT('',(-2.64999999986135,-51.3999999999203,-6.94999999986945));
#681=CARTESIAN_POINT('',(-2.94999999986135,-51.3999999999188,-6.64999999986945));
#682=CARTESIAN_POINT('Origin',(-2.64999999986135,-51.3999999998939,-1.64999999986945));
#683=CARTESIAN_POINT('',(-2.94999999986135,-51.3999999998954,-1.94999999986945));
#684=CARTESIAN_POINT('',(-2.94999999986135,-51.3999999998954,-1.94999999986945));
#685=CARTESIAN_POINT('',(-2.64999999986135,-51.3999999998939,-1.64999999986945));
#686=CARTESIAN_POINT('Origin',(-2.94999999986135,-51.3999999999218,-7.24999999986945));
#687=CARTESIAN_POINT('',(-2.94999999986135,-51.3999999999145,-5.77499999986945));
#688=CARTESIAN_POINT('Origin',(1.3864221920454E-10,-51.8999999999071,-4.29999999986696));
#689=CARTESIAN_POINT('',(-5.49999999986136,-51.3999999999071,-4.29999999986945));
#690=CARTESIAN_POINT('Origin',(1.38642155896232E-10,-51.3999999999071,-4.29999999986945));
#691=CARTESIAN_POINT('',(-6.49999999986136,-52.3999999999071,-4.29999999986446));
#692=CARTESIAN_POINT('',(-5.99999999986136,-51.8999999999071,-4.29999999986696));
#693=CARTESIAN_POINT('Origin',(1.38642282512848E-10,-52.3999999999071,-4.29999999986447));
#694=CARTESIAN_POINT('Origin',(1.38642328772141E-10,-52.8999999999071,-4.29999999986197));
#695=CARTESIAN_POINT('',(-6.49999999986136,-52.8999999999071,-4.29999999986197));
#696=CARTESIAN_POINT('',(-6.49999999986136,-52.8999999999071,-4.29999999986197));
#697=CARTESIAN_POINT('Origin',(1.38642328772141E-10,-52.8999999999071,-4.29999999986197));
#698=CARTESIAN_POINT('Origin',(1.38641773660629E-10,-51.3999999999071,-4.29999999986945));
#699=CARTESIAN_POINT('Origin',(1.38642669636206E-10,-54.3999999999071,-4.2999999998545));
#700=CARTESIAN_POINT('',(-10.4999999998614,-53.8999999999071,-4.29999999985699));
#701=CARTESIAN_POINT('',(-9.99999999986136,-54.3999999999071,-4.2999999998545));
#702=CARTESIAN_POINT('Origin',(1.38642606327897E-10,-53.8999999999071,-4.29999999985699));
#703=CARTESIAN_POINT('Origin',(1.38642467550019E-10,-52.8999999999071,-4.29999999986197));
#704=CARTESIAN_POINT('',(-10.4999999998614,-52.8999999999071,-4.29999999986197));
#705=CARTESIAN_POINT('',(-10.4999999998614,-52.8999999999071,-4.29999999986198));
#706=CARTESIAN_POINT('Origin',(1.38642467550019E-10,-52.8999999999071,-4.29999999986197));
#707=CARTESIAN_POINT('Origin',(1.38643022661531E-10,-52.8999999999071,-4.29999999986197));
#708=UNCERTAINTY_MEASURE_WITH_UNIT(LENGTH_MEASURE(0.01),#712,
'DISTANCE_ACCURACY_VALUE',
'Maximum model space distance between geometric entities at asserted c
onnectivities');
#709=UNCERTAINTY_MEASURE_WITH_UNIT(LENGTH_MEASURE(0.01),#712,
'DISTANCE_ACCURACY_VALUE',
'Maximum model space distance between geometric entities at asserted c
onnectivities');
#710=(
GEOMETRIC_REPRESENTATION_CONTEXT(3)
GLOBAL_UNCERTAINTY_ASSIGNED_CONTEXT((#708))
GLOBAL_UNIT_ASSIGNED_CONTEXT((#712,#714,#715))
REPRESENTATION_CONTEXT('','3D')
);
#711=(
GEOMETRIC_REPRESENTATION_CONTEXT(3)
GLOBAL_UNCERTAINTY_ASSIGNED_CONTEXT((#709))
GLOBAL_UNIT_ASSIGNED_CONTEXT((#712,#714,#715))
REPRESENTATION_CONTEXT('','3D')
);
#712=(
LENGTH_UNIT()
NAMED_UNIT(*)
SI_UNIT(.MILLI.,.METRE.)
);
#713=(
LENGTH_UNIT()
NAMED_UNIT(*)
SI_UNIT($,.METRE.)
);
#714=(
NAMED_UNIT(*)
PLANE_ANGLE_UNIT()
SI_UNIT($,.RADIAN.)
);
#715=(
NAMED_UNIT(*)
SI_UNIT($,.STERADIAN.)
SOLID_ANGLE_UNIT()
);
#716=SHAPE_DEFINITION_REPRESENTATION(#717,#718);
#717=PRODUCT_DEFINITION_SHAPE('',$,#720);
#718=SHAPE_REPRESENTATION('',(#439),#710);
#719=PRODUCT_DEFINITION_CONTEXT('part definition',#724,'design');
#720=PRODUCT_DEFINITION('(Unsaved)','(Unsaved)',#721,#719);
#721=PRODUCT_DEFINITION_FORMATION('',$,#726);
#722=PRODUCT_RELATED_PRODUCT_CATEGORY('(Unsaved)','(Unsaved)',(#726));
#723=APPLICATION_PROTOCOL_DEFINITION('international standard',
'automotive_design',2009,#724);
#724=APPLICATION_CONTEXT(
'Core Data for Automotive Mechanical Design Process');
#725=PRODUCT_CONTEXT('part definition',#724,'mechanical');
#726=PRODUCT('(Unsaved)','(Unsaved)',$,(#725));
#727=PRESENTATION_STYLE_ASSIGNMENT((#728));
#728=SURFACE_STYLE_USAGE(.BOTH.,#729);
#729=SURFACE_SIDE_STYLE('',(#730));
#730=SURFACE_STYLE_FILL_AREA(#731);
#731=FILL_AREA_STYLE('Steel - Satin',(#732));
#732=FILL_AREA_STYLE_COLOUR('Steel - Satin',#733);
#733=COLOUR_RGB('Steel - Satin',0.627450980392157,0.627450980392157,0.627450980392157);
ENDSEC;
END-ISO-10303-21;
