ISO-10303-21;
HEADER;
/* Generated by software containing ST-Developer
 * from STEP Tools, Inc. (www.steptools.com) 
 */

FILE_DESCRIPTION(
/* description */ (''),
/* implementation_level */ '2;1');

FILE_NAME(
/* name */ 'servo-shaft-x18.step',
/* time_stamp */ '2026-09-30T23:19:24+03:00',
/* author */ (''),
/* organization */ (''),
/* preprocessor_version */ 'ST-DEVELOPER v20.1',
/* originating_system */ 'Autodesk Translation Framework v15.8.0.0',
/* authorisation */ '');

FILE_SCHEMA (('AUTOMOTIVE_DESIGN { 1 0 10303 214 3 1 1 }'));
ENDSEC;

DATA;
#10=MECHANICAL_DESIGN_GEOMETRIC_PRESENTATION_REPRESENTATION('',(#13),#337);
#11=SHAPE_REPRESENTATION_RELATIONSHIP('SRR','None',#344,#12);
#12=ADVANCED_BREP_SHAPE_REPRESENTATION('',(#14),#336);
#13=STYLED_ITEM('',(#353),#14);
#14=MANIFOLD_SOLID_BREP('servo-shaft-x18',#194);
#15=CONICAL_SURFACE('',#214,5.75,0.785398163397448);
#16=FACE_BOUND('',#42,.T.);
#17=FACE_BOUND('',#48,.T.);
#18=FACE_BOUND('',#52,.T.);
#19=FACE_BOUND('',#54,.T.);
#20=PLANE('',#211);
#21=PLANE('',#212);
#22=PLANE('',#213);
#23=PLANE('',#219);
#24=PLANE('',#220);
#25=PLANE('',#221);
#26=PLANE('',#222);
#27=PLANE('',#224);
#28=FACE_OUTER_BOUND('',#40,.T.);
#29=FACE_OUTER_BOUND('',#41,.T.);
#30=FACE_OUTER_BOUND('',#43,.T.);
#31=FACE_OUTER_BOUND('',#44,.T.);
#32=FACE_OUTER_BOUND('',#45,.T.);
#33=FACE_OUTER_BOUND('',#46,.T.);
#34=FACE_OUTER_BOUND('',#47,.T.);
#35=FACE_OUTER_BOUND('',#49,.T.);
#36=FACE_OUTER_BOUND('',#50,.T.);
#37=FACE_OUTER_BOUND('',#51,.T.);
#38=FACE_OUTER_BOUND('',#53,.T.);
#39=FACE_OUTER_BOUND('',#55,.T.);
#40=EDGE_LOOP('',(#133,#134,#135,#136));
#41=EDGE_LOOP('',(#137,#138,#139,#140));
#42=EDGE_LOOP('',(#141));
#43=EDGE_LOOP('',(#142,#143,#144,#145));
#44=EDGE_LOOP('',(#146,#147,#148,#149));
#45=EDGE_LOOP('',(#150,#151,#152,#153));
#46=EDGE_LOOP('',(#154,#155,#156,#157));
#47=EDGE_LOOP('',(#158));
#48=EDGE_LOOP('',(#159,#160,#161,#162));
#49=EDGE_LOOP('',(#163,#164,#165,#166));
#50=EDGE_LOOP('',(#167,#168,#169,#170));
#51=EDGE_LOOP('',(#171));
#52=EDGE_LOOP('',(#172));
#53=EDGE_LOOP('',(#173));
#54=EDGE_LOOP('',(#174));
#55=EDGE_LOOP('',(#175,#176,#177,#178));
#56=LINE('',#288,#72);
#57=LINE('',#293,#73);
#58=LINE('',#295,#74);
#59=LINE('',#297,#75);
#60=LINE('',#298,#76);
#61=LINE('',#301,#77);
#62=LINE('',#303,#78);
#63=LINE('',#304,#79);
#64=LINE('',#307,#80);
#65=LINE('',#308,#81);
#66=LINE('',#313,#82);
#67=LINE('',#317,#83);
#68=LINE('',#321,#84);
#69=LINE('',#322,#85);
#70=LINE('',#324,#86);
#71=LINE('',#333,#87);
#72=VECTOR('',#233,1.6);
#73=VECTOR('',#238,10.);
#74=VECTOR('',#239,10.);
#75=VECTOR('',#240,10.);
#76=VECTOR('',#241,10.);
#77=VECTOR('',#244,10.);
#78=VECTOR('',#245,10.);
#79=VECTOR('',#246,10.);
#80=VECTOR('',#249,10.);
#81=VECTOR('',#250,10.);
#82=VECTOR('',#255,5.75);
#83=VECTOR('',#260,5.95);
#84=VECTOR('',#265,10.);
#85=VECTOR('',#266,10.);
#86=VECTOR('',#269,10.);
#87=VECTOR('',#282,7.25);
#88=CIRCLE('',#209,1.6);
#89=CIRCLE('',#210,1.6);
#90=CIRCLE('',#215,5.55);
#91=CIRCLE('',#216,5.95);
#92=CIRCLE('',#218,5.95);
#93=CIRCLE('',#223,7.25);
#94=CIRCLE('',#225,7.25);
#95=VERTEX_POINT('',#285);
#96=VERTEX_POINT('',#287);
#97=VERTEX_POINT('',#291);
#98=VERTEX_POINT('',#292);
#99=VERTEX_POINT('',#294);
#100=VERTEX_POINT('',#296);
#101=VERTEX_POINT('',#300);
#102=VERTEX_POINT('',#302);
#103=VERTEX_POINT('',#306);
#104=VERTEX_POINT('',#310);
#105=VERTEX_POINT('',#312);
#106=VERTEX_POINT('',#316);
#107=VERTEX_POINT('',#320);
#108=VERTEX_POINT('',#327);
#109=VERTEX_POINT('',#330);
#110=EDGE_CURVE('',#95,#95,#88,.T.);
#111=EDGE_CURVE('',#95,#96,#56,.T.);
#112=EDGE_CURVE('',#96,#96,#89,.T.);
#113=EDGE_CURVE('',#97,#98,#57,.T.);
#114=EDGE_CURVE('',#99,#97,#58,.T.);
#115=EDGE_CURVE('',#100,#99,#59,.T.);
#116=EDGE_CURVE('',#98,#100,#60,.T.);
#117=EDGE_CURVE('',#99,#101,#61,.T.);
#118=EDGE_CURVE('',#102,#101,#62,.T.);
#119=EDGE_CURVE('',#100,#102,#63,.T.);
#120=EDGE_CURVE('',#97,#103,#64,.T.);
#121=EDGE_CURVE('',#101,#103,#65,.T.);
#122=EDGE_CURVE('',#104,#104,#90,.T.);
#123=EDGE_CURVE('',#104,#105,#66,.T.);
#124=EDGE_CURVE('',#105,#105,#91,.T.);
#125=EDGE_CURVE('',#105,#106,#67,.T.);
#126=EDGE_CURVE('',#106,#106,#92,.T.);
#127=EDGE_CURVE('',#107,#102,#68,.T.);
#128=EDGE_CURVE('',#103,#107,#69,.T.);
#129=EDGE_CURVE('',#98,#107,#70,.T.);
#130=EDGE_CURVE('',#108,#108,#93,.T.);
#131=EDGE_CURVE('',#109,#109,#94,.T.);
#132=EDGE_CURVE('',#108,#109,#71,.T.);
#133=ORIENTED_EDGE('',*,*,#110,.F.);
#134=ORIENTED_EDGE('',*,*,#111,.T.);
#135=ORIENTED_EDGE('',*,*,#112,.F.);
#136=ORIENTED_EDGE('',*,*,#111,.F.);
#137=ORIENTED_EDGE('',*,*,#113,.F.);
#138=ORIENTED_EDGE('',*,*,#114,.F.);
#139=ORIENTED_EDGE('',*,*,#115,.F.);
#140=ORIENTED_EDGE('',*,*,#116,.F.);
#141=ORIENTED_EDGE('',*,*,#112,.T.);
#142=ORIENTED_EDGE('',*,*,#115,.T.);
#143=ORIENTED_EDGE('',*,*,#117,.T.);
#144=ORIENTED_EDGE('',*,*,#118,.F.);
#145=ORIENTED_EDGE('',*,*,#119,.F.);
#146=ORIENTED_EDGE('',*,*,#114,.T.);
#147=ORIENTED_EDGE('',*,*,#120,.T.);
#148=ORIENTED_EDGE('',*,*,#121,.F.);
#149=ORIENTED_EDGE('',*,*,#117,.F.);
#150=ORIENTED_EDGE('',*,*,#122,.T.);
#151=ORIENTED_EDGE('',*,*,#123,.T.);
#152=ORIENTED_EDGE('',*,*,#124,.T.);
#153=ORIENTED_EDGE('',*,*,#123,.F.);
#154=ORIENTED_EDGE('',*,*,#124,.F.);
#155=ORIENTED_EDGE('',*,*,#125,.T.);
#156=ORIENTED_EDGE('',*,*,#126,.F.);
#157=ORIENTED_EDGE('',*,*,#125,.F.);
#158=ORIENTED_EDGE('',*,*,#122,.F.);
#159=ORIENTED_EDGE('',*,*,#127,.T.);
#160=ORIENTED_EDGE('',*,*,#118,.T.);
#161=ORIENTED_EDGE('',*,*,#121,.T.);
#162=ORIENTED_EDGE('',*,*,#128,.T.);
#163=ORIENTED_EDGE('',*,*,#113,.T.);
#164=ORIENTED_EDGE('',*,*,#129,.T.);
#165=ORIENTED_EDGE('',*,*,#128,.F.);
#166=ORIENTED_EDGE('',*,*,#120,.F.);
#167=ORIENTED_EDGE('',*,*,#116,.T.);
#168=ORIENTED_EDGE('',*,*,#119,.T.);
#169=ORIENTED_EDGE('',*,*,#127,.F.);
#170=ORIENTED_EDGE('',*,*,#129,.F.);
#171=ORIENTED_EDGE('',*,*,#130,.T.);
#172=ORIENTED_EDGE('',*,*,#126,.T.);
#173=ORIENTED_EDGE('',*,*,#131,.T.);
#174=ORIENTED_EDGE('',*,*,#110,.T.);
#175=ORIENTED_EDGE('',*,*,#130,.F.);
#176=ORIENTED_EDGE('',*,*,#132,.T.);
#177=ORIENTED_EDGE('',*,*,#131,.F.);
#178=ORIENTED_EDGE('',*,*,#132,.F.);
#179=CYLINDRICAL_SURFACE('',#208,1.6);
#180=CYLINDRICAL_SURFACE('',#217,5.95);
#181=CYLINDRICAL_SURFACE('',#226,7.25);
#182=ADVANCED_FACE('',(#28),#179,.F.);
#183=ADVANCED_FACE('',(#29,#16),#20,.T.);
#184=ADVANCED_FACE('',(#30),#21,.T.);
#185=ADVANCED_FACE('',(#31),#22,.T.);
#186=ADVANCED_FACE('',(#32),#15,.T.);
#187=ADVANCED_FACE('',(#33),#180,.T.);
#188=ADVANCED_FACE('',(#34,#17),#23,.T.);
#189=ADVANCED_FACE('',(#35),#24,.T.);
#190=ADVANCED_FACE('',(#36),#25,.T.);
#191=ADVANCED_FACE('',(#37,#18),#26,.T.);
#192=ADVANCED_FACE('',(#38,#19),#27,.F.);
#193=ADVANCED_FACE('',(#39),#181,.T.);
#194=CLOSED_SHELL('',(#182,#183,#184,#185,#186,#187,#188,#189,#190,#191,
#192,#193));
#195=DERIVED_UNIT_ELEMENT(#197,1.);
#196=DERIVED_UNIT_ELEMENT(#339,-3.);
#197=(
MASS_UNIT()
NAMED_UNIT(*)
SI_UNIT(.KILO.,.GRAM.)
);
#198=DERIVED_UNIT((#195,#196));
#199=MEASURE_REPRESENTATION_ITEM('density measure',
POSITIVE_RATIO_MEASURE(7850.),#198);
#200=PROPERTY_DEFINITION_REPRESENTATION(#205,#202);
#201=PROPERTY_DEFINITION_REPRESENTATION(#206,#203);
#202=REPRESENTATION('material name',(#204),#336);
#203=REPRESENTATION('density',(#199),#336);
#204=DESCRIPTIVE_REPRESENTATION_ITEM('Steel','Steel');
#205=PROPERTY_DEFINITION('material property','material name',#346);
#206=PROPERTY_DEFINITION('material property','density of part',#346);
#207=AXIS2_PLACEMENT_3D('',#283,#227,#228);
#208=AXIS2_PLACEMENT_3D('',#284,#229,#230);
#209=AXIS2_PLACEMENT_3D('',#286,#231,#232);
#210=AXIS2_PLACEMENT_3D('',#289,#234,#235);
#211=AXIS2_PLACEMENT_3D('',#290,#236,#237);
#212=AXIS2_PLACEMENT_3D('',#299,#242,#243);
#213=AXIS2_PLACEMENT_3D('',#305,#247,#248);
#214=AXIS2_PLACEMENT_3D('',#309,#251,#252);
#215=AXIS2_PLACEMENT_3D('',#311,#253,#254);
#216=AXIS2_PLACEMENT_3D('',#314,#256,#257);
#217=AXIS2_PLACEMENT_3D('',#315,#258,#259);
#218=AXIS2_PLACEMENT_3D('',#318,#261,#262);
#219=AXIS2_PLACEMENT_3D('',#319,#263,#264);
#220=AXIS2_PLACEMENT_3D('',#323,#267,#268);
#221=AXIS2_PLACEMENT_3D('',#325,#270,#271);
#222=AXIS2_PLACEMENT_3D('',#326,#272,#273);
#223=AXIS2_PLACEMENT_3D('',#328,#274,#275);
#224=AXIS2_PLACEMENT_3D('',#329,#276,#277);
#225=AXIS2_PLACEMENT_3D('',#331,#278,#279);
#226=AXIS2_PLACEMENT_3D('',#332,#280,#281);
#227=DIRECTION('axis',(0.,0.,1.));
#228=DIRECTION('refdir',(1.,0.,0.));
#229=DIRECTION('center_axis',(1.26161707343768E-16,-1.,4.98318558134708E-12));
#230=DIRECTION('ref_axis',(1.,1.26161707342938E-16,-1.66533453693771E-16));
#231=DIRECTION('center_axis',(-1.11022302462516E-16,-1.,3.90540698642339E-18));
#232=DIRECTION('ref_axis',(1.,1.26161707342938E-16,-1.66533453693771E-16));
#233=DIRECTION('',(1.26161707343768E-16,-1.,4.98318558134708E-12));
#234=DIRECTION('center_axis',(0.,1.,0.));
#235=DIRECTION('ref_axis',(1.,1.26161707342938E-16,-1.66533453693771E-16));
#236=DIRECTION('center_axis',(0.,-1.,0.));
#237=DIRECTION('ref_axis',(0.,0.,-1.));
#238=DIRECTION('',(2.96059473233375E-15,0.,-1.));
#239=DIRECTION('',(1.,0.,-4.4054382286864E-33));
#240=DIRECTION('',(4.39658950877445E-33,0.,1.));
#241=DIRECTION('',(-1.,0.,4.4054382286864E-33));
#242=DIRECTION('center_axis',(1.,-1.13288063737261E-16,-4.39658950877445E-33));
#243=DIRECTION('ref_axis',(4.83902550437232E-33,3.90540698642339E-18,1.));
#244=DIRECTION('',(-1.13288063737261E-16,-1.,0.));
#245=DIRECTION('',(4.83902550437232E-33,3.90540698642339E-18,1.));
#246=DIRECTION('',(-1.13288063737261E-16,-1.,0.));
#247=DIRECTION('center_axis',(-4.4054382286864E-33,4.99083566841991E-49,
-1.));
#248=DIRECTION('ref_axis',(1.,-1.11022302462516E-16,-4.4054382286864E-33));
#249=DIRECTION('',(-1.13288063737261E-16,-1.,0.));
#250=DIRECTION('',(1.,-1.11022302462516E-16,-4.4054382286864E-33));
#251=DIRECTION('center_axis',(1.11022302444744E-16,1.,0.));
#252=DIRECTION('ref_axis',(1.,-1.12194587643797E-16,-4.4097086978613E-33));
#253=DIRECTION('center_axis',(1.11022302462516E-16,1.,-3.90540698642339E-18));
#254=DIRECTION('ref_axis',(1.,-1.11022302462516E-16,-4.41428694859836E-33));
#255=DIRECTION('',(-0.707106781186547,0.707106781186548,-8.65956056235493E-17));
#256=DIRECTION('center_axis',(-1.11022302462516E-16,-1.,3.90540698642339E-18));
#257=DIRECTION('ref_axis',(1.,-1.13288063737261E-16,-4.4054382286864E-33));
#258=DIRECTION('center_axis',(-1.13288063737261E-16,-1.,0.));
#259=DIRECTION('ref_axis',(1.,-1.13288063737261E-16,-4.4054382286864E-33));
#260=DIRECTION('',(1.13288063737261E-16,1.,0.));
#261=DIRECTION('center_axis',(1.11022302462516E-16,1.,-3.90540698642339E-18));
#262=DIRECTION('ref_axis',(1.,-1.13288063737261E-16,-4.4054382286864E-33));
#263=DIRECTION('center_axis',(-1.11022302462516E-16,-1.,3.90540698642339E-18));
#264=DIRECTION('ref_axis',(1.,-1.11022302462516E-16,-4.4054382286864E-33));
#265=DIRECTION('',(-1.,1.11022302462516E-16,4.4054382286864E-33));
#266=DIRECTION('',(2.96059473233375E-15,-3.90540698642371E-18,-1.));
#267=DIRECTION('center_axis',(-1.,1.13288063737261E-16,-2.96059473233375E-15));
#268=DIRECTION('ref_axis',(2.96059473233375E-15,-3.90540698642371E-18,-1.));
#269=DIRECTION('',(-1.13288063737261E-16,-1.,0.));
#270=DIRECTION('center_axis',(4.4054382286864E-33,-4.99083566841991E-49,
1.));
#271=DIRECTION('ref_axis',(-1.,1.11022302462516E-16,4.4054382286864E-33));
#272=DIRECTION('center_axis',(-1.11022302462516E-16,-1.,3.90540698642339E-18));
#273=DIRECTION('ref_axis',(1.,-1.11022302462516E-16,-4.4054382286864E-33));
#274=DIRECTION('center_axis',(-1.11022302462516E-16,-1.,3.90540698642339E-18));
#275=DIRECTION('ref_axis',(1.,-1.11022302462516E-16,-4.4054382286864E-33));
#276=DIRECTION('center_axis',(-1.11022302462516E-16,-1.,3.90540698642339E-18));
#277=DIRECTION('ref_axis',(1.,-1.11022302462516E-16,-4.4054382286864E-33));
#278=DIRECTION('center_axis',(1.11022302462516E-16,1.,-3.90540698642339E-18));
#279=DIRECTION('ref_axis',(1.,-1.11022302462516E-16,-4.4054382286864E-33));
#280=DIRECTION('center_axis',(0.,-1.,0.));
#281=DIRECTION('ref_axis',(1.,0.,-4.4054382286864E-33));
#282=DIRECTION('',(0.,1.,0.));
#283=CARTESIAN_POINT('',(0.,0.,0.));
#284=CARTESIAN_POINT('Origin',(1.38631692137435E-10,-43.5999999999071,-4.2999999999083));
#285=CARTESIAN_POINT('',(-1.59999999986137,-44.6499999998857,-4.29999999990307));
#286=CARTESIAN_POINT('Origin',(1.38631824607228E-10,-44.6499999998857,-4.29999999990307));
#287=CARTESIAN_POINT('',(-1.59999999986137,-47.5999999998857,-4.29999999988837));
#288=CARTESIAN_POINT('',(-1.59999999986137,-43.5999999999071,-4.2999999999083));
#289=CARTESIAN_POINT('Origin',(1.38632196784265E-10,-47.5999999998857,-4.29999999988837));
#290=CARTESIAN_POINT('Origin',(1.38626887746796E-10,-47.5999999998857,-4.30000000012557));
#291=CARTESIAN_POINT('',(3.00000000013862,-47.5999999998857,-1.30000000012557));
#292=CARTESIAN_POINT('',(3.00000000013863,-47.5999999998857,-7.30000000012557));
#293=CARTESIAN_POINT('',(3.00000000013862,-47.5999999998857,-2.80000000012556));
#294=CARTESIAN_POINT('',(-2.99999999986138,-47.5999999998857,-1.30000000012557));
#295=CARTESIAN_POINT('',(-1.49999999986138,-47.5999999998857,-1.30000000012557));
#296=CARTESIAN_POINT('',(-2.99999999986138,-47.5999999998857,-7.30000000012557));
#297=CARTESIAN_POINT('',(-2.99999999986138,-47.5999999998857,-5.80000000012557));
#298=CARTESIAN_POINT('',(1.50000000013863,-47.5999999998857,-7.30000000012557));
#299=CARTESIAN_POINT('Origin',(-2.99999999986138,-45.5999999998857,-7.30000000012557));
#300=CARTESIAN_POINT('',(-2.99999999986138,-50.4999999998857,-1.30000000012557));
#301=CARTESIAN_POINT('',(-2.99999999986138,-45.5999999998857,-1.30000000012557));
#302=CARTESIAN_POINT('',(-2.99999999986138,-50.4999999998857,-7.30000000012557));
#303=CARTESIAN_POINT('',(-2.99999999986138,-50.4999999998857,-7.30000000012557));
#304=CARTESIAN_POINT('',(-2.99999999986138,-45.5999999998857,-7.30000000012557));
#305=CARTESIAN_POINT('Origin',(-2.99999999986138,-45.5999999998857,-1.30000000012557));
#306=CARTESIAN_POINT('',(3.00000000013862,-50.4999999998857,-1.30000000012557));
#307=CARTESIAN_POINT('',(3.00000000013862,-45.5999999998857,-1.30000000012557));
#308=CARTESIAN_POINT('',(-2.99999999986138,-50.4999999998857,-1.30000000012557));
#309=CARTESIAN_POINT('Origin',(1.38626355746048E-10,-50.2999999998857,-4.30000000012557));
#310=CARTESIAN_POINT('',(-5.54999999986137,-50.4999999998857,-4.30000000012557));
#311=CARTESIAN_POINT('Origin',(1.38626333541588E-10,-50.4999999998857,-4.30000000012557));
#312=CARTESIAN_POINT('',(-5.94999999986137,-50.0999999998857,-4.30000000012557));
#313=CARTESIAN_POINT('',(-5.74999999986137,-50.2999999998857,-4.30000000012557));
#314=CARTESIAN_POINT('Origin',(1.38626377950509E-10,-50.0999999998857,-4.30000000012557));
#315=CARTESIAN_POINT('Origin',(1.38626887746796E-10,-45.5999999998857,-4.30000000012557));
#316=CARTESIAN_POINT('',(-5.94999999986137,-46.9999999998857,-4.30000000012557));
#317=CARTESIAN_POINT('',(-5.94999999986137,-45.5999999998857,-4.30000000012557));
#318=CARTESIAN_POINT('Origin',(1.38626729143506E-10,-46.9999999998857,-4.30000000012557));
#319=CARTESIAN_POINT('Origin',(1.38626332635283E-10,-50.4999999998857,-4.30000000012557));
#320=CARTESIAN_POINT('',(3.00000000013863,-50.4999999998857,-7.30000000012557));
#321=CARTESIAN_POINT('',(3.00000000013863,-50.4999999998857,-7.30000000012557));
#322=CARTESIAN_POINT('',(3.00000000013862,-50.4999999998857,-1.30000000012557));
#323=CARTESIAN_POINT('Origin',(3.00000000013862,-45.5999999998857,-1.30000000012557));
#324=CARTESIAN_POINT('',(3.00000000013863,-45.5999999998857,-7.30000000012557));
#325=CARTESIAN_POINT('Origin',(3.00000000013863,-45.5999999998857,-7.30000000012557));
#326=CARTESIAN_POINT('Origin',(1.38626887746796E-10,-46.9999999998857,-4.30000000012557));
#327=CARTESIAN_POINT('',(-7.24999999986137,-46.9999999998857,-4.30000000012557));
#328=CARTESIAN_POINT('Origin',(1.38626887746796E-10,-46.9999999998857,-4.30000000012557));
#329=CARTESIAN_POINT('Origin',(1.38626887746796E-10,-44.6499999998857,-4.30000000012557));
#330=CARTESIAN_POINT('',(-7.24999999986137,-44.6499999998857,-4.30000000012557));
#331=CARTESIAN_POINT('Origin',(1.38626887746796E-10,-44.6499999998857,-4.30000000012557));
#332=CARTESIAN_POINT('Origin',(1.38626887746796E-10,-45.5999999998857,-4.30000000012557));
#333=CARTESIAN_POINT('',(-7.24999999986137,-45.5999999998857,-4.30000000012557));
#334=UNCERTAINTY_MEASURE_WITH_UNIT(LENGTH_MEASURE(0.01),#338,
'DISTANCE_ACCURACY_VALUE',
'Maximum model space distance between geometric entities at asserted c
onnectivities');
#335=UNCERTAINTY_MEASURE_WITH_UNIT(LENGTH_MEASURE(0.01),#338,
'DISTANCE_ACCURACY_VALUE',
'Maximum model space distance between geometric entities at asserted c
onnectivities');
#336=(
GEOMETRIC_REPRESENTATION_CONTEXT(3)
GLOBAL_UNCERTAINTY_ASSIGNED_CONTEXT((#334))
GLOBAL_UNIT_ASSIGNED_CONTEXT((#338,#340,#341))
REPRESENTATION_CONTEXT('','3D')
);
#337=(
GEOMETRIC_REPRESENTATION_CONTEXT(3)
GLOBAL_UNCERTAINTY_ASSIGNED_CONTEXT((#335))
GLOBAL_UNIT_ASSIGNED_CONTEXT((#338,#340,#341))
REPRESENTATION_CONTEXT('','3D')
);
#338=(
LENGTH_UNIT()
NAMED_UNIT(*)
SI_UNIT(.MILLI.,.METRE.)
);
#339=(
LENGTH_UNIT()
NAMED_UNIT(*)
SI_UNIT($,.METRE.)
);
#340=(
NAMED_UNIT(*)
PLANE_ANGLE_UNIT()
SI_UNIT($,.RADIAN.)
);
#341=(
NAMED_UNIT(*)
SI_UNIT($,.STERADIAN.)
SOLID_ANGLE_UNIT()
);
#342=SHAPE_DEFINITION_REPRESENTATION(#343,#344);
#343=PRODUCT_DEFINITION_SHAPE('',$,#346);
#344=SHAPE_REPRESENTATION('',(#207),#336);
#345=PRODUCT_DEFINITION_CONTEXT('part definition',#350,'design');
#346=PRODUCT_DEFINITION('(Unsaved)','(Unsaved)',#347,#345);
#347=PRODUCT_DEFINITION_FORMATION('',$,#352);
#348=PRODUCT_RELATED_PRODUCT_CATEGORY('(Unsaved)','(Unsaved)',(#352));
#349=APPLICATION_PROTOCOL_DEFINITION('international standard',
'automotive_design',2009,#350);
#350=APPLICATION_CONTEXT(
'Core Data for Automotive Mechanical Design Process');
#351=PRODUCT_CONTEXT('part definition',#350,'mechanical');
#352=PRODUCT('(Unsaved)','(Unsaved)',$,(#351));
#353=PRESENTATION_STYLE_ASSIGNMENT((#354));
#354=SURFACE_STYLE_USAGE(.BOTH.,#355);
#355=SURFACE_SIDE_STYLE('',(#356));
#356=SURFACE_STYLE_FILL_AREA(#357);
#357=FILL_AREA_STYLE('Steel - Satin',(#358));
#358=FILL_AREA_STYLE_COLOUR('Steel - Satin',#359);
#359=COLOUR_RGB('Steel - Satin',0.627450980392157,0.627450980392157,0.627450980392157);
ENDSEC;
END-ISO-10303-21;
